<?xml version="1.0" encoding="utf-8"?>
<!-- Generator: Adobe Illustrator 23.0.1, SVG Export Plug-In . SVG Version: 6.00 Build 0)  -->
<svg version="1.1" id="Capa_1" xmlns="http://www.w3.org/2000/svg" xmlns:xlink="http://www.w3.org/1999/xlink" x="0px" y="20px"
	 viewBox="0 -40 632 662">
<style type="text/css">
	.st0{fill:#003333;}
</style>
<path class="st0" d="M154,298.5h-38.4c-10.4,0-18.8-8.4-18.8-18.8v-38.4c0-10.4,8.4-18.8,18.8-18.8H154c10.4,0,18.8,8.4,18.8,18.8
	v38.4C172.7,290.1,164.3,298.5,154,298.5z"/>
<path class="st0" d="M267.8,298.5h-38.4c-10.4,0-18.8-8.4-18.8-18.8v-38.4c0-10.4,8.4-18.8,18.8-18.8h38.4
	c10.4,0,18.8,8.4,18.8,18.8v38.4C286.6,290.1,278.2,298.5,267.8,298.5z"/>
<path class="st0" d="M381.7,298.5h-38.4c-10.4,0-18.8-8.4-18.8-18.8v-38.4c0-10.4,8.4-18.8,18.8-18.8h38.4
	c10.4,0,18.8,8.4,18.8,18.8v38.4C400.4,290.1,392,298.5,381.7,298.5z"/>
<path class="st0" d="M267.8,413.3h-38.4c-10.4,0-18.8-8.4-18.8-18.8v-38.4c0-10.4,8.4-18.8,18.8-18.8h38.4
	c10.4,0,18.8,8.4,18.8,18.8v38.4C286.6,404.9,278.2,413.3,267.8,413.3z"/>
<path class="st0" d="M154,413.3h-38.4c-10.4,0-18.8-8.4-18.8-18.8v-38.4c0-10.4,8.4-18.8,18.8-18.8H154c10.4,0,18.8,8.4,18.8,18.8
	v38.4C172.7,404.9,164.3,413.3,154,413.3z"/>
<g>
	<g>
		<path class="st0" d="M612,463.8c0-70.3-49-129.2-114.8-144.4c-10.8-2.5-22-3.8-33.5-3.8c-3.2,0-6.4,0.1-9.6,0.3
			c-71.8,4.6-129.7,60.3-137.7,131.1c-0.6,5.5-1,11.1-1,16.7c0,10.7,1.2,21.1,3.3,31.1c14.4,67,73.9,117.2,145.1,117.2
			C545.6,612,612,545.6,612,463.8z M463.8,561.8c-54.1,0-98-43.9-98-98s43.9-98,98-98s98,43.9,98,98S517.9,561.8,463.8,561.8z"/>
		<polygon class="st0" points="482.9,396.8 449.4,396.8 449.4,449.4 396.8,449.4 396.8,482.9 482.9,482.9 482.9,449.4 482.9,449.4 
					"/>
		<path class="st0" d="M110,0c-9.2,0-16.7,7.5-16.7,16.7V55v40.6c0,9.2,7.5,16.7,16.7,16.7h14.3c9.2,0,16.7-7.5,16.7-16.7V55V16.7
			C141,7.5,133.5,0,124.3,0H110z"/>
		<path class="st0" d="M372.9,0c-9.2,0-16.7,7.5-16.7,16.7V55v40.6c0,9.2,7.5,16.7,16.7,16.7h14.3c9.2,0,16.7-7.5,16.7-16.7V55V16.7
			C404,7.5,396.5,0,387.3,0H372.9z"/>
		<path class="st0" d="M38.3,494.9H275c-2.3-11.6-3.6-23.6-3.6-35.9c0-4,0.2-8,0.4-12H71.7C55.9,447,43,434.2,43,418.4V188.9h411.2
			v88.7c3.2-0.2,6.4-0.3,9.6-0.3c11.4,0,22.6,1.1,33.5,3.1V93.2c0-21.1-17.1-38.3-38.3-38.3h-31.1v40.6c0,22.4-18.2,40.6-40.6,40.6
			H373c-22.4,0-40.6-18.2-40.6-40.6V55H165v40.6c0,22.4-18.2,40.6-40.6,40.6H110c-22.4,0-40.6-18.2-40.6-40.6V55H38.3
			C17.1,55,0,72.1,0,93.2v363.4C0,477.7,17.1,494.9,38.3,494.9z"/>
	</g>
</g>
</svg>
