<svg xmlns="http://www.w3.org/2000/svg" viewBox="0 0 25.02 19"><defs><style>.cls-1{fill:#e6e6e6;}</style></defs><title>email</title><g id="Layer_2" data-name="Layer 2"><g id="secFour_about_" data-name="secFour(about)"><path id="emailIcon" class="cls-1" d="M22.05,0H3A2.91,2.91,0,0,0,0,2.85v13.3A2.91,2.91,0,0,0,3,19H22.05a2.92,2.92,0,0,0,3-2.85V2.85A2.92,2.92,0,0,0,22.05,0Zm0,16.48H3c-.24,0-.45-.15-.45-.33V4.61l8.63,7.28a1,1,0,0,0,.63.24h1.46a1,1,0,0,0,.63-.24L22.5,4.61V16.15C22.5,16.33,22.29,16.48,22.05,16.48ZM12.51,9.63,4.12,2.52H20.9Z"/></g></g></svg>