<svg xmlns="http://www.w3.org/2000/svg" viewBox="0 0 30 30"><defs><style>.cls-1{fill:#e6e6e6;}</style></defs><title>instagram</title><g id="Layer_2" data-name="Layer 2"><g id="secFour_about_" data-name="secFour(about)"><path class="cls-1" d="M21.72,0H8.28A8.28,8.28,0,0,0,0,8.28V21.72A8.28,8.28,0,0,0,8.28,30H21.72A8.28,8.28,0,0,0,30,21.72V8.28A8.28,8.28,0,0,0,21.72,0Zm5.62,21.72a5.62,5.62,0,0,1-5.62,5.62H8.28a5.62,5.62,0,0,1-5.62-5.62V8.28A5.62,5.62,0,0,1,8.28,2.66H21.72a5.62,5.62,0,0,1,5.62,5.62V21.72Z"/><path class="cls-1" d="M15,7.27A7.73,7.73,0,1,0,22.73,15,7.74,7.74,0,0,0,15,7.27Zm0,12.8A5.07,5.07,0,1,1,20.07,15,5.08,5.08,0,0,1,15,20.07Z"/><path class="cls-1" d="M23.05,5a2,2,0,0,0,0,3.91,2,2,0,0,0,1.39-3.34A2,2,0,0,0,23.05,5Z"/></g></g></svg>