<?xml version="1.0" encoding="utf-8"?>
<!-- Generator: Adobe Illustrator 23.0.1, SVG Export Plug-In . SVG Version: 6.00 Build 0)  -->
<svg version="1.2" baseProfile="tiny" id="Layer_1" xmlns="http://www.w3.org/2000/svg" xmlns:xlink="http://www.w3.org/1999/xlink"
	 x="0px" y="0px" viewBox="0 0 200 109.4" xml:space="preserve">
<path fill="#B82205" d="M78.7,32.7c0.8,0,1.4-0.1,2.2,0.1c0.7,0.3,1.1,0.5,0.8,1.3c-0.5,1.6,0.4,2.6,1.3,3.8
	c0.5-0.5,0.8-1.2,1.6-0.5c0.7,0.5,0.7,1.2,0,1.8c1.3,1.1,2.4,2.2,2.1,3.9c0.9,0.3,3.2-0.5,3.5-1.2c0.3-0.5-0.1-1.2-0.8-1.1
	c-0.9,0.3-1.2-0.3-1.4-0.9c-0.4-0.8-0.8-1.4-1.3-2.4c0.8,0,1.6,0.3,2.2,0.3c1.4,0,2,0.4,2.1,1.7c0.1,1.6,1.2,3,1.4,4.6
	c0.1,0.7,0.5,0.9,1.2,0.9s1.4,0,2.1,0s1.1,0.3,1.3,0.9c0.4,1.1,0.5,1.1,1.7,1.2c0,0.8,0.3,1.3,0.8,2c1.4,1.7,2.8,3.3,4.6,4.5
	c0.9,0.5,1.1,1.3,1.1,2.1c0.1,0.9-0.1,1.8-0.4,2.8c-0.1,0.4-0.3,0.9-0.1,1.3c0.3,0.4,0.7,0.1,0.9,0.4c-0.4,2.4,0.4,4.1,2.6,5.1
	c0.1,0.4,0,0.8,0,1.2c-0.1-0.1-0.3-0.1-0.4-0.3c-1.1-0.7-1.3-0.5-1.4,0.7c0,0.7-0.3,1.3-0.7,1.8c-0.9,1.4-2,2.8-3.2,4.1
	c0.3-1.8,1.6-3.2,2.2-4.9c-0.4-0.5-0.8-0.1-1.4-0.1c0.1-1.4,0-2.8-0.5-4.1c-0.1-0.4-0.3-0.8-0.4-1.2c-0.4-0.5-0.9-0.7-1.4-0.5
	s-0.5,0.8-0.4,1.3c0.4,1.1,0.7,2.1,0.7,3.3c0,0.7,0.3,1.3,0.3,2c0,1.2-0.3,2.1-1.2,2.9c1.3,0.8,0.9,1.8,0.7,2.9
	c0.5,0.4,1.1,0.8,0.5,1.6c0.9,1.1,0.1,2.4,0.9,3.4l-0.1,0.1c-0.3,0-0.5-0.1-0.5-0.4c0-0.4-0.1-0.8-0.7-0.8s-0.8,0.5-0.7,0.9
	c0.3,1.3-0.9,1.7-1.6,2.4c-0.1,0.1-0.4,0.1-0.7,0c1.2-1.3,1.3-3,2.5-4.2c-0.3-0.5-0.8-0.3-1.2-0.7c1.1-1.7,0.7-2.9-1.2-3.8
	c-0.8,0.4-0.9,0.9-0.7,1.7c0.3,1.1,0.7,2.2-0.3,3.3c-0.4,0.4,0,1.1,0.1,1.6c-1.1-0.1-1.2-0.3-0.9-1.1c0.3-0.7,0.3-1.4,0.3-2.1
	c0-0.5-0.3-0.8-0.8-0.8s-0.7,0.4-0.7,0.9c0,0.8,0.1,1.4-0.3,2.2c-0.1,0.3-0.3,0.4-0.5,0.5c-0.7,0-0.7-0.8-1.3-1.1
	c-1.7,1.3-2.8,3.9-5.7,2.9c-0.4,0.5-0.3,0.9,0.3,1.2c-0.9,1.1-2.2,1.7-3,3c-0.1,0.3-0.4,0.5-0.8,0.7c-3,2-6.2,3.9-9.6,5.4
	c-2.5,1.1-5.1,2-7.5,3.4c-1.3,0.8-2.6,1.2-3.9,1.7c-0.7,0.3-1.1,0.1-1.6-0.4c0.4-0.3,0.8-0.3,1.1-0.3c0.5,0,1.2-0.1,1.6-0.5
	c0.8-0.9,1.7-1.2,2.9-1.3c1.1-0.1,1.8-0.5,2.8-1.1c1.3-0.9,2.8-1.6,4.3-2.1c0.9-0.3,2-0.7,2.5-1.6c-1.2-0.8-2.8-0.7-3.7,0.1
	c-0.5,0.4-1.2,0.3-1.6,0.7L71.4,90c-0.4-0.9-1.2-1.1-2-1.3c-0.4-0.1-0.8,0-0.9,0.4c-0.3,0.5,0.1,0.8,0.4,1.1
	c0.5,0.4,1.1,0.5,1.7,0.4l0.1,0.1c-1.2,1.1-2.6,1.1-3.9,1.7c-0.7-0.8-1.3-1.4-2.5-1.1C63,91.7,62.2,92.6,62,94
	c-0.4,0.1-0.8,0.1-1.2,0.3c-0.3,1.4-0.3,1.4-1.8,1.4c-0.7,0-1.1,0.9-1.8,0.8c0-0.7,0.9-1.2,0.5-1.8c-0.1-0.4-0.5-0.4-1.1-0.4
	c0.9-0.7,2-0.7,2.5-1.6c-0.1-0.9-0.8-0.4-1.3-0.5c-0.3-0.5-0.1-0.9-0.1-1.7c0.7,1.2,1.7,0.5,2.5,1.1c0.5-0.3,0.5-0.9,0.8-1.3
	c0.4-0.5,0.8-0.8,1.6-0.5c1.4,0.8,1.6,0.7,2.1-1.1c1.7,1.3,1.7,1.3,2.4,1.1c0-0.7-0.7-0.4-0.9-0.7c-0.1-0.4,0.1-0.8,0.3-1.2
	c0.3-1.3,0.5-1.3,1.8-0.9c0.4,0.1,0.8,0.1,1.1,0c0.1,0.1,0.1,0.1,0.3,0.3c-0.1,0.5,0,0.9,0.5,0.9c0.4,0,0.9,0,1.2-0.3
	c0.3-0.3,0.3-0.4-0.4-1.3c1.4-0.1,1.1-2.1,2.2-2.5c0.7,0.1,0.5,1.2,1.3,0.9c0.8-0.3,0.4-1.1,0.5-1.7c0.8-0.1,1.4-0.7,2.1-1.2
	c1.8-1.1,1.8-1.7,0.1-2.8c1.1-0.8,2.1-1.4,3.2-2.2c0.4-0.3,0.8-0.5,1.3-0.5c0.8,0.1,1.2-0.4,1.4-1.1c0-0.1,0.1-0.3,0.1-0.4
	c0.7-1.3,1.1-1.3,1.8-0.3c0.9-0.8,0.9-1.2-0.1-2.9c1.1-0.8,0.9-1.6,0.3-2.8c-0.4-0.7-0.7-1.6-0.7-2.4c0-1.3-0.5-2-1.7-2.5
	c0.5-0.9,0-1.6-0.5-2.2c-0.7-0.9-1.1-2-1.7-2.9c-0.8-1.1-1.4-2.2-3-1.4c-0.1,0.1-0.4,0-0.5-0.1c-1.1-0.7-2.2-0.5-3.4-0.5
	c-1.3-0.1-2.6,0.3-4.1,0.3c-0.8,0-1.2-0.7-1.7-0.8c-0.7,0.5,0.1,0.8,0,1.4c-1.6,1.3-3.7,1.8-5.9,2.4c-0.1,0.4-0.4,0.8-0.7,1.2
	c-1.2-0.4-1.8,0.5-2.8,1.1c-1.2,0.8-2.2,1.8-3.5,2.5c-0.3,0.1-0.5,0.3-0.9,0.1c-0.5-1.6,0.1-3,1.1-4.3c0.8-0.9,1.7-1.7,2.8-2.5
	c0.5-0.4,1.2-0.7,1.8-0.4c0.8,0.3,1.2-0.1,1.6-0.8c0.3-0.5,0.4-1.1,0.7-1.6c0.3-0.7,0.7-1.2,1.7-1.2c1.1,0.1,1.7-1.4,1.1-2.4
	c-0.3-0.4-0.8-0.5-1.2-0.1c-0.1,0.1-0.3,0.5-0.7,0.3c-1.1-0.5-1.7,0.1-2.4,0.9c-0.1,0.1-0.3,0.3-0.4,0.3l0,0c0-0.4,0.1-0.9-0.3-1.3
	c-1.4-0.1-1.3,2-2.6,2.1c-0.3-0.3-0.1-0.5,0-0.7c0.3-1.2,0-1.3-1.2-1.6c-1.3-0.3-2.2,0.4-2.9,1.3c-0.1,0.1-0.1,0.3-0.3,0.4
	c-0.5,0.3-1.1,0.4-1.4,0.7c-0.3-0.1-0.1-0.5-0.5-0.8c-1.3,1.8-2.5,3.9-3.9,5.7c-1.6,1.7-2.8,3.7-3.3,5.9c-1.1-0.7-1.1-0.7,0.3-1.8
	c0.1-0.5-0.5-0.7-0.4-1.2c0.1-0.4,0.5-0.7,0.8-1.1c0.4-0.4,0.8-0.8,0.8-1.6c0-0.5,0.7-1.1,1.1-1.4c0.8-0.5,1.2-1.4,2-2
	c0.7-0.5,0.5-1.2,0-1.8c-1.6,0.5-2.6,1.3-2.8,3.2c-1.1-0.3-1.7,0.4-2,1.3c-0.3,0.8-0.8,1.1-1.6,0.9l0,0c0.3-0.9,0.8-1.7,0.9-2.6
	c0.1-0.8,0.8-0.5,1.3-0.3c0.4-1.3,0.3-2.9,1.7-3.5c-0.5-0.8-0.8-1.4-0.4-2.2c0.3-0.4,0-0.9-0.1-1.3c-0.5-0.3-1.1-0.3-1.4,0
	c-0.4,0.1-0.7,0.3-0.9-0.3c-0.3-0.4-0.5-0.1-0.9-0.1c-0.7,0.3-1.2,0.7-1.6,1.3c-0.5,0.1-0.7-0.5-1.2-0.4c0,0-0.1,0-0.1,0.1
	c-3,5-6,10-9.3,14.7c-1.1,1.4-1.8,3.2-2.5,4.9c-0.4,1.2-1.1,2.4-1.4,3.7c-0.5,1.8-0.5,3.7-0.5,5.5c0,1.4,0.3,3-0.3,4.5
	c1.6,0.3,2.8,1.6,4.3,1.7c0.7,0.1,0.1,0.9,0.3,1.3c1.8,0.9,4.1,0,5.5,1.3c2.2-0.8,4.2-0.5,6.2,0c0,0.8-0.5,1.1-0.7,1.6
	c-0.1,0.7,0,1.3,0.4,1.4c1.1,0.4,1.2,1.3,1.3,2.2c0.1,1.1,0.5,1.2,1.4,0.8c0.4-0.3,0.9-0.5,1.2-0.9c0.3-0.3,0.5-0.5,0.9-0.4
	c0.3,0.3,0,0.5-0.1,0.8c-0.5,0.8-0.3,1.4,0.1,2.1c0.4,0.4,0.7,0.9,1.3,0.8c0.7-0.1,0.7-0.8,0.9-1.3c-1.2-0.4-1.3-0.9-1.2-2.1
	c0.1-0.9-0.4-1.8,0.3-2.8c1.1,0,2.2-0.5,3.4,0.1c0.1,0.4,0,0.9,0.4,1.3c-0.5,0.9-1.2,0-1.8,0.3c-0.7,0.7-0.4,1.6-0.4,2.5
	c0,0.4,0.4,0.5,0.7,0.5c1.4,0.1,2.6-0.7,3.8-1.3c0-0.8,0.7-1.3,1.2-1.8c0.4,0,0.8,0.3,1.2,0.5c0.3,0.1,0.4,0.7,0.3,0.7
	c-0.8,0.3-0.4,1.4-1.2,1.7c-0.4,0.1-0.5,0.5-0.8,0.9c-0.4,0.7-0.9,1.1-1.6,1.2c-0.3,0-0.4-0.3-0.5-0.5c-0.3-0.4-0.7-0.8-1.2-0.7
	c-0.5,0.1-0.7,0.5-0.5,1.1c0,0.1,0,0.3,0,0.3c-0.8,0.7-1.8,0.7-2.6,1.4c-0.3,0.3-1.1,0.1-1.4-0.3c-0.1-0.4,0.8-0.8,0.1-1.2
	c-0.5-0.3-1.1-0.3-1.4,0.3c-0.1,0.7,0.7,0.7,0.8,1.1c0.1,0.4-0.1,0.8,0.1,1.3c-0.8,0.1-1.1-0.3-1.3-0.7c-0.4-0.4-0.9-0.7-1.3-0.1
	c-0.8,0.7-1.3,1.6-1.6,2.5c0.4,0.5,0.9,0.1,1.2,0.5c0,0.1,0.1,0.4,0,0.5c-0.3,0.3-0.7,0.7-0.8,0.9c-0.4,0.5-0.3,1.1,0.4,1.2
	c0.5,0.1,1.3,0.3,1.7,0c0.7-0.5,1.4-0.4,2.2-0.5c0.5-0.9,0-1.2-0.7-1.6c-1.7-0.7-1.7-0.8-1.4-2.4c0.8,1.2,2.1,0.8,3.2,0.9
	c0.3,0.5-0.4,0.7-0.3,1.2c0.7,0.1,1.2,0.5,1.4,1.3c0.3,0.7,0.7,1.3,1.6,1.1c0.9-0.3,0.8-0.9,0.8-1.6c0-0.1,0-0.3,0-0.4
	c0.4-0.4,0.9-0.1,1.3-0.3l0,0c-0.4,0.4-0.7,0.9-0.4,1.6c0.5,0.4,1.4,0.3,2.1,0.4c0.4,0.7,0.3,1.2-0.3,1.7c-0.7,0.7-1.3,0.4-2,0
	c0.1-0.4,0.4-0.4,0.7-0.5c0.3,0,0.4-0.3,0.5-0.4c0-0.3-0.1-0.5-0.4-0.5c-0.4-0.1-2.4,0.5-2.6,0.8c-0.7,0.9-0.7,0.9-2,0.7
	c-0.4-0.4,0-1.6-1.2-1.2c-0.5,0.1-1.6,0-1.2,1.3c-1.7,0.4-3.4,0.4-5.3,0.3c0.3-0.8,1.1-0.4,1.3-0.8c-0.4-1.2-1.1-1.4-2.4-1.2
	c-0.3,0.5,0.4,1.1,0.3,1.6c-0.3,0.1-0.7,0.3-0.8-0.1c-0.4-1.3-1.6-1.2-2.5-1.3c-0.9-0.1-1.3,0.5-1.3,1.7c0.1,0.1,0.4,0.1,0.7,0.1
	c0.1,0,0.4,0,0.5,0c0.3,0.3,0.3,0.5,0.1,0.7c0,0.1-0.1,0.3-0.3,0.5c-0.8-0.8-1.7-1.1-2.8-1.1c-1.6,0-1.8-0.3-1.8-1.8
	c0-0.3,0-0.5-0.3-0.8c-0.7,0-0.7,0.5-0.7,1.1c0,0.5,0.1,1.2-0.3,1.7c-0.3,0.4-0.5,0.7-1.1,0.7c-0.4,0-0.5-0.3-0.5-0.5
	c-0.1-0.5,0.1-0.7,0.5-0.9c0.3-0.1,0.5-0.3,0.7-0.7c-1.3-1.2-2.8-1.3-4.3-1.2c-0.4,0.3-0.1,0.7-0.4,0.9c-0.4,0.1-0.8-0.3-1.2,0
	c-0.4,0.4,0.1,1.2-0.5,1.7c-0.3-0.1-0.7-0.1-1.2-0.3c0.5-1.1-0.1-1.4-0.9-1.6c-0.9-0.3-1.7-0.4-2.6-0.5c-0.5-0.1-1.1-0.3-1.6-0.5
	c-0.7-0.3-0.1-0.5,0.1-0.8c-0.5-0.7-1.4-0.7-2.1-1.1c-0.4-0.3-1.1-0.4-0.7-1.1c0.3-0.5-0.3-0.8-0.5-1.1c-0.7-0.4-1.3-0.8-2.1-0.8
	c-0.1-1.4-0.4-1.7-1.8-2.1c-0.8-0.1-1.4-0.1-1.3-1.3c0,0-0.1-0.1-0.1-0.3c-1.4-1.2-1.8-3-2.9-4.5c-0.7,0-0.9,0.9-1.7,1.1
	c0.1-1.7,1.4-3.4,0.1-5.1C4.7,85,4.6,84.7,3,84.4c-0.1,0.1-0.3,0.3-0.3,0.5c0.4,1.1-0.3,2.1,0.5,3.2c0.3,0.4,0,0.7-0.9,0.8
	c-0.1-0.8-0.3-1.6-0.9-2.1c-0.1-0.1-0.3-0.3-0.3-0.3c0.4-1.1-0.5-2-0.4-3c0.1-0.7,0-1.2-0.3-1.7c-0.1-0.3-0.3-0.5,0-0.8
	c0.1-0.3,0.3-0.7,0.1-0.8c-0.9-0.9,0-2.2-0.5-3.3c-0.3-0.7,0.1-1.6,0.3-2.4c0.1-0.8,0.1-1.7,0.3-2.5c0-0.8,0.1-1.6,0.7-2.2
	c0.5-0.8,0.9-1.6,0.8-2.6c0-0.4,0.1-0.7,0.4-0.9C2.8,66,3,65.8,2.9,65.4c-0.5-0.8,0-1.3,0.4-1.8c1.6-2.4,2.9-4.9,3.5-7.6
	C7,55.5,7,55,7.6,54.9c0.8-0.1,1.2-0.7,1.4-1.3c1.8-3.8,4.2-7.4,7.1-10.5c0.4-0.4,0.7-0.8,1.2-1.1c1.1-0.4,1.3-1.8,2.5-2.1
	c0-1.1,1.1-1.4,1.6-2.1c0.3-0.4,0.7-0.8,1.1-0.5c1.1,0.5,1.2-0.4,1.4-0.9c-0.3-0.7-0.8-1.1-1.4-0.9c0.9-0.4,1.8,0.1,2.6-0.7
	c0.7-0.7,0.9-1.6,1.3-2.6c0.5,0.1,0.5,1.1,1.3,0.8c0.5-0.1,0.9-0.5,1.4-0.8c0.4-0.3,0.7-0.7,0.9-1.1c0.4-0.5,0.8-1.1,1.6-0.5
	c0.4,0.3,0.8,0.1,1.1-0.3c1.1-1.2,2.5-1.4,3.9-1.6c0.9-0.1,1.4-0.4,1.8-1.2c0.3-0.7,0.8-1.1,1.3-1.4c0.8-0.5,1.7-0.9,2.5-1.7
	c0.7-0.7,1.6-0.1,2.4-0.3c0.5,1.4,0.4,1.7-0.8,2.4c-0.8,0.4-0.8,0.4-0.8,1.4c1.3,0.5,3.2-0.1,4.2,1.3c0.7-0.1,0.3-0.8,0.7-1.1
	c0.9,0,2-0.5,3,0.5c0.3-1.2,0.1-2.1,0.1-3c0-0.8,0.3-1.3,0.9-1.6s1.2,0.1,1.6,0.5c0.3,0.5-0.5,0.8-0.4,1.2c0.1,0.5,0.7,0.5,0.9,0.9
	c-0.4,0.7-1.2,0.5-1.6,0.9c-0.1,0.9,0.4,1.3,1.2,1.4c0.7,0.1,1.4,0.1,2.1-0.1c0.7-0.1,1.3-0.3,2.1,0.3c-0.5,1.1-0.1,1.7,0.8,2.2
	c0.8,0.5,1.2,1.6,2.2,2c0.4,0.1,0.5,0.7,0.3,0.9c-0.5,0.7-0.7,1.4-0.4,2.4c0,0.1,0,0.4-0.1,0.5c-0.5,1.4-0.5,1.4,0.9,2.5
	c0.7-0.1,0.8-0.7,1.1-1.1c0.5-0.1,1.1,0,1.6,0s0.8-0.4,0.8-0.8c0-0.4-0.1-0.9-0.8-0.9c-0.4,0-0.8,0-1.3,0c0.4-0.9,1.2-1.2,2.1-1.7
	c0.1,1.4,0.4,2.9,2,3.4c0.8-0.3,0.7-1.1,0.8-1.6c0.7,0.1,0.3,0.8,0.8,0.9c0.8-0.4,0.9-1.1,0.7-1.7c-0.3-0.8-1.4-0.5-1.7-1.2
	c0.1-0.5,0.8-0.3,1.1-0.8c1.2,1.3,2.4,2.4,3.4,3.8c0.8-0.5,1.6-0.7,2.6-0.4c1.8,0.7,2.2,0.1,2.2-1.7c0-0.1,0-0.1,0.1-0.4
	c0.7-0.1,1.3-0.3,1.8-0.8c0.5,0.3,1.1,0.5,1.6,0.8c1.6,0.8,1.7,1.3,0.8,2.8c1.1,1.6,2.6,2.5,4.6,3c0-0.9,0.5-1.7,0.4-2.6
	c-0.9-0.4-1.3,0.5-2.1,0.7c-0.5-1.3-1.8-2.4-1.2-4.1c0-0.1-0.1-0.4-0.3-0.4C79.6,34.2,79.5,33.2,78.7,32.7L78.7,32.7z M32.7,48.7
	L32.7,48.7c0-0.4,0-0.8,0-1.2c-0.1-0.8-0.5-1.1-1.2-0.8c-0.3,0.1-0.5,0.4-0.7,0.7c0.7,1.2,0.3,2.4-1.2,2.8c-0.4,0.9-0.1,2.1-1.1,2.8
	c-0.3-0.3-0.1-0.7-0.1-0.9c-0.1-0.7-0.4-1.3-1.1-1.2c-0.7,0.1-1.1,0.5-0.8,1.3c0.3,0.5-0.3,0.7-0.5,0.9c-1.2-0.7-2-0.4-2.4,1.1
	c-0.3,0.9-0.5,1.8-1.2,2.4c-0.1,0.5,0.4,0.8,0.3,1.3c-0.4,0.7-1.3,0.4-1.6,1.1c0.5,0.8,1.4,1.6,1.3,2.8c-0.7-0.3-1.1-0.8-1.7-0.9
	c-0.1,0.1-0.3,0.1-0.3,0.3c0,0.1-0.1,0.1-0.1,0.3c0.4,0.9,0.9,1.8-0.5,2.4v0.1c-0.3,1.3-0.9,2.5-1.3,3.8c-0.1,0.3-0.1,0.7-0.1,0.9
	c0.1,0.5,0.3,1.1,0.8,1.2c0.7,0.1,1.1-0.3,1.3-0.8c0.4-0.5,0.3-1.1,0.4-1.6c1.2,0.3,1.4,0.1,2-0.9c0.4-0.7,0.5-1.3,0.7-2
	c0.4-1.4,0.7-2.9,2-3.9c0.1-0.1,0.3-0.3,0.3-0.3c-0.4-1.3,0.9-1.7,1.3-2.9c0.3,0.9,0.5,1.7,1.3,1.7c0.7,0,0.9-0.5,1.1-1.1
	c-0.3-0.8-1.2-0.5-1.7-1.2c0.8-0.5,1.6-1.1,1.7-2.2c0-0.1,0.1-0.1,0.1-0.1c0.9,0,0.9-0.9,1.3-1.3c0.5-0.3,0.9,0.3,1.4,0
	c-0.4-0.7,0-1.3,0.7-1.7c1.3-0.8,1.8-2.8,3.8-2.8c0,0,0.1-0.1,0.1-0.3c0.3-1.1,1.2-1.3,2-1.8c1.2-0.8,2.1-1.8,3-2.8
	c0.8-0.8,1.6-1.4,2.9-0.7c0.5-0.9,1.6-0.9,2.1-1.6c-0.1-0.5-0.7-0.7-1.1-0.8c-1.1,0-2.1-0.3-3.2,0.4c-0.9,0.5-1.7,1.1-2.6,1.3
	c-0.7,0.1-0.9,0.5-1.3,1.1c-0.8,0.9-1.4,2.4-3,2.2c-0.4,0.5-0.3,1.3-0.8,1.6c-0.5,0.1-0.9-0.4-1.3-0.3
	C33.3,47.5,33.4,48.3,32.7,48.7z M1.1,80.6c0-0.8-0.3-1.4,0.3-2c0.1-0.1,0-0.5-0.3-0.7s-0.4-0.1-0.7,0C-0.1,78.4,0,79.1,0,79.7
	C0.1,80.1,0.3,80.6,1.1,80.6z M38.8,101.7c0.9,1.1,0.9,1.1,1.8,0C40,101,39.4,101,38.8,101.7z M32.3,55.1c0.7,0.8,0.7,0.8,1.8,0.1
	C33.7,54.1,33.7,54.1,32.3,55.1z M21.3,103c0.1,0.1,0.3,0.3,0.4,0.4c0.4,0.1,0.7,0.5,1.1,0.1c0.1-0.1,0.1-0.3,0.1-0.4
	c-0.1-0.5-0.7-0.7-1.1-0.7C21.6,102.6,21.4,102.6,21.3,103z M79.8,87.1c-0.3-0.7-0.4-1.1-1.1-0.8c-0.3,0.1-0.4,0.3-0.3,0.5
	C78.6,87.5,79,87.5,79.8,87.1z M79.6,39c-0.5-0.4-0.9-0.7-1.4-0.3c-0.1,0.1-0.1,0.4,0,0.5C78.9,39.8,79.2,39.6,79.6,39z M19.9,72.2
	c0-0.3-0.3-0.5-0.5-0.5c-0.3,0-0.5,0.1-0.5,0.5c0,0.4,0.1,0.5,0.5,0.5C19.5,72.6,19.7,72.6,19.9,72.2z M32.7,56.7
	c-0.3-0.7-0.7-0.7-1.2-0.5c-0.1,0.1-0.3,0.3-0.1,0.5c0.3,0.4,0.7,0.3,1.1,0.3C32.6,56.8,32.6,56.7,32.7,56.7z M79.5,40.7
	c-0.8-0.5-0.8-0.5-1.2,0.3C78.7,41.1,79.1,41.1,79.5,40.7z M7.6,91.9c-0.4,0-0.5,0.1-0.5,0.5c0,0.3,0.1,0.5,0.4,0.5
	C7.9,93,8,92.7,8,92.5C8,92.2,7.9,91.9,7.6,91.9z M17.2,42.4c-0.8-0.5-0.8-0.5-1.1,0.1C16.6,42.8,16.8,42.8,17.2,42.4z M9.6,52.9
	c0-0.1-0.1-0.3-0.4-0.3c-0.3,0-0.4,0.1-0.4,0.4c0,0.3,0.1,0.3,0.4,0.3C9.5,53.4,9.6,53.3,9.6,52.9z M56.6,32.5
	c0.1-0.1,0.4-0.3,0.3-0.5c-0.1-0.1-0.3-0.3-0.4-0.3c-0.3,0-0.3,0.3-0.3,0.4C56.3,32.4,56.4,32.5,56.6,32.5z M25,68
	c-0.1,0.1-0.3,0.1-0.4,0.4c0,0.3,0.1,0.4,0.4,0.4c0.3,0,0.3-0.1,0.3-0.4C25.4,68.1,25.2,68,25,68z M8.7,94.6c0-0.4-0.3-0.4-0.5-0.4
	C8,94.2,8,94.4,8,94.4C8.3,94.7,8.4,94.7,8.7,94.6z M58.2,33.2c-0.1,0-0.4,0.1-0.4,0.4c0,0.1,0.1,0.3,0.3,0.3s0.4,0,0.4-0.3
	C58.6,33.2,58.5,33.2,58.2,33.2z M6.2,90.1c0-0.3-0.3-0.3-0.4-0.3c-0.3,0-0.4,0.1-0.3,0.4c0.1,0.1,0.3,0.3,0.4,0.1
	C6.1,90.4,6.2,90.4,6.2,90.1z"/>
<path fill="#B82205" d="M51.1,101.4c1.1-0.7,2.4-0.5,3.5-0.8c0.3-0.1,0.7,0,0.9-0.1c1.3-0.8,1.3-0.8,2.4,0.1
	c0.9-0.1,0.9-1.1,1.3-1.6c0.9-0.3,0.9,0.7,1.3,0.9c0.7,0.3,0.9-0.4,1.3-0.3c0,0.1,0.1,0.3,0.1,0.4c-0.3,0.8-0.9,0.9-1.6,0.9
	c-0.5,0-1.1,0-1.7,0.3c-1.3,0.4-1.6,0.9-0.8,2.1c0.1,0.1,0.1,0.3,0.3,0.4c-0.5,0.3-1.1,0.9-1.7,0.3c0.7-1.1,0.5-1.6-0.7-2.4
	c-1.2-0.8-2-0.7-2.8,0.5C52.6,101.9,51.9,101.4,51.1,101.4L51.1,101.4z"/>
<path fill="#B82205" d="M104.5,81c1.2-1.2,1.3-2.6,2.1-3.9c0.3-0.4,0.1-0.9,0-1.4c-0.4-2-0.3-3.9,0.7-5.8c0.5-1.1,1.1-2.1,1.2-3.3
	c0.7,0.3,0.9,0.7,1.4,1.2c-1.1,0.4-1.2,1.3-1.6,2.2c-0.4,0.9-0.8,1.8-1.1,2.8c-0.3,1.3-0.5,2.6,0.3,3.9c0.1,0.1,0.3,0.4,0.1,0.5
	c-0.7,1.2-0.9,2.6-2.1,3.7C105.3,81.2,105,81.3,104.5,81z"/>
<path fill="#B82205" d="M87.8,88.3c0-0.9-0.1-2,0.4-2.8c0.5-0.3,0.9,0,1.2,0.3c0.8,0.4,1.3,0.1,1.7-0.5c0.9-1.6,2.2-2.8,3.5-3.9
	c0.3-0.3,0.8-0.9,1.3-0.3c-1.2,1.2-2.2,2.4-2.9,3.7c-0.4,0.7-0.7,1.3-1.3,1.7c-0.3,0.3-0.7,0.5-1.1,0.4c-1.3-0.4-2,0.4-2.6,1.2
	C88.1,88.1,87.9,88.1,87.8,88.3L87.8,88.3z"/>
<path fill="#B82205" d="M93.7,90.5c0-1.3,0.8-2.4,1.2-3.5c1.6,0.1,2.2-0.9,2.9-2c0.8-1.2,1.7-2.4,2.8-3.4c0.4-0.5,0.8-0.5,1.1,0.3
	c-0.4,0.3-0.8,0.4-1.1,0.9c-0.9,1.8-2.2,3.4-3.7,4.9C95.8,88.5,94.9,89.6,93.7,90.5L93.7,90.5z"/>
<path fill="#B82205" d="M37.1,55c0.4,0.3,0.7,0.5,0.8,1.1c-2.8,2.8-3.5,6.4-5.1,10c-0.5-0.4-0.7-0.9-0.4-1.6c0.7-2,1.4-3.7,2.5-5.5
	C35.6,57.6,36,56.1,37.1,55z"/>
<path fill="#B82205" d="M41.4,54.1c-1.1,0.9-1.4-0.7-2.1-0.5c-0.5,0.4-0.1,1.1-0.5,1.6c-0.1-0.7-0.5-0.8-1.2-0.7
	c0.8-1.2,1.3-2.1,2-3.2c0.1-0.3,0.4-0.4,0.7-0.3c1.1,0.1,1.7-0.3,2.1-1.6c0,0.8,0,1.4,0,2c0,0.3,0,0.7-0.1,0.7
	C41.1,52.4,41.7,53.4,41.4,54.1z"/>
<path fill="#B82205" d="M72.4,97.8c0.4-2,1.7-2.8,3.7-2.4c1.2-1.6,2.5-2.5,4.7-3c-0.8,0.8-1.6,1.2-2,1.8c-0.1,0.5,0.5,0.5,0.4,1.1
	c-0.9,0.7-0.7-0.7-1.1-0.7c-0.1,0-0.3,0-0.3,0c-0.4,1.2-1.3,1.4-2.4,1.6C74.4,96.5,73.5,96.9,72.4,97.8z"/>
<path fill="#B82205" d="M41,59.1c0,0.8,0.1,1.7-0.4,2.5c-1.1-0.3-1.7,0.4-2.1,1.4c-0.3,0.7-0.5,1.3-1.6,1.3c0.3-1.1,0.8-1.8,1.3-2.6
	c0.5-0.7,1.2-1.3,1.6-2.1C39.8,59.2,40.5,59.2,41,59.1L41,59.1z"/>
<path fill="#B82205" d="M51.9,56.1c0.5-1.2,1.2-1.4,2.2-0.7c0.4-0.3,0.4-0.8,0.7-1.2c0.4-0.1,0.8,0,1.2,0c0,0.1,0.1,0.3,0,0.4
	c-0.1,1.1-0.9,1.7-1.8,2.2c-0.3,0.1-0.8,0.3-1.1-0.1C53.1,55.9,52.6,56.1,51.9,56.1L51.9,56.1z"/>
<path fill="#B82205" d="M65.8,26.1c-0.3,1.4,1.6,2.1,0.9,3.5c-1.1,0.1-2-0.3-2.4-1.4c0.8-0.5,0.4-1.2,0.3-1.8
	C65.1,26.1,65.3,26.2,65.8,26.1z"/>
<path fill="#B82205" d="M51.7,56.3c0.1,0.9,1.1,1.3,1.4,2c-0.3,0.5-0.7,0.9-1.2,0.5c-1.1-0.5-1.6-0.3-1.8,0.8c0,0.1-0.3,0.3-0.4,0.4
	c-0.4-1.1-0.4-1.1,0.3-1.7C50.7,57.9,50.9,56.8,51.7,56.3L51.7,56.3z"/>
<path fill="#B82205" d="M64.1,100.3c0.3-1.1,1.1-1.6,1.1-2.5c0.1-0.7,0.7-0.8,0.9-0.3c0.3,0.4,0.7,0.7,1.1,0.9
	c-0.3,0.5-0.7,1.1-0.7,1.6C65.7,100.6,64.9,99.6,64.1,100.3z"/>
<path fill="#B82205" d="M81.9,90.7c-0.7-0.3-1.3,0.4-2.1,0.3c0.5-1.1,4.1-3.4,5.4-3.5c0.1,0.9-0.4,1.2-1.2,1.3
	C82.9,88.9,82,89.4,81.9,90.7L81.9,90.7z"/>
<path fill="#B82205" d="M59.9,87.1c-0.5,1.1-0.8,2.4-2.4,2.1c-0.8-1.1-0.7-1.6,0.5-2.1C58.6,86.9,59.1,86.9,59.9,87.1z"/>
<path fill="#B82205" d="M108.3,71.8c0.9,0.1,1.2,0.7,1.4,1.1c0,0.4-0.4,0.4-0.4,0.8c1.3,1.1,0.8,2-0.4,2.9
	C107.9,75.1,109.3,73.4,108.3,71.8z"/>
<path fill="#B82205" d="M90,91.5c0-0.4,0.3-0.7,0.5-0.9c0.5-0.5,0.8-1.1,0.3-1.8c0.5-0.4,0.9-0.9,1.7-1.2c-0.3,1.1-0.8,2-0.5,2.9
	c0.1,0.3-0.1,0.8-0.7,0.8C91.1,91.3,90.5,91.7,90,91.5L90,91.5z"/>
<path fill="#B82205" d="M100.5,86.1c0.4-2.6,1.4-3.8,3.2-3.4c-0.5,0.5-0.5,1.4-1.4,1.7c-0.4,0.1-0.7,0.5-0.8,0.9
	C101.3,85.8,100.9,85.9,100.5,86.1z"/>
<path fill="#B82205" d="M82.7,93.1c1.4,0.1,2-0.9,2.9-1.4c0.9,0.9-0.3,1.3-0.5,2c0.8,0.7,0.3,1.2-0.1,1.8c-0.8-0.5-0.3-1.4-0.8-2
	C83.7,93,83.3,93.9,82.7,93.1z"/>
<path fill="#B82205" d="M71.8,97.8c-0.8,0.3-1.4,0.5-2,1.2c-0.5-0.7-1.8,0-2-1.4c0.8,0.3,1.2,0.8,1.8,0.5c0.5-0.3-0.3-0.7,0.1-1.1
	C70.3,96.9,71.1,96.9,71.8,97.8z"/>
<path fill="#B82205" d="M57.3,98.6c-0.5,0-0.8-0.3-1.2-0.4c0.1-0.1,0.1-0.4,0.3-0.4c0.8-0.8,2-0.9,2.9-1.6c0.5-0.4,0.8,0.1,0.8,1.3
	C58.9,97.1,57.8,97.3,57.3,98.6z"/>
<path fill="#B82205" d="M54.3,98.5c-0.8,0.1-1.6,0.4-2.2-0.3c0.7-1.4,1.6-2.1,3-2.1C54.1,96.8,53.5,97.3,54.3,98.5z"/>
<path fill="#B82205" d="M32.5,25.6c1.1,0,0.8-0.8,0.8-1.4c0-1.3,0.1-1.4,1.7-1.3c-1.2,0.7-0.8,1.4-0.5,2.2c-0.5,0.4-0.9,0.8-1.3,1.1
	C32.7,26.2,32.5,26.1,32.5,25.6L32.5,25.6z"/>
<path fill="#B82205" d="M42.2,90.5c-0.1-0.5,0.1-1.1,0.4-1.4c0.7,0.8,1.4,0.3,2.2,0C44.2,90.6,43.8,90.9,42.2,90.5z"/>
<path fill="#B82205" d="M63,30.2c0.1,0.7,0,1.1-0.1,1.6c-1.1,0-1.6-0.9-2.5-1.6C61.4,30,62.2,30,63,30.2z"/>
<path fill="#B82205" d="M107.5,63.5c0.3-1.3-0.1-2.5-0.8-3.5c1.2,0.7,1.6,1.7,1.8,2.9C108.7,63.4,108.5,63.4,107.5,63.5z"/>
<path fill="#B82205" d="M48.5,26c-0.8,0.3-1.2-0.7-2-0.5c-0.7,0.1-1.4,0.7-1.8-0.4C45.9,24.3,47.3,24.7,48.5,26z"/>
<path fill="#B82205" d="M58,26.9c-1.1-0.3-1.3-0.7-0.8-1.3c0.4-0.5,0.8-1.2,1.2-1.8C58.6,24.8,58.4,25.8,58,26.9z"/>
<path fill="#B82205" d="M54.1,20.5c0.9-0.5,1.6-0.3,2.1,0.3c0.5,0.5,0.3,1.2-0.1,1.7c-0.8-0.1-0.7-0.7-0.8-1.1
	C55.2,20.7,54.7,20.8,54.1,20.5z"/>
<path fill="#B82205" d="M65.1,31.8c-0.4,0-1.1,0.1-0.9-0.7c0.1-0.9,0.9-0.5,1.4-0.8c0.4-0.1,0.9,0.1,0.8,0.7
	C66.2,31.8,65.6,31.8,65.1,31.8z"/>
<path fill="#B82205" d="M46,87.5c-0.5,0.3-0.8,1.2-1.6,0.9c-0.7-0.3-0.3-0.9-0.4-1.4C45,86.7,45.5,86.8,46,87.5z"/>
<path fill="#B82205" d="M50.9,22.4c-0.5-0.3-0.5-0.8-0.7-1.1c-0.4,0-1.1,0.4-1.2-0.5c0.9-0.4,1.7,0.1,2.6,0.1
	C51.5,21.8,51.1,22,50.9,22.4z"/>
<path fill="#B82205" d="M61.1,28.2c-0.1,0.9-0.9,1.4-1.6,1.2c-0.1-0.1-0.3-0.3-0.3-0.4c0-0.3,0.1-0.5,0.4-0.5
	C60.2,28.5,60.6,27.9,61.1,28.2z"/>
<path fill="#B82205" d="M90.7,82.7c0.1,1.2-0.8,1.4-1.7,1.7C89.4,83.5,89.9,83,90.7,82.7z"/>
<path fill="#B82205" d="M59.5,53.2c0.1,0.8-0.4,1.4-0.3,2.2C58.2,54.6,58.2,54.4,59.5,53.2L59.5,53.2z"/>
<path fill="#B82205" d="M72.7,32.7c0.8-0.4,1.3-0.1,2,0.5C72.9,33.7,72.9,33.7,72.7,32.7z"/>
<path fill="#B82205" d="M72.4,94c-0.5,0.5-0.3,1.1-0.7,1.4c-0.5,0.1-0.8-0.1-1.2-0.4C71,94.4,71.5,94.3,72.4,94z"/>
<path fill="#B82205" d="M53.8,26.5c0.4-1.1,1.1-0.5,2-0.5C55.1,26.9,54.4,26.6,53.8,26.5z"/>
<path fill="#B82205" d="M98.7,45c0.3,0,0.5,0.3,0.7,0.7c0,0.4-0.3,0.5-0.7,0.5c-0.4,0-0.8-0.1-0.8-0.7C97.9,45.2,98.2,45,98.7,45z"
	/>
<path fill="#B82205" d="M94.4,43.8c0.8-1.6,0.8-1.6,1.6-0.7C95.5,43.4,95,43.7,94.4,43.8z"/>
<path fill="#B82205" d="M72.8,99.4c-0.3,0.7-0.7,1.2-1.3,0.8C71.9,98.9,71.9,98.9,72.8,99.4z"/>
<path fill="#B82205" d="M54.8,24.7c-0.1-0.8,0.3-1.2,0.9-1.3c0.3,0,0.5,0.1,0.4,0.4C56.1,24.4,55.6,24.5,54.8,24.7z"/>
<path fill="#B82205" d="M50.9,97.2c-0.3,0.9-0.8,1.2-1.6,0.9C49.7,97.4,49.7,97.4,50.9,97.2z"/>
<path fill="#B82205" d="M54.3,104.9c0.3-0.5,0.7-0.9,1.2-1.2C55.6,104.8,55.5,105.1,54.3,104.9z"/>
<path fill="#B82205" d="M47.3,23.2c0.5-0.1,1.2-0.9,1.7,0.1C48.5,23.7,48,23.6,47.3,23.2z"/>
<path fill="#B82205" d="M72.7,35.6c-0.9,0.3-1.2-0.4-1.8-0.7C71.8,34.4,72.2,34.8,72.7,35.6z"/>
<path fill="#B82205" d="M77.9,91.8c-0.3,0.5-0.5,0.8-1.1,0.9c-0.3-0.5-0.3-0.9,0.1-1.3C77.4,91.1,77.7,91.5,77.9,91.8z"/>
<path fill="#B82205" d="M85.4,36c0.8,0.3,1.7,0.3,1.2,1.6c-0.7-0.3-0.9-0.9-1.3-1.3C85.3,36,85.3,36,85.4,36z"/>
<path fill="#B82205" d="M37.5,23.1c0.5-0.1,0.9-0.5,1.4-0.3c0,0.5-0.1,0.9-0.5,1.1C37.9,24,37.7,23.6,37.5,23.1z"/>
<path fill="#B82205" d="M50.7,99.7c-0.5,0.1-1.1-0.4-1.7-0.1C49.9,98.6,50.2,98.8,50.7,99.7z"/>
<path fill="#B82205" d="M40.9,22c0.4-0.9,1.1-1.2,1.8-0.9C42.1,21.4,41.8,22.2,40.9,22z"/>
<path fill="#B82205" d="M106.6,59.7c-0.7-1.2-0.5-1.7,0.4-1.8C106.7,58.4,106.3,59.1,106.6,59.7z"/>
<path fill="#B82205" d="M85.6,90.2c-0.3,0.4-0.5,0.5-0.9,0.4c-0.3-0.3-0.1-0.5,0.1-0.8C85.2,89.4,85.3,90,85.6,90.2z"/>
<path fill="#B82205" d="M93.3,40.4c0.4-0.3,0.8-0.3,1.2,0c0.1,0.5-0.1,0.7-0.5,0.8C93.4,41.1,93.2,40.8,93.3,40.4z"/>
<path fill="#B82205" d="M63.2,102.8c-0.7,0.7-1.4,0.5-2.2,0.5C61.8,103.1,62.4,102.7,63.2,102.8L63.2,102.8z"/>
<path fill="#B82205" d="M90,91.5c0.1,0.8,0,1.3-1.1,1.1C89.1,91.9,89.6,91.8,90,91.5L90,91.5z"/>
<path fill="#B82205" d="M77.4,98.1c0.3-0.4,0.7-0.5,1.1-0.5c0.1,0.3,0.1,0.4,0,0.7C78.1,98.8,77.7,98.5,77.4,98.1z"/>
<path fill="#B82205" d="M69.5,99.8c0.4,0.5,0.8,1.1-0.3,1.3C69.1,100.6,69,100.2,69.5,99.8z"/>
<path fill="#B82205" d="M47.4,99.3c0.4,0.7,0.9,0.9,0.4,1.4c-0.1,0.1-0.4,0-0.5-0.1C46.9,100.1,47.6,99.9,47.4,99.3z"/>
<path fill="#B82205" d="M65.7,101.8c0.3,0.4,0.3,0.8-0.1,1.1c-0.1,0.1-0.4,0-0.5-0.1C64.8,102,65.2,101.9,65.7,101.8z"/>
<path fill="#B82205" d="M28.1,28.3c0.8-0.4,1.1-0.3,1.3,0.4C28.9,29.1,28.7,28.6,28.1,28.3z"/>
<path fill="#B82205" d="M87.4,90c0.4,0.3,0.7,0.7,0.3,0.9c-0.1,0.1-0.4,0.1-0.5,0C86.7,90.5,87,90.2,87.4,90z"/>
<path fill="#B82205" d="M64.3,86.8c0.3,0,0.4,0.1,0.4,0.4c0,0.3-0.1,0.5-0.4,0.5c-0.3,0-0.4-0.3-0.4-0.5
	C63.7,86.9,64,86.8,64.3,86.8z"/>
<path fill="#B82205" d="M39.7,20.8c0.1,0.4,0.3,0.8,0.4,1.6c-0.8-0.5-0.7-1.1-0.8-1.4C39.4,20.8,39.6,20.8,39.7,20.8z"/>
<path fill="#B82205" d="M44.4,63.5c-0.1-0.7,0.1-0.8,0.7-0.7C45.2,63.4,45,63.5,44.4,63.5z"/>
<path fill="#B82205" d="M46.3,21.8c-0.3-0.3-0.1-0.5,0.1-0.8c0.1-0.1,0.4,0,0.4,0.3C46.8,21.6,46.7,21.9,46.3,21.8z"/>
<path fill="#B82205" d="M47.2,18.7c-0.4,0.4-0.7,0.4-1.1,0.1C46.4,18.3,46.7,18.5,47.2,18.7z"/>
<path fill="#B82205" d="M68.9,31.8c-0.5-0.4-0.3-0.8-0.3-1.2C69.3,31,69.3,31.4,68.9,31.8z"/>
<path fill="#B82205" d="M69.9,32.9c0.4-0.4,0.8-0.4,1.1-0.1C70.7,33.2,70.4,33.3,69.9,32.9z"/>
<path fill="#B82205" d="M81.9,90.7c0.7,0.7,0.7,0.7,0.1,1.1C81.7,91.4,82,91,81.9,90.7L81.9,90.7z"/>
<path fill="#B82205" d="M51,91.4c0.4,0.5,0.5,0.8-0.3,0.9C50.5,91.9,50.9,91.8,51,91.4z"/>
<path fill="#B82205" d="M67.9,101.3c-0.4,0.5-0.7,0.5-1.1,0.4C67.2,101,67.6,101.3,67.9,101.3z"/>
<path fill="#B82205" d="M77,33.2c0,0.1-0.1,0.3-0.3,0.3s-0.4,0-0.4-0.3s0.1-0.3,0.3-0.3C76.9,32.9,77,33.1,77,33.2z"/>
<path fill="#B82205" d="M52.2,20.1c-0.1,0-0.3-0.1-0.3-0.3c0-0.3,0.1-0.4,0.4-0.4c0.1,0,0.1,0.3,0.1,0.4
	C52.6,19.9,52.4,20.1,52.2,20.1z"/>
<path fill="#B82205" d="M78.5,32.3c-0.5-0.1-0.8-0.3-0.4-0.8C78.6,31.6,78.3,32.1,78.5,32.3L78.5,32.3z"/>
<path fill="#B82205" d="M75.6,98.8c-0.4,0.3-0.8,0.3-1.2,0.1C74.8,98.5,75.2,98.6,75.6,98.8z"/>
<path fill="#B82205" d="M107.9,80.5c-0.1-0.3-0.1-0.5,0.1-0.7c0,0,0.1,0,0.3,0.1C108.3,80.1,108.3,80.4,107.9,80.5z"/>
<path fill="#B82205" d="M71.2,89.7c-0.1,0.4-0.5,0.5-0.9,0.5l-0.1-0.1c0.1-0.3,0.5-0.5,0.8-0.5C71.1,89.6,71.2,89.6,71.2,89.7z"/>
<path fill="#B82205" d="M46.9,98.9c0-0.1,0.1-0.3,0.3-0.1c0.1,0,0.3,0.1,0.3,0.3c0,0.1,0,0.3-0.3,0.3C47.1,99.2,46.9,99,46.9,98.9z"
	/>
<path fill="#B82205" d="M59,56.5c-0.1,0-0.3-0.1-0.1-0.3c0-0.1,0.1-0.1,0.1-0.1c0.1,0,0.3,0,0.3,0.1C59.3,56.5,59.1,56.5,59,56.5z"
	/>
<path fill="#B82205" d="M102.5,50.4c0,0.1-0.1,0.3-0.3,0.3s-0.3-0.1-0.3-0.3s0.1-0.3,0.3-0.3C102.4,50.1,102.5,50.3,102.5,50.4z"/>
<path fill="#B82205" d="M41.4,107.2c0,0.1-0.1,0.1-0.3,0.1c-0.1,0-0.1-0.3-0.1-0.4c0.1,0,0.1-0.1,0.3-0.1
	C41.4,106.9,41.5,106.9,41.4,107.2z"/>
<path fill="#B82205" d="M100.8,48.3c-0.1,0-0.3-0.1-0.3-0.3c0-0.1,0.1-0.3,0.3-0.1l0.1,0.1C101.1,48.3,100.9,48.3,100.8,48.3z"/>
<path fill="#B82205" d="M88.6,93.1c0,0-0.1,0.1-0.3,0.1s-0.3-0.1-0.1-0.3c0-0.1,0.1-0.3,0.3-0.3C88.6,92.8,88.7,92.8,88.6,93.1z"/>
<path fill="#B82205" d="M87.5,88.5c-0.1,0.4-0.4,0.4-0.7,0.1C87,88.4,87.3,88.5,87.5,88.5L87.5,88.5z"/>
<path fill="#B82205" d="M72.3,30.7l0.1-0.1c0.1,0.1,0.1,0.1,0.3,0.3L72.5,31C72.4,30.8,72.3,30.8,72.3,30.7z"/>
<path fill="#B82205" d="M84.9,35.7c-0.1,0-0.3,0-0.4-0.1C84.8,35.3,84.9,35.4,84.9,35.7L84.9,35.7z"/>
<path fill="#B82205" d="M69.4,86.1c0.1-0.1,0.4-0.3,0.4-0.1c0.1,0.3-0.1,0.3-0.3,0.4C69.5,86.3,69.4,86.1,69.4,86.1z"/>
<path fill="#B82205" d="M63.2,102.8c0-0.1,0.1-0.3,0.3-0.3l0.1,0.1C63.5,102.8,63.3,102.8,63.2,102.8L63.2,102.8z"/>
<path fill="#B82205" d="M87.8,88.1c0,0.1-0.1,0.3-0.3,0.3l0,0C87.5,88.3,87.7,88.3,87.8,88.1L87.8,88.1z"/>
<path fill="#B82205" d="M32.5,25.6l-0.1-0.1C32.3,25.4,32.5,25.4,32.5,25.6C32.5,25.4,32.5,25.6,32.5,25.6L32.5,25.6z"/>
<path fill="#B82205" d="M78.5,32.3c0.1,0.1,0.1,0.1,0.3,0.3l0,0C78.6,32.5,78.5,32.5,78.5,32.3L78.5,32.3z"/>
<path fill="#B82205" d="M85,35.7c0.1,0,0.3,0,0.4,0.1L85.3,36C85,36,84.9,36,85,35.7L85,35.7z"/>
<path fill="#B82205" d="M51.9,56.1c0,0.1-0.1,0.3-0.3,0.3l0,0C51.7,56.2,51.8,56.1,51.9,56.1L51.9,56.1z"/>
<path fill="#B82205" d="M69.5,86.3c-0.1,0.1-0.1,0.1-0.3,0.3c-0.1-0.1-0.1-0.1-0.3-0.3c0.1-0.1,0.1-0.1,0.3-0.3
	C69.4,86.1,69.5,86.3,69.5,86.3z"/>
<path fill="#B82205" d="M93.7,90.5L93.7,90.5c-0.1,0.1-0.1,0.1-0.1,0.1C93.6,90.5,93.6,90.5,93.7,90.5L93.7,90.5z"/>
<path fill="#B82205" d="M102.5,79.3c0.1,0,0.3,0.1,0.1,0.3S102.5,79.6,102.5,79.3C102.5,79.4,102.5,79.4,102.5,79.3z"/>
<path fill="#B82205" d="M26.6,54c0.4,0.5,0.7,0.9,0.5,1.4C26.3,55.1,26.2,54.7,26.6,54z"/>
<path fill="#B82205" d="M32.7,48.7c0,0.1-0.1,0.3-0.1,0.4L32.5,49C32.5,48.8,32.6,48.7,32.7,48.7L32.7,48.7z"/>
<path fill="#D0D441" d="M115.1,86.8c0.1-0.3-0.1-0.5-0.1-0.8c2.5-0.7,2.8-1.2,1.4-2.9c0.5-0.9,0.5-2.1,0.7-3.2
	c0.3-1.1,0.5-2.1,1.3-2.9c0.1-0.5-0.7-0.4-0.5-0.8c0.1-0.5,0.4-0.5,0.8-0.7c0.3-0.1,0.5-0.3,0.7-0.7c0.4-1.2,0.8-2.2,1.2-3.4
	c0.1-0.7-0.5-1.1-0.3-1.7c0.7,0.1,1.3,0,1.8-0.3c0.3-0.7-0.4-0.8-0.5-1.3c1.7-3.4,2.4-7.2,3.4-10.8c0.1-0.4,0.7-0.1,0.9-0.5
	c-0.1-0.8,0.3-1.4,0.5-2.1c0.8-2.6,2.4-5.1,2.4-8.1c0-0.1,0-0.5,0-0.5c1.4-1.1,0.5-2.6,1.1-3.8c0.5-1.2,0.7-2.6,0.8-3.9
	c0.3-2,0.7-4.1,1.3-5.9c0.5-1.3,0.8-1.4-1.1-2.5c-0.5,1.6-2,1.8-3.3,2.2c-0.7,0.1-1.3,0.4-2.1,0.1c-0.7-0.1-1.3,0.3-1.3,0.5
	c0,0.9-0.7,0.8-1.2,0.9c-2,0.5-3.8,1.1-5.8,1.6c-1.8,0.4-3.5,0.8-5.4,0.3c-0.3,0-0.5-0.1-0.9,0.4c1.3,1.3,3,1.1,4.6,0.9
	c0,0.1,0,0.3,0,0.4c-3.9,0.3-8,0.7-12,0.3c-1.2-0.1-2.4-0.3-3.5-0.4c-0.3-0.5,0.4-0.8,0-1.3c-0.4-0.4-0.8-0.8-1.4-0.9
	c-0.5-0.1-0.9-0.4-1.4-0.5c-0.8-0.5-0.9-0.9-0.5-1.8c0.3-0.7-0.1-1.8-0.7-2.1S95.1,30.4,95,31c-0.1,0.4-0.1,0.7-0.1,1.3
	c-2.1-1.6-0.8-3.9-1.6-5.8c2.1,0.4,2.8-1.1,3.3-2.6c-0.3-0.4-0.7,0-0.9-0.4c1.3-2,1.3-2,0.7-3c0.8,0.5,1.7,0.4,2.5,0.3
	c1.2-0.4,1.3-0.4,0.9-1.8c1.4-1.6,3.3-2,5.3-2.1c1.4-0.1,2.9-0.3,4.3-0.4c0.4,0,0.7-0.1,0.9-0.4c-0.9-1.1-2.1-0.8-3.4-0.4
	c0.3-0.8,0.7-0.9,1.2-0.9c0.9,0,1.8-0.1,2.8,0c2.1,0.1,4.2,0,6-1.3c-0.8-1.4-2.1,0.1-3-0.5c0.5-0.4,1.1-0.4,1.7-0.4
	c2.8,0,5.4,0,8.1-0.3c1.2-0.1,2.2-0.4,3.3-0.8c0.1-0.1,0.5-0.1,0.5-0.3c0-1.4,1.2-0.9,1.8-1.1c2.9-0.7,5.8-1.3,8.8-1.7
	c0.9-0.1,1.4-0.5,1.8-1.3c0.5,0.3,0.7,0.9,1.3,0.9c0.7-0.3,0.7-0.9,0.9-1.6c0.5,0.5,1.1,0.7,1.8,0.5c1.1-0.3,2.2-0.4,3.3-0.5
	c0.5-0.1,1.1,0,1.6,0.1c0.7,0.1,1.2,0.1,1.4-0.7c0.4,0,0.4,0.5,0.7,0.8c1.4-1.2,3.3-0.9,5-1.2c2.8-0.3,5.5-0.4,8.3-0.3
	c0.7,0,1.4,0,2.1,0.1c0.4,0.1,0.8,0.1,1.2-0.1c0.1-0.1,0.4-0.3,0.5-0.3c1.7,0.9,3.5,0.1,5.3,0.1c3,0,6,0.1,9.2,0.1
	c0.5,0,0.9,0,1.4,0.4c0.1,0.4-0.8,0.9,0.1,1.3c0.7-0.4,0.5-1.1,0.7-1.6c0.8,0,1.2,0.5,1.3,1.2c0.1,0.4,0.1,1.1,0.8,0.9
	c0.8-0.1,0.7-0.8,0.4-1.3c-0.1-0.1,0-0.4-0.1-0.5c1.3,0,2.5,0.1,3.4,0.9c1.2,0.9,2.5,0.9,3.7,0.7c0.7-0.1,1.3-0.3,2,0.3
	c-0.7,0.8-1.7,0-2.2,0.5c-0.1,0.4,0.3,0.7,0.1,1.2c-0.1,0.3,0.4,0.7,0.7,0.5c0.9-0.5,1.6,0.1,2.4,0.5c0.7-1.1,1.6-0.7,2.5-0.3
	c0.4,0.4,0,0.9,0.4,1.1c-0.4,0.5-0.9,0.4-1.3,0.4s-0.8,0-1.1,0.5c-0.3,0.5-0.8,0.3-1.2,0.3c-0.1-0.1-0.3-0.3-0.1-0.3
	c0.4-1.6,0-2.1-1.7-1.8c-0.3,0-0.5,0.1-0.8,0.4c-1.1,0.1-0.9,1.7-2.1,1.6c1.4,1.3,1.4,0.9,0.9,2.4c0.9,0.7,2,0.4,3,0.4
	c1.8,0.1,1.8,0.1,2.8,0.7c-0.5,1.4-0.9,1.8-1.8,1.7c-0.8,0-1.7,0-2.5,0c-0.8,0-1.2,0.3-1.4,1.1c0.9,0.4,1.2,1.2,1.7,1.8
	c-0.9,0-1.8,0.1-2.9,0c0.3-0.4,0.8-0.8,0.1-1.4c-0.4-0.4,0.1-0.7,0.5-0.8c0.1,0,0.1-0.1,0.1-0.3c-0.1-0.3-0.4-0.5-0.8-0.7
	c-0.5,0.4-1.1,0.9-1.3,1.6c0.1,0.7,0.9,0.8,0.8,1.6c-1.2,0.7-1.2,0.7-0.7,2c-0.8-0.1-1.1,0.5-1.1,1.1c-0.8,0.1-1.4,0.3-2.2,0.3
	c-0.1-0.4,0.5-0.7,0.1-1.1c-0.4-0.5-0.8,0-1.2,0c-0.3,0-0.5,0-0.8,0c-0.1,0.3,0,0.4,0.1,0.7c0.1,0.1,0.3,0.1,0.3,0.4
	c-0.3,0-0.7,0-0.9,0c-0.7-1.7-1.2-2-2.8-1.4c-0.5-0.1-0.4-0.9-1.1-0.8c-0.7,1.7-0.5,2,1.7,2.4c-2.4,0.3-4.3,0.8-6.6,0.1
	c-0.5-0.1-1.2-0.1-1.4,0.5c-0.4,0.8,0.5,0.9,0.9,1.3c-0.7,0.1-1.2,0.4-1.7,0.3c-0.5-0.5,0.1-0.8,0-1.3c-1.1-0.4-2.2-0.5-3.4-0.7
	c-4.3-0.1-8.7,0-13.1,0.3c-0.4,0-0.8,0-0.9,0.5c0,0.5,0.4,0.7,0.9,0.7c2,0,4.1,0,6-0.1c2.4-0.3,4.7-0.1,7.1,0.4
	c-5.4,0.1-10.8,0-16.3,0.8c0.8,1.6,0.7,3,0.7,4.6c0,0.8,0,1.4,0.5,2.1c0.3,0.3,0.4,0.7,0,0.9c-0.3,0.3-0.3,0.7-0.3,0.9
	c0,1.3-0.3,2.5-0.4,3.7c-0.3,1.6-1.3,3-0.5,4.6c0,0,0,0.1,0,0.3c-0.8,1.4-0.8,3-1.1,4.6c0,0.4-0.3,0.7-0.4,1.1
	c0.9,1.1,0.8,2.4,0.3,3.4c-1.1,2.1-1.4,4.6-3,6.6c-0.4,0.7,0.3,1.1,0.3,1.6c-1.1,0.1-1.4,0.8-1.3,1.8c0.1,1.4-0.3,2.9-0.8,4.2
	c-0.5,1.2-1.1,2.4-1.2,3.7c0,0.1,0,0.3-0.1,0.3c-1.1,0.4-0.7,1.7-1.3,2.4c-0.1,0.1-0.3,0.4-0.3,0.7c0.4,0.8,0,1.1-0.8,1.3
	c-1.4,0.5-1.3,0.5-1.1,2c-0.3,0.4-0.7,0.4-1.2,0.7c0.7,1.4,0.1,2.5-0.8,3.4c-0.5,0.4-0.1,0.9-0.3,1.3c-0.7,0.5-1.6,0.8-2,1.6
	c0,0.7,0.8,0.5,0.9,1.1c-0.3,0-0.5,0.1-0.9,0.1c-1.7,5.7-4.1,11-6.6,16c-0.7,0.4-0.8-0.3-1.2-0.1c-0.5-1.3-0.3-2.8-0.3-4.1
	c1.4-0.5,1.2-2.1,2-3c0.1-0.1,0-0.7-0.4-0.8c-0.4-0.1-0.8-0.1-0.9,0.4c-0.1,0.3-0.3,0.5-0.4,0.7c-0.3,0.4-0.7,0.5-1.1,0.3
	c0.3-1.1,0.9-1.7,1.7-2.2c-0.1-0.3-0.4-0.4-0.3-0.7c1.1-0.8,2.1-1.7,3-2.8c0.5-0.5,0.5-1.2,0-1.6c-0.4-0.4-1.1-0.9-1.6-0.1
	c-0.1,0.5,0.5,0.7,0.7,1.1c-0.4,0.4-0.7,0.7-1.3,0.4c0-0.5,0.1-1.1,0.3-1.4c0.3-1.3,0.1-2.5-0.9-3.4c-0.4-0.4-1.1-0.4-1.4-0.1
	c-0.5,0.3-0.1,0.7-0.1,1.1c0.1,0.5,0.5,1.1,0.4,1.7c-0.7-0.1-0.7-0.1-1.4,0.3c0.4,0.4,0.1,1.1,0.3,1.4c0.4,0.3,0.8,0,1.2,0.4
	c-0.5,0.8-0.1,2-1.1,2.6c-0.9,0.8-1.6,2.8-0.9,3.8c0.9,1.6,1.2,3.2,0.1,5c0.9,0.5,1.4,1.6,2.6,1.3c-0.3,0.8-0.7,1.6-1.3,2.1
	c-0.7,0.5-0.5,1.2-0.8,2c-1.3-1.1-0.7-2.5-0.9-3.7c0.3-0.3,0.8,0.1,0.8-0.5c0-0.4-0.5-0.5-0.7-0.8c-0.3-1.2,1.4-2.5-0.4-3.5
	c0-0.5,0.8-1.3-0.3-1.8c-0.8-0.4-1.2,0.3-1.8,0.7c1.2,2,0.7,3.8,0,5.7c-0.3,0.7-0.3,1.2,0.4,1.4c-0.3,0.7-1.3,1.1-0.8,2.2
	c-0.1,0.1-0.5,0.4-1.2,0.7c0.8-2,0.4-3.9,1.2-5.9c-0.9,0.1-1.8,0.4-2.6-0.1c-0.3,0.4-0.4,0.8-0.5,1.1c0.3,0.5,0.7,0.3,1.1,0.5
	c0,0.5-0.1,1.3,0.8,1.8c-1.6,0.1-1.7,1.1-1.6,2.2c0,0.5,0.1,1.2-0.5,1.4c-0.8-0.3-0.7-0.9-0.5-1.4c0-0.4,0.3-0.8,0.3-1.2
	c0.3-1.2,0-1.4-1.3-1.4c-0.9,1.8-2.1,3.5-2.4,5.7c-0.1,0.8-0.7,0.8-1.4,0.5c0.9-1.1,1.4-2.1,0.1-3.2l0,0c0-0.5,0.8-0.5,0.8-1.2
	c-0.1-1.3-0.1-1.4-1.8-1.7c-0.4,1.6-1.1,3-2,4.3c-0.1,0.1-0.4,0.1-0.7-0.1c0-0.7,0-1.4,0-2.2c0.3,0.1,0.5,0.7,0.9,0
	c0.4-0.8-0.3-1.1-0.7-1.6c0-0.5,0.7-1.2-0.3-1.7c-0.4,0.7-0.9,1.2-1.4,1.8c-0.3,0.3-0.5,0.7-0.3,1.1c0.5,1.1-0.5,1.3-0.8,2.1
	c-0.7-0.8-0.5-1.4-0.4-2c0.5-1.7,0.7-3.7,1.4-5.4c0.3-0.5,0.4-0.9-0.3-1.4c-0.8,0.1-1.1,0.8-1.3,1.4c-0.3,0.8-0.4,1.6-0.5,2.2
	c-0.1,0.5-0.4,1.1-1.1,1.6c0.1-2.2,1.2-3.8,1.6-5.7c0.4-1.8,1.2-3.4,2.1-5c0.3,0.5,0.4,1.1-0.3,1.6c-0.7,0.4-0.5,1.1,0.1,1.6
	c0.8-0.4,1.2-1.1,1.2-2c-0.3-2,0.7-3.4,2.1-4.6c0.3-0.3,0.7-0.4,0.7-0.9c0-0.4,0.1-0.9-0.3-1.3c-0.4-0.4-0.8-0.1-1.2,0.1
	C115.4,86.7,115.2,86.7,115.1,86.8L115.1,86.8z M137.5,72c-0.4,1.2-0.4,2.2,0.1,3.4c0.7,0,1.1-0.3,1.2-0.8s0.3-0.9,0.8-1.3
	c0.5-0.5,0.1-1.4-0.7-1.4C138.4,71.7,138,71.7,137.5,72z M151.6,26c0.1,0.5,0.8,0.8,0.5,1.6c-0.3,0.4,0.4,0.8,0.9,0.9
	c0.5,0.1,0.9-0.1,0.9-0.7c0.1-0.7,0-1.4-0.7-1.8C152.8,25.4,152.2,25.4,151.6,26z M186.7,20.5c0.4,0.8,1.2,0.8,1.7,0.9
	c0.4,0.1,0.8,0.1,1.1-0.3c0.3-0.5,0.3-0.9-0.4-1.4C188.7,20.7,187.5,19.5,186.7,20.5z M120.9,14.1c-0.8-1.1-1.6-1.4-2.4-1.3
	c-0.3,0.1-0.5,0.3-0.5,0.5c0,0.3,0.1,0.5,0.4,0.5C119.2,13.9,120,14.4,120.9,14.1z M113.8,100.1c1.1-0.5,1.2-1.4,0.5-2.2
	c-0.4-0.4-0.8-0.3-0.9,0.1C113.3,98.8,113.1,99.6,113.8,100.1z M179.2,21.4c-0.4,0.5-1.1,0.9-0.4,1.6c0.4,0.4,0.8,0.1,1.1-0.3
	C180.3,22,179.9,21.6,179.2,21.4z M130,30.4c-0.4-0.5-0.8-0.9-1.3-0.5c-0.4,0.3-0.4,0.8,0,1.1C129.2,31.5,129.4,31,130,30.4z
	 M101.6,36.3c0.8,0.3,0.8,0.3,1.6-0.7C102.2,35.3,102.2,35.3,101.6,36.3z M149.4,7c-0.5-0.5-1.1-0.5-1.4-0.1
	c-0.3,0.3-0.1,0.5,0.1,0.7C148.8,8.1,149,7.7,149.4,7z M130.6,11.1c0-0.4-0.3-0.5-0.5-0.5c-0.4-0.1-0.7,0.1-0.7,0.4
	c-0.1,0.4,0.1,0.5,0.5,0.5C130.2,11.5,130.5,11.5,130.6,11.1z M182.7,18.1c0.5,0.3,0.9,0.3,1.2-0.3C183.4,17.6,183,17.4,182.7,18.1z
	 M96.7,28.6c-0.3-0.3-0.4-0.5-0.7-0.5s-0.3,0.3-0.3,0.4c0,0.3,0.3,0.4,0.5,0.4C96.5,28.9,96.6,28.7,96.7,28.6z"/>
<path fill="#D0D441" d="M103.9,14c-0.1-0.5,0-0.9-0.3-1.3c0.8-0.5,1.7-0.3,2.8-0.3C105.5,13.1,105.3,14.3,103.9,14z"/>
<path fill="#D0D441" d="M107,39.4c1.3-0.4,2.6-0.3,3.8-0.1C109.6,39.8,108.3,40.2,107,39.4z"/>
<path fill="#D0D441" d="M115.1,86.8c0,0.1-0.1,0.3-0.1,0.4c0.3,1.2-0.5,1.8-1.1,2.8C113.5,89,113.9,87.7,115.1,86.8L115.1,86.8z"/>
<path fill="#D0D441" d="M196.1,19.7c-0.7-0.5-0.4-0.9,0-1.4c0.1-0.3,0.5-0.3,0.8-0.1c0.4,0.3,0,0.5,0,0.8
	C196.7,19.3,196.6,19.8,196.1,19.7z"/>
<path fill="#D0D441" d="M102.6,14c-0.3,0.5-0.7,0.9-0.5,1.6c0,0.3-0.1,0.4-0.4,0.4c-0.3,0-0.4-0.3-0.4-0.5
	C101.1,14.7,101.3,14.4,102.6,14z"/>
<path fill="#D0D441" d="M164.8,3.4c0.8-0.3,1.3-0.5,2-0.1C166.4,3.9,166.4,3.9,164.8,3.4z"/>
<path fill="#D0D441" d="M96.2,15.9c0.5-1.3,0.5-1.4,1.3-0.7C97,15.9,97,15.9,96.2,15.9z"/>
<path fill="#D0D441" d="M173.7,3c0.9,0,1.6-0.1,2.2,0.4C175.2,3.6,174.5,3.8,173.7,3z"/>
<path fill="#D0D441" d="M198.4,7.4c0.3-0.4,0.7-0.7,1.1-0.3c0.1,0.1,0.1,0.4,0,0.5C198.9,8,198.7,7.7,198.4,7.4z"/>
<path fill="#D0D441" d="M195.8,13.6c-1.1,0-1.1-0.1-0.5-1.1C196.1,12.7,195.7,13.4,195.8,13.6z"/>
<path fill="#D0D441" d="M117.6,105.5c-0.4,0.3-0.1,1.3-1.2,1.1C116.7,105.9,117.1,105.5,117.6,105.5L117.6,105.5z"/>
<path fill="#D0D441" d="M93.7,21.9c0.4,0.4,0.1,0.7-0.1,0.9c-0.1,0-0.3-0.1-0.3-0.1C93.2,22.3,93.3,22,93.7,21.9z"/>
<path fill="#D0D441" d="M97.5,18c-0.1,0.5-0.4,0.7-0.9,0.8C96.5,18.1,96.9,17.8,97.5,18z"/>
<path fill="#D0D441" d="M194.6,5.6c0.5-0.4,0.9-0.4,1.2,0.1C195.4,6,195,5.9,194.6,5.6z"/>
<path fill="#D0D441" d="M123.1,108.4c-0.1-0.3-0.1-0.7,0-0.9C123.8,107.8,123.5,108.1,123.1,108.4z"/>
<path fill="#D0D441" d="M126.9,10.5c-0.5,0.3-0.9,0.1-1.3,0.1C126,10.2,126.4,10.3,126.9,10.5z"/>
<path fill="#D0D441" d="M113.7,108.5c0,0.1-0.1,0.3-0.3,0.3s-0.3-0.1-0.3-0.3c0-0.1,0.1-0.3,0.3-0.3S113.5,108.4,113.7,108.5z"/>
<path fill="#D0D441" d="M95.8,23.5c-0.3,0.1-0.5,0.3-0.8,0C95.4,23.2,95.5,23.2,95.8,23.5z"/>
<path fill="#D0D441" d="M94,20.7c0.1-0.3,0.4-0.3,0.7-0.1C94.5,20.8,94.2,20.8,94,20.7z"/>
</svg>
