<svg xmlns="http://www.w3.org/2000/svg" viewBox="-1 -4 26 31"><defs><style>.cls-1{fill:#e6e6e6;}</style></defs><title>phone</title><g id="Layer_2" data-name="Layer 2"><g id="secFour_about_" data-name="secFour(about)"><path class="cls-1" d="M23,17.82c-.07-.2-.48-.48-1.24-.86-.21-.12-.5-.29-.88-.49l-1-.58-.87-.5-.41-.29a4.68,4.68,0,0,0-.58-.35,1,1,0,0,0-.47-.11,1.35,1.35,0,0,0-.82.46,8.57,8.57,0,0,0-.89,1,9.71,9.71,0,0,1-.87,1,1.21,1.21,0,0,1-.75.46,1.24,1.24,0,0,1-.37-.08,2.32,2.32,0,0,1-.33-.14,3.61,3.61,0,0,1-.39-.23L12.72,17a17,17,0,0,1-3.83-2.85A16.82,16.82,0,0,1,6,10.27L5.86,10a3.61,3.61,0,0,1-.23-.39,2.32,2.32,0,0,1-.14-.33,1,1,0,0,1-.08-.37,1.21,1.21,0,0,1,.46-.75,8.65,8.65,0,0,1,1-.87,7.83,7.83,0,0,0,1-.9,1.31,1.31,0,0,0,.46-.81,1,1,0,0,0-.11-.47,4.68,4.68,0,0,0-.35-.58l-.29-.41c-.16-.27-.33-.56-.5-.87s-.37-.66-.58-1S6.16,1.5,6,1.29C5.66.53,5.37.11,5.18.05a1,1,0,0,0-.34,0A5.35,5.35,0,0,0,3.68.16,6.85,6.85,0,0,0,2.56.51a4.4,4.4,0,0,0-1.73,2,6.39,6.39,0,0,0-.83,3,5.87,5.87,0,0,0,.06.85,6.65,6.65,0,0,0,.2.94q.15.52.24.78L.83,9c.17.43.26.7.3.8a15.14,15.14,0,0,0,1.35,2.86A24.77,24.77,0,0,0,6,17a24.77,24.77,0,0,0,4.32,3.52,14.86,14.86,0,0,0,2.86,1.35l.8.3.91.33.77.24a7.29,7.29,0,0,0,.94.2,6.11,6.11,0,0,0,.86.06,6.39,6.39,0,0,0,3-.83,4.4,4.4,0,0,0,2-1.73,6.85,6.85,0,0,0,.35-1.12A6.06,6.06,0,0,0,23,18.16,1,1,0,0,0,23,17.82Z"/></g></g></svg>