<svg xmlns="http://www.w3.org/2000/svg" viewBox="0 0 37 21.94"><defs><style>.cls-1{fill:#e6e6e6;}</style></defs><title>tripadv</title><g id="Layer_2" data-name="Layer 2"><g id="secFour_about_" data-name="secFour(about)"><circle class="cls-1" cx="9.15" cy="12.54" r="1.54"/><circle class="cls-1" cx="27.71" cy="12.54" r="1.54"/><path class="cls-1" d="M35.16,7.14A12.16,12.16,0,0,1,37,3.44H30.8A22.49,22.49,0,0,0,18.46,0,23,23,0,0,0,5.8,3.48H0A12,12,0,0,1,1.81,7.15,9.25,9.25,0,0,0,16.49,18.41l2,2.95,2-3A9.26,9.26,0,0,0,35.16,7.14ZM27.43,3.41A9.22,9.22,0,0,0,18.5,12a9.27,9.27,0,0,0-9-8.58,23,23,0,0,1,9-1.75A21.63,21.63,0,0,1,27.43,3.41ZM9.27,20a7.4,7.4,0,1,1,7.39-7.4h0A7.4,7.4,0,0,1,9.27,20Zm21-.42a7.41,7.41,0,0,1-9.5-4.38h0a7.4,7.4,0,1,1,9.5,4.38Z"/><path class="cls-1" d="M9.15,8a4.58,4.58,0,1,0,4.57,4.58h0A4.58,4.58,0,0,0,9.15,8Zm0,7.57a3,3,0,1,1,3-3h0A3,3,0,0,1,9.15,15.54Z"/><path class="cls-1" d="M27.71,8a4.58,4.58,0,1,0,4.57,4.58h0A4.58,4.58,0,0,0,27.71,8Zm0,7.57a3,3,0,1,1,3-3h0A3,3,0,0,1,27.71,15.54Z"/></g></g></svg>