<?xml version="1.0" encoding="utf-8"?>
<!-- Generator: Adobe Illustrator 23.0.1, SVG Export Plug-In . SVG Version: 6.00 Build 0)  -->
<svg version="1.1" id="Layer_1" xmlns="http://www.w3.org/2000/svg" xmlns:xlink="http://www.w3.org/1999/xlink" x="0px" y="0px"
	 viewBox="0 0 362.9 697.5" style="enable-background:new 0 0 362.9 697.5;" xml:space="preserve">
<style type="text/css">
	.st0{fill:#DEE0E2;}
</style>
<path class="st0" d="M105.9,538.8L105.9,538.8c0,0.1,0.1,0.2,0.1,0.3c0,0,0-0.1,0.1-0.1L105.9,538.8z"/>
<path class="st0" d="M250.4,533c0-0.1,0-0.1-0.1-0.2C250.3,532.8,250.3,532.9,250.4,533L250.4,533z"/>
<path class="st0" d="M16.1,205h-14l-0.7-1.5l5-1.3l-1.5-1.6c8.4,2.4,8.1,1.8,15.2-0.9v-15.6c-6.4-0.8-12.9-0.7-19.3-0.2v94.3h15.3
	V205z"/>
<path class="st0" d="M2.5,395.5c0.9-1.8,1.5-3.2,2.4-5.1l4.5,2.5c0.2-0.9,0.8-2,0.6-2.8c-1.7-4.4-2.8-8.8-1.7-13.7H3.9
	c0.7,2.3,3.7,4.6,0.2,6.6l2,5.2l-3.9,0.6c-0.4-2.2-0.9-4.3-1.3-6.4l-0.1,0v8.8H1C1.5,392.7,1.9,393.9,2.5,395.5z"/>
<path class="st0" d="M66.3,560.7l7.7,2.5v61.4H61.9l2.8-3.2l-3.8-0.5l-1.4,4.1c-9.3-1.4-18.5-2.9-27.7-4.7l-9.8-4.4l-4.5,6.8
	c-4.8-3.4-10.5-1-15.8-1.7l2.5,3.7c9.7,3.7,23.4-2.1,31.2,2.6c7.1-1.1,32.8-0.8,39.6,3.1c-0.2,0.9-0.3,1.8-0.5,3l-3.7-2.1
	c-2.7,1.8-5.4,3.7-9.8,6.6c6.7-0.6,23.9,7.5,28.9,3.9c10.8-8.9,34.3,2.4,45.3-6.4c4.8,3.6,9.8,1.9,15.1,2.3
	c-0.4-2.7-0.6-4.6-0.9-7.2l-4.9,2.6c-4.6-2.8-2.1-7.5-2.6-9.7c-2.1-4.3-3.5-7.2-4.8-10l2.7-5.4l-4.4-5.9v9.9l-1.6,0.4l-4.3-9.8
	c4.2-3.2,2.1-31.2,2.3-36.4l7.7-2.9c-0.9-4.5-1.8-9-2.7-13.5l-2.7,1.7l-1-1.1l5-5.6l-4.8-2.4l4.5-2.1l-7-3.4
	c-8.8,9.3-3.7,37.5-3.7,48.9c0,16.6,0.5,33.3-0.3,49.9l-3.9-0.8c4.7-3.9,1.1-7.3-0.1-10.6l2.4-2.5c-3.3-10.9-2.8-21.8-0.6-33.8
	c-0.7-1-1.2-2.1-1.4-3.3c-0.3-5,3.5-22.1,0.5-26.2c3.3-6.2,0.5-12.6,1.6-18.6l-6.2-3.9c3.8-4.4,6.2-8.9,1.5-13.9
	c4.3-3.7,1.7-7.8,2.8-12.1l-12.4,0.6c4.3,2.1,2,5.4,2,9.4l5.8,2.2h-11.9c7.5-3.2,0-8.1,3.8-11.5l-8.2-1.3l0.1-1.4h8.2l2.2-6
	l-3.3-5.2l-2.1,5.9l-3.6-6.8l5.4-7.8l-5.8-8.6l6.7-1.1v-7.6l-8.8-1.1l7.5-3.5c2.2-7.5,1.5-14.4,4.7-20.6l5.3-0.9
	c0-0.4-0.1-0.7-0.1-1.1h-12c-0.3,4.3-0.5,8.2-0.7,12.1H105v-14.2l4.5-0.5l4.1-5.7l7.9,4.1l7.8-5.4c-1.5,21.4-0.8,42.6,1.7,47.5
	c-3.8,3.4-1.4,7.5-2.3,13.7c3.6-3.2,5.4-4.8,7-6.2c-1.1-1.7-1.7-2.7-2.4-3.7l4.4-1.5l-4-1.8c1.5-3.3,3-6.5,2.2-12c0,0.1-0.4,0-1-0.4
	c-2.1-0.7-2.5-0.2-2.9,0.3l-0.7-0.7l1.2-1l-1-0.6l5.4-2.5V458l-4-1.4l3.3-9.2c-0.6-5.3-1-8.8-1.4-12.4l-3.8-1.3l2.5-2.8l-3.9-0.7
	c-0.1,1.2-0.2,2.5-0.3,3.7c-10.7-2.3-20.8-1.1-31.6-1.4c0.4-1.8,3.3-7.8,1.6-10.1c-0.5-0.8,0.1-2.4,0.3-4.2c-4.8-0.4-9.5,0-14.1,1.3
	v-3.4l-11-3.2l2.6-5h-5.7c-0.2,1-0.4,2-0.6,3.1l-8.8,4l4.2,1.6v3.5h-10v9.9c5.4,1.5,10,0.2,14.1-2.5c0.4-1.9,0.7-3.5,1-5.2l1,0.2
	v10.4l-2.7-2.3c-0.7,0.6-1.4,1.3-2.5,2.3H47.5c0.2,3.6,0.3,6.9,0.5,10.8l6-1.7l7.9,0.9c0.4-3.3,0.7-5.6,1-8l1.5,0.1v8.6l6.5-1.7
	c2.8,0.5,4.4,0.8,6.3,1.3c1-3.9,1.6-7.8,2.2-11.5l-5.9-2.8h7.3v15.9c-1.4-0.7-2.7-1.2-3.6-1.6c-1.8,1-3.5,2.2-5.1,3.6l2.4,8.8
	c3.1,1.9,7.3-2.5,8.6,2.3c2,0.2,4,0.2,5.3,0.2v5.6l-2,0.5c-1.1-2-2.2-4.2-3.3-6.2c-11.7-0.2-23.5-0.2-35.3-0.2v10h14.1l0.9-5.8h1.1
	l0.9,6.2c5.5-0.4,10.9,0.8,16.6-1.7c-0.5,1.7-0.8,2.7-1.1,3.7c-14.2,0-31.5,2.5-45.1-2H45v-10.8H31.8l5.1-2.5v-9.4l-8.1-0.7v-1.3
	h16.4v-11.2l-6.9,1.7l-4.8-1.9l-4.6,10.8c0-6.1,0.2-6.5-2.6-12.5h10.4v-8.6l-2.6,2.4l-7.6-4.8c4.9-4.2,1.8-19.6,0.7-25.9l4.2-1.5
	c-0.9-3.7-1.6-7.2-2.6-11.4H38c0.5-3.9,0.9-6.9,1.4-11l-8.3,1.8l-2.4-2.5c3.5-2.2,0-11.4,4.2-11.4c1.3-4,5.8-1.1,7.9-3.6
	c5.1,3.4,10.8,0.6,16.1,1.6c0.4,0.1,0.6,0.9,1.4,2.1h-8.6c0,2.4,0,4.1,0,5.9c0.1,0.8,0.3,1.7,0.6,2.5c9.8,0,18.4-0.1,28.1-0.1l1.3-8
	l1.5,0.1v9.7c1.6-3.3,2.2-4.7,3-6.4h11.1c0.3-2.2,0.6-4,0.9-5.9h1.1c0.4,2.8,0.8,5.6,1.1,8.4l13.8-2.7c0.5-4.2,1.1-8.2-3.9-10.1
	c-4.1,3.1-8.3,2.4-12.5,1.5c9.4-3.3,18.6-1.8,27.9-4.2c-1.2-2-1.9-3.4-2.4-4.3l1.9-4.8l-8.4-1.4c2.4-1.7,8-2.1,10.4-3.2v15l13.8-3.1
	v-10.6l-11.9,1.7c0-0.8,0.1-1.8,0.2-3.4h11.9c0.4-3.2,0.7-5.6,1.1-9.2c1.1,2.6,1.7,3.8,2.5,5.7l1.7-4.8c1.3,3.1,2.6,5.9,3.7,8.5
	c5.5,0,10.7,0,16.2,0.5l-0.2,1.8h-12.7l1.8,2l-1.2,8l10.4,0.8c0,0.5,0,1,0,1.5h-14.6c-5.3,3.1-4,6.6-3.9,9.9
	c6.8,1.5,6.8,1.5,7.4,6.6l-7.2-3.6v12l7.6,1l-0.2,1.5h-9.8v9.7l4.3,1.5l-4.6,2.1c0,10.4,1.3,18,2.6,28.2l7.8-4v4l-0.2-0.2l-1.7,1.5
	l0.7,0.7l1.4-1.7l4.8,5.7c0.6,7.3-4,8.8-8.9,10.7h9.7c1.2,5.5,4.7,7.8,9.2,9.6v6.7l3.8,1.3c0,21.6,3.9,47.2-2.9,68l-2.2-1.9
	l-1.8,1.6c-3.4-1-5.6-4.7-10-3.3l3.7,10.7l3.5-2.3l4.5,3L155,543.2c-4.2,0.7-9-0.8-13.8,1c0.5,1.5,0.8,2.4,1.1,3.5l2.4-2.2
	c6.4,2.3,6.4,2.3,15.3,1.2c0.3-1.8,0.6-3.5,0.9-5.3l1.1,0.1c0.3,1.9,0.6,3.8,0.9,6.2c6.9-0.4,13.7,0.4,20.4-0.4c0-2.5,0-4.2-0.1-5.8
	c-0.6-0.4-1.2-0.8-1.8-1.3l0.6-0.7l1.4,1.6l-0.3,0.3c4.5,0.2,0.3,5.1,1.4,5.5l6.7,1.5c0,0.4-0.1,0.8-0.2,1.1h-14.9l-3,2.9v8.2l5-2
	c1.1,4.8,2.3,9.5,3.5,14.7c4.1-4.9-0.4-8.7-0.5-13.3l7.7,0.5c-4.3,4.8-3.7,9.4-3.1,14l12.1,0.7c0,0.5,0,1,0,1.5H175
	c2.1,3.8-0.4,8.2,4.2,11l1.9-2.4c-0.6-0.4-1.2-0.8-1.8-1.3l0.6-0.7l1.5,1.7l-0.3,0.3c1.5,0.6,2.9,1.4,4.5,2.2l3.1-2l2.2,1.8l6-7.8
	c0.8,3.7,1.2,5.8,1.7,8.3l7.7-1.8c0.3,5.3-4.1,10.1-1.2,16l3.7-0.6v-16l5.4,2.9v8.8l-3.2-6.8v11.8c2-0.1,3.9-0.1,5.9,0.1
	c6,1,10.1,1.8,16.4,2.5v4.9c-2.5,1.7-7.1-0.3-8.1,5.2l7.8-1.3v17.4l-8.3,1.5l8.6,1.7c-10.2,3-21.3-0.6-31.2,3.4h30.5l1.6,4.6
	c14.9-0.9,32.1-4.8,46.5,1.9c5.9-3.5,12.6-1.3,18.8-2.5c0.3-0.1,0.5-1.1,0.6-1.6c-0.6-0.4-1.2-0.8-1.8-1.3l0.7-0.7l1.5,1.7
	c-0.1,0.1-0.2,0.2-0.3,0.3c15.2-0.4,31.3,4.2,45.2-2.7c-17.8,2-33.4-1.6-48.8-2v-33.5c4.1,0,20.2,2.1,22.7-1l-8.2-1.7l5.1-1.2
	c0.8-1.6,1.7-3.5,2.6-5.3l-3.1-3.1h-15.4c0-0.5,0-1,0-1.4l19.3-0.8v-6.6l3.5,3.2l-1.6,3.4l1.3,0.9c1.6-1.1,3.2-2.3,4.4-3.1v-7.9
	c-6.4,0.2-12.5-0.2-18.1,0.2c-0.4,3.3-0.7,5.6-1,7.9l-1.6-0.2v-10l-8.1-0.9l0.1-1.4h7.5l1.9-5.6c0.7,3.4,1.1,5.5,1.9,9.4
	c0.9-4,1.4-6.1,2.2-9.7l5,6.3c0-4.1-1.5-7.4,0.1-10.9c-5.8,0-11.3,0-16.8,0.2l-2.9,6l-2.8-0.2l2.4-8.1c1,0.8,2.1,1.6,3.3,2.3
	c0.1-4.3,33-2.7,35.6-1.2c-0.1,0.9-0.3,1.8-0.4,2.9c-4.8-2.7-9.5-1.9-15.7-1.2c4.8,8,26.2,17.1,34.6,8.7l-2.1-3
	c0.9-1.6,1.5-2.7,2.4-4.3c-2.2,0-3.2,0-4.1,0.1c-0.4,0.6-0.8,1.2-1.3,1.8l-0.7-0.7l1.7-1.5c0.1,0.1,0.2,0.2,0.3,0.3
	c-2.1-4.6-6-1.2-8.8-2.2c-0.6-0.3-1.2-0.6-1.8-1c0.1-0.9,0.2-1.8,0.4-3.2l3.4,2.3l6.5-3.2l-4.1-3.3c-3.4,0-8.1,1.1-10.7-1.5l4.4-3.5
	c0-3.3,0-6.1-2-9.9c-1.1,0.4-1.8-0.5-0.5-0.9c0-0.5,1.3-0.1,2.5,0.2l-1,0.4c-0.5-0.2-0.9-0.5-1.4-0.6c0.3,0.3,0.5,0.6,0.6,0.9
	c0.3-0.1,0.5-0.2,0.8-0.3c5.1,2.7,1.1,7.2,4.2,8.9h14.6l3.3-3.3c-0.3-2.2-0.6-4.7-1-7.8c-1.7,0.8-2.8,1.1-3.4,1.8
	c-0.5,0.7-0.6,1.9-1.1,3.9c-0.9-2.4-1.3-3.6-2-5.4l-4.4,2.2c-1.9-3.1-7.9-0.1-9-6.1c7.4,1,14.5,0.6,21.8,0.1v-5
	c-0.8-0.3-1.7-0.3-3.1-0.3l2.1,3.4c-3.4-1-6.8,2.3-8.6-2.1l1.7-0.7l-1.7-1.4l-1.9-3.6c2.6-10.3-0.2-20.7,1.9-31.5
	c0.2-2,0.1-4.1-0.4-6c-0.2-1.9-0.8-3.8-1.7-5.5c-2.5-4.2,0.1-25.2,0.1-30.6c0-7.6,0-15.2,0-22.8c0.1,0.2,0.2,0.4,0.3,0.6V443
	l2.1-2.1c0-0.1,0-0.2,0-0.3c3.6-3.2,2.5-8.6,5-12.2l4.2-0.3v-1.4l-3.3-1.6c0.2-1,0.4-2,0.8-3.7l2.5,1.1v-3l-5,0.5
	c-0.3,1.6-0.9,2.2-1.8,2.1c0.9,0,1.5-0.6,1.7-2.1h-2c0.7-0.7,1.3-1.3,2-2v2l5.1-0.5v-18.8h-5.7l4.1-4.6c-21.4,4.8-41.5,1.9-60.2,2.8
	l-6-4.2v-1.9l-1.7,0.7l1.7,1.4v5.8l-5.5-5.4c-2,1-4.5,2.3-8.2,3.8c1-3.9-10.7-2.3-13.3-4.4c-0.4,0.6-0.8,1.3-1.3,1.8l-0.7-0.7
	l1.7-1.4l-2.9-2.4c-0.8,2-1.3,3.1-1.7,4.3c-2-0.1-4.8,2.1-5.6-1.8l0.2,0.2l1.7-1.5l-0.7-0.7l-1.5,1.7l0.2,0.2
	c-1.8,0.3-3.5,2.8-5.4,0.2c-6.1,9.1-52.8,0.3-63.4-0.8c0-0.4,0-0.7,0-1.1l10.2-1.1c0-0.5-0.1-1-0.1-1.5c-4.8,0.1-9.6-0.1-14.4-0.5
	c1.3-4.3,6.4,0.7,8.4-3.1l-9.9-1.4l5.4-2V368l-3.9-3.9l7.4-4.8l-18.3-3.6c0.9-5.7,1.8-11.5,2.5-16.5l-6.3-4.1c0-2.9,0-5.3-0.1-7.6
	c-0.6-0.4-1.2-0.8-1.8-1.3l0.7-0.7l1.5,1.7c-0.1,0.1-0.2,0.2-0.3,0.3c2.8-0.9,5.7-1.6,8.6-2.1c31.5-2,64.9,1.6,96.5,2.5
	c29.4,0.8,58.7,2.9,88.1,3.5V326c-1.5-0.1-3-0.2-4.5-0.3c-22.7-0.4-46.8,1.9-69.2-2.6c-28.5,0.6-57-0.7-85.5-1.6
	c-3.7-0.1-7.5-0.1-11.3,0c-3.2,0.2-6.3,0.3-9.3,0.3c-19.3,0.8-39.6,2.4-57.1-1.4c9.5-2.4,21.8-0.1,30.8-4.9
	c-9.5-0.9-32.9-3.1-41.9,1.4c-5.6,4-11.8,1.2-17.4,2.2l-4-4.9l4.9-3.3c0.4-5,0.8-8.8-1.2-12.3l1.3-1.4c-0.8-1.1-1.5-2.2-2.1-3
	c1-1.8,1.8-3.2,1.8-3.2c-3.9-22.3-1.6-46.5-1.6-69.2c0-22.3-3-47.1,1.9-68.8c-7.1-6-1.4-37.1-0.7-45.5c0.6-6.6,3.7-36.5-1.3-40.2
	c5.8-6.6,2.5-30.4,1-38.6c1-1,2-2,3.4-3.4l-4.6-3.1V0H85.2v64.8h-1.7c-0.1-3.5,0.8-8.2-2.4-10.3c-0.4,0.6-0.8,1.2-1.3,1.8l-0.7-0.7
	l1.7-1.5c0.1,0.1,0.2,0.2,0.3,0.3c1-12.7-3.9-24.9-3.1-37.6c-5.6,19.7,0.6,42.4-3.2,62.5V68.8l-5,0.7l3.1,6.4L67.6,80
	c-1-2.1-1.6-3.5-2.4-5.1c-3.7,0.8-7.2,4.4-11.8,1.1c1.3-2.7,2.7-5.6,4.1-8.4l-7.3-2.4c-0.1,0.4-0.8,1.3-0.6,2.1
	c0.6,3.1,1.5,6.1,0.7,10.3c-0.3-1.3-0.5-2.7-0.7-4l-2,1.4V65h-6.4v10l-1.5,0.1c-0.2-3.2-0.5-6.3-0.8-10.3l-7.1-2.9
	c-1.3,4.4-0.1,6.4,1.4,10.7l-7.8,0.7l-1.8-4.7c-0.8,1.8-1.4,3-2.2,4.8l-3.7-3.8c1-2.7,1.8-5.2,3-8.4l-7.4-0.9c-3.4,3.8,1,6.4,1,10
	l-4,0.8V62c-2.4-3.1-4.8-4.8-7.6-3.3c0.4,4,0.8,7.8,1.3,11.8l-3.2,0.4v69.9c0.3,0.1,0.5,0.2,0.7,0.4l-0.7,0.7v38.8
	c2.2-0.5,4.4-1,6.6-1c8.1-0.2,15.5,4.6,23.7,1.2l-4.9-2.4l4.7-1.4v-33.5l3.1,2.5l2.5-2.1l1.7,8.7c0.8-4.1,1.1-6,1.6-8.8l5,1.9
	c3.3-4.8,4.1-10,0-15.4l4.3-1.2c0.3,2.1,0.6,4,0.9,6c0.5-0.1,1.4,0,1.4-0.1c0.7-6.3,12.1-9.5,16.7-11.9c0.3-2.2,0.4-3.8,0.7-6.2h5.9
	c2.8-6.1,3-13.2,7.3-18.8c6.2,6.2,3.3,41,3.3,50.3c0,19.4-0.1,38.8-0.1,58.2H74.8v62.5c-4.5-0.4-2-54.1-2-61.5
	c-1.7-1.5-15.7,1.1-16.6,1.1V281c1.1,1.4,16.4,1,18.7,1.2c-0.4,1.5-0.7,2.9-1.2,5.2c1.9,2.9,2.1,6.4-2.1,9l-2.4-2.2l-6.6,2.8v-12.6
	l-5.8-0.5c-2.2,4.1,1.7,4.9,3.3,7.5l-5.8,4.1c-3.1-1.7-7.8-2.5-13-2.9c-0.2,0.6-0.4,1.1-0.7,1.8c-0.3-0.7-0.6-1.3-0.9-1.9
	c-7.1-0.4-14.7-0.3-19.5-1.1v-9.5h-1.4l-0.7,10l-3.4,0.6c-0.4-3.5-1.6-6.7,1.8-9.7l-8.2-2.6v6.4l5.5,5.2H6.2
	c-0.2-3.5-0.4-7.5-0.6-11.8H0.8v94.5h11v13.6l5.9,0.9v14.2h-1.2c-0.2-4.2-0.5-8.4-0.7-12.6h-1.4c-0.1,3.3-0.3,6.6-0.5,10.7l-7.1,2.3
	c-0.8-2-1.2-3.1-2-5l-2.2,5l-1.8-1v5.6c0.8,0.3,1.6,0.8,2.4,1.3c0.2-1.1,0.4-2,0.8-4l2.9,1.7l2.2-1.9c0.6,2.5,2.6,4.9-1.2,6.4
	l-0.1,2.1c-2.4-0.1-4.8-0.6-7-0.9v3.2c2.6,0,5.2-0.6,7.6-1.8c0.9,0.8,1.4,2,1.3,3.3H0.8v11.1h6.9v5.6H0.8v4.5l0.4,0v8.3H0.8v29.8
	h8.9c1,4.6,2,9,2.9,13.3l-6,2.4l-5.8-2.3v26.2c3.4-0.8,6.6-1,9.4,3.1c-3.7,0.9-6.8,1.4-9.4-1.2v38l4.8-1.3L3.8,552h10.6l-2.3,2.9
	c0.8,0.4,1.6,0.7,2.4,0.9c1,0.1,2.1,0.1,3.1,0c0.5-1.3,0.9-2.5,1.6-4.3l3.4,5.9H0.8v2.6c7.2,0.1,14.4,0.2,21.6,0.2
	C37.7,560.2,51.8,563.2,66.3,560.7z M134.9,614.5v3.6l-1,0.7l-2-4.3H134.9z M80.9,461.1h-2.1v-0.7h2.1V461.1z M81.1,564.8l3.5-0.8
	c0,0.6,0.1,1.2,0.1,1.8h-3.5C81.3,565.6,81.3,565.2,81.1,564.8z M81.5,572.6l-0.2-1.8h3.5l0.2,1L81.5,572.6z M111.3,550.6l-1.1-1
	c0.1,0.6,0.1,1.2,0.1,1.8c-0.6-0.3-1.2-0.7-1.7-1.1l1.6-0.7c0-1.2,0.1-2.5,0.2-4.1l4,0.3C113.2,547.6,112.3,549.1,111.3,550.6z
	 M115.3,554c-1.6-0.8-2.8-1.4-3.7-1.9c0.5-0.2,1-0.3,1.6-0.4C113.5,551.7,113.9,552.5,115.3,554z M110.3,552.6l0.9-0.3
	C112.4,553.2,111.3,552.9,110.3,552.6z M113.9,610.2h-1.1V606h1.1V610.2z M112.5,597.9l1.4-0.2l0.7,3.4
	C112.6,599.5,112.6,598.7,112.5,597.9z M114.5,602.8l0.3-0.1C116.4,603.3,115.4,603,114.5,602.8z M117.9,614.3h-0.7v-2.1h0.7V614.3z
	 M116.1,602.2c1.6-0.8,2.8-0.1,3.5,2.1C118.2,603.4,117,602.8,116.1,602.2z M116.5,592.7V592h2.1v0.7H116.5z M120.6,583.8l-6.4,2.1
	l0.1,0.1l-1.3-0.8l-1.3,3.7c-1.9,0.2-1.9,0.2-0.7-11.9h4.7l0.7,0.9c-1.5,1.4-2.9,2.9-4,4.7L120.6,583.8z M111,568.4v-2.1h0.7v2.1
	H111z M112.4,571.1l3.4-0.7c-1.5,1.9-2.3,1.9-3.2,2L112.4,571.1z M117.4,570.1c0.7-1.6,0.4-0.6,0.1,0.3L117.4,570.1z M119,565.4
	c-0.8,1.4-1.4,2.5-2,3.4c-0.1-0.4-0.3-0.9-0.3-1.3C116.6,567.2,117.4,566.8,119,565.4z M110.5,561.7v-3.5l7.8,3.5H110.5z
	 M117.3,555.8h0.7v2.1h-0.7V555.8z M105.7,520.7c0.1,0.3,0.1,0.7,0.2,1l-3.4,0.8c-0.1-0.6-0.1-1.2-0.2-1.8H105.7z M111.3,533.3
	l5.3,3.8h-6.3l0.2-0.2l-1.5-1.7l-0.7,0.7l1.7,1.5l0.2-0.2c-0.2,3-2.5,1.8-4.1,2c0,0,0,0-0.1-0.1c-0.3,0.7-0.7,1.4-1.1,1.9l-0.7-0.7
	l1.6-1.4c-1.4-1.8-2.6-3.5-4-5.5L111.3,533.3z M102.1,542.2l-3.9-3.6c0.8-1.1,2-1.7,3.3-1.9C101.7,538.3,101.8,539.4,102.1,542.2z
	 M97.6,456.9h-2v-0.7h2.1L97.6,456.9z M99.2,507.6c0.1,0.6,0.1,1.2,0.2,1.8h-3.5c-0.1-0.3-0.1-0.7-0.2-1L99.2,507.6z M97.6,460.4
	v0.7h-2v-0.7H97.6z M97.6,468.7v0.7h-2v-0.7H97.6z M99.2,520.2l0.1,1.8h-3.5c-0.1-0.3-0.1-0.7-0.1-1L99.2,520.2z M99.3,440.8
	l0.2,1.9H94c0-0.4-0.1-0.7-0.1-1.1L99.3,440.8z M95,493.1v2.1h-0.7v-2.1H95z M92,514.7l-6.1,3.2l-4.5-6.8c0.8-3.9,1.5-7.2,2.5-11.3
	l5-2.2l3.6,3.2l-4.6,0.9C89.3,506,90.6,510.3,92,514.7z M84.1,485.3c2.4-0.3,4.7-0.4,7.1-0.3c-0.3,0.8-0.4,1.6-0.6,1.6
	C86.8,486.9,86.6,486.9,84.1,485.3z M90.2,494.6l-4.4,0.9v-6.3L90.2,494.6z M91.3,424.7l-5.4,4.4c-0.4-2-0.6-2.9-0.9-4.4H91.3z
	 M85.6,453.2v-5.9H89v5.9H85.6z M83.3,470.4h7.9c0.1,1.3,0.2,2.9,0.4,5.1l-9,7.2v1.2C79.1,479.1,84.1,475.2,83.3,470.4z M80.6,520.2
	c0,0.6,0.1,1.2,0.1,1.8h-3.5l-0.1-1L80.6,520.2z M77.6,518.2v-2.1h0.7v2.1H77.6z M76.9,508.5H79v0.7h-2.1V508.5z M83.4,529l5.8-0.7
	v-8c3.7,1.5,2.2,7.8,2.2,11.3l-7.1,4.5c1.8,0.4,3.1,1.2,3.6,0.8c2.3-1.6,4.4-3.1,7.6-1.2l-2,2.6l4,1c0.2,1.2,0.2,2.4,0.2,3.6
	l-8.1-2.8l-14,1.4L83.4,529z M53.2,557.9h-0.7v-2.1h0.7V557.9z M53.2,547.5h-0.7v-2.1h0.7V547.5z M62.2,546.8h-2.1v-0.7h2.1V546.8z
	 M68.4,524.9h1.9v5.5l-1.1,0.1L68.4,524.9z M68.5,533.5h2.1v0.7h-2.1V533.5z M69,547.5l-0.1-1.8h3.5l0.1,1L69,547.5z M72.3,481
	c0,0.4,0.1,0.7,0.1,1.1l-5.5,0.8l-0.2-1.9H72.3z M60.1,508.3h14.6v1H60.1V508.3z M72.3,520.7c-11.2,4.4-27.2,1.7-39,1.7
	c0-0.6,0-1.2,0-1.8L72.3,520.7z M38.5,532.9v2.1h-0.7v-2.1H38.5z M52,508.5l3.5-0.8l0.1,1.8h-3.5L52,508.5z M49.7,481.2H56v1h-6.3
	V481.2z M35.8,482.7h0.7v2.1h-0.7V482.7z M47.2,509.6h-18C35.1,506.8,41.2,508.4,47.2,509.6z M29.1,455.9l1-0.1
	c0.3,1.2,0.5,2.4,0.8,3.5l-1.8,0.1V455.9z M30.2,463.9v2.1h-0.7v-2.1H30.2z M32.6,468.4c0,0.3,0.1,0.7,0.1,1l-3.5,0.8l-0.1-1.8H32.6
	z M28.8,483.4h2.1v0.7h-2.1V483.4z M30.4,520.3l0.1,1.8H27c0-0.3-0.1-0.7-0.1-1L30.4,520.3z M28.1,539.1v2.1h-0.7v-2.1H28.1z
	 M43.7,545.6c-0.5-4.6-0.9-8.3-1.3-12.4H62v7.4l-1,0.2l-1.4-5.6H45.9v9.7l3.8,1.3c-7.6,1.4-15.5,1.2-23-0.6L43.7,545.6z
	 M151.4,369.9h-0.7v-2.1h0.7V369.9z M150,388h-2.1v-0.7h2.1V388z M151.6,409.6h-1v-4.2h1V409.6z M177.5,555.5V552l1-0.2
	c0.3,1.1,0.5,2.3,0.8,3.4L177.5,555.5z M181.3,580.2h-2.1v-0.7h2.1V580.2z M185.5,582.3h-2.1v-0.7h2.1V582.3z M191.8,582.5h-4.2v-1
	h4.2V582.5z M310.5,598l0.1,1l-5.5,0.8l-0.2-1.9L310.5,598z M315,581.6h2.1v0.7H315V581.6z M304.6,564.7h4.2v1h-4.2V564.7z
	 M296.6,599.3v-5.5l1.1-0.1l0.8,5.5L296.6,599.3z M296.3,587.9h2.1v0.7h-2.1V587.9z M327.6,567.7h-2.1V567h2.1V567.7z M336,556.5
	h2.1v0.7H336V556.5z M349.2,541.2h0.7v2.1h-0.7V541.2z M345,541.2h0.7v2.1H345V541.2z M349.2,528.7h0.7v2.1h-0.7V528.7z
	 M177.2,484.4L177.2,484.4l2.1-0.1c-0.5-3.9,0.8-7.8-2.1-11.7v-0.1c2.9,3.9,1.7,7.9,2.2,11.8L177.2,484.4z M188.3,534.5l-0.7-1.7
	h2.1L188.3,534.5z M188.5,568.5l1.5,1.7l-0.2,0.2c-0.6-0.3-1.2-0.7-2-1.2L188.5,568.5z M197.2,572.3c-4-0.6-4.9-0.5-7.1-1.7
	c2.6,0,5.1,0,7.7,0C197.6,571.2,197.4,571.8,197.2,572.3z M203.9,547.8c0.1,0.3,0.1,0.7,0.2,1l-3.4,0.8l-0.2-1.8H203.9z
	 M200.8,545.3v-2.1h0.7v2.1H200.8z M213.9,532.6l0.7-0.6l-0.7,0.7l-1.5-1.7l0.4-0.4c-0.7-0.1-1.5-0.5-2-1.1l0.7-0.7l1.4,1.7
	l-0.4,0.4L213.9,532.6z M212.7,535.6v0.7h-2.1v-0.7H212.7z M212.2,541l0.1,1.9h-5.5c0-0.4-0.1-0.7-0.1-1.1L212.2,541z M208.5,546
	v0.7h-2.1V546H208.5z M204.8,535l-0.1-1.8h3.5c0,0.3,0.1,0.7,0.1,1L204.8,535z M205.9,559.9l0.2,1.8h-3.5c0-0.3-0.1-0.7-0.2-1
	L205.9,559.9z M202.2,569.1v0.7h-2.1v-0.7H202.2z M218.6,588.9l-1,0.2l-0.8-3.4l1.8-0.2V588.9z M219,580.2h-2.1v-0.7h2.1V580.2z
	 M211.7,576.7c-3.7,0.2-7.5,0-11.2,0c0-0.6,0-1.2,0-1.7h22.3C219.3,577.4,215.4,576.5,211.7,576.7z M217.6,549.5v-2.1h0.7v2.1H217.6
	z M218.3,560v2.1h-0.7V560H218.3z M218.2,539.7l4.4-0.9v6.3L218.2,539.7z M219.1,530.9L219.1,530.9l-0.4-0.4l-1.6,1.5l-0.1-0.1
	l1.7-1.5l0.4,0.4c0.1-0.8,0.4-1.5,1-2.1l0.7,0.7L219.1,530.9z M269.5,639c0-0.4,0-0.9-0.1-1.3l7.6-0.5l0.1,1.8H269.5z M290,638.7
	h-2.1V638h2.1V638.7z M289.3,597.5l1.4-3.8c0.5,0.3,1.3,0.5,1.4,0.8c0.6,13.5,0.1,27,0.1,40.5l-8.3-0.9l-1,0.9
	c-1.4-1.3-2.9-2.7-4.5-4.2c-0.5,1.4-1,2.6-1.5,4h-36.5c-0.2-1-0.4-1.9-0.6-2.8c1.4-1.4,14.4-1.4,17.1-2.2c-3-2.6-7.7,0.7-9.8-3.1
	c-3.1,3.4-5.9,2.5-8.4-0.3c0.7-4.3,1.3-8.3,2.1-13.5c0.8,2.3,1.1,3.5,1.5,4.6c0.3,0.2,0.6,0.7,0.7,0.6c7.4-4.4,15.4-1,23.1-1.8
	c0.4,0,1,0.9,1.6,1.5l10.3-4.4l-2.3-2.3l5.7-7.2c3.5,0,7.1,0,10.6,0v-2.1h-14.4c0-0.1,0-0.3,0-0.4H238c-1.3-23-2.2-45.7-2.2-68.8
	c0.2-0.6,0.5-1.2,1-2.4l9.5,4.6l4-2.1c0,0,0,0.1,0,0.1c0.3-0.7,0.7-1.3,1.2-1.8l0.7,0.6l-1.7,1.5l-0.1-0.1c1.1,3.6,4,0.2,5.3,2.2
	c0.8-2.1,1.2-3.3,1.6-4.5h11.4c0.2,1.2,0.4,2.1,0.7,3.5h6.8c0.8,1.8,1.5,3.2,2.2,4.6h2.9c-0.7-1.9-1.3-3.7-2.4-7l4.3,2.9l8-3.2
	l-2.7,3.7c2.9,6.3,0.8,13,1.6,19.8c-9.6,1.3-15.5,3.2-25.2,0.3c0.9,1.8,1.5,3,2.3,4.7l-2.7,3.5h25.7c-0.9,7.3,1,14-1.6,20.7
	c0.7,0.1,1.4,0.3,2.1,0.5c0.5,0.2,0.9,0.9,1.7,1.6l-6.7,10.5L289.3,597.5z M237.6,521.2c2.8-1.6,4.5-1.6,4.3,3.1h-3.7
	C238,523.2,237.8,522.3,237.6,521.2z M246.2,516.5l3.9-0.4c0.1,1.3,0.1,2.7,0,4l-3.5,0.3C246.5,519.1,246.3,518,246.2,516.5z
	 M250.2,516h0.2c0.2-0.7,0.6-1.3,1.1-1.8l0.7,0.7l-1.7,1.4L250.2,516z M252.4,528.1v-1h4.2v1H252.4z M259.4,516.1V514h0.7v2.1H259.4
	z M260.8,528.1v-1h4.2v1H260.8z M279.6,519.6v-0.7h2v0.7H279.6z M284.2,530.9L284.2,530.9c-0.1-0.6-0.1-1.2-0.1-1.8l0.1,0
	C284.1,529.7,284.1,530.2,284.2,530.9z M285.8,519.6v-0.7h2.1v0.7H285.8z M289.6,529L289.6,529L289.6,529L289.6,529z M287.8,560.7
	v0.7h-2.1v-0.7H287.8z M283.3,561.7h-5.5c0-0.3-0.1-0.7-0.1-1.1l5.5-0.8C283.3,560.5,283.3,561.1,283.3,561.7z M271.1,560.7v0.7H269
	v-0.7H271.1z M294,508.5c3.4,0.2,4.3,0.2,6.1,2.9c-0.2,5.1-1.6,5.7-3.1,6.4C296.2,515,295.1,511.8,294,508.5z M296.2,543.9h2.1v0.7
	h-2.1V543.9z M307,555.4c-0.1-0.3-0.1-0.7-0.2-1l3.4-0.8l0.2,1.8H307z M323.4,557.4h-4.2v-1h4.2V557.4z M310.9,549.5
	c-4.8,0.1-9.5,0-14.3,0c0-0.6,0-1.2,0-1.7h28.5C320.5,550.2,315.7,549.4,310.9,549.5z M319,536.1l-0.7,0.7c-0.5-0.6-1-1.1-1.5-1.7
	l0.4-0.4c-0.8-0.1-1.5-0.4-2.1-1l0.7-0.7l1.5,1.7l-0.4,0.4C317.7,535.2,318.5,535.6,319,536.1z M326.5,539l-3.3-3.1l3.1-2.9l3.3,2.9
	L326.5,539z M326,514v-4.2h1v4.2H326z M331,549.5h-0.7v-2.1h0.7V549.5z M330,519.1c-0.2-2.7-0.3-4.6-0.6-8.3l4.2,4.1L330,519.1z
	 M335.2,549.5h-0.7v-2.1h0.7V549.5z M342.2,466.7h2.1v0.7h-2.1V466.7z M346.3,491.7v0.7h-2v-0.7H346.3z M343.7,496.7l4.1,16.8
	l-3.9,3.9v10.8h-10.1c0-0.3,0-0.7-0.1-1l6.6-1.3c-1-1.1-1.6-1.8-2.3-2.5l2.4-2.8c-1.6-2-3.2-4.1-5.2-6.6l3.4-4l2.4,1.9
	c1.1-1.1,1.8-1.8,2.5-2.5c-0.8-2.6-1.7-5.2-2.5-7.9l-2.8,2.6v-12.4l0.9-0.3c0.3,1.3,0.6,2.5,0.8,3.8c0.1,1.3,0.1,2.6,0,3.8
	c1.1,0,1.5,0.1,1.5,0C341.9,498.6,342.4,498,343.7,496.7z M333.8,523.7V523h2.1v0.7H333.8z M340.8,484.7h0.7v2.1h-0.7V484.7z
	 M338,468.7h2.1v0.7H338V468.7z M339.7,478.8v3.5l-1,0.2c-0.3-1.1-0.5-2.3-0.8-3.4L339.7,478.8z M311,442l5-5.5l-5.1-2.9v-2.2
	c2.7-2.7,18.2-0.6,22.2-0.6c4.6,3.5,2.7,7.9,1.2,12.2l-0.9-8.4h-1.2v16.3l2.9,0.6c1.6,2.7,1.3,5.1-1.3,7.1c2.2,1.8,2.9,4,1.6,6.9
	h-20.8l3.5-3.8h11l-6.8-3.7c-1.9,4.9-6.2-1.8-8.5,1.3l-2.9-2.5C309.9,451.7,316.3,447.2,311,442z M296.3,459.7
	c3.8,6.3,1,13.8,2.8,20.6c2.1-4.4,0.8-9,1.6-13.6c3-2,3.9-0.4,4.2,3c7.6-4.5,22.3-1.6,30.7-1.6c0.9,13,0.1,25.9,0.5,40.4l-3.2-2.7
	l-2.5,2.2l-3.8-6.2l-4.1,8.3l-2-4.3h-3.2c0,4,4.6,11.2,6.2,14.6H315v3.7l8.1,0.8c0.1,1.1,0.2,1.8,0.3,3c-3.2,1.6-7.6,0.1-10.5,2.9
	l-2.1-2.1c-4.2,0-8.3,0-12.5,0c0.8,0.7,1.7,2,2.5,2c-0.9,0-1.7-1.3-2.5-2v-5.9l1.5-0.2c0.2,2,0.4,4,0.6,6.1h10.4l-2.7-11.2l6.9,2.8
	v-4.2l0.2,0.2l1.7-1.5l-0.7-0.7l-1.5,1.7l0.2,0.2c-1.9-0.1-4.5,0.9-4.1-3l5.1-2.9c-4.9-6.2-11.4-4-17.1-4.8
	C291.9,494.6,296.3,472.3,296.3,459.7z M301.6,507.9l0.7,0.7l-1.1,0.9C301.1,509,301.3,508.4,301.6,507.9z M304,507.9h4.5v5.9
	C302.2,514.3,305.7,510.2,304,507.9z M273.8,401.7c2.2-0.9,4.4-1.7,6.6-2.4c1.5,1.3,3.3,2.3,5.1,3.1v8.9l-8.8,5.2l-5.9-8.5
	L273.8,401.7z M270,438.6l5,1.9v-5.4l-5.5-0.9v-5.7h22.8c3,9.9,1.9,20.2,1.9,30.4l-11.6,2.7l-4.3-3.9h-8.2l-3.2-6.5
	C267.9,447,268.9,443.2,270,438.6z M294.2,465.4l-1.8,0.1V462l1-0.1L294.2,465.4z M249.8,442.9c0.3,1.2,0.5,2.1,1,4.3
	c-1.9-1-3-1.8-4.1-2.1c-1.6-0.3-3.1-0.4-4.7-0.5c-0.1-0.4-0.1-0.8-0.1-1.3L249.8,442.9z M235.7,437.4v0.7h-2l-0.1-0.7H235.7z
	 M230.1,453.9c3.1,0.1,3.2-2.5,5.2-6.3v9.7l-6.2,0.5C229.6,456,229.9,453.9,230.1,453.9z M198.4,499.6c3.6-1,6.6,4.5,10.1,0.8v-2.1
	l-4.4-2.1l1-3.1l2.5,2.2c2.6-2.5-0.9-7,2.9-9.2c-2.7-2.4-1.6-5.5-1.9-8.4l4.3-4.5v-3l5.8-6.4c0.2,3.5,0.4,6.8,0.6,10.1l1,0.4
	c0.3-0.9,0.6-1.7,0.9-2.6c0.1-1.3,0.9-2.5,2-3.2V495h3.9v-25.9c6.8-1,6.8-1,11.1,2.7l-1.8,3.1l1.9,7.3c2.6-1.1,2.9-6.2,3.5-8.7
	c-0.4-0.5-1.1-1.5-1.8-2.5l3.5-3.5l0.9,8.5h5.9c-0.1,10.5,0,19.8,0,29.6c2.9,0,2-2.2,2.1-3.7c0.1-8.2-3.4-26.8,1.7-34l0.8,12.6h1.4
	v-12.9l3.6,2.2c0.5-0.5,1-1,2.1-2c0,3.1,1.6,4.7,4.8,5v14.8l3.3,3.3c2.9-1.1-1.1-5.8,3.2-6.2v-7.3l-5.3-3
	c7.5-4.1,11.7-12.5,20.3-10.6l5.7,6.4c-0.8,11.1,2.4,24.3-2.3,37.2l-13.5-8.1c-1.2,2.6-2.4,5.2-3.6,7.9l-5,1.7l7.8,1.2v3.8H292
	l1.7,1.4l-1.6,0.7v-2h-16.7c0.4,0.4,0.9,0.9,1.3,1.3c-0.5-0.4-1-1-1.5-1.4l-3.6-2.1c-0.4,2.1-0.8,4.2-1.2,6.5L267,514
	c-0.5,2.9-2.1,2.4-4.4,1.1l2.3-1.1h2.1v-4.1l0.2,0.2l1.7-1.5l-0.7-0.7c-0.5,0.6-1,1.1-1.5,1.7l0.2,0.2h-1.8
	c-0.3-1.4-0.5-2.7-0.8-4.1l-1.4,0.2c0.1,1.3,0.2,2.7,0.3,4l1.6-0.1v2.1H246l4.2-6.3H244l1-1l-4.9-3.2c-0.1,1.4-0.2,2.5-0.3,4
	l4.1,0.3l-2.1,6.2l-8.2,0h4.2c-0.6-0.7-1.1-1.4-1.6-2.1l-2.6,2.1h-2.1v3.3l-0.2,0v-10.1l-2.9,2.3l-5.4-7.5v5.8l1.7-0.1l-1,0.9
	c-0.2-0.3-0.4-0.5-0.6-0.8c0,0-0.1,0-0.1,0c-0.1,0-0.1,0-0.2,0l0.3,1.6c0.2-0.2,0.5-0.5,0.7-0.7c0.9,1.6,1.3,3.3,1.2,5.1l-1.4,0.1
	l-0.6-4.6c-2,2-1.9,3-1.7,8.5h5.6c-0.7,2.2-1.3,3.9-2.1,6.5c4,0,5.1-5,7.9-3.6c-0.4,1.9-0.9,3.9-1.3,5.9l-1.7,0.7l1.7,1.4l2.1,6.3
	h-10.2l-0.6-1.3l7.1-3.3l-6.3-2c-0.5-0.6-7.7-11.6-7.8-12c-1.2,2.8-2.4,5.6-3.8,8.8l-2.3-2.3l-5.6,2.7v3.2l-0.2-0.2l-1.7,1.5
	l0.7,0.7l1.5-1.7l-0.2-0.2c1.9,0.2,4.5-0.9,4,3.5c-3.9,0.2-7.7,1.1-11.3,2.5l2.9-5.3l-4.3-1.5l4.8-4.9l-4.4-0.9
	c-0.1-1.6-0.2-3.5-0.2-5.1c4.5-2.4,3.8,1.5,4.9,3l5.1-2.4l1.8-9.6c-1.5-4.2-6.4-1.3-9.6-2.9C198.2,501.8,198.3,500.8,198.4,499.6z
	 M228.7,509.8v2.1H228v-2.1H228.7z M196.6,511.9v-2.1h0.7v2.1H196.6z M202.9,509.8v-2.1h0.7v2.1H202.9z M198.9,505.7
	c0.3,0,0.7,0.8,2.1,2.4c-1.7-0.8-3-1.4-3.9-1.9C197.7,506,198.3,505.8,198.9,505.7z M195.9,506.6l0.7-0.3
	C198.1,507.3,197,507,195.9,506.6z M194.7,503.7l1.5,1.7l-0.2,0.2c-0.7-0.3-1.3-0.7-1.9-1.2L194.7,503.7z M183.8,532.8
	c3.1-3.2,6.5-1.4,9.9-0.7C190.2,531.4,186.8,529.7,183.8,532.8z M189.3,499.8c0.1,1.4,0.2,2.7,0.5,4.1c0.6,1.5,1.3,2.9,2.2,4.2h-6
	l-0.1,1l5.2,0.9l2.5,5l-11,7.2c-0.9-0.8-1.8-1.6-2.7-2.5c3.3-6.2,0.3-13,1.9-19.9H189.3z M183.4,389.6v4.2l-6,0.5l-0.4-1.4
	C179,391.6,181.2,390.5,183.4,389.6z M175.8,509.8h0.7v2.1h-0.7V509.8z M172.3,528.7h-0.7v-2.1h0.7V528.7z M105.6,346.9h-1.1v-4.2
	h1.1V346.9z M116.1,321.7l0.1,1.8h-7.6l-0.1-1.3L116.1,321.7z M104.2,336.7h9.7l-9.7,4.8V336.7z M2,160.5v-16
	C4.5,149.8,3.3,155.2,2,160.5z M11.7,137.6H4v-1.3l7.7-0.5C11.7,136.3,11.7,136.9,11.7,137.6z M15.6,135.8h-0.7v-2.1h0.7V135.8z
	 M26,133.7h-0.7v-2.1H26V133.7z M31.7,141.9l-0.7-0.6l1-0.9C32.2,140.9,32.1,141.5,31.7,141.9z M33.7,140.9l-0.5-1
	C33.8,135.6,36.3,136.9,33.7,140.9z M38.8,139.7l-1.3,0.1l-0.5-7.7h1.8V139.7z M85,77.2c-0.6,1.6-1.9,2.9-3.3,4.9
	c-0.3-5.4-0.3-5.4,2.6-9.3C84.7,74.6,85.5,76.1,85,77.2z M85.2,68.5H81v-1h4.2V68.5z M65.7,361.5H65v-2.1h0.7V361.5z M65,357.3
	c-0.6-0.9-1.4-2-2.5-3.4c6.6-1.5,13.3-0.2,20.1-0.1C77.3,356.9,70.7,353,65,357.3z M70.6,342h-2.1v-0.7h2.1V342z M72.3,347.3v3.5
	l-1,0.1c-0.3-1.2-0.5-2.4-0.8-3.5L72.3,347.3z M81.8,215.3h0.7v2.1h-0.7V215.3z M81.4,220.8c2.2,7.4,2.6,41,0,58.9V220.8z
	 M83.1,281.9c-0.2,4,1.3,7.2-1.6,9.3c0.6,1.7,1.3,3.3,1.9,4.9l-1.5,0.9c-0.7-1.5-1.4-3-2.7-5.9c0,0.1,0.6-2,1.2-4.3l-3.7-1.3
	L83.1,281.9z M71.5,277.7l-0.7-0.7l1.7-1.5l0.2,0.2C72.4,276.5,71.9,277.1,71.5,277.7z M73.7,275.9c-0.1-0.2-0.2-0.5-0.3-0.7
	C74.3,273.6,73.9,274.7,73.7,275.9z M73.3,274.7c-0.2-0.6-0.4-1.2-0.5-1.8c0-0.3,0.7-0.7,2.3-2.1C74.3,272.5,73.7,273.7,73.3,274.7z
	 M69.1,319.3l-2.7-2.7c0.7-0.8,1.4-1.9,2.3-2.3c1.8-0.6,3.7-1,5.6-1.3c0.1-1,0.4-2.6,0.6-4.1l7.9-7.4v19.7H60.2l-0.1-1.1L69.1,319.3
	z M5.4,439.2v7.6l-1.3,0.1c-0.1-2.6-0.3-5.1-0.5-7.7H5.4z M5.4,463.6c-3.6-0.6-3.6-0.6-3.1-5.8h3.1V463.6z M2.1,455.8v-4.4h3
	c0.2,1,0.5,2.2,0.8,3.7L2.1,455.8z M9.6,444.6l-1.1,0.1c-0.2-1.7-0.5-3.6-0.7-5.4l1.8-0.2V444.6z M7.9,524H3.7v-1.1h4.2V524z
	 M11.6,532.8h-1v-6.3h1V532.8z M10.4,524.1c0-0.4,0-0.7-0.1-1.1l5.5-0.8c0,0.6,0.1,1.3,0.1,1.9H10.4z M13.4,521.3
	c-2.5-4,0.9-9.5-4.8-11.3l-1.4,3.7c-2.4-1.5-1.4-7.1-1.4-9.6h10.8C15.6,509.6,14.5,515,13.4,521.3z M17.6,520.3h-0.7v-2.1h0.7V520.3
	z M17.9,413.7h-1.1v-6.3h1.1V413.7z"/>
<polygon class="st0" points="6.6,409.7 6,410.4 7.7,411.9 7.9,411.6 8.1,411.4 "/>
<path class="st0" d="M19.3,681.4l0.7,1.7c0.5,0.7,1.1,2,1.6,2c19.5-1.6,39.2,2.5,58.8,2.1c0.4-0.6,0.8-1.2,1.3-1.8l0.7,0.7l-1.7,1.5
	c-0.1-0.1-0.2-0.2-0.3-0.3c0.1,0.4,0.1,0.7,0.1,1.1c0.7,0,15.7,1.8,16.6,0c-0.6-0.7-1.3-1.5-2.4-2.8l4-0.3l1.7,5
	c11.5-4.8,23.1,5.6,34.6-0.9c6.3,2.9,6.3,2.9,17.4-2.2l1.9,3.8l12.8,2c4.1-2.4,9.2-2.4,13.2,0.2l20.9-3.8c0.4,2.4,0.6,4.3,0.9,6.2
	c15.4-2.8,32.6-7.8,47.7-1.9c2-4.4,28.5-0.6,33.4-1.1v3.2h0.5l-8.2,0.4c2.4,0.9,11.2,3.2,12.4-0.4h-2.6l2.6-2.1
	c0.5,0.7,1,1.4,1.6,2.1c7.6,0,10.6-4.6,18.4-2.5l7.6-1.8l4,4l8.4-4.1l3.7,3.7c7.1-2.5,23.1,5,30.3,0.2V685
	c-8.8-0.5-17.7-1.7-22.6-1.7c-6.4,0-37.8-4.6-41.6,1.5l-7.4-2.4l-0.9-5.3h-1.1c-0.3,1.9-0.6,3.9-0.8,5.2c-14-1.8-28.1-1.1-42.2-1.2
	c-11.4,0-25.3-3.2-35.9-0.7c-17.6-5.9-43.6-3.3-62.3-4.1c-21.2-0.9-42.6-0.6-63.7-2c-21.2-1.4-42.6-3.2-64-3.7
	c-2.3-0.1-10.3-1.3-18.6-2.4v11c2.3-0.1,4.6,1.5,6.8,1.7H0.8v2c5.7,0.2,11.4,0.3,17.1,0.3C18.4,682.5,18.8,681.9,19.3,681.4z
	 M82.5,681.1l0.2,1.8h-3.4l-0.2-1L82.5,681.1z M68.5,684h2.1v0.7h-2.1V684z M60.1,681.9h2.1v0.7h-2.1V681.9z M33,679.8h2.1v0.7H33
	V679.8z"/>
<path class="st0" d="M1.2,649.4c-0.1,0-0.3,0-0.4,0v3.2c1.7,0.2,3.8,0.5,6.6,0.8L1.2,649.4z"/>
<path class="st0" d="M321.5,9.2l-2,2.2l3.2,3.8c0.4-2.6,0.8-4.4,1-5.9L335,4.7L329.7,0h-12.5v6.3L321.5,9.2z"/>
<path class="st0" d="M239.8,3.1c-0.7,0.7-1.3,1.4-2,2.1c7.9,1.3,9.1,0.8,14.6-5.2h-18.8C234,4.4,238.5,0.4,239.8,3.1z"/>
<path class="st0" d="M34.7,7.3c-3.5,4.9-4.9,9.9-3.1,16.2l5.5-14.2V0H35C33.8,2.5,31,4.9,34.7,7.3z"/>
<path class="st0" d="M302.2,2.5c0.4,3.1,0.7,5.4,1,7.7l1.5-0.1V0h-20.9v5C290.4,1.4,296.4,1.6,302.2,2.5z"/>
<path class="st0" d="M45.6,5l-5.3,4l7.1,3.4c0.2-4.5,1.1-8.7-1.9-12.4h-4.2v3.6L45.6,5z"/>
<path class="st0" d="M352.7,9V0h-6.3c0.1,1.2,0.4,2.5,0.7,3.7C350.2,3.5,350.2,6.7,352.7,9z"/>
<path class="st0" d="M55.9,0h-6.3C51.8,2.9,53.9,2.9,55.9,0z"/>
<path class="st0" d="M191.4,307c30.5,3.2,61.2,0.6,91.6,3.3c30.9,2.8,59.3,6.5,76-23.7c0.5-8.1-0.9-15.2-2.8-23l-11.8-11.8l-11-4.2
	c6.9-3.6,12.4,2.4,16.9-0.6l4.7-1.3c-24.2-3.6-50.4-3.3-74.8-3.3c-0.6,1.7-1,2.9-1.6,4.6l-2-4.2c-6.3-2.1-11.7,4.6-17.8,0.9
	c-0.2-1-0.4-2-0.6-3c-7.7,5.6-28-0.3-37.3-0.4c-11.7,0-23,0.6-34.5-1.8l-2.9,2.9l5.4,2.7C152.1,242.7,156.6,303.1,191.4,307z
	 M340.8,294.6h0.7v2.1h-0.7V294.6z M336.6,298.8h0.7v2.1h-0.7V298.8z M332.4,298.8h0.7v2.1h-0.7V298.8z M281.6,245h7.7l-7.7,3.5V245
	z M271.9,273.7h0.7v0L271.9,273.7L271.9,273.7z"/>
<path class="st0" d="M344,115.4c-1.4,3-2,4.3-2.7,5.9h-23.8v49.6c7.2,1.7,14.6-1.8,20.7,2.6l5.8-2.9V115.4z M327.9,134.6l-5.7-5
	c-0.6,1.3-1.2,2.7-2,4.3c-3.1-4.5,1.5-7.1,2.1-11c0.8,1.8,1.5,3.2,2.6,5.5l3.8-4.9l2.7,5C330.4,130.2,329.4,132,327.9,134.6z"/>
<path class="st0" d="M303.9,119.4h-26.3v3.2l8.1,1.9L276,126l9.1,2.9c3.9-3,8.4-0.8,10.3-1.2l5.2,2.6c-0.2,0.4-0.3,0.9-0.5,1.3
	h-11.7c-0.4,1.7-0.7,2.6-1.1,4.3h-9.6v33.4l26.9,2.7C304.6,163.8,308.7,123.3,303.9,119.4z"/>
<path class="st0" d="M217.3,167.3c-1.1-6.1,0.9-11.4-1.9-16.4c0.5-0.5,1-1,1.3-1.3l-6.5-11.7h-5.1c-0.4-1.1-0.8-2.4-1-3.1l-11.6-6.5
	l8.4-1.7c-5.2-2.8-5.2-2.8-9-10l16.3,1.7l5.7-3.4c-7.6,0-18.4-1.8-25.8,0.5c4.8,13.6-0.5,35.1-0.5,49.7
	C197.2,169.5,207,166.1,217.3,167.3z"/>
<path class="st0" d="M214,169.6h-26.2v32.3l2.6,2.6h24.8c0.8-10.9,1.5-21.6,2.2-31.6L214,169.6z"/>
<path class="st0" d="M121,402.6v-16l3.6,2.3l7-3.6v-8c1.7,3.9,2.9,6.7,4.2,9.8l3.3-3.3v-7.4h-15.9c-0.4,2.7-0.8,5.3-1.2,7.8
	l-1.2-0.1v-15.2l-5.4-2.8h-11.9l12.7,36.1l-4.5,2.6c0.7,0.9,1.3,2,1.8,3c0.4,1.1,0.7,2.2,0.9,3.3c-6.5-1.4-20.7,1.1-25.3-2.9
	c0.8-1.9,1.7-3.9,2.9-6.9h-4.8v7.7l-4.8,1.6l2.6,5.3c11.8-0.2,25.7,3.6,37,0.2l1.7,3.8l1.2-0.2v-7.5l3.7-1v-8.6l-5,2.6
	C122.9,404.4,121.9,403.5,121,402.6z M120.4,412.6c-2-2.7-3.2-4.3-5.3-7.1h5.3V412.6z"/>
<path class="st0" d="M344,175.5c-8.4,0-18.3-1.5-26.5,0.4v32.9H344V175.5z"/>
<path class="st0" d="M304.4,200.1v-26.3h-26.8v32.7H300c0.4-2.2,0.7-4.1,1-5.6L304.4,200.1z"/>
<path class="st0" d="M256.2,170.9l-4.7,1.9c-7-2.8-14.3-0.7-21.8-1.6v33.1l26.5,3V170.9z M242.7,200.6c-2.8,0.5-5.6,0.8-8.8,1.2
	l-3-2.6c1.2-1.7,2.3-3.3,3.5-5l5,4.7h4.9C243.4,199.8,243.1,200.5,242.7,200.6z"/>
<path class="st0" d="M350.6,110.8c-0.1,2.5-0.1,5,0.1,7.4c0.3,2.2-1.4,5,1.8,7.1v-18.8c-19.7,0-39.4-1.2-59-2
	c-15.5-0.6-38.1,1.3-52.7-4.2c-15.4,1.3-43.6-7.9-57-1.2v5.4c4.1-3.1,8.1-2.1,12.2-0.4l-8.3,1.1c3.3,1.8,8,2,13.1,1.7v-0.3h0.7v0.2
	c7.3-0.5,15.3-2.1,21-1.9c17.1,0.7,34.2,2.8,51.3,1.9l6.6,3.5C300.8,102.2,329.2,111.6,350.6,110.8z"/>
<path class="st0" d="M230.3,22.8c19.8-2,43.7,3.5,63.6,5.2c18.5,1.6,41,5.4,59.2,2.6l-1.1-3.1c-15.2-2.3-31.2-2-46.5-2.6
	c-15.2-0.6-36.3,0.9-50.5-4.1c-23.6,2.4-47.8-3.3-71.6-1.7C196.8,23,216.5,24.3,230.3,22.8z"/>
<path class="st0" d="M197.1,226.4c6.4,2.7,13.1,0.8,19.5,1.3v-16.4c-9.6-1.6-19.2-3.2-28.8-4.8v18.3l3.3,3.3L197.1,226.4z"/>
<path class="st0" d="M277.6,229.3l27,3c0-7.1-0.2-13.8-1.1-20.9h-25.9V229.3z"/>
<path class="st0" d="M256.4,230.1v-19.4c-9.6,2.1-17.9-4.4-26.8-0.9V227C238.2,232,247.3,229,256.4,230.1z"/>
<path class="st0" d="M343.9,231.7v-18.6c-8.5,0-18.5-1.5-26.8,0.5v18.3C326.2,231.9,335.3,232.2,343.9,231.7z"/>
<path class="st0" d="M320.6,319.7c-50.9-1.4-103.6-5.6-154.3-1.4c2.7,2.7,8.6,3.5,15.8,3.6c3,0,6.1-0.1,9.3-0.3
	c10.6-0.7,21.7-2.2,27.4-2c17.2,0.4,33.9,2.1,51.2,2c30.2-0.2,61.4,0.1,91.9,2.2v-3.9C346.8,319.4,327.9,321.5,320.6,319.7z"/>
<path class="st0" d="M135.9,470c-1-0.7-2-1.4-2.9-2.2l-0.5,0.4c1,0.6,1.8,1,2.4,1.4C135.2,469.7,135.6,469.9,135.9,470z"/>
<path class="st0" d="M85.6,391.5c-0.7,3.6-1.4,7.3-2.5,12.8c9.2-8.7,14-25.9,19.3-37.3c-11.1-3.5-11.1-3.5-17.5-2.2v23.4l-4.6,1.5
	L85.6,391.5z"/>
<path class="st0" d="M256.3,150.3l-12.1,3.1c-0.8,7.8-9.6,4.2-12.6,8.6v4.2c8,4.1,16.4,2.8,25,3
	C256.4,162.5,256.8,156.4,256.3,150.3z"/>
<path class="st0" d="M62.4,392c-0.1-3-0.3-6.3-0.5-9.3H50.2v7.7h7.3c0.5-1.5,0.9-2.7,1.3-3.9h1c0.1,2.6,0.3,5.1,0.4,8.7l-4.8,2.7
	l3.6,7.9l11.1-3.2l0.1-10.2l-5.3,2.1L62.4,392z M53.2,388.7h-0.7v-2.1h0.7V388.7z"/>
<path class="st0" d="M72.2,372.5l3.7,5.4h6.9v-10H61l-2.6,2.6v7.4h11.4L72.2,372.5z M74.3,369.8c0,0.6,0.1,1.2,0.1,1.8h-3.5
	c0-0.3-0.1-0.7-0.1-1L74.3,369.8z"/>
<path class="st0" d="M223.2,668.5h-10.3v5.7c6.4,4.6,13.5,2.4,20.5,1.5l-6.1-1.3c1.1-3.4,5.9,0.7,6.2-3.6h-10.1
	c4.4-3,7.4-1.6,10.1-2.1l0.1-0.1v2.1l1.7-0.7l-1.7-1.4l5.1-4.1l-21.9,0C217.1,668.8,221.9,664.8,223.2,668.5z"/>
<path class="st0" d="M134.9,519.3c-2.8-7.5,1.3-17.4-2.5-24.1l-3.3,0.3c0,9.6-0.2,19.1-0.8,28.7c-0.2,2.6-0.2,5.3-0.3,9l8.2,2.8
	C132.3,528.9,132.2,524,134.9,519.3z"/>
<path class="st0" d="M326.9,590.9l-6.8-2l3.1,5.9c-0.5,0.5-1.1,1.2-1.7,1.9l1.6,1.9l-1.7,3.3h3.2c0.6-1.3,1.3-2.7,2.1-4.5
	c0.6,1.7,1,2.9,1.5,4.1l7.1-7.6l1.6,1.6l2.7-2.4c0.4,3.2,0.7,6,1.1,8.8l2.6-0.2c-0.6-4.5-1.1-8.3-1.5-12
	C336.7,591.8,331,586.1,326.9,590.9z M326.9,595.5h-0.7v-2.1h0.7V595.5z M331.1,595.5h-0.7v-2.1h0.7V595.5z"/>
<path class="st0" d="M336.9,585.2c1,0.7,2,1.5,2.9,2.2l5.2-2.6l2.5,2.3c2.7-2.1,4.2-4.5,2-8.9l-15.3-2.2c-1.2,3-2.1,5.3-3,7.4
	l3.6,3.6L336.9,585.2z"/>
<path class="st0" d="M102.3,372l-2.5,12.4l-0.2-0.2l-1.7,1.5l0.7,0.7l1.5-1.7l-0.1-0.1l2.6,1.5c-3.3,5.6-6.1,10.9-8.5,16.9l4,5.2
	l1.7-0.7c-0.4-2.6-0.9-5.1-1.4-8l4.4-6.4c0.8,3.9,1.3,7.2,5.4,8.3c-1.2-5.1-2.7-10-4.2-15C109.3,381,102.8,376.9,102.3,372z"/>
<polygon class="st0" points="117.6,361.5 130.6,361.5 130.6,351.4 117.3,351.4 114.5,354.2 116.4,356.4 114.5,358.6 "/>
<path class="st0" d="M39.4,455.2h14.5c-0.2-3.6-0.3-6.9-0.4-9.8H39.4V455.2z"/>
<rect x="56.5" y="445.4" class="st0" width="13.9" height="9.8"/>
<rect x="33.3" y="357.6" class="st0" width="14.1" height="9.7"/>
<path class="st0" d="M154.5,552.1l10.3,3.4l-7.4,4h13.2v-9.8h-20.9C151.4,554,151.4,554,154.5,552.1z"/>
<path class="st0" d="M78.8,380.6H67c-3.4,5.3-3.4,5.3,0.3,9.8h11.5V380.6z"/>
<polygon class="st0" points="41.5,381.1 55.7,377.8 55.7,370.3 41.5,370.3 "/>
<polygon class="st0" points="42.3,418.9 38.5,430.1 53.4,430.1 53.4,419.5 46.1,421.4 "/>
<path class="st0" d="M125.9,374.1l4.6-1.7l1.9,1.4c0.9-0.9,1.4-1.4,1.5-1.5l5.4,1.8v-10.3h-11.5C127.2,367,123,369.6,125.9,374.1z"
	/>
<path class="st0" d="M317.5,366.8c0.6,0,1.3,0,1.8-0.1C318.7,366.8,318.1,366.8,317.5,366.8z"/>
<path class="st0" d="M339,365.8c7,5.8,13.2-1.6,19.9-0.9c-13.3-3.7-26.2,1.4-39.5,1.9C325.9,366.9,332.6,369.9,339,365.8z"/>
<path class="st0" d="M242.4,130.8l2.2-5.8l-4.1,2.1c-0.5-1.2-0.9-2.4-1.4-3.7c-1,1.4-2.1,2.8-3.2,4c-1.2,1-2.5,1.8-3.8,2.6
	c0.8,2.9,1.4,5,2.2,7.9h5l5.5-3.3L242.4,130.8z"/>
<path class="st0" d="M47.2,387.9l-5.5-4.9l-1.2,1.2l-4.3-2.5l-3.8,6l5.3,1.9l-5.1,2.2C39.4,395.2,42.7,389.3,47.2,387.9z"/>
<polygon class="st0" points="123.3,401.7 130.7,398.5 132.7,391.1 123.3,391.1 "/>
<path class="st0" d="M154.6,671.3c9.3,2.9,19.1-0.4,28.9,3.2c-0.2-1.4-0.4-2.6-0.5-3.2l-16.6-1.7L154.6,671.3z"/>
<path class="st0" d="M198.4,361.5c10.3,0,25,2.6,34.9-1.7h-34.8C198.4,360.3,198.4,360.9,198.4,361.5z"/>
<path class="st0" d="M30.7,644.6c-7.8-2.2-16.1,1-23.7-3.2c-0.7,0.8-1.4,1.4-2.2,2c-1,0.4-2,0.7-3,0.8
	C11.5,645.4,21.1,646.2,30.7,644.6z"/>
<polygon class="st0" points="72.4,393.2 76.9,398.5 72.3,400 78.9,403.2 82.9,393.2 "/>
<path class="st0" d="M314.6,110.7c-3,0-29.7-2-30.6,0.7c-0.2,0.3,0,0.5,0.1,1h30.6L314.6,110.7z"/>
<path class="st0" d="M265.4,61.5l3.9-7.1c1.5,3.4,2.1,4.8,3.4,7.6v-9.2l-7.3-2.8V61.5z"/>
<path class="st0" d="M53.4,394.4l-2.1,1.9l-6.6-1.7l-3.4,3.4l2.9,2.9l2.9-2l6.9,2.7C53.8,398.6,53.6,396.8,53.4,394.4z"/>
<path class="st0" d="M139.1,348.7c-0.7,0.7-1.6,1.4-2.5,2c-1,0.4-2,0.7-3,0.9v7.6h5.5V348.7z"/>
<path class="st0" d="M166.3,602.1H144l0.1,2l22.3-1C166.4,602.8,166.3,602.6,166.3,602.1z"/>
<path class="st0" d="M206.7,108.3h20.2C220.2,107,213.4,105.8,206.7,108.3z"/>
<path class="st0" d="M42.4,406.9l-1.8,4.4l-5.6,1l8.8,7.5C43.1,414.2,44.1,410.9,42.4,406.9z"/>
<path class="st0" d="M250.8,119.4l2.5,8h3c0.1-2.5,0.2-5.1,0.4-8H250.8z"/>
<path class="st0" d="M351.8,223.3c1.6-4.6-0.6-7.6-3.9-11.3C343.6,219.4,351.3,219.5,351.8,223.3z"/>
<path class="st0" d="M251.7,366.8l8.3,2.5c1.3-2.1,2.9-4.7,4.5-7.2c-2.3,0-3.7,1.2-5.4,2C257.1,365,254.9,365.6,251.7,366.8z"/>
<path class="st0" d="M160.6,581.1l7.9-1.5c0.3,1.3,0.5,2.3,0.9,3.8c1.3-2.3,2.2-4.1,3.2-5.9c-4.1-2.4-7.6,0.6-11.3,1.5
	C161.1,579,161,579.9,160.6,581.1z"/>
<path class="st0" d="M340.9,6.5l3.5,2.1c-0.2-2.7-0.3-4.6-0.4-7.1l-2.8,2.6l-2.1-2l-2.7,2.7c0.8,1.3,1.6,2.6,2.4,3.8L340.9,6.5z"/>
<path class="st0" d="M348.2,112.8c-4.2,0-13.4-1-17.5,1.8h17.5C348.2,114,348.2,113.4,348.2,112.8z"/>
<path class="st0" d="M232.5,123.2c2.8-4.2,8.1-0.4,13.1-4.2c-6.6,0.2-11.4-0.4-16.6,0.7L232.5,123.2z"/>
<path class="st0" d="M316.8,361.8h-16C306.1,363.2,311.5,364.3,316.8,361.8z"/>
<path class="st0" d="M246.5,677c2.7,0,5.3,0.2,8,0s5.6,1,9.4-1.7h-17.5C246.4,675.9,246.4,676.5,246.5,677z"/>
<polygon class="st0" points="116.5,458.5 116.5,461.8 116.3,461.6 114.6,463 115.3,463.7 116.7,462.1 122,460.6 124.6,461.5 
	124.6,456 "/>
<path class="st0" d="M298,369.8c-1.8,3.9-2.2,8.4-1.1,12.6l2.9-0.1c-0.5-2-1.2-3.9-1.4-5.8C298.1,374.3,298.1,372.1,298,369.8z"/>
<path class="st0" d="M296.3,369.9l-2.1-6.3l4.2-0.3c-0.2-1.5-0.3-2.7-0.4-3.9l-3.6,0.3c-0.1,1.3-0.2,2.6-0.3,3.9l-6.2-2.1
	L296.3,369.9z"/>
<path class="st0" d="M144.1,347h3.2c0-2.2,0-4.4,0-6.6l-3.7,0.8C143.8,343.3,144,345.2,144.1,347z"/>
<path class="st0" d="M351.2,377.9c1.8-4.3,2.8-6.8,3.9-9.6l-4.8-0.8C350.6,370.6,350.8,373.4,351.2,377.9z"/>
<polygon class="st0" points="51.8,415.4 57.3,415.4 59.8,410.2 58.6,409 "/>
<path class="st0" d="M204.5,131.3h7.7c0.1-0.4,0.1-0.7,0.2-1.1l-7.9-3.1V131.3z"/>
<polygon class="st0" points="275,70.4 275,64.7 269.2,65 "/>
<path class="st0" d="M207,120.4c-0.3,2-0.5,3.2-0.8,5.2l7.5-1.1L207,120.4z"/>
<polygon class="st0" points="245.6,670.2 249.4,666.4 238.3,667.1 "/>
<polygon class="st0" points="193.6,641 193.5,639.7 185.9,639.7 185.9,641.5 "/>
<path class="st0" d="M353.9,551.3l-1.4,1.4c0.2,0.9,0.4,1.9,0.6,3.2l5.2-1L353.9,551.3z"/>
<polygon class="st0" points="169.2,563.6 169.2,570.7 173.2,569.8 "/>
<path class="st0" d="M176.8,564.3l-3.6,0.2c-0.1,1.4-0.2,2.6-0.3,4l4.3-0.3C177,566.7,176.9,565.5,176.8,564.3z"/>
<path class="st0" d="M293.3,392.3c3.2-0.7,6-1.6,4.2-6.4L293.3,392.3z"/>
<path class="st0" d="M104,403.5c0.2,1.5,0.3,2.7,0.4,3.9l3.6-0.3c0.1-1.4,0.2-2.6,0.3-3.9l1.6-0.7l-1.7-1.4c0,0.1,0,0.2,0,0.3
	c0,0.6,0,1.1,0,1.7L104,403.5z"/>
<path class="st0" d="M346.8,601.9l7.7-0.5l-0.1-1.3h-7.6C346.8,600.7,346.8,601.3,346.8,601.9z"/>
<path class="st0" d="M258.3,109h-7.6c0,0.6,0,1.2,0,1.8l7.7-0.5C258.4,109.9,258.3,109.4,258.3,109z"/>
<polygon class="st0" points="146.9,447.3 150.1,446.7 149.1,441.5 145.5,445.9 "/>
<polygon class="st0" points="107.8,657.8 107.7,656 100.1,656.5 100.2,657.8 "/>
<polygon class="st0" points="279.9,672.2 277,669.3 272.9,671.5 273.7,673 "/>
<path class="st0" d="M206.7,672l-1.4-1.4l-3.2,0.6c0.3,1.5,0.5,2.6,1,5.2L206.7,672z"/>
<path class="st0" d="M307.9,678.9c0.2-0.5,0.4-1.1,0.5-1.6h-8.6C302.2,680.6,305.4,678.5,307.9,678.9z"/>
<rect x="191.8" y="694.3" class="st0" width="8.4" height="1"/>
<rect x="133.2" y="395.4" class="st0" width="6.3" height="1"/>
<path class="st0" d="M360.4,562.3l-1.1,0.1v5.6h1.9C360.9,566,360.6,564.2,360.4,562.3z"/>
<path class="st0" d="M248.5,146.1h3.3c-0.9-1.6-1.6-3-3.3-6.2V146.1z"/>
<polygon class="st0" points="145.4,559.6 145.4,554.1 143.5,554.1 144.3,559.7 "/>
<polygon class="st0" points="147.4,338.2 147.4,336.3 141.8,337.1 141.9,338.2 "/>
<path class="st0" d="M173.3,637l5.5-0.1c0-0.6,0-1.2,0-1.8l-5.6,0.8L173.3,637z"/>
<path class="st0" d="M122.4,474.2l-5.5,0.8c-0.1,0.3,0,0.7,0,1.1h5.6L122.4,474.2z"/>
<rect x="7.9" y="650.4" class="st0" width="6.3" height="1"/>
<path class="st0" d="M4.1,656.4c0,0.7,0,1.3,0,1.9l5.6-0.8l-0.1-1.1H4.1z"/>
<polygon class="st0" points="92.9,656.4 91.8,656.5 91.8,662 93.7,662 "/>
<path class="st0" d="M228.6,661.3c0-1.1-8.8-1.1-8.8,0S228.6,662.4,228.6,661.3z"/>
<polygon class="st0" points="209.9,668.9 208.8,669 208.8,674.6 210.7,674.4 "/>
<path class="st0" d="M258.3,669h-5.5c0,0.6,0,1.2,0,1.8l5.6-0.8L258.3,669z"/>
<path class="st0" d="M270.8,671.1h-5.5c0,0.6,0,1.2,0,1.8l5.6-0.8L270.8,671.1z"/>
<path class="st0" d="M267.1,677.7l4.3-1.5C267.7,675.1,265.8,675.5,267.1,677.7z"/>
<polygon class="st0" points="248.5,127.8 248.5,133.3 250.4,133.2 249.6,127.7 "/>
<path class="st0" d="M258.7,386.5c-0.1,1.3,0,2.5,0.2,4.2l4-0.3c-1.3-2-2.2-3.4-3.2-4.9L258.7,386.5z"/>
<path class="st0" d="M258.6,378.6c-0.1-0.9-1.3-1.7-2-2.5c-1.6,4.3-0.9,7.7,2.1,10.4C258.8,383.9,258.8,381.2,258.6,378.6z"/>
<path class="st0" d="M278.3,358.4c-2-0.9-4-0.9-6,0C274.3,359.3,276.3,359.3,278.3,358.4z"/>
<path class="st0" d="M252,363.3v-3.5l-1.8,0.1c0.3,1.2,0.5,2.3,0.8,3.5L252,363.3z"/>
<rect x="267" y="360" class="st0" width="4.2" height="1"/>
<path class="st0" d="M285,361.4c1-0.2,2-0.5,2.9-0.9l-5.2-1.5C284.2,360.7,284.6,361.5,285,361.4z"/>
<polygon class="st0" points="360.3,367.9 359.3,368 359.3,371.5 361.1,371.4 "/>
<path class="st0" d="M255.9,372l-1.4,0.2c0.1,1.3,0.2,2.7,0.3,4l1.8-0.1C256.5,374.7,256.2,373.4,255.9,372z"/>
<polygon class="st0" points="315.4,376.5 315.4,380 317.2,379.8 316.4,376.3 "/>
<rect x="81.6" y="380.3" class="st0" width="1" height="4.2"/>
<path class="st0" d="M329.9,389.4c0,0.3,0.1,0.6,0.1,1h3.5c0-0.6-0.1-1.2-0.1-1.8L329.9,389.4z"/>
<path class="st0" d="M119.4,423.9l1-0.1v-3.5l-1.8,0.2C118.9,421.6,119.2,422.8,119.4,423.9z"/>
<path class="st0" d="M145.5,421.7c-0.1-0.6-0.2-1.2-0.3-1.8l-3.4,0.8c0.1,0.3,0.1,0.7,0.2,1H145.5z"/>
<polygon class="st0" points="142,447.6 142,451 143.8,450.8 143,447.4 "/>
<path class="st0" d="M120.4,470.5h-3.5l0.1,1.8l3.5-0.8C120.5,471.2,120.4,470.8,120.4,470.5z"/>
<path class="st0" d="M121.1,489.2v3.5l1.8-0.1c-0.3-1.1-0.5-2.3-0.8-3.5L121.1,489.2z"/>
<path class="st0" d="M153.8,526.3v-3.5l-1.8,0.1c0.3,1.1,0.5,2.3,0.8,3.5L153.8,526.3z"/>
<path class="st0" d="M149.1,540.1c2,0.9,4,0.9,6,0C153.1,539.2,151.1,539.2,149.1,540.1z"/>
<path class="st0" d="M355.9,559c2,0.9,4,0.9,6,0c-1-0.2-2-0.5-3-0.7C357.9,558.5,356.9,558.8,355.9,559z"/>
<path class="st0" d="M165.7,563.3c-0.9,2-0.9,4,0,6c0.2-1,0.5-2,0.7-3C166.2,565.3,165.9,564.3,165.7,563.3z"/>
<path class="st0" d="M169.3,574.7l3.4-0.8c0-0.4-0.1-0.7-0.1-1h-3.5L169.3,574.7z"/>
<path class="st0" d="M175.3,574.3h3.5l-0.1-1.8l-3.5,0.8C175.2,573.6,175.3,574,175.3,574.3z"/>
<path class="st0" d="M355.9,600.7c1,0.2,2,0.5,3,0.7c1-0.2,2-0.5,3-0.7C359.9,599.8,357.9,599.8,355.9,600.7z"/>
<rect x="296.2" y="4.8" class="st0" width="4.2" height="1"/>
<path class="st0" d="M36.9,657.8c-0.1-0.6-0.1-1.2-0.2-1.8l-3.4,0.8c-0.1,0.4,0,0.7,0.1,1H36.9z"/>
<polygon class="st0" points="49.4,657.8 49.2,656 45.8,656.8 45.9,657.8 "/>
<path class="st0" d="M223.3,90.6c0,0.3,0.1,0.7,0.1,1h3.5l-0.1-1.8L223.3,90.6z"/>
<path class="st0" d="M229.2,95.4l-0.2-1h-3.5c0.1,0.6,0.1,1.2,0.2,1.8L229.2,95.4z"/>
<path class="st0" d="M247.6,108.6l-3.4,0.8c0,0.3,0.1,0.7,0.2,1h3.5C247.8,109.8,247.7,109.2,247.6,108.6z"/>
<polygon class="st0" points="233.3,662 233,660.2 229.6,661 229.8,662 "/>
<path class="st0" d="M213.9,664.4c1-0.2,2-0.5,2.9-0.9l-5.1-1.4C213.2,663.7,213.6,664.4,213.9,664.4z"/>
<path class="st0" d="M215.8,109.9c-0.9,1.9-0.9,3.9,0,5.8c0.2-1,0.5-1.9,0.7-2.9C216.3,111.8,216,110.9,215.8,109.9z"/>
<path class="st0" d="M233.1,112.8l-3.5,0.8l0.1,1h3.5C233.2,114,233.1,113.4,233.1,112.8z"/>
<path class="st0" d="M256,114.8l-3.4,0.8l0.2,1h3.5C256.1,116.1,256.1,115.4,256,114.8z"/>
<polygon class="st0" points="87,670 86.8,669 83.3,669 83.6,670.8 "/>
<polygon class="st0" points="317.6,119.2 321.1,118.4 321,117.4 317.5,117.4 "/>
<path class="st0" d="M291.7,672.4V669l-1.8,0.2c0.3,1.1,0.6,2.3,0.8,3.4L291.7,672.4z"/>
<polygon class="st0" points="295.5,668.9 294.5,669.1 294.5,672.6 296.3,672.4 "/>
<path class="st0" d="M236.8,676c1,0.2,2,0.5,3,0.7c1-0.2,2-0.5,3-0.7C240.8,675.1,238.8,675.1,236.8,676z"/>
<rect x="294.7" y="674.9" class="st0" width="1" height="4.2"/>
<path class="st0" d="M339.9,676.3c0-0.3-0.1-0.7-0.1-1h-3.5c0.1,0.6,0.1,1.2,0.1,1.8L339.9,676.3z"/>
<rect x="260.7" y="213.7" class="st0" width="4.2" height="1"/>
<path class="st0" d="M282.6,679.4c-1.5-1.6-1.9-2.4-2.2-2.3c-1,0.2-2,0.5-2.9,0.9L282.6,679.4z"/>
<path class="st0" d="M322.2,678c-2-0.9-4-0.9-6,0C318.2,678.9,320.2,678.9,322.2,678z"/>
<path class="st0" d="M271.2,238.2L271.2,238.2l4.1-0.6l-0.2-1.4l-4,0.3L271.2,238.2c-1.6,0.3-4-1-4.2,2.1l-0.2-0.2l-1.7,1.4l0.7,0.7
	l1.5-1.7l-0.2-0.2C268.6,240,271,241.3,271.2,238.2z"/>
<path class="st0" d="M351,242h3.5c-0.1-0.6-0.1-1.2-0.2-1.8l-3.4,0.8C350.8,241.4,350.9,241.7,351,242z"/>
<rect x="50.4" y="409.5" class="st0" width="0.7" height="2.1"/>
<path class="st0" d="M135.9,408.5c0.3,2,0.7,2,1,0C136.6,406.5,136.2,406.5,135.9,408.5z"/>
<path class="st0" d="M79.5,408.5c0.3,2,0.7,2,1,0C80.2,406.5,79.8,406.5,79.5,408.5z"/>
<rect x="299" y="392.8" class="st0" width="0.7" height="2.1"/>
<rect x="123.5" y="463.9" class="st0" width="0.7" height="2.1"/>
<rect x="135.4" y="391.4" class="st0" width="2.1" height="0.7"/>
<path class="st0" d="M121.3,485.8c0.3,2,0.7,2,1,0C122,483.8,121.6,483.8,121.3,485.8z"/>
<rect x="253.1" y="378.2" class="st0" width="0.7" height="2.1"/>
<rect x="250.3" y="372.6" class="st0" width="2.1" height="0.7"/>
<rect x="298.3" y="366.4" class="st0" width="2.1" height="0.7"/>
<polygon class="st0" points="348.2,551.3 348.4,551.5 346.4,551.5 346.6,551.3 345.1,549.6 344.4,550.3 346.1,551.8 346.3,551.6 
	346.3,553.7 348.4,551.6 348.7,551.8 350.4,550.3 349.7,549.6 "/>
<rect x="150" y="556.5" class="st0" width="2.1" height="0.7"/>
<polygon class="st0" points="166.6,455.1 165.5,455.2 166.5,454.3 165.8,453.6 164.4,455.3 154.5,456.4 160.7,462.9 "/>
<rect x="353.4" y="557.9" class="st0" width="0.7" height="2.1"/>
<rect x="123.5" y="449.3" class="st0" width="0.7" height="2.1"/>
<rect x="115.1" y="447.2" class="st0" width="0.7" height="2.1"/>
<polygon class="st0" points="183.6,240.1 182.1,238.4 181.5,239.1 183.2,240.5 "/>
<path class="st0" d="M219.5,214.2c0.3,2,0.7,2,1,0C220.2,212.2,219.8,212.2,219.5,214.2z"/>
<rect x="307.4" y="211" class="st0" width="0.7" height="2.1"/>
<rect x="354.7" y="581.6" class="st0" width="2.1" height="0.7"/>
<rect x="184.1" y="206.9" class="st0" width="0.7" height="2.1"/>
<rect x="345" y="591.3" class="st0" width="0.7" height="2.1"/>
<rect x="239.8" y="144.9" class="st0" width="2.1" height="0.7"/>
<rect x="255.2" y="129.6" class="st0" width="0.7" height="2.1"/>
<rect x="214.8" y="126.1" class="st0" width="2.1" height="0.7"/>
<rect x="152.1" y="443.7" class="st0" width="2.1" height="0.7"/>
<rect x="330.4" y="117" class="st0" width="0.7" height="2.1"/>
<rect x="325.5" y="117.7" class="st0" width="2.1" height="0.7"/>
<rect x="334.6" y="599.7" class="st0" width="0.7" height="2.1"/>
<rect x="214.8" y="117.7" class="st0" width="2.1" height="0.7"/>
<rect x="244.7" y="114.9" class="st0" width="0.7" height="2.1"/>
<rect x="240.5" y="114.9" class="st0" width="0.7" height="2.1"/>
<rect x="205" y="110.7" class="st0" width="0.7" height="2.1"/>
<rect x="190.4" y="110.7" class="st0" width="0.7" height="2.1"/>
<rect x="240.5" y="108.7" class="st0" width="0.7" height="2.1"/>
<polygon class="st0" points="200.8,106.6 200.8,106.9 200.8,108.7 201.5,108.7 201.5,106.8 201.5,106.6 "/>
<rect x="317.8" y="100.3" class="st0" width="0.7" height="2.1"/>
<path class="st0" d="M70,621.6c-0.3-2-0.7-2-1,0C69.3,623.6,69.7,623.6,70,621.6z"/>
<rect x="198.7" y="635.2" class="st0" width="0.7" height="2.1"/>
<path class="st0" d="M143.2,439.8c-0.3-2-0.7-2-1,0C142.5,441.8,142.9,441.8,143.2,439.8z"/>
<rect x="351.3" y="23" class="st0" width="0.7" height="2.1"/>
<polygon class="st0" points="352.7,17.4 350.7,17.4 350.7,18.1 352.8,18.1 "/>
<path class="st0" d="M84.7,653c-0.3-2-0.7-2-1,0C84,655,84.4,655,84.7,653z"/>
<path class="st0" d="M116,659.3c-0.3-2-0.7-2-1,0C115.3,661.3,115.7,661.3,116,659.3z"/>
<path class="st0" d="M32.4,667.6c-0.3-2-0.7-2-1,0C31.7,669.6,32.1,669.6,32.4,667.6z"/>
<rect x="204.3" y="667.3" class="st0" width="2.1" height="0.7"/>
<path class="st0" d="M61.7,669.7c-0.3-2-0.7-2-1,0C61,671.7,61.4,671.7,61.7,669.7z"/>
<path class="st0" d="M67.9,669.7c-0.3-2-0.7-2-1,0C67.2,671.7,67.6,671.7,67.9,669.7z"/>
<rect x="286.5" y="668.6" class="st0" width="0.7" height="2.1"/>
<rect x="148.6" y="426.3" class="st0" width="0.7" height="2.1"/>
<rect x="144.4" y="426.3" class="st0" width="0.7" height="2.1"/>
<rect x="317.8" y="670.7" class="st0" width="0.7" height="2.1"/>
<polygon class="st0" points="276.2,675.1 275.5,675.8 277.2,677.3 277.7,676.8 "/>
<polygon class="st0" points="300.6,676.9 299.2,675.1 298.5,675.8 300.2,677.3 "/>
<rect x="106.8" y="426.3" class="st0" width="0.7" height="2.1"/>
<rect x="114.5" y="420.7" class="st0" width="2.1" height="0.7"/>
<rect x="233.6" y="694.4" class="st0" width="2" height="0.7"/>
<rect x="111" y="420" class="st0" width="0.7" height="2.1"/>
<path class="st0" d="M254.5,693.7h-4.2c0.2,3.1,2.6,1.8,4.2,2.1v0l1.7-0.7L254.5,693.7L254.5,693.7z"/>
<path class="st0" d="M34.6,280v-72.5l-16.1-2.9V279C19.2,277.8,31.9,280,34.6,280z"/>
<polygon class="st0" points="37.4,279.3 53.5,282.2 53.5,209.8 44.9,205.4 37.5,207.7 "/>
<path class="st0" d="M49.7,62l17.4,3.1c-2.1-10.9-2.8-20.7-2.8-31.7h-2.1c0,9.3-2.2,18-2.2,27.2c-5,0.2-6.1-3.6-8.4-5.5
	c6.4-16.7,3.6-33.7,4.5-51L50,4.5v9.3l4.2,4.5c-4.6,9.6-6,20.2-2.5,30.7C48.1,53.2,50.3,57.9,49.7,62z M52.1,31.7l1.1-0.1
	c0.3,1.9,0.5,3.7,0.8,5.6h-1.9V31.7z"/>
<path class="st0" d="M33.9,60.7l5.7-0.3c-2-10.1-1.9-16.7,0.1-26.9l-9.4-3.3C32.1,41.7,28.3,51.8,33.9,60.7z"/>
<path class="st0" d="M64.3,2.3h-5.7c-1.8,10.8,0.4,20.9,2.7,33.3C66.7,23.4,63.2,12.7,64.3,2.3z"/>
<polygon class="st0" points="47.3,36.3 41.7,33.7 41.7,59.9 47.3,62.5 "/>
<path class="st0" d="M74.9,66.9c-0.4-11.3,0.5-22.3-0.8-35.5c-3.4,12.3-7.3,22.2-5.2,32.7L74.9,66.9z"/>
<path class="st0" d="M32.6,204.6c-3-5.3-1.1-10.6-1.8-16.1l8.2-1.1l-0.2-1H24.7v13.5C27.6,200.5,27.8,205.8,32.6,204.6z"/>
<path class="st0" d="M16.1,41.9c0.1-1.4,0.2-2.7,0.3-3.8l4.4-1.4c-0.8-1.9-1.4-3.4-2-4.8l1.7-2.3c-3.4-0.6-6.2-0.8-8.6,3
	C12.3,35.5,10.8,39.5,16.1,41.9z"/>
<path class="st0" d="M14,48.7l2.4,3.1l-2,4.3l2.8,0.2c1.1-2.2,2.2-4.3,3.3-6.5c-0.7-1.2-1.3-2.2-1.6-2.8c0.7-1.7,1.2-3.1,1.9-4.8
	l-4.1-0.7C15.7,44.2,14.8,46.6,14,48.7z"/>
<path class="st0" d="M25.9,282.5l4.1,8.2c4.9-1.4,5.9-4.3,4.6-8.7L25.9,282.5z"/>
<path class="st0" d="M35.9,284.7c1.3,2.7,2.3,4.8,3.8,7.8c0.3,0.6,0.6,1.2,0.9,1.9c0.2-0.6,0.5-1.2,0.7-1.8c1.2-3.2,2.1-5.3,3.1-7.9
	H35.9z"/>
<path class="st0" d="M49,293.2c1.6-3,3.2-5.9,4.9-8.8h-9.3C46.3,287.7,47.4,290.1,49,293.2z"/>
<path class="st0" d="M27.1,25.4v18.1C28.5,37.5,29.2,31.4,27.1,25.4z"/>
<polygon class="st0" points="66,73.4 66,66.8 57.8,67.5 "/>
<polygon class="st0" points="58.1,188.6 44.2,188.6 43.4,189.6 58,189.6 "/>
<path class="st0" d="M74.2,27V16.7C72.3,19.9,72.3,23.8,74.2,27z"/>
<path class="st0" d="M70,286.3h-3.4c1,2.3,1.9,4.3,3.4,7.6V286.3z"/>
<polygon class="st0" points="78.6,190.1 70.9,190.6 70.9,191.9 78.6,191.9 "/>
<polygon class="st0" points="9.4,31.3 6,31.3 9.4,39 "/>
<path class="st0" d="M72.9,16.7c-0.3-2-0.5-4.1-0.8-6.1l-1.4,0.1c0.1,2,0.2,4.1,0.3,6.1L72.9,16.7z"/>
<path class="st0" d="M23.9,29.4l-1,0.1V33l1.8-0.1C24.4,31.8,24.2,30.6,23.9,29.4z"/>
<polygon class="st0" points="23.9,39.9 22.9,40.1 22.9,43.6 24.7,43.4 "/>
<path class="st0" d="M7.6,43.5c-0.1-0.6-0.2-1.2-0.2-1.8L4,42.5c0.1,0.3,0.1,0.7,0.2,1H7.6z"/>
<path class="st0" d="M77.7,117.1c-1,0.2-2,0.5-2.9,0.9l5.1,1.4C78.4,117.8,78,117,77.7,117.1z"/>
<rect x="22.5" y="282.8" class="st0" width="2.1" height="0.7"/>
<path class="st0" d="M23.1,63.7c0.3,2,0.7,2,1,0C23.8,61.7,23.4,61.7,23.1,63.7z"/>
<path class="st0" d="M27.2,57.5c0.3,2,0.7,2,1,0C27.9,55.5,27.5,55.5,27.2,57.5z"/>
<path class="st0" d="M23.6,55.9c2-0.3,2-0.7,0-1C21.6,55.2,21.6,55.6,23.6,55.9z"/>
<path class="st0" d="M8.4,55.4c0.3,2,0.7,2,1,0C9.1,53.4,8.7,53.4,8.4,55.4z"/>
<path class="st0" d="M4.3,55.4c0.3,2,0.7,2,1,0C5,53.4,4.6,53.4,4.3,55.4z"/>
<path class="st0" d="M23.6,51.7c2-0.3,2-0.7,0-1C21.6,51,21.6,51.4,23.6,51.7z"/>
<path class="st0" d="M244.8,556.1c-0.9,1.8-1.8,3.7-2.8,5.8h3.4c0.5-1.4,0.9-2.6,1.5-4.1l5.2,0.6c-0.9,2-1.5,3.4-2.8,6.3l4.9-1
	c0.2-2,0.4-3.6,0.6-5.4l7.7-1.2l-0.1-1.1L244.8,556.1z"/>
<path class="st0" d="M266.7,541.5h-16C256,542.9,261.4,544,266.7,541.5z"/>
<path class="st0" d="M271.5,542.9h11.8C279.4,541.6,275.3,540.4,271.5,542.9z"/>
<polygon class="st0" points="279.8,582.1 281.7,578.8 277.8,578.8 277.8,585.3 281.9,584.5 "/>
<rect x="269" y="552.2" class="st0" width="8.4" height="1"/>
<path class="st0" d="M282,548.9l4.1-2.2c-0.3-0.5-0.5-1-0.8-1.5l-6.2,0.8L282,548.9z"/>
<polygon class="st0" points="277.8,591.7 277.8,593.5 285.5,593 285.4,591.7 "/>
<path class="st0" d="M271.8,597.8l4.1-0.8l-5.3-5.2C271.3,595.4,271.5,596.5,271.8,597.8z"/>
<path class="st0" d="M253.4,538.7c1.6,0.2,3,0,4.4-0.7c0-1.1-8.8-1.1-8.8,0C250.4,538.7,251.8,538.9,253.4,538.7z"/>
<path class="st0" d="M248.3,591.1h5.9C251.7,589.1,251.7,589.1,248.3,591.1z"/>
<path class="st0" d="M271.2,578.5h5.9C274.7,576.6,274.7,576.6,271.2,578.5z"/>
<path class="st0" d="M262.6,534.2c0-0.3-0.1-0.7-0.2-1H259l0.2,1.8L262.6,534.2z"/>
<path class="st0" d="M274.8,582.9l-3.4,0.8c0.1,0.3,0.1,0.7,0.2,1h3.5L274.8,582.9z"/>
<path class="st0" d="M259.6,593.8c-1.5-1.6-1.9-2.4-2.3-2.4c-1,0.2-2,0.5-2.9,0.9L259.6,593.8z"/>
<path class="st0" d="M266,532.4c-0.7,1-0.7,2,0,3C266.7,534.4,266.7,533.4,266,532.4z"/>
<path class="st0" d="M266,536.5c-0.7,1-0.7,2,0,3C266.7,538.5,266.7,537.5,266,536.5z"/>
<rect x="246.8" y="541.2" class="st0" width="0.7" height="2.1"/>
<rect x="246.8" y="547.5" class="st0" width="0.7" height="2.1"/>
<rect x="259.3" y="551.6" class="st0" width="0.7" height="2.1"/>
<path class="st0" d="M284.8,554.2c0.7-1,0.7-2,0-3C284.1,552.2,284.1,553.2,284.8,554.2z"/>
<rect x="261.4" y="562.1" class="st0" width="0.7" height="2.1"/>
<rect x="254.5" y="569" class="st0" width="2.1" height="0.7"/>
<rect x="278.1" y="568.3" class="st0" width="0.7" height="2.1"/>
<rect x="279.5" y="573.2" class="st0" width="2.1" height="0.7"/>
<path class="st0" d="M266,578.3c-0.7,1-0.7,2,0,3C266.7,580.3,266.7,579.3,266,578.3z"/>
<path class="st0" d="M266,583.5c-2,0.3-2,0.7,0,1C268,584.2,268,583.8,266,583.5z"/>
<rect x="259.3" y="597.6" class="st0" width="0.7" height="2.1"/>
<path class="st0" d="M231.1,480.3v-5.5h-1.9c0.3,1.9,0.5,3.7,0.8,5.6L231.1,480.3z"/>
<path class="st0" d="M230.4,483.9c-0.9,2-0.9,4,0,6c0.2-1,0.5-2,0.7-3C230.9,485.9,230.6,484.9,230.4,483.9z"/>
<polygon class="st0" points="236,501.9 236,505.4 237.8,505.2 237,501.8 "/>
<rect x="229.4" y="502.2" class="st0" width="2.1" height="0.7"/>
<rect x="246.8" y="484.8" class="st0" width="0.7" height="2.1"/>
<rect x="204.3" y="518.9" class="st0" width="2.1" height="0.7"/>
<path class="st0" d="M237.9,487.1l1.7-1.4L239,485c-0.5,0.6-1,1.1-1.5,1.7l-1.7,1.5l0.7,0.7L237.9,487.1z"/>
<path class="st0" d="M315.8,506.1c1.4-1.5,2.4-2.6,4.5-4.8l-5.5,0.6C315.2,503.5,315.5,504.7,315.8,506.1z"/>
<polygon class="st0" points="316.8,486.5 316.7,484.7 313.2,485.5 313.3,486.5 "/>
<rect x="321.9" y="491" class="st0" width="1" height="4.2"/>
<polygon class="st0" points="311.1,491 311.1,491 311.1,491 "/>
<polygon class="st0" points="309,492.3 309.7,492.9 311.2,491.2 311,491 311.1,491 310.7,490.8 "/>
<path class="st0" d="M312.8,491.2c0.5,0.6,1,1.1,1.5,1.7l0.7-0.6l-1.7-1.5l-0.2,0.2c-0.2-0.6-0.5-1.1-0.7-1.7l-1.3,1.7h1.9
	L312.8,491.2z"/>
<rect x="321.3" y="502.2" class="st0" width="2.1" height="0.7"/>
<rect x="308.8" y="485.5" class="st0" width="2.1" height="0.7"/>
<path class="st0" d="M274.6,491.7l-5.1,8.7c0.9,1.4,1.5,2.2,2,3C271.6,499.9,275.6,497.4,274.6,491.7z"/>
<polygon class="st0" points="281.3,493.2 281.3,483.3 276.8,492.5 "/>
<path class="st0" d="M276.2,484.8c-1,0.2-2,0.5-2.9,0.9l5.1,1.4C276.9,485.6,276.5,484.8,276.2,484.8z"/>
<polygon class="st0" points="271.2,505.2 271.1,503.4 267,504.2 267.2,505.6 "/>
<path class="st0" d="M256.2,509.5V506l-1.8,0.2c0.3,1.1,0.5,2.3,0.8,3.4L256.2,509.5z"/>
<rect x="246.8" y="618.5" class="st0" width="0.7" height="2.1"/>
<rect x="246.8" y="622.7" class="st0" width="0.7" height="2.1"/>
<path class="st0" d="M266,629.5c-2,0.3-2,0.7,0,1C268,630.2,268,629.8,266,629.5z"/>
<rect x="273.9" y="443" class="st0" width="0.7" height="2.1"/>
<path class="st0" d="M323.5,438.9c0.5-1.4,1.1-2.7,1.8-4h-5.6v8h3.8C323.3,441.5,323.3,440.2,323.5,438.9z"/>
<polygon class="st0" points="333.9,461.3 333.8,459.5 329.7,460.3 329.9,461.7 "/>
<path class="st0" d="M11.9,396.3c0-0.4-0.1-0.7-0.1-1H8.3l0.1,1.8L11.9,396.3z"/>
<rect x="0.8" y="481.3" class="st0" width="0.8" height="0.7"/>
<polygon class="st0" points="82.9,507.9 84.3,509.6 85,509 83.3,507.5 "/>
<rect x="1.6" y="431.1" class="st0" width="2.1" height="0.7"/>
</svg>
