<?xml version="1.0" encoding="utf-8"?>
<!-- Generator: Adobe Illustrator 23.0.1, SVG Export Plug-In . SVG Version: 6.00 Build 0)  -->
<svg version="1.1" id="Layer_1" xmlns="http://www.w3.org/2000/svg" xmlns:xlink="http://www.w3.org/1999/xlink" x="0px" y="0px"
	 viewBox="0 0 358 485" enable-background="new 0 0 358 485" xml:space="preserve">
<g opacity="0.3">
	<defs>
		<path id="bg_2_" opacity="0.3" d="M-1,491.4c0,0,84.5,0.3,170,0c114.5-0.3,190-0.4,190-0.4V-11H-1V491.4z"/>
	</defs>
	<clipPath id="bg_1_">
		<use xlink:href="#bg_2_"  overflow="visible"/>
	</clipPath>
	<defs>
		<filter id="Adobe_OpacityMaskFilter" filterUnits="userSpaceOnUse" x="43.9" y="8.2" width="542.1" height="552.3">
			<feColorMatrix  type="matrix" values="1 0 0 0 0  0 1 0 0 0  0 0 1 0 0  0 0 0 1 0"/>
		</filter>
	</defs>
	<mask maskUnits="userSpaceOnUse" x="43.9" y="8.2" width="542.1" height="552.3" id="mask-2_1_">
		<g filter="url(#Adobe_OpacityMaskFilter)">
			<polygon id="path-1_1_" clip-path="url(#bg_1_)" fill-rule="evenodd" clip-rule="evenodd" fill="#FFFFFF" points="176,-203.2 
				789,69.1 564.6,574.2 -48.3,301.9 			"/>
		</g>
	</mask>
	<path id="hops_2_" clip-path="url(#bg_1_)" mask="url(#mask-2_1_)" fill-rule="evenodd" clip-rule="evenodd" fill="#534741" d="
		M395.6,560.5c0.3-0.2,0.5-0.4,0.7-0.6c0.9-1.2,1.7-2.5,2.6-3.6c0.6-0.9,1.2-1.7,2-2.5c2.1-2.1,3.8-4.5,5.1-7.1
		c2.6-4.5,4.3-9.5,5-14.7c0.1-1,0.4-2,0.6-3.1c0.3-1,0.3-2.1-0.1-3.1c-0.3-0.9-0.4-1.9-0.1-2.8c0.2-0.8,0.4-1.6,0.5-2.5
		c0.4-1.9,0.3-3.9-0.3-5.8c-0.6-1.6-0.6-3.4-1.4-5.1c-0.5-1.4-0.2-3,0.7-4.1c0.3-0.4,0.7-0.8,1.1-1.2c0.5-0.6,1.3-0.8,2-0.5
		c1.1,0.3,2.1,0.9,2.9,1.7l2.1,2.3c0.1,0,0.2,0,0.3,0c0.2,0,0.4-0.2,0.4-0.3c0.3-3.3-0.1-6.7-1.2-9.8l-1.3-4.2
		c-0.6-2.3-0.1-4.7,1.3-6.5c0.7-0.9,2-1.3,3.1-0.8c0.8,0.3,1.5,0.7,2.2,1.1c0.2,0.1,0.4,0,0.6-0.1c0.1-0.1,0.2-0.4,0.2-0.6
		c-0.4-1.9-0.8-3.9-1.4-5.8c-1.1-3.5-1.9-7-2.3-10.7c-0.2-1.5-0.6-3-1.3-4.3c-0.5-1-1.1-2-1.7-3c-0.2-0.1-0.3,0-0.5,0.1
		c-0.2,0.1-0.3,0.3-0.4,0.5c-0.3,0.9-0.7,1.7-1,2.6c-0.8,3-2,5.9-3.5,8.6c-0.5,0.9-0.4,1.3,0.3,1.9c1.2,0.8,2.3,1.8,3.2,3
		c0,0.1,0,0.4,0,0.6l-0.3-0.1l-0.5-0.4c-0.3-0.3-0.6-0.6-1-0.8c-2.8-1.9-2.8-1.9-4.4,1.1c-0.6,1.2-1.4,2.4-2,3.5
		c-0.2,0.4-0.2,0.9,0.1,1.2l4.2,4.6c0,0.1,0,0.4,0,0.6c-0.1,0-0.2,0-0.2,0c-0.3-0.1-0.5-0.3-0.8-0.5l-1.7-1.4c-0.6-0.5-1.3-1-2-1.5
		c-0.7-0.5-0.9-0.4-1.4,0.2l-0.6,0.7c-1.6,1.9-1.7,2,0.1,3.5c0.3,0.3,0.6,0.6,0.9,0.9c1,1.4,2.2,2.8,3.5,4c0.7,0.6,1.2,1.4,1.4,2.4
		c0,0.1,0,0.2-0.1,0.3l-0.2,0c-0.3-0.1-0.5-0.3-0.8-0.5c-2.1-1.5-4.2-3.1-6.1-4.9c-0.3-0.3-0.7-0.5-1-0.7c-0.4-0.2-0.9-0.2-1.2,0.1
		c-0.7,0.8-1.4,1.5-2,2.4c-0.3,0.3-0.2,0.8,0.1,1.1c0,0,0,0,0,0c0.5,0.4,1,0.8,1.4,1.2c1.3,1.2,2.6,2.3,3.9,3.6
		c0.3,0.4,0.6,0.8,0.7,1.3c0,0.2-0.8,0.1-1.6-0.3c-0.8-0.5-1.2-0.9-1.8-1.3c-0.3-0.2-0.5-0.3-0.9-0.4c-0.2,0-0.4,0.1-0.5,0.3
		c0,0.2,0,0.4,0.1,0.6l3.1,10.8c0.3,0.9,0.5,1.8,0.6,2.7c0.3,2.4,0.7,4.7,1.4,7c0.3,1.1,0.5,2.2,0.5,3.4c0.3,1.4,0.1,2.9-0.5,4.3
		c-0.7,1.5-1,3.2-0.9,4.9c0,1-0.2,2.1-0.6,3c-0.8,2.1-1.2,4.4-1.8,6.6c-0.1,0.4-0.3,0.8-0.4,1.2l-0.3,0c-0.1,0-0.2-0.1-0.2-0.2
		c-0.1-1.4,0-2.9,0.3-4.3c1-3.3,1.6-6.7,1.5-10.1c0-0.5,0.1-1,0.2-1.5c0.4-2.7,0.3-5.4-0.3-8.1c-0.1-0.2-0.2-0.3-0.3-0.5
		c-0.1,0.2-0.2,0.3-0.3,0.5c-0.5,1.2-0.9,2.4-1.5,3.4c-1.3,2.5-1.9,3.2-2.1,2.6c-0.4-1.2,0.4-2.2,0.9-3.2c0.5-1.3,0.8-2.6,0.8-3.9
		c0-1.6,0.2-3.1,0.3-4.5c0.1-0.9,0.2-1.9,0.1-2.8c-0.4-2.3-1.2-4.4-2.2-6.5c-0.1-0.1-0.1-0.1-0.2-0.2c-0.1,0-0.2,0-0.2,0
		c-0.1,0.2-0.2,0.4-0.3,0.6c-0.2,0.7-0.4,1.4-0.6,2.1c-0.7,3.4-2.1,6.6-4.1,9.4c0,0-0.4,0.2-0.4,0c-0.1-0.2-0.2-0.4-0.2-0.6
		c0.1-0.6,0.2-1.2,0.3-1.8c0.5-2,1.1-4,1.5-6c0.6-3,1.1-5.9,1.6-8.9c0-0.1-0.2-0.3-0.3-0.5c-0.1,0-0.2,0.1-0.2,0.2
		c-0.2,0.4-0.4,0.7-0.6,1.1c-2.8,5.3-6.2,10.1-10.2,14.5c-1,1.1-2,2.1-3.1,3.1c-0.5,0.4-0.6,1.1-0.3,1.7c0.3,0.6,0.6,1.3,0.9,2
		c0.4,1.5,0.8,1.3,2,0.6c2.3-1.5,5.3-1.2,7.2,0.8c1.1,1,2.1,2.1,2.8,3.3c2,3.2,3.1,6.9,3.3,10.7c0,2.4-0.1,4.7-0.4,7
		c-0.2,3.5-0.7,7-1.5,10.5c-0.4,1.6-1,3.2-1.5,4.7l0,0.3c0,0.1,0.1,0.2,0.3,0.1c0,0,0,0,0,0L395.6,560.5z M414.3,450.2
		c0.2-1.3,0.3-2.7,0.4-4l0.9-14.9c0-0.4,0.1-0.8,0.2-1.2c0.3-1.7,0.5-3.5,0.5-5.3c0.3-5.8,0.1-11.7-0.8-17.4
		c-0.3-2.9-0.8-5.8-1.3-8.6c-0.2-1.3-0.6-2.6-1-3.9l-2.3-8.7c-0.4-1.4-0.5-1.3-1.9-0.8c-1.3,0.5-2.3,1.5-2.9,2.7
		c-0.4,0.7-0.6,1.5-0.6,2.3c0.1,1.1,0,2.3,0.1,3.4c0,0.6,0.2,1.2,0.4,1.8c0.7,1.6,1.2,3.3,1.5,5.1c0.3,2.2,0.9,4.4,1.3,6.7
		c1.1,5.1,1.7,10.3,1.7,15.6c-0.1,0.7,0,1.5,0.1,2.2c0.5,4.2,0.5,8.5,0,12.7c-0.2,2.7-0.3,5.4-0.3,8.1c0.1,3.3-0.2,6.7-0.9,9.9
		c-0.4,1.8-0.5,3.7-0.3,5.6c0.1,3.1-0.2,6.2-0.9,9.3c-0.2,0.8-0.4,1.6-0.6,2.3c0,0.1,0.2,0.3,0.2,0.5c0.1,0.2,0.2-0.1,0.2-0.2
		c0.6-1.6,1.4-3.2,1.9-4.9c1.9-6.1,3.4-12.1,4.6-18.2L414.3,450.2z M418.8,426.5c0.6-0.8,0.9-1.7,1-2.6c0.1-3.6,0.4-7.3,1-10.9
		c0.2-1.7,0.2-3.3,0.1-5l0.2-9.7c0-0.6,0.1-1.2,0.2-1.9c0.7-2.8,0.8-5.7,0.3-8.6c-0.2-2-0.3-4-0.2-6c0-2.1-0.2-4.2-0.5-6.2
		c-0.3-2.2-0.7-4.4-1-6.8c-0.2-1.5-0.2-3.1,0-4.7c0.2-2,0.5-3.9,1-5.8c0.2-0.4-0.3-0.7-0.8-0.6c-1.6,0.4-2.8,1.5-3.4,3
		c-0.3,0.7-0.5,1.4-0.8,2c-0.3,0.9-0.9,1.7-1.6,2.2c-1,0.8-1.6,2-1.6,3.2c-0.5,3.7-0.5,7.5,0.1,11.2c0.4,2.8,1,5.5,1.9,8.2
		c0.1,0.4,0.1,0.8,0.1,1.2c0.4,3,0.7,6,1.3,8.9c0.2,1.8,0.9,3.7,1,5.5c0.1,1.9,0.1,3.5,0.3,5.3l0.6,5c0.1,2.9,0,5.8,0,8.7
		c0,1.2,0.1,2.5,0.2,3.7c0,0.2,0.2,0.4,0.3,0.5c0,0,0.4,0,0.5-0.2L418.8,426.5z M450.8,391c1.7,0.8,3.4,1.7,5,2.6
		c6.1,3.4,11.8,7.5,16.8,12.4c1.7,1.7,3.1,3.6,4.6,5.5c1.6,1.8,2.6,3.2,4,4.8c2.6,3.1,5.4,6.1,8,9.2c0.7,0.9,1.4,1.8,2,2.8
		c2.2,3.5,4.3,7.1,6.5,10.7c2,3.3,3.9,6.7,5.5,10.1c1.8,3.3,3.3,6.7,4.7,10.2l0.7,2.2c0.5,1.5,1,3,1.6,4.3c1.6,3.6,3,7.3,4,11.1
		c0.6,2.4,1.3,4.8,2,7.2c0.4,1.3,0.9,2.6,1.4,3.8c1,2.2,1.9,4.4,2.5,6.7c0.4,1.7,1.1,3.4,2.1,4.9c1.2,2,2,4.2,2.4,6.5
		c0.3,1.4,0.8,2.8,1.3,4.2c0.9,2.2,1.6,4.5,1.9,6.9c0.4,2.2,0.9,4.4,1.7,6.6c0.1,0.2,0.3,0.3,0.5,0.3c0.2,0,0.4-0.2,0.4-0.3
		c0.2-2.8,0.2-5.6-0.2-8.4l-0.4-3.1c-0.1-0.7-0.5-0.8-1.1-0.7c-0.2,0-0.6-0.3-0.6-0.6c-0.2-0.8-0.4-1.6-0.5-2.5
		c-0.7-5.5-1.5-10.9-2.1-16.4c-0.4-3.2-1.1-6.4-1.7-9.5c-0.6-3.1-1.3-6.6-1.9-9.8c-0.2-1.1-0.6-2.2-1-3.3c-0.8-2.4-1.5-4.8-1.9-7.2
		c-0.1-1.1-0.6-2.2-1-3.3l-3.3-11.7c-0.3-0.9-0.5-1.8-0.9-2.6c-1.4-3.4-2.7-6.8-4.3-10c-1.6-3.6-3.5-7.1-5.7-10.4
		c-2-2.8-3.9-5.7-5.7-8.5c-0.8-1.3-1.4-2.8-2.2-4.2c-2-3.7-4.3-7.2-6.8-10.4c-4.1-4.9-8.1-9.8-12.1-14.7c-0.8-1-1.8-2-2.7-3l-5.6-6
		c-1.6-1.8-3.4-3.4-5.4-4.7c-1.2-0.8-2.3-1.7-3.5-2.6c-1-0.9-2.1-1.7-3.3-2.4c-6.9-4.5-14.4-8.1-22.2-10.9c-0.6-0.2-1.2-0.4-1.8-0.5
		c-1.9-0.4-2.6-0.1-3.3,1.8c-0.4,0.9-0.6,1.8-0.5,2.7c0,0.4,0.5,0.8,0.9,0.7c0.3-0.1,0.8-0.3,1.2-0.3c0.7-0.2,1.5-0.3,2.2-0.3
		c4.5,0.3,8.8,2,12.2,5c0.1,0.1,0.2,0.3,0.2,0.5l-0.6,0.1c-1.7-0.7-3.5-1.4-5.2-2c-1.5-0.5-3.1-0.8-4.6-1c-1.8-0.2-3.5,0.1-5.2,0.8
		c-0.6,0.2-1.1,0.8-1,1.4c0.1,0.8,0.2,1.7,0.3,2.5c0.2,1.4,0.7,1.8,2.1,1.7c2.5-0.2,5,0.1,7.4,0.8c3.1,1,6.2,1.9,9.2,3.1
		c3.4,1.4,6.5,3.3,9.4,5.5c3,2.2,5.9,4.6,8.8,7c1.5,1.3,2.9,2.7,4.3,4.1c1,1,2,2,3.1,3c1.6,1.4,3,2.9,4.1,4.7
		c0.7,0.9,1.4,1.8,2.2,2.6c0.7,0.7,1.4,1.5,2,2.4c0.6,1.6,1.6,3.1,3,4.1l3.7,5.8l6.1,9.4c0.3,0.4,0.6,0.8,1,1.2c2,2,3.6,4.4,4.7,6.9
		l5.6,12.2c0.2,0.4,0.3,0.8,0.4,1.2c0.8,3.2,1.8,6.4,3,9.5c0.7,2.2,1.7,4.3,2.9,6.2c0.5,1,1,2.1,1.4,3.1l0,0.3c0,0.1-0.3,0-0.3-0.1
		c-1.6-2.3-3-4.8-4-7.4c-1.2-3-2.3-6-3.3-9.1c-1.4-3.8-3.1-7.5-5.1-11c-0.7-1.3-1.5-2.5-2.1-3.8c-1.3-2.6-3-5-5-7.2
		c-0.5-0.5-0.9-1.1-1.3-1.8c-1.5-2.4-2.8-4.8-4.3-7.2c-3.2-5.5-7-10.6-11.4-15.2c-1.2-1.1-2.2-2.5-2.9-4c-0.3-0.7-0.8-1.2-1.3-1.7
		c-4.7-4.5-9.6-8.6-14.7-12.5c-2.9-2.2-6-4.2-9.2-5.9c-3.7-1.9-7.7-3.2-11.8-4.1c-1.7-0.4-3.5-0.4-5.3-0.1c-0.5,0-0.9,0.5-0.9,1
		l0,0.1c0.1,0.8,0.3,1.6,0.5,2.4c0.3,1,1.2,1.7,2.3,1.7c3.9,0.3,7.6,1.4,11,3.2c4.1,2.1,8,4.5,11.7,7.2c0.3,0.2,0.6,0.5,1,0.8
		c0.2,0.2,0.5,0.6,0.5,0.8c-0.1,0.2-0.5,0.1-0.7-0.1c-1.8-1-3.7-2-5.5-3c-2.7-1.5-5.5-2.9-8.4-4.1c-2.8-1.1-5.8-1.7-8.8-1.7
		c-0.8-0.1-1.2,0.7-0.9,1.5c0.2,0.5,0.4,1,0.5,1.5c0.1,1.2,0.9,2.2,2.1,2.4c0.6,0.2,1.2,0.3,1.8,0.5c4.7,1.1,9.3,2.9,13.6,5.2
		L450.8,391z M516.4,439.7l0.1-0.3c0-0.7,0.1-2.3,0.1-3.1c0-0.8-0.1-1.7-0.2-2.5c-0.4-3.9-1-7.8-1.3-11.8c-0.3-3-0.3-6-0.4-9
		c-0.1-2.2-0.4-4.4-0.7-6.5c-0.3-2.2-0.6-3.7-0.5-5.6c-0.1-2.1-0.3-4.2-0.7-6.2c-0.3-1.7-0.3-3.5-0.5-5.3c-0.8-6-0.4-12.1-2-18
		c-0.8-2.9-1.6-5.8-2.5-8.7c-1.7-5.4-3.4-10.8-5.5-15.9c-1.3-3.1-2.5-6.1-3.7-9.2c-0.3-0.8-0.5-1.6-0.8-2.4
		c-0.2-0.7-0.4-1.4-0.7-2.1c-1.6-4.2-3.6-8.2-5.7-12.1l0-0.3c-2.7-6.1-6.4-11.7-9.5-17.6c-1.7-3.4-3.1-7-4.4-10.6
		c-0.5-1.5-1-3-1.5-4.4c-0.4-1.1-0.9-2.1-1.5-3.1c-1.4-2.6-2.3-5.4-2.7-8.3c-0.1-0.8-0.3-1.6-0.6-2.4c0-0.1-0.1-0.2-0.2-0.2
		c-0.1,0-0.2,0.1-0.2,0.2c-0.4,1-0.5,2-0.3,3.1l0.6,4l0.1,0l0.3,1.9c0.1,1.7,0.5,3.3,1.1,4.9c0.3,0.7,0.5,1.4,0.6,2.2
		c0,0.2,0,0.4-0.1,0.6c0,0-0.3-0.2-0.4-0.3c-0.7-1.4-1.3-2.8-1.8-4.2c-0.6-1.9-1.4-3.7-2.4-5.4c-0.4-0.8-0.4,0.1-0.7,0.1
		c-1,0.6-1,1.4-0.7,2.4c2.1,6.1,4.5,12.1,7.3,17.9c1.3,3.2,2.9,6.3,4.1,9.5c1,2.8,2.1,5.6,3.3,8.4c2.7,6.1,5.2,12.2,8.3,18.2
		c0.9,1.7,1.6,3.4,2.2,5.2c0.3,1.1,0.8,2.1,1.2,3.2c0.8,1.9,1.5,3.9,2,5.9c0.3,1.2,0.7,2.4,1.2,3.5c0.4,1.4,0.9,2.8,1.3,4.2
		c0.8,3.5,1.9,7,3.1,10.4c0.8,2.5,1.4,5,1.8,7.6l2.3,14.5c0.4,2.7,0.1,5.4,0.4,8.1c0,0.1-0.1,0.2-0.2,0.3l-0.2-0.2
		c-0.6-1.2-1-2.5-1-3.9c-0.3-4.9-0.9-9.8-1.9-14.6l-0.5-3.4c-0.4-2.9-1.2-5.7-2.5-8.3c-1.1-2.2-2-4.6-2.5-7
		c-0.6-2.3-1.4-4.6-2.3-6.8l-2-5.6c-0.1-0.4-0.3-0.8-0.4-1.2c-1.7-3.6-2.9-7.3-4.8-10.8c-0.6-1.2-1.1-2.4-1.5-3.8
		c-1.1-4-2.6-7.9-4.5-11.6c-0.8-1.7-1.6-3.4-2.2-5.2c-1.6-4.5-3.4-9-5.2-13.4c-1.8-4.4-3.6-9.3-5.2-14c-0.2-0.7-0.5-1.3-0.9-2
		c-0.2-0.3-0.7-0.4-1.1-0.4c-0.4-0.1-0.9,0.7-0.8,1.2c0,0.5,0.1,1,0.2,1.5c0.1,0.7,0.5,1.4,0.8,2.1l4,11.1c0.1,0.3,0.3,0.6,0.3,0.9
		c0.6,3.7,2.2,7.2,3.1,10.8c0.4,1.5,0.9,3,1.4,4.5c0.8,2.7,1.7,5.4,2.4,8.1c0.2,1,0.4,2,0.5,3.1c0,0.1,0,0.2,0,0.3
		c0,0-0.3-0.2-0.3-0.3c-0.7-1.8-1.5-3.7-2.1-5.5c-1.2-3.6-2.6-7.2-4.2-10.7c-1-2.3-1.9-4.6-2.6-7c-0.5-2.4-1.3-4.7-2.3-6.9
		c-0.1-0.3-0.3-0.6-0.5-0.8c-0.1-0.1-0.3-0.2-0.5-0.2c-0.1,0-0.3,0.3-0.3,0.4c0.3,2.1,0.5,4.2,1,6.2c0.5,2,1.3,4.2,1.9,6.3
		c0.2,0.6,0.4,1.2,0.5,1.8c0.5,3.2,1.3,6.3,2.5,9.3c0.5,1.6,1,3.2,1.4,4.8c1.3,4.8,3,9.5,5,14.1c2.4,6.2,4.9,12.4,7.1,18.7
		c2,5.8,3.9,11.6,5.6,17.5c1.1,3.9,2.5,7.7,3.9,11.5c0.9,2.3,1.7,4.7,2.2,7.1c0.3,1.2,0.7,2.4,1.1,3.6c1.6,4,3.1,7.9,4.7,11.9
		c0.4,0.9,0.8,1.7,1.4,2.5c0.8,1.2,1.7,2.3,2.6,3.5c0.6,0.7,1.2,1.5,1.6,2.3c1.3,2.9,2.7,5.8,4.3,8.6c1.3,2.8,2.6,6.5,4,9.3
		c0,0.1,0.2,0.1,0.4,0.2c0.1,0,0-0.1,0.1-0.2L516.4,439.7z M465.6,263.3c0.8-2,1.5-4.1,2.1-6.2c0.7-2.6,1.7-5.1,2.7-7.7
		c1.6-4.2,2.7-8.5,3.4-12.9c1.1-7.7,1.8-15.5,2-23.3c0.2-4-0.2-8.1-0.3-12.1c-0.1-1.7-0.6-3.3-1.3-4.8c-0.4-0.9-0.6-1.8-0.7-2.7
		c-0.8-4.6-2.2-9.1-4-13.4c-3.5-8.3-8-16.1-13.5-23.2c-1.9-2.5-4-4.8-6.4-6.9c0,0-0.3-0.1-0.5-0.1c-0.2,0-0.1,0.4,0.1,0.6
		c0.7,1.1,1.4,2.1,2.1,3.1c2.7,3.8,5,7.9,7,12.1c0.8,1.7,1.5,3.4,2.1,5.2c1.2,3.4,3,6.6,4.1,10.1c1.5,4.6,2.7,9.4,3.3,14.3
		c0.1,0.7,0.1,1.5,0.1,2.2c0.1,1.3,0.1,2.7,0.3,4c0.4,1.9,0.5,3.9,0.4,5.9c0,1.9,0,3.7,0.2,5.6c0.1,1.6,0.1,3.1,0,4.7
		c-0.1,5.5-0.6,11-1.4,16.5c-0.1,0.6-0.2,1.2-0.3,1.8c-1,3.3-1.9,6.6-2.9,9.9c-1.7,5.3-3.4,10.7-5.4,16c-0.8,2.6-1.2,5.2-1,7.9
		c0.1,3.2,0.3,6.4,0.6,9.6c0.2,2.2,0.7,4.4,1,6.5c0,0.1,0.1,0.2,0.2,0.3c0,0,0.3,0,0.3-0.3c0.2-0.7,0.3-1.4,0.4-2.2
		C461,276.7,462.7,269.7,465.6,263.3L465.6,263.3z M448.5,153.4c0.1,0.2,0.1,0.4,0.2,0.5c0.9,1.8,1.7,3.6,2.7,5.3
		c1.8,3.2,3.3,6.5,4.5,10c0.3,0.9,0.7,1.7,1,2.6c0.8,2.1,1.4,4.3,1.8,6.5c0.6,3.7,1.2,7.4,2,11c0.7,3.6,1,7.2,0.8,10.9
		c0,0.8,0,1.5,0.1,2.3c0.3,3.5,0.4,7.1,0.2,10.6c0,2.1-0.1,4.2-0.2,6.2c-0.1,2.1-0.4,4.8-0.6,7.1c-0.4,4.6-1,9.2-1,14
		c-0.1,2.6-0.3,5.2-0.7,7.8l-0.3,4c0,0.2,0.1,0.4,0.3,0.5c0,0,0.3,0,0.4-0.2c0.1-0.2,0-0.2,0.1-0.3c2.1-5.1,3.9-10.3,5.5-15.6
		c1-3.8,1.6-7.7,1.9-11.6c0.2-2.6,0.3-5.2,0.4-7.8c0.1-2.4,0.1-4.8-0.2-7.2c-0.2-1.1-0.1-2.3-0.1-3.4l-0.3-4.3l-0.3,0
		c-0.1-1.6,0-3.3-0.2-4.9c-0.5-2.8-0.7-5.6-1.2-8.3c-0.9-4.4-2.3-8.7-4.1-12.8c-1.1-2.5-2.1-5-3.1-7.5c-0.2-0.6-0.4-1.2-0.7-1.7
		c-2.3-4.9-5-9.6-8.2-13.9c-0.1-0.1-0.3-0.2-0.4-0.3C448.4,153,448.4,153.2,448.5,153.4z M487.8,387.3c-2.4-4.3-5-8.4-7.8-12.4
		c-0.7-1-1.4-2-2-3.1c-1-1.7-2.1-3.4-3.3-4.9c-0.5-0.6-0.9-1.4-1.4-2.1c-1.7-2.5-3.3-5-5.1-7.5c-1.4-1.9-2.7-3.9-3.9-6
		c-1.3-2.4-2.8-4.6-4.2-7c-2-3.4-3.8-7-5.4-10.6c-1.8-4.1-3.5-8.2-5.2-12.4c-1.6-3.8-2.9-7.8-3.7-11.9c-0.4-1.9-1-3.8-1.5-5.7
		c-0.1-0.2-0.2-0.3-0.3-0.4l-0.2,0.5c-0.1,0.3-0.2,0.7-0.4,0.8c-0.7,0.5-0.7,1.2-0.6,2c0.2,1.6,0.2,3.3,0.4,5
		c0.2,1.6,0.5,3.1,0.8,4.6c0.5,3.3,1.3,6.5,2.4,9.7c0.1,0.6,0.2,1.2,0.2,1.8c0,0-0.1,0.2-0.2,0.3c-0.1,0.1-0.2,0-0.2-0.1
		c-2-2.4-3.5-5.2-4.4-8.2c-0.2-1-0.6-2-1-3c-0.5-1.3-0.8-2.6-0.9-3.9c-0.1-0.8-0.6-1-1.4-0.8c-0.8,0.2-1.6,0.4-2.4,0.6l-2.5,0.3
		c-0.8,0.1-1.2-0.5-1.7,0.1c0.2,0.4,0.5,0.9,0.7,1.4c1,1.5,2,2.9,3,4.3c0.6,0.8,1.2,1.7,1.7,2.6c1.5,3.2,1.7,3.1-1.9,3.4l-2.2,0.3
		c-1.2,0.1-3.2,0.8-5.2,1.2c-1.9,0.4-4.1,0.7-6.2,1c-0.1,0.1-0.2,0.1-0.3,0.2c0,0,0,0.2,0.2,0.2c0.1,0.1,0.2,0.1,0.3,0.1
		c2.4,1,4.9,1.6,7.5,1.9c1.5,0.1,2.9,0.6,4.1,1.4c2.9,1.8,5.9,3.5,8.8,5.4c1.6,1.2,3,2.5,4.3,4c2.6,2.9,5.3,5.8,7.9,8.8
		c1.1,1.3,2.1,2.6,3.1,3.9c3.3,4.4,6.6,8.9,9.9,13.3c1.4,1.8,2.7,3.6,4.3,5.4c2.9,3.4,6.1,6.6,8.9,10.1c2.4,2.9,4.4,6,6.5,9.1
		c1,1.3,1.9,2.7,2.8,4.2c0.9,1.4,1.5,2.5,2.2,3.8l4.5,8.2c0,0.2,0.4,0.3,0.6,0.4c0.1-0.3,0.1-0.6,0.1-0.9c-0.4-1.7-1-3.4-2-4.9
		c-2.5-4.7-5.1-9.5-7.8-14.3L487.8,387.3z M466.9,343.3c-0.1-0.5-0.2-1-0.3-1.5l-3.9-11.5c-0.7-2.2-1.3-4.6-1.8-6.9
		c-1.5-7.7-2.6-15.4-3.2-23.2c-0.2-2.2-0.2-4.4-0.1-6.6c0-0.3,0.3-0.8-0.1-1c0,0-0.4,0.5-0.5,0.7c-0.4,1.6-0.7,3.2-1,4.9
		c-0.1,0.9-0.1,1.9-0.3,2.8c-0.2,0.8-1,1.2-1.8,1c-0.1,0-0.3-0.1-0.4-0.2c-0.4-0.3-0.7-0.7-1-1.1c-1-1.6-2-3.2-3-4.8
		c-0.3-0.4-0.6-0.8-1-1.2c-0.2-0.1-0.4,0-0.5,0.1c-0.2,0-0.2,0.3-0.3,0.5c0,0.2,0,0.5,0.1,0.7l3.8,12.8c0.4,1.4,0.8,2.8,1.1,4.2
		c0.5,1.8,1.1,3.6,2,5.2c1.1,2.1,2,4.3,2.7,6.6c0.1,0.4,0.3,0.8,0.5,1.2c2.5,5.1,4.5,10.5,7.5,15.4c0.4,0.7,0.9,1.4,1.4,2.1
		c0,0,0.2,0,0.3,0.1c0.1,0.1-0.2-0.1-0.2-0.2L466.9,343.3z M439.3,290c-0.3-2.9-1-5.7-1.9-8.5c-0.4-1.3-0.6-2.7-1-3.9
		c-1.5-4.6-3.4-9-5.7-13.1c-1.4-2.5-3.1-4.9-4.5-7.5c-2.2-3.3-3.9-6.9-5.3-10.6c-0.1-0.4-0.3-0.8-0.6-1.1c-0.2-0.1-0.3-0.2-0.5-0.2
		c0,0-0.2,0-0.2,0.2c-1,2.8-1.8,5.7-2.5,8.7c-0.5,2.3-0.9,4.7-1.1,7.1c-0.3,5.7-0.6,11.3-0.7,17.1c-0.1,4.1,0.8,8.1,2.8,11.7
		c0.2,0.4,0.3,0.8,0.3,1.2c0.3,2.4,1.3,4.7,3,6.4c1.1,1.1,2.1,2.3,3.2,3.4l4.6,5.1c0.1,0.1,0.3,0.3,0.5,0.4c0-0.2,0.2-0.4,0.1-0.6
		c-0.4-1.7-0.9-3.4-1.4-5.1l-2.6-8.7c-0.1-0.3-0.1-0.6-0.1-0.9c-0.5-4.3-1.3-8.6-1.4-13c0-0.4-0.1-0.8,0-1.2c0.2-3,0.4-6,0.6-9.1
		c0.2-1,0.4-2,0.7-3c0.1-0.1,0.2-0.1,0.3-0.2c0.1,0,0.1,0.1,0.2,0.1c0.1,0.6,0.2,1.2,0.2,1.8l0.2,9c1,3,0.5,6.2,1.9,9.1
		c0.2,0.4,0.3,0.8,0.3,1.2c0.9,7.2,3.6,13.8,5.7,20.7c0.9,3.1,0.9,2.6,4.1,2.1c0.8-0.1,1-0.5,1.1-1.3c0-3.9,0.1-7.9,0.1-11.8
		C439.4,293.9,439.3,292,439.3,290L439.3,290z M445.3,286.1c0.2-0.1,0.3-0.3,0.4-0.5c1.8-2.9,3.1-6.1,3.9-9.5
		c0.4-2.1,0.9-4.3,1.5-6.4c0.7-3,1-6.1,1.1-9.2c0.1-4.3-0.2-8.5-0.9-12.7c-0.3-1.7-0.9-3.4-1.6-5l-6.8-15.7
		c-1.6-3.5-2.8-7.1-3.6-10.8c-0.3-1.4-0.7-2.8-1.2-4.2c0,0,0-0.2-0.2-0.2c-0.1,0-0.2,0-0.3,0c-0.3,0.3-0.5,0.7-0.6,1
		c-0.7,1.7-1.4,3.3-1.9,5c-1.3,4.5-2.6,9-3.9,13.5c-0.8,3.5-1.2,7-1.3,10.5c0,1.8,0.3,3.5,0.6,5.3l0.3,2.8c0.2,1.6,0.8,3.2,1.6,4.6
		c2.5,4,4.5,8.2,6.2,12.6c0.4,1.2,0.6,2.6,1.9,3.3c0.5-1.1,0.7-2.4,0.6-3.6c0.3-4,0-8.1-0.8-12.1c-1.2-4.8-2-9.8-2.6-14.7
		c-0.2-3.2-0.1-6.4,0.2-9.7c0,0,0-0.2,0.1-0.3c0.1-0.1,0.3,0.2,0.3,0.4l0.4,3.1c0.2,2.7,0.7,5.4,1.5,8c0.4,3.5,1.4,6.9,2.9,10.1
		c1.5,4,2.2,8.3,2.1,12.5c-0.1,4.5-0.7,8.9-2,13.2c-0.2,0.5-0.3,1-0.2,1.5c0.7,2.4,1.3,4.8,1.6,7.3c0,0,0,0.2,0.2,0.2
		C445,286.3,445.1,286.2,445.3,286.1z M421.7,218.6c0.1-7-0.5-13.9-1.9-20.8c-0.7-3.1-1.6-6.1-2.4-9c-0.6-1.9-1.4-3.7-2.4-5.4
		c-1.9-3.9-4.3-7.6-7-11c-3.1-3.7-5.9-7.5-8.5-11.5c-2.8-4.3-5.9-8.3-9.4-12.1c-1.3-1.3-2.5-2.8-3.3-4.5c0-0.2-0.3-0.3-0.5-0.3
		c-0.2,0-0.5,0.3-0.5,0.5c-0.2,0.8-0.3,1.7-0.4,2.5c-0.2,0.8-0.4,2.1-0.6,3c-1.2,4.7-2.5,9.5-3.7,14.2c-0.5,2.2-0.8,4.5-0.9,6.9
		c-0.2,2.6-0.2,5.2-0.3,7.8c-0.1,1.3,0.3,2.5,1.2,3.4c1.7,1.7,3.3,3.5,4.9,5.3c5.9,6.7,11.5,13.7,16.7,21.1c0.4,0.5,0.8,1,1.1,1.5
		c0.1,0.1,0.2,0.1,0.3,0.1c0.2,0,0.4-0.3,0.4-0.4c0-2.5-0.2-5-0.7-7.4c-0.5-1.8-0.7-3.7-0.8-5.5c-0.1-1.5-0.4-2.9-1-4.3
		c-0.7-1.7-1.3-3.5-1.6-5.4c-0.2-1.4-0.6-2.8-1.2-4.2c-1.1-2.8-2-5.7-2.7-8.7c-0.8-2.7-1.7-5.3-2.5-8l-0.5-1.8l0-0.3
		c0.1,0,0.4,0,0.4,0.1c0.7,1.1,1.5,2.3,2.1,3.4c2.3,4.2,4.3,8.5,6.1,13c0.6,1.6,1.4,3.3,1.9,5c0.8,2.1,1.4,4.3,1.9,6.5
		c0.6,2.9,1.5,5.6,2.2,8.4c0.3,1.5,0.5,3.1,0.6,4.6c0,1.2,0,2.5,0.2,3.7c0.6,3.1,0.9,6.2,1.1,9.3c0.2,1.6,0.6,3.1,1.1,4.5
		c2.2,5.5,3.5,11.3,4,17.3l0.4,3.4c0.1,0.2,0.2,0.3,0.4,0.3c0.2-0.1,0.4-0.2,0.5-0.4c1.1-2.8,1.6-5.8,1.3-8.9
		c-0.2-1-0.1-2.1,0.3-3.1c0.3-1,0.4-2.1,0.2-3.1l-0.8-5.6c-0.2-0.8-0.1-1.7,0.3-2.4c0,0,0.2-0.2,0.2-0.2c0.1,0,0.4,0.1,0.5,0.2
		l3.1,9.8c0.1,0.4,0.3,0.8,0.5,1.1c0,0.1,0.4,0.2,0.6,0.2c0.2,0.1,0.1-0.2,0.1-0.3l-0.3-5.3C421.4,223.6,421.3,221.1,421.7,218.6
		L421.7,218.6z M369.6,130.5c-5.8-7-12.6-13.1-20.2-18c-0.4-0.3-0.9-0.6-1.3-0.9c-2.3-1.7-4.7-3.5-7-5.2c-2.9-2.3-6.1-4.1-9.5-5.4
		c-1.3-0.5-2.4-1.2-3.4-2.1c-0.4-0.3-0.8-0.1-0.8,0.5c-0.1,1.8,0.1,3.5-0.2,5.3c-0.1,2.2-0.1,4.4,0.1,6.5c0.1,2.8,0.6,5.6,1.4,8.2
		c0.5,2.2,1.2,4.2,1.7,6.3c1,3.5,2,7,2.8,10.5c1.5,4.9,3.5,9.6,6,14c1.3,2.5,2.6,5,4,7.4c1.1,1.9,2.4,3.7,3.9,5.3
		c2.2,2.5,4.4,5,6.5,7.6c2,2.4,4.2,4.6,6.7,6.5c2.3,1.8,4.5,3.7,6.7,5.6c2.1,2,4.1,4.2,5.7,6.6c0.5,0.8,1.2,1.5,1.7,2.2
		c0.1,0,0.2,0,0.3,0c0.1,0,0.1-0.1,0.2-0.2c0.1-0.3,0.1-0.6,0.1-0.9c0-1,0-2.1,0.1-3.1c0.1-1.5,0-2.9-0.5-4.3
		c-1.7-4.7-3.5-9.3-5.3-14c-0.1-0.3-0.2-0.6-0.3-0.9c-2.6-4.7-4.5-9.8-6.9-14.7c-1.2-2.3-2.1-4.7-3.4-7c-1.4-2.7-2.9-5.3-4.6-7.8
		c-3.2-4.6-6.2-9.4-9.2-14.1c-2.6-3.9-5.6-7.5-9.1-10.7c-0.8-0.8-1.6-1.6-2.4-2.5c-0.1-0.1-0.1-0.2,0-0.3c0-0.3,0.2-0.3,0.4-0.1
		c3.4,3,7.2,5.7,10.4,9c3.2,3.5,6.3,7.2,9,11.1c1.8,2.3,3.4,4.7,5.1,7.1c1.9,2.7,3.5,5.6,5,8.7c1,2.1,2.1,4.1,3,6.2
		c0.9,2.1,1.9,4.3,2.9,6.5c0.5,1,1,2.1,1.5,3.1c1.5,2.6,2.7,5.4,3.7,8.2c0.1,0.3,0.3,0.5,0.5,0.8c0.1,0.1,0.4,0.2,0.5,0.3
		c0.1-0.1,0.1-0.2,0.1-0.3c0.3-2,0.5-3.9,0.9-5.9c0.3-2,0.6-3.5,1-5.2c0.9-3.8,1.4-7.8,1.2-11.8c0-1.1-0.3-2.3-0.8-3.3
		c-0.4-0.7-0.7-1.5-0.9-2.3C375.2,138.5,372.7,134.2,369.6,130.5L369.6,130.5z M276.6,244c-2.1-0.2-4.1-0.2-6.2,0.1
		c-0.8,0.2-1.6,0.1-2.3-0.2c-0.8-0.4-1.6-0.5-2.4-0.2c-1,0.2-6,1.9-7,2c-1.8,0-6.1,3.6-9.5,9.1c-1.4,1.9-1.8,4.4-1.3,6.7
		c0.3,1.5,0.8,3,1.3,4.5c0.3,0.6,0.7,1,1.1,1.4c0.4,0.4,0.9,0.8,1.4,1.2c0.1,0.2,0.2,0.3,0.3,0.5c-0.3,0.1-0.5,0.2-0.8,0.2
		c-0.5,0-1-0.1-1.5-0.3c-0.8-0.5-1.7-0.8-2.6-0.8c-0.6-0.1-1.2-0.3-1.7-0.6c-2.3-1.5-4-3.8-4.7-6.5c-0.2-1.1-0.3-2.2-1.3-2.9
		c-0.3-0.2-0.3-0.7-0.4-1.1c-0.4-1,0-2.2,1-2.7c1.2-0.7,2.3-1.5,3.4-2.2c1.1-0.7,1.2-1.3,0.9-1.8c-0.4-0.5-1.1-0.4-1.7-0.3
		c-4.3,1.3-8.2,3.6-11.4,6.8c-0.7,0.7-1.3,1.4-2,2c-0.1,0.2-0.4,0.2-0.5,0.3c-0.1-0.2-0.1-0.4-0.1-0.6c0-1.4,0.1-2.7,0.3-4.1
		c0.4-2,1-4,1.5-6.1c0.6-1.6,1.5-3,2.6-4.3c0.3-0.3,0.6-0.6,1-0.7c0.4-0.2,1-0.4,1.4-0.6c0.4-0.3,1.9-0.2,2.1-1.1
		c0.1-0.6-0.5-1.3-0.9-1.9c-0.7-1.1-1.4-2.1-2.1-3.2c-0.4-0.5-0.6-1.1-0.5-1.8c0.2-2,0.4-4,0.7-5.9c0.2-0.7,0.6-1.4,1.1-2
		c0.1-0.2,0.4-0.3,0.7-0.4c0.1,0.2,0.1,0.4,0.2,0.6c0.2,1.3,0.3,2.5,0.4,3.7c0.4,2.6,1.4,5.1,2.9,7.2c0.4,0.7,1.2,1.1,2,0.9
		c0.9-0.1,1.9-0.1,2.8,0.2c1.5,0.4,3.2,0.4,4.7,0.1c3.5-0.7,6.3,0.3,8.8-1.2c2.3-1.3,4.8-2,7.4-2.2c2.2-0.1,13.3-2,15.4-1.9
		c0.5,0,1,0.1,1.5,0.2c1.4,0.2,2.5,1.2,2.9,2.5c0.4,1.5-7.9,4.9-7.4,6.4C277.9,243.8,277.8,244.2,276.6,244L276.6,244z M239.1,289.9
		c-0.4,1.9-0.9,3.9-1.4,5.7c-1.1,3.6-2.7,7-4.9,10.1c-2.4,3.8-5.2,7.3-8.3,10.5c-0.9,1-2,1.9-3,2.7c-2.1,1.6-4.2,3.2-6.3,4.7
		c-1.8,1.2-3.4,2.7-4.8,4.4c-0.1,0.3-0.5,0.4-0.7,0.5c-0.1-0.2-0.2-0.5-0.2-0.8c0.5-4.5,1.2-9.1,2.2-13.5c0.6-3.1,1.5-6,2.8-8.9
		c0.8-1.7,1.7-3.4,2.6-5c1.1-2,2.1-4,3.4-5.9c3.2-4.6,6.9-8.9,10.9-12.8c0,0,0.3-0.1,0.3-0.1c0,0,0.3,0.3,0.2,0.4
		c-0.8,2.1-1.6,4.2-2.5,6.4c-0.4,1.1-1.1,2-1.5,3.1c-0.8,2-1.7,4-2.8,5.9c-0.4,0.6-0.7,1.3-0.9,2.1c-0.5,2.1-1.5,4.1-2.8,5.9
		c-0.3,0.4-0.5,0.9-0.5,1.5c-0.5,1.8-1.3,3.5-2.5,5c-0.2,0.3-0.3,0.6-0.3,0.9c0,0.1-0.1,0.2-0.1,0.2c0.1,0,0.4,0,0.4-0.1
		c0.6-0.7,1.2-1.5,1.8-2.2c1.7-2.2,3.2-4.6,4.9-6.8c1.3-1.8,2.4-3.7,3.3-5.6c2.8-4.8,5.1-9.8,7.1-14.9c0.8-2.1,1.8-4.1,2.7-6.3
		l0.5-1.5c0.2-0.5-0.1-1.3,0.6-1.6c0.2,0.6,0.3,1.2,0.4,1.8C240.2,280.5,240,285.3,239.1,289.9z M204.8,323.9
		c-2.3,1.2-4.8,2-7.3,2.6c-2.1,0.4-4.1,0.7-6.1,1.3c-3.5,0.9-7.1,1.4-10.7,1.6c-1.2,0.1-2.5,0.3-3.7,0.4c-1.2,0.1-2.1,0.2-3.1,0.2
		c-1.5,0-2.9-0.1-4.4-0.1c-3.9-0.1-3.8,0.2-2.8-2.8c0.2-0.8,0.5-1.7,0.9-2.4c1.3-2.3,2.5-4.6,3.5-7c0.3-0.6,0.5-1.1,0.6-1.7l1.4-3.8
		c2.1-4.3,4.5-8.4,7.2-12.4c1.1-1.8,2.4-3.4,3.7-5c0.6-0.8,1.6-1.1,2.5-0.8l5.1,1.6c0.2,0,0.3,0.2,0.4,0.4c0,0.2-0.1,0.4-0.2,0.6
		c-1,0.9-2,1.9-3,2.7c-3.6,3-6.4,6.9-8.1,11.3c-0.4,1-0.9,1.9-1.4,2.8c-1.2,2.2-2.1,4.6-2.6,7c0,0.2,0.1,0.4,0.3,0.5
		c0.1,0.1,0.5,0,0.5-0.1c0.8-1,1.5-2,2.1-3c2.6-4,5.5-7.8,8.8-11.3c0.5-0.5,1-1,1.6-1.5c2.6-2.1,5.1-4.3,7.7-6.4
		c0.7-0.5,1.4-0.9,2.1-1.3c0.8-0.5,1.7-0.7,2.6-0.7c1.6,0,3.3-0.1,5-0.2c0.5,0,1.1-0.4,1.4,0.2c0.3,0.6-0.3,0.8-0.4,1.1
		c-2.3,2.6-4.2,5.5-6.3,8.2c-3.4,4.2-7,8.2-10.9,12c-1.2,1.3-2.5,2.5-3.6,3.9c-0.5,0.6-1.4,1-1.2,1.9c0.6-0.4,1.2-0.8,1.8-1.2
		c0.6-0.4,0.6-0.6,1-0.8c2.1-1.1,4-2.6,5.6-4.4c4.5-3.9,9-7.8,13.5-11.7c0.2-0.2,0.6-0.2,0.8-0.3c0,0.2-0.1,0.4-0.2,0.5
		c-1.3,2.6-2.2,5.4-2.5,8.3c-0.5,2.2-0.7,4.5-0.6,6.8c0,0.5,0,1,0,1.6C206,323,205.5,323.7,204.8,323.9z M195.3,339
		c-1.8,2.3-3.6,4.6-5.5,6.8c-4.6,5.1-9.7,9.8-15.2,13.9c-3.2,2.3-6.8,4.2-10.5,5.5c-1.7,0.6-3.4,1.1-5.1,1.5
		c-0.4,0.1-0.7-0.2-0.8-0.6c0,0,0-0.1,0-0.1c0.5-2.8,1.2-5.6,2.2-8.3c1.9-5.1,0.6-3.9,5.6-5.3c0.4-0.1,0.8-0.2,1.2-0.3
		c3-0.5,5.9-1.6,8.5-3.1c0.6-0.3,1.1-0.5,1.7-0.7c4.4-1.4,8.5-3.5,12.2-6.3c1.8-1.3,3.6-2.5,5.4-3.7c0.2-0.1,0.3-0.1,0.5-0.2
		C195.4,338.4,195.5,338.8,195.3,339z M157.9,349.3c-3.4,0.3-6.8,0.8-10.2,1.2c-0.4,0-0.8-0.3-0.8-0.7c0-0.2,0-0.4,0.1-0.6
		c0.7-2.5,1.3-5,2-7.6c0.7-2.6,1.5-5.2,2.2-7.8l0.4-1.2c1.4-3.9,3.3-7.7,5.7-11.1c0.3-0.4,0.7-0.7,1.2-0.8c0.9-0.2,1.8-0.4,2.8-0.5
		c0.5-0.1,0.8,0.3,0.7,0.7c-0.6,1.7-1,3.4-1.7,5c-0.6,1.7-1.1,3.4-1.5,5.1c-0.3,0.8-0.2,1.7,0.1,2.4c0.3,0.6,0.2,1.3-0.2,1.7
		c-0.6,1-1.3,1.9-2.1,2.7c-1.2,1.4-2.3,3-3.1,4.7c-0.2,0.5-0.2,1-0.2,1.5c0,0,0.3,0.3,0.4,0.3c0.2,0,0.4-0.2,0.5-0.3
		c1.2-1.3,2.6-2.4,4.1-3.2c1.6-1,3-2.3,4-3.8c0.6-1,1.9-1.5,3-1.1c1.3,0.2,2.7,0.4,4,0.5l1.2,0.1c0.3,0.1,0.6,0.4,0.5,0.7
		c0,0.1-0.1,0.2-0.1,0.3c-0.9,1.2-1.7,2.3-2.6,3.5c-0.2,0.2-0.4,0.5-0.5,0.8c0,0.3,0.1,0.6,0.2,0.8c0,0,0.4,0.1,0.5,0
		c0.3-0.1,0.5-0.3,0.8-0.5c2.6-1.8,5.1-3.6,7.7-5.4c0.6-0.4,1.3-0.7,2-0.8l6.8-0.7l0.3,0.1c0,0,0.1,0.5,0,0.6
		c-4.7,5.3-10.7,9.2-17.4,11.3C165.3,348.3,161.6,348.9,157.9,349.3z M150.6,364.8c-2.7,0.3-5.3,0.9-7.9,1.6c-1.5,0.4-3,0.6-4.6,0.7
		c-4.1,0.3-8.1,0.5-12.2,0.8c-3.3,0.1-6.6-0.3-9.8-1.2c-0.7-0.1-1.1-0.7-1.1-1.4c0-0.1,0-0.2,0.1-0.3c0.3-1.2,0.7-2.4,1.3-3.5
		c2.3-3.9,4.6-7.7,6.9-11.5c0.6-1.2,1.8-1.9,3.1-1.9c1.2,0,2.5-0.2,3.7-0.3c1.3-0.1,2.5-0.3,3.7-0.4c0.5,0,1.1-0.5,1.3,0.2
		c0.2,0.6-0.5,0.8-0.8,1.2c-0.3,0.4-0.7,0.8-1.1,1.1c-2.3,1.8-4.3,3.9-6.1,6.2c-0.2,0.3-0.4,0.7-0.4,1.1c0,0.1,0,0.2,0,0.3
		c0.1,0.1,0.1,0.1,0.2,0.1c1.2-0.7,2.3-1.4,3.3-2.2c1.2-1.1,2.6-2.1,4-3c1-0.7,2-1.5,3-2.3c1.1-1,2.3-1.8,3.7-2.3
		c0.3-0.1,0.9,0.3,0.8,0.6c-0.2,0.8-0.4,1.6-0.5,2.4c-0.2,0.8,0.1,1.2,0.9,1.3c3.8,0.9,7.6,1.3,11.5,1.3c0.5,0,1-0.1,1.6-0.1
		c0.5,0,0.9,0.3,0.7,1.1c-0.6,2.3-1.3,4.6-1.9,7c-0.2,0.4-0.3,0.7-0.4,1.1C153.1,363.9,151.9,364.9,150.6,364.8z M114.3,354.5
		c-0.3,0.8-1.1,1.3-1.9,1.2c-3.2-0.2-6.4-0.3-9.7-0.5c-2-0.1-3.9-0.2-5.9-0.2c-2.1,0-4.2-0.3-6.1-1c-3.1-1-6.2-1.8-9.4-2.4
		c-0.4-0.1-0.8-0.1-1.2-0.2c-1.6-0.4-2-1.1-1.7-2.8c0.2-0.9,0.5-1.8,0.8-2.7l2-5.3l0.6-1.7c1.3-3.8,3.2-7.5,5.4-10.9
		c0.4-0.8,1.3-1.4,2.3-1.3c2.9,0.1,5.8,0.4,8.7,0.9c0,0,0.2,0.4,0.2,0.5c-0.3,0.3-0.6,0.6-0.9,0.8c-2.7,1.8-5.4,3.6-8.1,5.4
		c-0.4,0.3-0.9,0.6-1.3,0.9c-0.7,0.6-1,1.4-0.6,1.6c0.4,0.2,1,0,1.5-0.3c2.1-1.3,4.4-2.3,6.7-3c3.6-1.4,7.1-3,10.4-5
		c1-0.5,2-1.1,3-1.6c0.7-0.4,1.6-0.6,2.4-0.5c0.4,0,0.7,0.3,0.7,0.6c0,0.2,0,0.3-0.1,0.4c-1.1,1.7-2,3.4-2.6,5.3
		c-0.4,1-1.1,1.8-2.1,2.2c-1.1,0.5-2.1,1-3,1.7c-2.9,2.1-5.9,4.2-8.7,6.5c-1.4,1.2-2.7,2.6-3.9,4c0,0.1-0.1,0.2-0.1,0.3l0.4,0.2
		c1-0.6,2-1.1,3-1.7c1-0.6,1.4-0.9,2.1-1.3c3-1.5,5.9-3,8.8-4.5l0.5,0.2c0.2,0.1,0.1,0.2,0.1,0.3c0,0.1,0,0.2-0.1,0.3l-1.8,4.7
		c-0.5,0.9-1.2,1.7-2,2.3c-0.8,0.7-1.6,1.3-2.4,2c-0.8,0.7-0.7,1.2-0.3,1.2c0.4,0.1,0.8,0,1.1-0.2c1.6-1.1,3.4-2.1,5.2-2.8
		c0.6-0.4,1.4-0.5,2.1-0.3c2.6,0.6,5.3,1.1,8,1.3c0.3,0,0.6,0.3,0.5,0.6c0,0.1,0,0.2-0.1,0.3C116.2,351.3,115.2,352.9,114.3,354.5z
		 M79.3,319.4l-0.3-0.1c-1.1-0.2-1.4-0.7-1-1.8l3.1-8.2c2.4-7.2,5.8-14.1,10.1-20.4c0.5-1,1.5-1.5,2.5-1.4c1.4,0.1,2.9,0,4.4,0
		c2,0,4-0.1,5.9,0c0.2,0,0.4,0.1,0.5,0.3c0,0.2,0,0.4-0.2,0.5c-1.2,1-2.4,1.9-3.7,2.8c-3,1.9-5.7,4.3-7.9,7c-1.6,2-3.1,4.2-4.4,6.4
		c-0.2,0.5-0.3,1-0.3,1.5c0,0.1,0,0.2,0.1,0.3l0.4,0.2c1.5-1.5,3-2.9,4.4-4.5c1.6-1.7,3.3-3.2,5.3-4.4c1.9-1.3,3.7-2.6,5.6-3.9
		c1.5-1,3.1-1.9,4.5-2.8c1.9-1.2,3.8-2.5,5.7-3.8c0.5-0.4,1-0.7,1.6-0.8c3.1-0.4,6.2-1.1,9.2-1.9l0.5,0.2c0,0.2,0,0.4-0.2,0.5
		c-2,2.3-4.2,4.3-6.8,6c-4.4,2.9-8.6,6.2-12.5,9.8c-1.6,1.3-3.1,2.8-4.7,4.1c-1.7,1.4-3.1,3.1-4.2,5c0,0.1,0.1,0.4,0.1,0.5
		c0.1,0.2,0.2,0.1,0.3,0.1c0.3-0.1,0.6-0.2,0.9-0.4c0.4-0.3,0.8-0.6,1.2-1c1.1-0.9,2.2-1.9,3.4-2.8c0.4-0.4,0.8-0.7,1.2-0.9
		c2.9-1.1,5.6-2.8,7.9-4.9c2.5-1.9,5.2-3.5,8-4.8c0.9-0.4,1.7-0.9,2.5-1.3c0.2-0.1,0.4-0.1,0.6-0.1c-0.1,0.2,0.1,0.4,0.1,0.6
		c-0.8,2.1-1.8,4.1-2.7,6.3c-1.9,3.5-3.5,7.1-4.8,10.8c-0.2,0.7-0.4,1.4-0.6,2.2c-0.2,1.1,0.5,2.1,1.5,2.4c0.5,0.2,1,0.2,1.5,0.4
		c0.5,0.2,0.4,0.6,0.4,0.7c-1,1.5-2,2.9-3,4.4c-0.4,0.5-1,0.7-1.7,0.7c-1.4,0.1-2.9,0.2-4.4,0.1c-3-0.1-6-0.5-9-1.1
		c-0.8-0.2-1.6-0.3-2.5-0.3c-2.4,0.1-4.8-0.1-7.2-0.5C86.9,320.5,83,320.3,79.3,319.4z M75.5,337.5c-0.3,0.6-1,0.9-1.6,0.8
		c-2.1-0.2-4.1-0.1-6.2-0.5c-2.4-0.4-4.7-0.9-7-1.5c-1.6-0.4-3.1-1.2-4.7-1.7c-2.6-1.1-5.3-1.9-8.1-2.4c-0.9-0.2-1.8-0.5-2.6-1
		c-0.5-0.2-1.4,0.3-1.5-0.6c-0.1-0.9,0.4-1.1,0.8-1.6l6.4-11.1c1.8-3,3.9-5.9,6.2-8.6c0.3-0.4,0.8-0.7,1.3-0.7
		c2.9,0.1,5.8,0.3,8.7,0.5l0.2,0.1l-0.2,0.5c-0.3,0.2-0.7,0.5-1.1,0.7c-4.2,2.8-8.2,6.1-11.7,9.8c0,0-0.2,0.1-0.1,0.3
		c0.1,0.1-0.2,0.5-0.1,0.9c0.2,0,0.4,0,0.6-0.1c0.3-0.1,0.5-0.3,0.8-0.5c0.8-0.5,1.5-1.1,2.2-1.7c2.7-2.5,5.9-4.4,9.3-5.7
		c2.3-1,4.5-2.1,6.8-3.2c0.2-0.1,0.4,0,0.6,0.1c0.1,0.1,0.2,0.3,0.1,0.5l-3.1,8.2c-0.3,0.6-0.7,1-1.2,1.4c-2.4,1.7-4.8,3.4-7.1,5.1
		c-1.9,1.4-3.9,2.8-5.8,4.2c-0.3,0.3-0.6,0.6-0.8,0.9c-0.1,0.2-0.1,0.4,0,0.6c0.1,0.1,0.3,0.2,0.5,0.2c1-0.3,2-0.8,2.9-1.3
		c2.1-1.3,4.4-2.5,6.7-3.4c1.5-0.7,2.9-1.5,4.4-2.3c0.7-0.5,1.6-0.6,2.4-0.4l5.1,1.4c0.4,0.1,0.4,0.7,0.1,1c-1.4,1.3-3.1,2.3-4.9,3
		c-1.4,0.6-2.6,1.6-3.5,3c-0.1,0.1-0.2,0.5,0,0.6c0.2,0.2,0.5,0.3,0.8,0.3c0.6-0.2,1.1-0.5,1.6-0.9c1.5-0.8,3.1-1.2,4.8-1.4
		c0.3,0,0.6,0.2,0.6,0.5c0,0.1,0,0.2,0,0.3C77.3,333.5,76.4,335.5,75.5,337.5z M51.9,300.9c-1-0.5-1.2-1-0.7-2
		c0.9-1.9,1.9-3.7,3.1-5.4c1.2-1.8,2.3-3.7,3.5-5.5c1.2-1.8,2.2-3.3,3.4-4.9c2.3-3.1,4.7-6.1,6.9-9.4c0.5-0.9,1.5-1.4,2.5-1.4
		l4.4-0.1c-0.1,1.5-0.6,3-1.6,4.2c-0.8,1.5-1.3,3.1-1.5,4.7c-0.1,0.8-0.6,1.6-1.3,2c-1.1,0.6-2.2,1.2-3.1,2c-2.7,1.7-5,3.8-6.8,6.3
		c0,0.1,0,0.2,0.1,0.3L61,292c0.4-0.2,0.7-0.3,1.1-0.5c2.8-1.7,5.7-3.3,8.7-4.6c1.5-0.7,3.3-0.9,4.9-0.4c1,0.3,2,0.5,3,0.7
		c1.4,0.3,2.9,0.3,4.3,0.1c0,0,0.4,0.4,0.3,0.4c-1.1,2-2.9,3.6-5.1,4.4c-3,1.1-6.1,2.2-9.1,3.2c-1.4,0.4-2.8,0.7-4.2,1.1
		c-0.9,0.2-1.8,0.6-2.5,1.2l-0.1,0.2c0,0.1,0.1,0.2,0.2,0.2c0.2,0.1,0.4,0.2,0.6,0.2c2.6-0.5,4.9-0.9,7.3-1.5c1.6-0.5,3.3-0.7,5-0.5
		c0.6,0.1,1.3-0.1,1.8-0.4c0.8-0.6,1.6-0.9,2.6-1c0.4-0.1,0.8,0.3,0.9,0.7c0,0.1,0,0.2,0,0.3l-0.1,0.3l-0.4,1
		c-0.9,1.9-1.7,3.7-2.5,5.5c-0.2,0.6-0.8,1-1.5,1c-2.1,0.1-4.1,0.2-6.2,0.3c-2.1,0-4-0.1-5.9-0.2c-0.6,0-1.3-0.1-1.9-0.3
		c-2-0.7-4-1-6.1-1.2C54.6,302,53.2,301.6,51.9,300.9z M67.4,268l0.1-0.3c4.9-5.5,10.2-10.7,16-15.3c0.7-0.6,1.5-1.1,2.2-1.5
		c2-1.2,3.9-2.6,5.6-4.2c0.5-0.5,1.1-0.9,1.8-1.3c0.6-0.3,1.3-0.2,1.7,0.3c0.2,0.1,0.2,0.5,0.4,0.9c-0.6,0.7-1.3,1.4-1.9,2
		c-1.5,1.3-2.8,2.9-3.9,4.5c-1,1.4-2.2,2.8-3.3,4.2c-1.5,2-3.1,3.9-4.6,5.9c-0.7,1-1.3,2.1-1.9,3.2c-0.6,1.2-1.8,2-3.2,2.1
		c-2.6,0.1-5.2,0.3-7.8,0.5c-0.3,0-0.6-0.1-0.9-0.2c-0.3,0-0.5-0.3-0.4-0.5C67.3,268.2,67.3,268.1,67.4,268z M73.1,249.2
		c-0.5-0.1-1-0.3-1.4-0.5c-0.4-0.2-0.6-0.6-0.4-1c0.1-0.2,0.2-0.4,0.3-0.5c4.2-5.7,9.4-10.6,15.4-14.5c4.1-2.5,8-5.3,12-8
		c0.4-0.3,0.9-0.5,1.3-0.8c0.1,0,0.2,0,0.3,0c0.1,0.2,0.2,0.3,0.2,0.5c0,0.3-0.1,0.6-0.2,0.9c-0.3,0.9-0.8,1.7-1.6,2.2
		c-2.8,2.2-5.6,4.4-8.3,6.6c-0.2,0.2-0.5,0.4-0.7,0.7c-0.9,1.2-1.9,2.2-3.1,3.1c-0.3,0.2-0.6,0.5-0.9,0.9c-0.7,0.9-0.4,2.2,0.5,2.9
		c0.1,0,0.1,0.1,0.2,0.1l2.3,0.9c0.4,0.1,0.6,0.5,0.5,0.8c0,0.2-0.1,0.3-0.3,0.4c-0.5,0.5-1.1,1-1.6,1.4c-2.2,1.6-4.4,3.1-6.5,4.7
		c-0.5,0.4-1.1,0.6-1.7,0.4C77.2,250,75.1,249.7,73.1,249.2z M104.5,229.4c1.7-1.2,3.5-2.2,5.4-3.1c5-2.4,10.1-4.4,15.4-6.1
		c3.7-1.2,7.5-1.7,11.2-2.6c1.3-0.2,2.6,0,3.7,0.7c0.4,0.1,1.1,0.6,1.8,1.1c0.1,0,0.1,0.5,0,0.5c-0.3,0.2-0.6,0.3-0.9,0.3
		c-2.6,0.7-5.3,1.3-7.9,2.1c-2.7,0.7-4.8,1.5-7.1,2.4c-2.4,0.9-3.9,1.5-5.7,2.4s-3,1.6-4.4,2.4l-3.5,2c-1.1,0.5-1.8,1.4-2.1,2.6
		c0,0.2,0.1,0.3,0.3,0.4c0.5-0.1,1-0.3,1.5-0.5c4.9-2.2,9.9-4,15-5.3c1.3-0.3,2.7-0.5,4-0.6c1.3-0.2,2.5-0.2,3.7-0.4
		c3.3-0.7,6.6-1.2,9.9-1.7c2.5-0.3,5-0.2,7.4,0.4c0.2,0.1,0.4,0.3,0.6,0.5c-0.1,0.2-0.3,0.3-0.5,0.4l-4.9,1.9
		c-3.2,1.1-6.1,2.7-8.8,4.7c-0.6,0.6-1.4,0.9-2.3,0.8c-1.9-0.1-3.8,0.2-5.5,0.9c-1.7,0.5-3.4,0.9-5.2,1.1c-1.9,0.1-3.7,0.7-5.3,1.8
		c-1,0.7-2.2,1.3-3.3,1.9c-0.1,0.1-0.1,0.2-0.1,0.3c-0.1,0.3,0.1,0.3,0.4,0.3c1.1-0.2,2.2-0.5,3.3-0.8c2.1-0.7,4.3-1,6.4-1l4.9-0.4
		c0.2,0,0.3,0.1,0.4,0.3c0,0.2-0.1,0.4-0.2,0.5c-2.1,2.2-4.3,4.3-6.4,6.4c-0.4,0.3-1,0.5-1.5,0.3c-3.7-0.3-7.4-0.6-11.2-1
		c-2.7-0.2-5.4-0.7-8-1.4c-0.5-0.1-1-0.2-1.5-0.2c-1.4-0.2-2.9-0.5-4.2-1.2c-1.4-0.7-2.9-1.2-4.4-1.6c-0.7-0.2-1.4-0.5-2.1-0.8
		c-0.5-0.2-0.7-0.6-0.6-1.1c0.1-0.2,0.2-0.3,0.3-0.4c0.8-0.7,1.5-1.4,2.4-2C98.3,234,101.4,231.6,104.5,229.4z M110.2,217.6
		c1.7-1.8,3.4-3.4,5.1-5.1c2.5-2.5,5.3-4.6,8.5-6.2c2.4-1.3,4.9-2.4,7.3-3.5c1.9-0.9,3.9-1.4,6-1.6c2.9-0.3,5.8-0.8,8.6-1.6
		c1.1-0.3,2.2-0.5,3.4-0.6c0.2,0,0.4,0.1,0.5,0.2c0,0,0,0.4-0.2,0.4c-3.3,1.7-6.4,3.9-9.2,6.4c-2.3,1.8-4.4,3.8-6.5,5.8
		c-0.7,0.7-1.6,1.1-2.5,1.1c-4.3,0.3-8.5,1.3-12.3,3.2l-10.2,4.7c-0.4,0.2-0.8,0.3-1.1,0.4c-0.1,0-0.2-0.1-0.3-0.1
		c0,0-0.1-0.2,0-0.3C108.3,219.8,109.2,218.6,110.2,217.6z M156.7,204.2c4-1.5,8.1-2.7,12.3-3.6c4.8-0.8,9.8-0.8,14.6-0.1
		c4.2,0.9,8.1,2.7,11.6,5.1c1.8,1.5,3.8,2.6,5.7,4c1.9,1.3,3.7,2.7,5.4,4.2c2.8,2.6,5.7,5.2,8.4,7.9c2.4,2.4,5,4.7,7.6,7
		c1.2,1,2.2,2.2,3,3.5c0.2,0.4,0.3,0.8,0.4,1.2c0,0.1,0,0.2-0.1,0.3c-0.1,0.1-0.2,0.1-0.3,0.1c-0.3-0.1-0.6-0.2-0.9-0.3
		c-2.7-1.9-5.4-3.8-8.2-5.8c-1.6-1.3-3.5-2.3-5.4-3c-0.6-0.1-1.2-0.4-1.7-0.6c-2.7-1.6-5.6-2.9-8.5-3.9c-1.9-0.7-3.8-1.6-5.7-2.5
		c-3.6-2-7.6-3-11.7-3c-1.5-0.1-3.1-0.2-4.6-0.5c-0.1,0-0.2,0-0.3,0c0.1,0.2,0.2,0.4,0.3,0.6c0.7,0.8,1.7,1.3,2.7,1.4
		c0.8,0.2,1.6,0.3,2.5,0.3c2.3,0.2,4.4,0.8,6.5,1.8c0.7,0.3,1.4,0.6,2,1.1c3.2,2.3,6.7,4.2,10.4,5.7c2.2,0.9,4.2,2.3,6.4,3.3
		c3.1,1.5,6,3.4,8.6,5.6c0.9,0.7,1.9,1.3,2.8,2c0.2,0.1,0.2,0.5,0.3,0.8c-0.2,0-0.4,0.1-0.6,0.1c-2.7-0.2-5.3-1-7.8-2.2
		c-2.9-1.3-5.9-2.2-8.9-2.7c-1.6-0.2-3-0.9-4.3-1.8c-1.3-0.9-2.8-1.5-4.3-1.8c-0.4-0.1-0.8-0.1-1.2-0.2c-5-1.5-9.9-3.1-15-4.7
		c-2.6-1-5.4-1.5-8.2-1.7c0,0-0.2,0.2-0.3,0.4c-0.1,0.1,0,0.2,0.1,0.3c0.1,0.2,0.2,0.3,0.4,0.4c0.3,0.1,0.6,0.3,0.9,0.3
		c3.2,1.2,6.4,2.5,9.5,4.1c2.5,1.1,5,2,7.6,2.8l0,0.1l3.5,1.3c2.6,0.8,5.1,1.9,7.3,3.4c1.8,1.3,3.6,2.4,5.4,3.7
		c0.3,0.2,0.3,0.7,0.1,0.9c0,0-0.1,0.1-0.1,0.1c-0.3,0.2-0.6,0.3-0.8,0.4c-2.5,1.6-5.6,1.9-8.4,0.9c-1.7-0.4-3.4-1-5.1-1.5
		c-2.4-0.8-4.7-1.8-6.8-3.1c-1.3-0.7-2.5-1.5-3.6-2.4c-0.6-0.7-1.3-1.3-2-1.9c-0.7-0.4-1.6-0.2-2.4-0.5c-0.8-0.3-1.5-0.7-2.2-1.2
		c-3.6-2.4-7.2-4.6-10.5-7.3c-2.9-2.4-6.2-4.2-9.8-5.4l-5.9-2.2c-2-0.6-4-1-6.1-1.2c-0.7,0-1.4-0.3-2-0.7c-0.1-0.2-0.2-0.4-0.1-0.5
		c0.1-0.3,0.3-0.5,0.6-0.7c1.2-0.8,2.4-1.6,3.7-2.2C147.7,208.2,152.1,206.1,156.7,204.2z M135.2,256.1c0.3,0.4,0.7,0.1,1.1-0.2
		l0.2-0.2l0.8-0.5c4.7-3.3,9.6-6.2,14.8-8.8c2-1.1,4.1-2,6.2-2.8c1.1-0.4,2.1-0.8,3.2-1.4c3.5-1.8,7.2-3.3,11-4.5l0.6-0.2
		c1.9-0.8,4-0.7,5.7,0.3c2,1.1,3.9,2,5.8,3c0,0,0.2,0.2,0.2,0.2c0,0-0.2,0.4-0.4,0.5c-2.7,0.9-5.5,1.9-8.3,2.6
		c-6.6,1.9-12.9,4.8-18.6,8.7c-1.8,1.2-3.7,2.4-5.5,3.6c-0.8,0.5-1.5,1.1-2.3,1.5c-0.2,0.1-0.2,0.3-0.2,0.5c0.1,0.2,0.3,0.3,0.4,0.3
		c1.6-0.3,3.2-0.9,4.7-1.7c1.6-0.9,3.4-1.7,5.2-2.2c1.8-0.6,3.5-1.3,5.3-1.9c6.9-2.4,13.9-4.2,21.1-5.4c2.2-0.3,4.3-0.5,6.5-0.5
		c0.2,0,0.4,0.1,0.5,0.3c0.1,0.2,0.1,0.4,0,0.6c-1.3,1.6-2.4,3.4-3.3,5.3c-0.2,0.6-0.8,1-1.4,1.1c-2.4,0.6-4.8,1.3-7.3,1.8
		c-3.2,0.6-6.3,1.4-9.3,2.5c-1.6,0.6-3,1.4-4.3,2.4l-0.1,0.3c0.1,0.2,0.2,0.3,0.4,0.4c0.3,0.1,0.6,0.2,0.9,0.2
		c1.2-0.4,2.5-0.3,3.6,0.2c0.9,0.3,1.9-0.1,2.7-0.4c3.4-1,6.9-1.5,10.4-1.4c0.3-0.1,0.6,0,0.9,0c0.2,0.1,0.5,0.5,0.5,0.7
		c-0.2,0.7-0.4,1.4-0.8,2.1c-1.1,2-2.3,3.9-3.4,5.9c-0.3,0.8-1.1,1.3-2,1.3c-1.1,0.1-2.3,0.3-3.4,0.4c-1.1,0.1-2.7,0.1-4.1,0.2
		c-4.1,0.3-8.1,0-12.1-0.9c-3.3-0.7-6.6-1.1-9.9-1.2c-3.2-0.1-6.4-0.6-9.5-1.5l-2.8-1c-1-0.6-2.1-1-3.3-1.2c-4.7-1.6-9.4-3.3-14.1-5
		c-0.4-0.1-0.6-0.5-0.5-0.8c0-0.1,0.1-0.3,0.2-0.4c3-3.1,6.1-6.2,9.2-9.3c0.7-0.7,1.4-1.2,2.1-1.9l5.8-5.3c0.8-0.7,1.5-1.5,2.3-2.1
		c2.4-1.7,4.8-3.3,7.2-5c1.6-1.1,3.4-2,5.3-2.7c2.2-0.8,4.3-1.6,6.4-2.4c0.9-0.4,1.8-0.3,2.7,0.1l6.2,3c0.2,0.1,0.4,0.4,0.4,0.4
		c-0.1,0.3-0.3,0.5-0.6,0.6c-2.2,0.9-4.5,1.6-6.7,2.5c-5.8,2.2-11.3,5.4-16.1,9.4c-0.7,0.6-1.5,1.1-2.2,1.6
		c-1.6,1.1-3.2,2.3-4.9,3.4c-1.3,0.9-2.3,2.1-3,3.5C135,255.3,135,255.7,135.2,256.1z M90.1,270.9c-0.1,0.1-0.1,0.2-0.1,0.3l0.2,0.1
		c0.2-0.1,0.4-0.2,0.5-0.4c2.2-1.8,4.4-3.6,6.5-5.3c1.8-1.5,3.7-2.7,5.8-3.7c3.1-1.4,6.2-3,9.4-4.3c1.5-0.6,2.9-1.1,4.4-1.5
		c0.2,0,0.4,0.1,0.5,0.2c0.1,0.2,0.1,0.3,0.1,0.5c-0.1,0.3-0.2,0.6-0.5,1c-0.4,1.1-1.1,2.1-2,2.9c-0.7,0.7-0.7,1.9,0,2.6
		c0.1,0.1,0.1,0.1,0.2,0.2c1,1.1,2.4,1.9,4,2.1c0.2,0,0.4,0.1,0.6,0.2c1.1,0.4,2.5,0.2,3.2,1.6c-0.6,1.1-1.8,1.3-2.9,1.8
		c-4.4,2-9,3.6-13.7,4.7c-1.6,0.4-3.2,0.8-4.8,1.3s-2,0.7-1.7,0.9c0.7,0.5,1.4,0.1,2.1,0c0.7-0.1,2.1-0.3,3.1-0.4
		c1-0.3,2.1-0.2,3,0.2c0.2,0.1,0.4,0.2,0.6,0.2c2.3-0.2,4.5-0.6,6.7-1.3c3.7-1.7,7.5-3.2,11.2-4.9c0.7-0.4,1.6-0.4,2.4,0.1
		c1.4,0.7,2.8,1.4,4.2,1.9l3.7,1.6l0.3-0.1c0,0.1-0.2,0.3-0.3,0.3c-1.4,0-2.7,0.3-3.9,0.9c-4.7,1.7-9.4,3.4-14.2,4.9
		c-2,0.6-4,1-6.1,1.1c-5.1,0.5-10.2,0.8-15.3,0.7c-3.7,0-7.5,0.3-11.2,0.3c-2.4,0-4.8-0.4-7.2-0.6c-0.8-0.1-0.9-0.6-0.6-1.4
		c1.3-2.7,2.8-5.4,4.5-7.9c1.6-2.4,3.1-4.9,4.3-7.5c0.7-1.3,1.5-2.5,2.4-3.6c3-3.7,6.1-7.2,9.1-10.7c0.5-0.5,1-1,1.6-1.5
		c0.4-0.4,0.9-0.5,1.4-0.3l11.6,2.5c0.2,0.1,0.4,0.2,0.5,0.4l-0.2,0.5c-3.2,2.4-6.5,4.5-10,6.5c-5.2,3.1-9.7,7.3-13.1,12.3
		C90.3,270.4,90.2,270.6,90.1,270.9z M128.9,319.7l3.9,1.1c0.2,0.1,0.3,0.2,0.4,0.4c0,0.2-0.1,0.4-0.2,0.5c-1,0.8-2,1.7-2.9,2.4
		c-1.7,1.3-3.3,2.9-4.6,4.6l-0.2,0.5c-0.1,0.2,0.4,0.1,0.5,0.1c2.9-1.2,5.7-2.6,8.4-4.2c0.6-0.4,1.3-0.7,1.8-1.2
		c2-1.7,4.7-2.4,7.3-2.1c0.6,0.1,1.2,0,1.9,0.1c0.3,0,0.6,0.1,0.8,0.3c0.1,0.1,0,0.6-0.3,0.8c-2,2.1-4.3,4-6.7,5.6
		c-2.9,1.9-5.6,4-8,6.5c-0.5,0.6-1,1.2-1.5,1.8c-0.1,0.2-0.1,0.4,0.1,0.6c0.1,0.1,0.3,0.2,0.5,0.2c0.9-0.4,1.7-0.9,2.5-1.5
		c2.9-2,6-3.8,9.1-5.3c1.9-0.9,3.7-2,5.2-3.4c0.2-0.1,0.5-0.2,0.8-0.3c0,0.3,0,0.6-0.1,0.9l-0.9,2.3c-1,2.8-1.9,5.7-2.6,8.6
		c-0.7,2.7-0.9,2.7-3.6,2.8c-1.8,0.1-3.5,0.2-5.3,0.4c-2.4,0.1-4.8,0.4-7.1,0.5c-3.3,0.1-6.7,0-10,0c-1.4,0-2.9-0.2-4.3-0.3
		c-0.7-0.1-1.2-0.8-1-1.5c0-0.1,0-0.1,0-0.2c0.4-1.2,1-2.3,1.6-3.4c0.6-1.1,1-1.8,1.4-2.8c1.8-4.1,3.8-8.2,6.2-12
		c0.7-1.1,1.1-2.2,1.7-3.4c0.3-0.6,0.9-0.9,1.6-0.7l3.9,1.1L128.9,319.7z M156.2,307.3c0.1,0.1,0.2,0.1,0.3,0.1
		c1.3-0.1,2.5-0.4,3.6-0.9c2.8-1,5.5-2,8.2-2.9c0.2-0.1,0.4-0.1,0.6-0.2c0.3,0,0.6,0.1,0.8,0.3c0.1,0,0.1,0.4,0,0.6
		c-0.3,0.8-0.6,1.6-1,2.3c-0.8,1.7-1.7,3.3-2.5,5c-0.3,0.8-1,1.4-1.9,1.5c-3.5,0.4-7,0.9-10.5,1.2c-1.9,0.1-3.7-0.1-5.6-0.4
		c-3.8-0.5-7.7-0.5-11.5-0.7c-3.6-0.1-7.3-0.7-10.7-2c-3.1-1.1-3.2-1.2-1.6-4.1l3.4-6.3c0.9-1.7,1.8-3.5,2.8-5.2
		c0.7-1.3,1.6-2.4,2.4-3.6c1.2-1.7,2.5-3.3,3.6-5.1c2.5-3.6,5.1-7.1,7.9-10.4c0.7-0.9,1.7-1.3,2.8-1.1c2.9,0.2,5.8,0.3,8.7,0.5
		c0.2,0,0.4,0.1,0.5,0.3c0,0.2-0.1,0.4-0.2,0.5c-0.1,0.2-0.3,0.3-0.4,0.4c-2.3,2-4.5,4-6.8,6c-3.3,3.1-6.2,6.5-8.6,10.2
		c-1.2,1.7-2.4,3.4-3.6,5.1c-0.8,1.2-1.5,2.5-1.8,3.9c0,0.1-0.1,0.2-0.1,0.3c0.1,0,0.3-0.1,0.4-0.2c2.6-2.7,5.1-5.5,7.7-8.2
		c1.4-1.5,3-2.9,4.6-4.3c3.9-3.3,8-6.4,12.3-9c1.2-0.7,2.6-1.4,3.8-2.1c0.9-0.4,1.7-0.9,2.5-1.5c1.1-0.8,2.4-1.2,3.8-1.2
		c2.4-0.1,4.9-0.2,7.2-0.4c0.2,0,0.4,0.1,0.5,0.2c0,0.3,0,0.6-0.1,0.9c-0.1,0.2-0.2,0.4-0.4,0.5c-0.9,1-1.9,2-2.9,2.9
		c-2.2,1.8-4.4,3.5-6.6,5.3c-0.4,0.3-0.9,0.6-1.3,0.8c-5.7,3-11.1,6.6-16.1,10.7c-2.3,1.8-4.3,3.9-5.9,6.4c-0.3,0.4-1.1,0.7-0.6,1.5
		c0.5-0.1,1-0.3,1.4-0.5c0.5-0.3,0.9-0.6,1.3-0.9c3.3-2.6,6.8-4.8,10.6-6.6c3-1.5,5.8-3.2,8.9-4.7c1.4-0.7,2.8-1.3,4.2-1.9
		c0.8-0.3,1.6-0.3,2.4,0c1.2,0.4,2.4,0.7,3.6,1.1c0.7,0.3,0.9,0.6,0.5,1.1c-0.9,1.5-2.3,2.7-3.9,3.3c-3.3,1.3-6.4,3-9.4,4.9
		c-2.3,1.3-4.5,2.9-6.5,4.7c-0.3,0.3-0.6,0.6-0.8,0.9C156.1,306.8,156.1,307.1,156.2,307.3z M225.9,244.5c-0.1,1.2-0.3,2.5-0.4,3.7
		c0,0.1-0.3,0.3-0.5,0.3c-0.7-0.1-1.4-0.5-2.1-0.3c-3,0.4-5.9,1-8.8,1.8c-1.4,0.6-2.8,1.4-4.1,2.2c-3.3,1.9-6.2,4.2-8.8,6.9
		c-0.5,0.5-0.9,1.1-1.3,1.7c-1.1,2-2.2,3.8-3.2,5.7c-0.4,1-0.8,1.9-1.1,2.9c0,0-0.1,0.2,0,0.3c0.1,0.2,0.2,0,0.3-0.1
		c0.7-0.7,1.3-1.3,1.9-2c2.5-2.9,5.4-5.5,8.5-7.8c0.7-0.6,1.5-1.1,2.4-1.5c4.3-2.2,8.9-3.7,13.6-4.5c0.8-0.1,1.2,0.2,1.1,1
		s-0.3,1.4-0.4,2.2c-0.1,0.8-0.5,1.5-1.2,1.9c-3.8,2.5-7.4,5.5-10.5,8.9c-0.7,0.7-1.3,1.3-2,2c-2.4,2-4.6,4.2-6.6,6.7
		c-1.3,1.4-2.7,2.6-4.2,3.8c-1.2,0.8-2.2,1.9-2.8,3.2c-0.1,0.1,0.1,0.4,0.2,0.5c0.1,0.1,0.2,0.1,0.3,0.1c0.5-0.2,1-0.4,1.4-0.6
		c1.4-0.9,2.8-1.8,4.3-2.6c0.7-0.4,1.4-0.9,2.1-1.3c3.5-1.9,6.8-4.1,9.8-6.7c2.4-1.9,4.5-4.3,6.8-6.4c0.5-0.5,0.8-1,1.2-1.4
		c0.2-0.2,0.5-0.4,0.8-0.4c0.2,0.1,0.4,0.4,0.5,0.6c0.3,0.8,0.5,1.6,0.8,2.4c0.2,0.6,0.5,1.1,0.9,1.6c0.6,0.9,1.8,1.1,2.7,0.5
		c0.2-0.1,0.3-0.3,0.5-0.5c0.1-0.2,0.2-0.4,0.2-0.6c1.7-3.1,4.2-5.8,7.1-7.7c0-0.1,0.5-0.2,0.5-0.1c0.2,0.2,0.3,0.5,0.4,0.7
		c0,1.3-0.1,2.5-0.5,3.7l-0.8,2.2c-0.8,2.8-2.1,5.5-3.8,7.9c-0.3,0.4-0.7,0.8-1.1,1.1c-6.5,5.3-13.6,9.6-21.3,13
		c-3.1,1.3-6.5,1.7-9.8,1.3c-1.7-0.1-3.3-0.4-5-0.5c-3-0.3-6-0.9-8.8-1.9c-1.9-0.7-3.9-1.3-6-1.8c-1-0.3-2-0.6-2.9-1.1
		c-0.3-0.1-0.4-0.5-0.3-0.8c0-0.1,0.1-0.2,0.2-0.2c0.2-0.2,0.4-0.5,0.7-0.7c0.7-0.6,1.5-1.2,2.2-1.7c1.8-1.2,3.4-2.9,4.5-4.7
		c0.8-1.6,1.8-3.1,2.9-4.4c0.1-0.2,0.2-0.4,0.2-0.6c0.6-2.4,1.7-4.7,3.2-6.7c0.4-0.7,0.7-1.5,1.1-2.2c0.6-1.1,1.2-2.2,1.7-3.3
		c1.9-3.6,4.4-6.9,7.3-9.6c0.7-0.7,1.5-1.4,2.3-2.1c0.6-0.5,1.2-0.8,1.8-1.3c4.9-3.6,11-5.2,17.1-4.4c0.5,0,1,0.1,1.6,0.2
		C223.7,243.2,224.9,243.7,225.9,244.5z M321.4,100.2l-4.1-5.1c-1-1.2-2.2-2.3-3.6-3.2c-1.2-0.9-2.4-1.8-3.6-2.8
		c-2.2-1.8-4.5-3.5-7-4.9c-2.4-1.5-4.6-3.3-6.7-5.2c-0.2-0.2-0.5-0.3-0.7-0.4c-0.1,0-0.2,0-0.2,0c0,0-0.1,0.2-0.1,0.3
		c0.2,0.9,0.5,1.7,0.8,2.5c1.3,3.1,2.3,6.4,2.9,9.8c0.7,2.2,1.1,4.5,1.4,6.9c0,0.2,0.1,0.4,0.2,0.5c1.4,5.2,3.1,10.2,5.1,15.2
		c0.4,0.9,0.7,1.8,0.8,2.8c0.1,1,0.5,1.9,1,2.7c1.2,1.8,2.2,3.6,3,5.6c0.2,0.4,0.4,0.9,0.7,1.2c1.5,2.3,3,4.7,4.3,7.2
		c1.6,2.6,3.6,4.9,6,6.8c2.4,2.4,5.1,4.6,7.9,6.5c0.9,0.7,1.8,1.4,2.6,2.2c0.1,0,0.3,0.1,0.5,0.1c0-0.2,0.1-0.4,0.1-0.6
		c-0.1-0.2-0.2-0.5-0.3-0.7l-3-10.5c-0.4-1.4-0.8-2.8-1.1-4.2c-0.2-0.8-0.7-1.6-1.3-2.2c-3.1-3.3-6-6.8-8.5-10.6
		c-1.2-2-2.4-3.7-3.7-5.5c-0.5-0.8-0.9-1.7-1.2-2.5c-0.9-2-1.7-3.9-2.5-5.9c-1.7-4.3-3.6-8.3-5.6-12.4l0-0.5c0-0.2,0.4-0.1,0.4,0.1
		c2.7,2.9,5.1,6.2,7.1,9.7c1.4,2.4,2.7,4.9,3.7,7.5c0.1,0.4,0.3,0.7,0.5,1l6.8,9.7c0,0.1,0.3,0.1,0.5,0.2c0.1,0.1,0.2-0.4,0.2-0.5
		c-0.1-1.2-0.3-2.3-0.5-3.5c-0.9-3.4-1.2-7-0.9-10.6c0-0.1,0-0.2,0-0.3C323.6,102.9,323.6,102.9,321.4,100.2L321.4,100.2z M285.3,79
		c-3.4-3-6.8-6.1-10-9.2c-1.3-1.4-2.4-3-3.4-4.7c-0.8-1.2-1.4-2.5-2.1-3.7c0-0.1-0.3-0.2-0.4-0.3c-0.1-0.1-0.3,0.3-0.3,0.5
		c-0.2,1.1-0.3,2.2-0.3,3.3c0,1.7,0.3,3.3,0.4,5c0.3,3.6,1,7.2,2.1,10.6c0,0.3,0.1,0.6,0.2,0.8c1.9,5.2,4.8,9.9,8.5,13.9
		c2,2,4,4,6.1,6c1.1,1.2,2.5,2,4.1,2.5c0.9,0.3,1.7,0.8,2.4,1.4c0.7,0.6,1.5,1.2,2.2,1.8c0.2,0.1,0.5,0.2,0.8,0.2
		c0.2,0,0.3-0.7,0.2-1.1c-0.9-2.8-2.2-5.4-4.1-7.6c-1.7-2-3.5-4-5.3-5.9c-2.2-2.2-4.1-4.7-5.7-7.5l0-0.5c0.2,0,0.3,0,0.5,0.1
		c1.6,1.1,3.2,2.4,4.5,3.8c0.9,0.9,2,1.8,2.9,2.7c1.6,1.5,3.1,3.1,4.6,4.6c0.5,0.5,0.9,1,1.4,1.4c0.1,0,0.2,0,0.2,0
		c0,0,0.2-0.2,0.1-0.3c-0.2-2.5-0.4-5.1-0.8-7.6c-0.1-1.4-0.6-2.7-0.9-4c-1.1-0.8-2.2-1.5-3.2-2.4C288.5,81.6,286.8,80.3,285.3,79
		L285.3,79z M263.4,58.3c-2.5-2.3-5-4.7-7.5-7c-0.4-0.4-0.9-0.7-1.4-1c-0.6-0.3-1.2-0.6-1.7-1c-3.3-2.3-6.7-4.6-10-7
		c-0.7-0.5-1.3-1.2-1.8-1.9c-1-1.1-1.9-2.4-2.8-3.6c-0.9-1.4-1.7-3-2.5-4.5c0-0.1-0.3-0.2-0.4-0.3c-0.2-0.1-0.3,0.3-0.3,0.5
		c0.1,0.9,0.1,1.8,0.1,2.7l0.2,0c-0.1,1.3-0.1,2.6-0.1,3.9c-0.1,2.5-0.1,5,0,7.4c0.2,2,0.7,3.8,1.1,5.8c0.3,1.5,0.6,3.1,1.1,4.6
		c1.1,3.5,2.6,6.9,4.5,10c1.7,2.8,3.7,5.3,6,7.6c1,1,2.2,1.8,3.5,2.3c1.4,0.6,2.7,1.4,3.8,2.4c1.1,1,2.4,1.8,3.9,2.3
		c2.4,0.9,4.7,2.1,6.8,3.5c0.3,0.2,0.7,0.8,1.2,0.2c0.2-0.2,0.1-0.8-0.1-1.1c-0.4-0.9-0.9-1.7-1.3-2.6c-0.9-1.5-1.7-3-2.2-4.7
		c-0.5-1.5-1.2-2.8-2.2-3.9c-1.7-2-3.6-3.9-5.5-5.7c-3.1-2.8-6-5.8-8.8-8.9c-2-2.3-3.3-5.2-3.8-8.3c0-0.1,0.1-0.3,0.2-0.4
		c0.1,0,0.2,0.1,0.2,0.1c0.9,1.3,1.7,2.5,2.6,3.9c1,1.4,2.1,2.7,3.5,3.7c2.4,1.8,4.6,3.7,6.8,5.7c0.3,0.3,0.7,0.7,1.1,0.9
		c2.2,1.5,4.2,3.3,5.9,5.4c0.6,0.6,1.3,1.2,2,1.6c0,0,0.6-0.3,0.6-0.4c0-0.8,0-1.6-0.2-2.3c-0.6-1.9-0.7-3.9-0.5-5.9
		C265.4,60.8,264.7,59.2,263.4,58.3L263.4,58.3z M222.4,33.6c-0.5-0.5-0.9-1-1.4-1.4c-3.1-3-6.4-5.6-10.1-7.8
		c-3.2-1.8-6.2-4-8.9-6.4c-1.3-1.1-2.5-2.3-3.6-3.7c0-0.1-0.3-0.3-0.4-0.2c-0.2,0.1-0.3,0.3-0.3,0.5c-0.1,0.8-0.2,1.6-0.2,2.3
		c1,3.5,0.6,7.2,1.8,10.4c0.9,5.2,2.9,10.2,5.7,14.6c0.7,1.1,1.5,2.2,2.4,3.2c0.7,0.9,1.6,1.6,2.7,2c1.8,0.8,3.5,1.9,5.2,2.9
		c3,1.7,5.8,3.6,8.6,5.5c0.2,0.1,0.7,0.3,0.8,0.2c0.5-0.5-0.1-0.7-0.3-0.9c-1.7-2.5-3.7-4.8-5.8-6.9c-1.4-1.3-2.6-2.7-3.7-4.3
		c-2.8-3.7-5.3-7.5-7.7-11.5c-0.3-0.5-0.5-1-0.8-1.5c0-0.1,0-0.2,0-0.3l0.2,0c0.2,0.1,0.3,0.2,0.4,0.3c2,2.4,4.1,4.7,6.1,7.1
		c2.4,3.2,5.2,6.1,8.3,8.6c1.3,1,2.4,2.1,3.4,3.5c0.8,1.1,1.8,2,2.6,3c0.9,1,2,2.3,3,3.4c0.1,0.1,0.3,0.2,0.5,0.2
		c0-0.2,0.2-0.4,0.2-0.5c-0.4-2.1-0.7-4.1-1.1-6.1c-0.9-4-2.5-7.8-4.5-11.3C224.6,36.8,223.6,35.1,222.4,33.6L222.4,33.6z
		 M179.6,12.4c-1.7-0.7-3.2-1.7-4.3-3.1c-0.4-0.6-1.3-0.7-2-1.1c-0.2-0.1-0.3,0-0.5,0.1c-0.1,0-0.1,0.3-0.2,0.5c0,0.2,0,0.3,0,0.5
		c0,0.3,0.1,0.7,0.2,1c1.3,2.5,1.7,5.4,2.8,8c0.4,1.1,0.7,2.2,0.9,3.4c0.2,1.6,0.7,3,1.6,4.3c0.9,1.4,1.8,2.7,2.8,4
		c1.8,2.7,4,5.1,6.3,7.4c1.5,1.4,3.2,2.6,5.1,3.5c0.5,0.2,1,0.5,1.5,0.9c1.4,1.3,3.4,1.7,5.4,1.1c0.4-0.1,0.6-0.4,0.6-0.8
		c0,0,0-0.1,0-0.1c-0.3-1-0.9-1.9-1.7-2.6c-1.2-1-2.3-1.9-3.5-2.9c-0.3-0.2-0.6-0.5-0.8-0.8c-2.8-3.4-5.6-6.7-8.4-10.1
		c-0.5-0.7-0.9-1.5-1.2-2.3c-0.1-0.3-0.1-0.7,0-1.1l0.4,0.9c0.3,0.4,0.6,0.8,0.9,1.2c1.8,1.7,3.6,3.3,5.4,5l3.4,3.1
		c0.2,0.1,0.5,0.3,0.7,0.4c0.1-0.4,0.1-0.7,0.1-1.1c-0.1-0.4-0.2-0.8-0.3-1.1c-0.5-1.7-0.9-3.4-1.2-5.1c-0.1-1.8-1.1-3.4-2.7-4.2
		c-0.4-0.2-0.8-0.5-1-0.9C186.8,17.1,183.3,14.5,179.6,12.4z M136.3,8.6c-0.5-0.1-0.9-0.1-1.4-0.1c-0.1,0-0.3,0.3-0.3,0.4
		c0.1,0.3,0.2,0.5,0.4,0.7c2.7,3.6,5.2,7.3,7.6,11.1c0.7,1.1,1.5,2.2,2.4,3.2c1,0.9,1.8,2,2.4,3.2c0.1,0.5,0.6,0.8,1.1,0.6
		c0.1,0,0.2-0.1,0.3-0.1c1.1-0.3,2.2-0.7,3.4-0.9c5-1,10.1-0.9,14.9,0.2c0.7,0.2,1.5,0.5,2.2,0.8c0.7,0.3,1.4,0.5,2.2,0.7l0.8-0.1
		c-0.1-0.2-0.2-0.3-0.3-0.5c-1-0.7-2-1.4-3.1-2c-2.5-1.4-5.1-2.6-7.8-3.5c-0.6-0.2-1.3-0.4-1.9-0.7c-1.3-0.6-2.6-1.1-4-1.4
		c-0.8-0.2-1.6-0.5-2.4-0.9l0-0.2c0.1,0,0.2-0.1,0.2,0c2,0.5,4.2,0.4,6.2,1c3.4,0.8,6.6,1.8,9.8,3.1c1,0.5,2,1,3.1,1.4l0.5-0.1
		c0.1-0.2,0.1-0.4,0-0.5c-0.2-0.6-0.4-1.1-0.7-1.6c-1.4-2.2-2.6-4.5-3.4-7c-0.3-0.7-0.9-1.3-1.7-1.3c-0.8-0.1-1.7-0.4-2.5-0.6
		c-1.6-0.4-3.1-0.8-4.8-1C151.7,11.4,144,10.1,136.3,8.6z M136.3,37.4c-1.3,0.6-2.5,1.2-3.8,1.8c-0.3,0.2-0.5,0.5-0.7,0.7
		c0.3,0.1,0.6,0.1,0.8,0.1c3.2,0.2,6.3,0.8,9.2,1.8c4.2,1.6,8.5,2.8,12.9,3.8c0.2,0,0.4,0.1,0.6,0.1c3.4,1.3,7.2,1.5,10.8,0.6
		c2.1-0.5,4-1.1,6-1.5c2.4-0.5,4.8-0.9,7.2-1.4l2.6-0.4c0.1,0,0.2-0.1,0.2-0.2l0-0.2c-0.1-0.1-0.2-0.1-0.2-0.1
		c-4.3-1.1-8.8-1.9-13.2-2.5c-3.2-0.2-6.4-1-9.7-0.9c-1.8,0-3.7-0.1-5.5-0.2c-0.7,0-1.3-0.1-2-0.2c-0.1,0-0.2-0.2-0.3-0.2
		c0.1,0,0.2,0,0.3,0l4.1-0.6c0.8-0.1,1.6,0,2.3-0.1c3.2-0.4,6.4-0.5,9.5-0.4c3.6,0,7.1,0.4,10.6,1.2c1.4,0.3,2.8,0.5,4.3,0.8
		l0.6-0.1c0.2,0-0.1-0.6-0.2-0.7c-1.1-1.1-2.3-2.3-3.5-3.3c-1-0.8-2.3-1.4-3.6-1.6c-6-1.4-12.3-2-18.6-1.7c-1.4,0.1-2.7,0.1-4.1,0.2
		C147.2,33.1,141.6,34.8,136.3,37.4z M168.4,51.3c-2.1,1-4.2,1.7-6.4,2.3c-0.7,0.2-1.5,0.6-2.2,1c-0.1,0.1-0.1,0.1-0.1,0.2
		c0,0.1,0.1,0.2,0.1,0.2c0.1,0.1,0.3,0.2,0.5,0.3c0.4,0.1,0.7,0.2,1.1,0.3c5.2,0.9,10.2,2.3,15,4.4c3.3,1.2,6.8,2,10.3,2.4
		c2.2,0.3,4.4,0.1,6.6-0.5c2.6-0.8,5.2-1.8,7.8-2.8c0.3-0.1,0.5-0.3,0.8-0.4c0.1-0.1,0.2-0.1,0.2-0.2c0-0.1-0.1-0.1-0.2-0.1
		c-0.1,0-0.2-0.1-0.3-0.1c-0.7-0.1-1.5-0.1-2.3-0.3c-4.3-0.9-8.7-1.3-13.1-1.1c-1.1,0-2.1-0.1-3.2-0.1c-0.1,0-0.2-0.1-0.2-0.1
		c0.1-0.1,0.2-0.1,0.3-0.2c0.2,0,0.4-0.1,0.6-0.1c5.3-1.1,10.6-1.5,15.9-1c0.3,0.1,0.6,0.1,0.8,0.1c2.9-0.2,5.8,0,8.6,0.6
		c2.1,0.2,4.2,0,6.2-0.7c0,0,0.2-0.2,0.2-0.2c0,0,0-0.4-0.2-0.5c-0.8-0.6-1.7-1.2-2.6-1.7c-0.4-0.3-0.8-0.5-1.3-0.7
		c-1.1-0.4-2.1-0.6-3.2-1c-1.1-0.4-2-1.1-3.1-1.5c-1.7-0.5-3.5-0.9-5.3-1.1c-3.6-0.4-7.3-0.7-10.9-0.7c-3.6,0-6.8,0.5-10.1,0.7
		C175.3,49,171.8,49.9,168.4,51.3z M214.4,61.3c-3.4,1.6-6.9,3-10.3,4.6c-0.6,0.3-1.3,0.6-1.8,1c-3.4,2.2-7.1,4-10.9,5.4
		c-0.4,0.2-0.9,0.5-1.2,0.8c0,0.2,0,0.3,0,0.5c0.4,0.2,0.8,0.4,1.3,0.6c1.9,0.5,3.8,1.1,5.6,1.9c3,1.3,6,2.3,9.2,3.2
		c3.5,0.9,7.1,1.4,10.8,1.5c0.7,0,1.4-0.1,2.1-0.2l9.6-1.5c2.9-0.4,5.8-0.6,8.7-0.6c2.7-0.2,5.4,0.1,8.1,0.1c0.2,0,0.4-0.1,0.5-0.2
		c0-0.2,0-0.4-0.2-0.5c-0.7-0.8-1.7-1.4-2.8-1.7c-1.8-0.6-3.5-1.4-5.2-2.3c-1.7-0.9-3.5-1.5-5.4-1.6c-2.1-0.2-4.4-0.6-6.6-0.9
		c-2.1-0.4-4.2-0.4-6.3-0.3c-4,0.2-7.9,0.6-11.9,1.1c-0.3,0.1-0.6,0.1-0.8,0.1c-0.1,0-0.2-0.1-0.2-0.1c0-0.2,0.1-0.4,0.2-0.5
		c0.4-0.4,0.9-0.7,1.5-1c1.9-0.9,3.9-1.3,5.9-1.3c0.7,0,1.4-0.1,2.1-0.3c2-0.7,4-1,6-0.9c1.3,0,2.5,0,3.8-0.1c3,0,6,0.2,8.9,0.6
		c0.2,0,0.4,0,0.5-0.1c0.4-0.3,0.1-0.5-0.1-0.7c-0.1-0.2-0.1-0.4-0.3-0.5c-1-1.5-1.9-3.1-2.9-4.6c-0.2-0.3-0.5-0.5-0.9-0.7
		c-0.6-0.3-1.2-0.5-1.9-0.6c-1.9-0.2-3.8-0.5-5.6-1.1c-1.5-0.4-3.2-0.3-4.7,0C217.5,60.2,215.9,60.6,214.4,61.3z M229.6,85.7
		c-4.8,2-9.7,4.1-14.6,5.8c-0.1,0-0.3,0.3-0.3,0.4c0.1,0.2,0.2,0.3,0.3,0.4c1.9,0.4,3.7,0.8,5.6,1.3c2.4,0.6,4.7,1.5,6.9,2.6
		c2.9,1.5,5.9,3.1,8.9,4.4c3,1.3,6,2.3,9.1,3.3c2.6,0.8,5.4,1.1,8.3,0.7c0.8-0.1,1.7,0.3,2.5,0.1c0.8-0.2,1.3-0.8,2-1.1
		c0.7-0.3,1.5-0.5,2.3-0.6c2.2-0.6,4.3-1.2,6.5-1.8c0.2,0,0.4-0.3,0.4-0.4c0-0.1-0.2-0.6-0.3-0.7c-2.6-1-5.2-1.9-7.7-3
		c-5.1-2-10.5-3.4-16-4.2l-2.3-0.4c0,0-0.1,0-0.2-0.1c0.1,0,0.2,0,0.3,0l2.1-0.3c2.1-0.5,4.2-0.6,6.3-0.2c4.9,0.5,9.6,1.7,14.1,3.5
		c0.8,0.3,1.6,0.5,2.4,0.8c2.4,0.8,4.8,1.7,7.2,2.5c1.4,0.5,2.9,0.9,4.4,1.1c0.2,0,0.4-0.2,0.5-0.3c0-0.2,0-0.3-0.2-0.4
		c-1.6-0.6-3.1-1.5-4.4-2.6c-0.7-0.5-1.3-1-2-1.6c-2.6-2.4-5.4-4.5-8.4-6.3c-2.3-1.3-4.7-2.4-7.3-3.2c-0.7-0.2-1.5-0.4-2.2-0.5
		c-1.9-0.2-3.8-0.2-5.7-0.5c-3.4-0.4-6.9-0.6-10.4-0.5C235,83.8,232.2,84.5,229.6,85.7z M268.7,107c-0.6,0.1-1.1,0.2-1.7,0.5
		c-1.9,1-4,1.6-6.2,1.6c-0.3,0-0.6,0-0.9,0.1c-0.3,0-0.6,0.3-0.4,0.6c1.1,2.3,2.4,4.4,3.9,6.4c1.9,2.2,3.8,4.3,5.7,6.4
		c0.4,0.4,0.8,0.8,1.3,1.1c3.2,2.1,6.4,4.1,9.5,6.2c0.7,0.5,1.4,1,2,1.6c1.1,1.1,2.5,1.9,4,2.3l3.8,1.2c2.8,0.8,5.7,1.7,8.5,2.5
		c0.6,0.2,1.1,0.9,1.8,0.3c-0.2-0.6-0.4-1.3-0.7-1.8c-1.6-2.9-3.5-5.8-5.5-8.4c-0.3-0.5-0.6-0.9-0.9-1.4c0-0.1,0-0.2,0.1-0.3
		c0.1,0,0.1-0.1,0.2,0c0.2,0.1,0.3,0.2,0.4,0.4c2.3,2.5,4.6,5.1,6.7,7.8c2,2.8,4.7,5.7,7,8.7c0.5,0.7,1.3,1.1,2.2,1.2
		c2.4,0.4,4.7,0.8,7,1.3c1.6,0.4,3.1,0.9,4.7,1.4l0.5-0.1c0-0.2-0.1-0.3-0.2-0.5l-2.5-2.4c-3.2-3.2-6.1-6.8-8.5-10.7
		c-0.5-0.7-1-1.3-1.6-1.9c-3.1-3-6.6-5.4-10.5-7.2c-2.8-1.3-5.5-2.6-8.3-3.7c-2.3-0.9-4.7-1.5-7-2.3c-1.4-0.5-2.9-0.9-4.3-1.5
		c-2.9-1-5.9-1.6-9-1.8c-0.1,0-0.2-0.2-0.3-0.2c-0.1-0.1,0.3-0.3,0.5-0.3c1.1-0.2,2.3-0.3,3.5-0.3c4.3,0.3,8.5,0.9,12.7,1.7
		c2.4,0.5,4.6,1.2,6.8,2.2c3.8,1.4,7.5,3.1,11.1,5l0.5-0.1c0-0.2,0-0.4,0-0.6c-0.4-1-0.8-2-1.1-3c-0.8-2.5-2.5-4.6-4.7-5.9
		c-2.5-1.8-5-3.3-7.5-5.1c-1.2-1-2.7-1.5-4.3-1.5c-1,0-2.1-0.1-3.1-0.3c-3.6-0.8-7.4-0.8-11.1,0c-1.4,0.2-2.7,0.4-4.1,0.7L268.7,107
		z M264.8,124.7c-0.1,0.2-0.2,0.4-0.1,0.5c0.4,2.1,0.8,4,1.2,6c0.7,3.4,1,6.8,0.9,10.3c-0.3,4.8,0.8,9.5,3.1,13.5
		c1.3,2.5,2.8,4.8,4.5,7c0.6,0.9,1.1,1.8,1.4,2.8c0.4,0.9,1.1,1.6,2.1,1.7c3,0.4,5.7,1.5,8.1,3.3c0.5,0.3,1.2,0,1.5-0.6
		c0-0.1,0.1-0.1,0.1-0.2c0.1-0.4,0.1-0.8,0-1.2c-0.8-2.9-1.8-5.8-3-8.5c-1.3-2.5-2.3-5.1-3.1-7.8c-0.2-0.8-0.6-1.6-1.1-2.4
		c-1.8-3.3-4-6.3-6.5-9.1c-0.1-0.1-0.3-0.4-0.2-0.5c0.1-0.1,0.4,0.1,0.7,0.1c0.2,0.1,0.2,0.1,0.2,0.2c4.2,3,7.5,7,9.7,11.8
		c0.6,1.4,1.3,2.8,2.1,4.1c1.7,3,3.2,6.2,4.3,9.5c1.1,2.7,2.5,5.2,4.1,7.6c0.9,1.3,2,2.3,3.2,3.2c0.1,0.1,0.3,0.2,0.5,0.2
		c0.1,0,0.2-0.3,0.2-0.5c-0.1-2.1-0.1-4.2,0.1-6.2c0-1.2-0.1-2.4-0.3-3.6c0.1-4.8-1.6-8.3-2.8-12.1c-0.1-0.3-0.2-0.5-0.4-0.7
		c-2.2-3.1-4.1-6.5-6.6-9.4c-1.2-1.3-2.4-2.6-3.7-3.9c-0.9-0.9-1.8-1.7-2.6-2.6c-1.4-1.7-3.1-3-5.1-4.1c-2.4-1.3-4.7-2.8-6.7-4.7
		c-1.7-1.4-3.4-2.7-5.3-3.8c0,0-0.5-0.1-0.6,0L264.8,124.7z M253.9,130.2c-5.2-2.3-10.6-4.2-16.1-5.8c-2.3-0.6-4.7-1-7-1.5
		c-0.7-0.1-1.3-0.2-2-0.2c-2.4,0-4.8-0.2-7.1-0.7c-1.1-0.2-2.3-0.4-3.4-0.6c-0.2,0-0.4,0.1-0.5,0.3c-0.1,0,0,0.3,0,0.5
		c0,0.1,0,0.2,0,0.3c1.7,3.3,2.9,6.7,3.8,10.3c0.8,3.1,1.9,6.1,3.3,9c1.4,2.8,3.1,5.3,5.3,7.4c3.8,3.8,8.4,6.8,13.6,8.6
		c1.8,0.7,3.6,1.3,5.3,2c2.8,1,5.6,1.9,8.4,2.5c3.1,0.5,6.1,1.5,8.9,2.9c0.6,0.2,1.3,0.3,2,0.3l0.5-0.1c0.1-0.3,0.1-0.5,0.1-0.8
		c0,0,0-0.2-0.1-0.3c-0.8-1.5-1.7-2.9-2.8-4.2c-1.2-0.9-2.5-1.7-3.9-2.3c-2-1.3-3.9-2.6-5.8-4c-1.2-0.9-2.4-1.8-3.6-2.8
		c-2.8-2-5.3-4.3-7.6-6.8c-1.9-2.1-3.9-4.2-5.9-6.2c-0.7-0.6-1.4-1.2-2.1-1.8c-1.6-1.3-3.2-2.6-4.9-3.9c-1.2-0.9-2.3-1.9-3.3-3.1
		l0-0.4c0.1-0.1,0.2-0.1,0.3,0c1.8,0.3,3.5,1,5,1.9c2.8,1.8,5.6,3.6,8.2,5.5c2.2,1.6,4.3,3.5,6.3,5.3c2,1.8,3.9,3.7,5.8,5.5
		c0.8,0.8,1.7,1.6,2.5,2.4c1.4,1.4,3,2.6,4.7,3.6c0.3,0.1,0.5,0.2,0.8,0.2c0-0.3,0.3-0.6,0.2-0.9c-1-3-1.4-6.3-1.3-9.5
		c-0.1-2.2-0.6-4.3-1.5-6.2c-1-1.9-2.3-3.5-3.7-5c-0.7-0.7-1.5-1.1-2.4-1.4L253.9,130.2z M211.4,120.7c-0.5-0.2-1.1-0.4-1.7-0.7
		c-0.6-0.2-1.2-0.4-1.8-0.5c-4.4-0.6-8.5-2-12.8-2.9c-2.9-0.6-5.7-1.4-8.6-2.3c-1.2-0.5-2.4-1-3.6-1.6c-0.3-0.1-0.7-0.3-1.1-0.3
		c0,0-0.1,0-0.2,0.2c0,0.1,0,0.2,0,0.3c0,0.1,0,0.2,0,0.3c2.8,5.2,4.7,10.8,7,16.2c2.4,5.9,6.1,10.9,10.9,14.8
		c1.1,0.8,2.1,1.6,3.1,2.5c1,0.9,2.4,1.2,3.8,0.8c2.9-0.8,5.9-1.4,8.9-1.9c0.1,0,0.2-0.3,0.3-0.4c0.1-0.2,0-0.2,0-0.3
		c-0.1-0.1-0.3-0.2-0.5-0.3c-0.5-0.2-1-0.5-1.6-0.7c-2.8-1.1-5.5-2.6-7.9-4.5c-1.4-1.2-2.8-2.5-4.1-3.9c-1.6-1.6-3.2-3.2-4.8-4.8
		c-1.9-1.9-3.6-3.9-5.1-6.2c-0.7-1-1.4-2.1-2-3.1c-0.3-0.5-1-0.7-0.7-1.4c0.5,0.3,0.9,0.6,1.3,1c1,1,2,2.1,2.9,3.2
		c1.7,2.1,3.7,3.9,5.8,5.5c2.2,1.8,4.5,3.5,6.6,5.4c2.8,2.4,6,4.3,9.5,5.6c0.2,0.1,0.5,0,0.7-0.1c0.1-0.3,0.1-0.6,0.1-0.8
		c-0.2-0.6-0.4-1.1-0.7-1.6c-0.9-1.8-1.4-3.9-1.4-6c-0.3-3.3-0.8-6.6-1.6-9.9c0-0.6-0.4-1.2-1.1-1.3L211.4,120.7z M170.7,112.8
		c-4.6-1.2-9.3-2.2-14-2.9c-2.7-0.4-5.5-0.5-8.3-0.5c-2.7,0-5.4-0.3-8-0.9c-1.9-0.4-3.7-0.8-5.6-1.3c-0.3-0.1-0.6,0.1-0.7,0.4
		c0,0.1,0,0.2,0,0.3c0.2,0.6,0.4,1.1,0.6,1.6c2.6,4.8,5.9,9.2,9.7,13c0.4,0.4,0.9,0.7,1.3,1.1c1.3,1.1,2.7,2.1,3.9,3.3
		c2.7,2.7,5.9,4.8,9.5,6.2c0.3,0.2,0.8,0.2,1,0.4c1.3,1.1,3.1,1.4,4.8,0.9c2.6-0.4,5.2-0.5,7.8-0.7c0.8,0,1.5,0,2.3,0
		c1.6,0.1,3.3,0.2,4.9,0.3l0-0.1c0.5,0,0.9,0.1,1.4,0.1c0.1,0,0.2,0,0.3,0c0-0.1-0.1-0.3-0.3-0.4c-2-0.8-4.1-1.5-6.1-2.3
		c-3.1-1-6-2.4-8.7-4c-2.2-1.3-4.2-2.9-6.3-4.4c-1.3-0.9-2.6-1.7-3.9-2.8c-1.3-1.1-2.9-2.1-4.2-3.3c-1.5-1.3-3.2-2.3-5.1-3
		c-0.3-0.1-0.3-0.3,0-0.4c0.1,0,0.2-0.1,0.3,0c0.3,0,0.6,0,0.8,0.1c0.5,0.2,1.1,0.4,1.6,0.7c1.8,0.9,3.5,1.8,5.3,2.8
		c4.7,2.6,9.5,5.2,14.2,7.8c2.2,1.3,4.6,2.3,7,3.2c1.3,0.5,2.7,0.9,4,1.3c0.3,0.1,0.6-0.2,0.7-0.5c0-0.1,0-0.2,0-0.2
		c-0.4-1.9-0.8-3.8-1.3-5.7c-0.6-2.2-1.3-4.5-2-6.7c-0.3-0.6-0.8-1.1-1.4-1.3c-1.8-0.8-3.6-1.5-5.5-2.1L170.7,112.8z M125.5,105
		c-0.8-0.6-1.7-0.8-2.7-0.7c-1.5,0-2.9,0.2-4.4,0.3c-2.7,0.2-5.4,0.9-8,1.9c-4.1,1.4-8.4,2.1-12.7,2.1c-2.1,0.1-4-0.3-6-0.4
		c-0.2,0-0.4,0.1-0.5,0.2c0,0.1,0,0.4,0.1,0.5c0.9,1.2,1.9,2.2,3.1,3.1c1.6,1.3,3.2,2.6,4.8,4c1.3,1.2,2.8,2.2,4.4,3
		c0.8,0.4,1.5,0.7,2.3,1.2c1.7,1.2,3.6,2.1,5.6,2.8c1,0.4,1.9,0.8,2.8,1.3l3.6,1.8c0.6,0.2,1.2,0.1,1.7-0.2c2.6-1,5.2-2,7.7-3.1
		c0.1,0,0.3-0.3,0.3-0.4c0-0.2-0.2-0.3-0.3-0.4c-0.6-0.3-1.2-0.6-1.8-0.8c-1.5-0.7-3.1-1.4-4.7-2c-0.4-0.2-0.9-0.4-1.4-0.5
		c-3.2-0.9-6.4-1.8-9.7-2.6c-1.8-0.5-3.6-1.1-5.5-1.6c-0.1,0-0.2-0.2-0.3-0.3c0.2,0,0.4-0.2,0.5-0.2c2.5,0.2,5,0.2,7.5,0.6
		c1.8,0.3,3.6,0.7,5.4,0.8c2,0.2,4,0.8,5.8,1.5c2.2,0.8,4.5,1.4,6.8,2.2c1.5,0.5,3,1.1,4.6,1.7c0.2,0,0.6,0.3,0.7-0.1
		c0.1-0.3,0-0.6-0.1-0.8c-0.7-1-1.3-2-2.2-3.1c-0.3-0.5-0.8-0.8-1.3-1c-2.5-1-5-1.9-7.5-2.8c-3-1.1-6.2-1.9-9.4-2.4
		c-0.2,0-0.4-0.1-0.5-0.2c0.2,0,0.3-0.2,0.5-0.3c0.1,0,0.2,0,0.3,0c2.4-0.4,4.8-0.4,7.2,0c2.1,0.4,4.3,0.8,6.5,1.3
		c0.3,0,0.5,0,0.8-0.1c0-0.3-0.1-0.6-0.2-0.8C128.6,108.2,127.3,106.4,125.5,105z M69.7,111.1c-3.2,1-6.5,1.7-9.9,2.2
		c-2.3,0.2-3.8,0.4-5.4,0.6l-3.5,0.5c-0.1,0-0.3,0.2-0.4,0.4c0,0.1,0.1,0.2,0.2,0.2l0.8,0.3c3.5,1.3,7.1,2.7,10.6,4
		c1.1,0.5,2.2,1.1,3.1,2c0.7,0.8,1.8,1.1,2.9,0.9c2.4,0.4,4.8-0.3,6.9-1.8c3.6-2,7.4-3.3,11.3-3.9l3.5-0.5c0.2,0,0.4-0.3,0.6-0.5
		c0.2-0.2-0.2-0.3-0.3-0.4c-1.2-1.3-2.5-2.6-3.6-4c-0.9-1.4-2.6-2-4.2-1.8c-1.6,0.3-3.3,0.2-4.9,0.3
		C74.8,109.6,72.2,110.2,69.7,111.1L69.7,111.1z M92.9,118.7l-1,0.1c-2.6,0.7-5.8,1.4-9,2.3c-4,1.4-7.9,3.2-11.6,5.4
		c-1.2,0.6-2.4,1.3-3.6,2c-0.1,0-0.2,0.3-0.3,0.4c0.1,0,0.2,0,0.3,0c0.2,0,0.4,0,0.6-0.1l1.7-0.3c3-0.5,6,0,8.7,1.2
		c1,0.5,2.2,0.8,3.2,1.2c1.7,0.6,3.3,1.4,5,2c3.4,1.2,6.9,2,10.5,2.5c1.3,0.1,2.7,0,4-0.2c0.5-0.1,0.9-0.3,1.3-0.6
		c1.9-1.4,3.7-2.7,5.5-4.2c0.1,0,0.3-0.4,0.2-0.5c0-0.1-0.3-0.5-0.6-0.5c-3-0.5-6-1-9-1.4c-3.7-0.6-7.4-1-11.2-1.1
		c-1,0-2.1,0.1-3.2,0.1c-1.1,0-2.3-0.1-3.4-0.1c-0.1,0-0.2-0.1-0.3-0.1c0.1,0,0.2-0.2,0.3-0.3c3.4-1.3,7-1.9,10.6-2
		c4.8-0.1,9.6,0.3,14.3,1c0.2,0.1,0.4,0,0.5-0.1c0.3-0.4,0-0.5-0.2-0.6c-0.2-0.2-0.5-0.3-0.7-0.4l-5.8-3.6c-0.3-0.2-0.7-0.4-1-0.6
		C97.4,118.5,95.1,118,92.9,118.7z M107.6,137.9c-1,0.6-2,1.2-3.1,1.8c0,0-0.1,0.2-0.2,0.2c-0.1,0.1,0.3,0.2,0.4,0.2
		c1.8-0.1,3.7-0.4,5.5-0.4c4.8,0.2,9.5,0.9,14.1,2.1c2.7,0.7,5.4,1.2,8.1,1.4c1.2,0,2.5,0,3.8-0.3c1.4-0.4,2.9-0.6,4.3-0.7
		c0.9-0.1,1.7-0.4,2.5-0.8c3.3-1.1,6.7-2.3,10.1-3.4c0.4-0.1,0.7-0.3,1-0.5c0.1,0,0.1-0.1,0.1-0.2c0-0.2,0-0.4-0.2-0.4
		c-0.5-0.2-1.1-0.4-1.6-0.5c-2.4-0.4-4.7-0.7-7.1-1c-3.7-0.6-7.4-0.7-11.2-0.3c-1.2,0.2-2.3,0.1-3.5,0.2c-0.8,0-1.5,0.1-2.3,0.4
		c-1.7,0.5-3.4,0.7-5.2,0.8c-0.2,0-0.3-0.1-0.5-0.2c-0.2-0.1,0.2-0.3,0.3-0.3c1.6-0.6,3.2-1.2,4.7-1.7c0.9-0.3,1.9-0.6,2.8-0.8
		l4.3-0.7l1.4-0.2c3.4-0.7,6.8-0.7,10,0c0.3,0,0.6,0,0.9,0c0.1,0,0.2-0.1,0.2-0.2c0-0.1,0-0.2,0-0.2c0-0.1,0-0.2,0-0.3l-6-6.1
		c-0.4-0.4-1-0.6-1.6-0.5c-3.8,0.4-7.5,1.2-11.1,2.5c-6,2.3-11.8,5.2-17.4,8.5C110.1,136.7,108.9,137.3,107.6,137.9z M166.1,140
		c-3.6,0.6-7.1,1.4-10.6,2.5c-2.1,0.8-4.3,1.4-6.5,1.8c-4.1,0.9-8.1,2.3-12,4.2c-0.4,0.2-0.8,0.5-1.2,0.8l0,0.4
		c0.5,0.1,0.9,0.2,1.4,0.3c3.9,0.8,7.7,2.3,11.1,4.4c3.9,2.5,8.1,4.5,12.4,6.2l2.4,1c2.4,1,4.9,1.6,7.5,1.7c1.8,0.1,3.7-0.3,5.3-1.2
		c3.8-2.1,7.7-4.1,11.6-6.1c1.8-0.9,3.6-1.6,5.4-2.5c0.3-0.2,0.7-0.4,1-0.6c0,0,0.1-0.2,0.1-0.3c0-0.1,0-0.2,0-0.2
		c-0.5-0.2-1.1-0.3-1.7-0.4c-5.7-0.6-11.4-1.3-17.2-1.8c-3.7-0.5-7.5-0.5-11.2,0c-0.3,0.1-0.6,0.1-0.9,0.1c-2.1-0.3-4.2-0.4-6.3-0.3
		c-0.1,0-0.2-0.1-0.3-0.1c0.1,0,0.2-0.3,0.3-0.3c1.6-0.3,3.3-0.6,4.9-0.9l2.3-0.4c3.8-0.7,7.7-1,11.6-1c0.7-0.1,1.3,0.1,2.1,0.1
		c5.9,0.1,11.7,0.7,17.5,1.3c0.2,0,0.4,0,0.6,0c0.2,0,0.4-0.1,0.5-0.2c0.1-0.2,0.1-0.4,0-0.5c-0.6-0.7-1.2-1.3-1.8-1.9
		c-1.7-1.3-3.2-3-4.4-4.8c-0.7-1.2-1.9-1.8-3.3-1.8c-2-0.2-4-0.3-6-0.3c-2.6,0-5.2,0.1-7.8,0.2C170.7,139.5,168.3,139.6,166.1,140
		L166.1,140z M174.1,169.5c-1.8,1.1-3.4,2.5-4.9,4c0,0-0.1,0.2-0.1,0.3c0,0.1,0.2,0.3,0.3,0.3c4.3,0,8.7,0.3,12.9,0.9
		c8.5,0.8,16.8,1.7,25.3,2c4.5,0.2,9.1-0.2,13.6-1.2c2.1-0.3,4-0.8,6-1.2c4.3-0.8,8.6-1.6,13-2.4c0.6-0.1,1.1-0.2,1.7-0.4
		c0.1-0.1,0.2-0.1,0.2-0.2c-0.1-0.2-0.2-0.3-0.3-0.4c-0.3-0.1-0.5-0.2-0.8-0.3c-2.7-0.3-5.3-0.6-8-0.9c-2.2-0.1-4.4-0.3-6.5-0.7
		c-0.3-0.1-0.6-0.1-0.8-0.1c-4,0.4-7.8-0.9-11.8-0.3c-0.7,0-1.4,0-2.1-0.1c-4.6,0.1-9.3,0.6-13.9,1.6c-2.4,0.8-4.9,1.4-7.5,1.6
		c-0.2,0-0.3-0.1-0.5-0.2c0-0.1,0-0.2,0.1-0.3c0.2-0.2,0.4-0.4,0.7-0.5c3.3-1.2,6.5-2.4,9.8-3.3c1.4-0.4,2.9-0.6,4.3-0.9
		c4.9-1,9.8-1.7,14.7-2.3c1.3-0.2,2.7-0.1,4-0.1c3.9,0,7.7-0.4,11.6-0.1l4,0.3c0.9,0.1,1.7,0.1,2.6,0.1c0.1,0,0.3-0.2,0.4-0.3
		c0-0.1-0.1-0.2-0.1-0.2c-1.7-1-3.4-2.1-5.1-3.1c-1.2-0.7-2.5-1.3-3.7-2.1c-1.2-0.7-3-1.9-4.6-2.8c-0.9-0.7-1.9-1.2-3.1-1.4
		c-0.4,0.1-0.8-0.5-1.2-0.6c-0.4-0.2-0.9-0.4-1.4-0.4c-2-0.1-4,0.1-6.1,0.3l-5.5,0.9c-6.2,0.8-12.3,2.4-18.2,4.8
		C186.6,162.4,180.2,165.7,174.1,169.5L174.1,169.5z M248.2,174c-1.6,0.4-3.1,1-4.5,1.8c-4.8,2.3-9.7,4.1-14.6,6c-2.5,1-5,2-7.4,3.1
		c-0.5,0.2-1.1,0.4-1.6,0.6c-0.2,0.1-0.4,0.3-0.6,0.5c0.2,0.2,0.5,0.3,0.7,0.4c0.4,0.1,0.7,0.1,1.1,0.2c3.6,0,7.1,0.9,10.3,2.4
		c1.6,0.7,3.3,1.3,4.9,2c1.6,0.7,3,1.3,4.6,2c1.4,0.6,2.9,1.2,4.4,1.6c2.2,0.6,4.5,1.2,6.8,1.6c2.3,0.4,4.6,0.5,7,0.7
		c3.2,0,6.4-0.2,9.6-0.9l3.1-0.4c2.4-0.2,4.7-0.7,6.9-1.6c2.4-0.8,4.9-1.4,7.5-1.8c0.5-0.1,0.9-0.1,1.4-0.3c0,0,0.2,0,0.1-0.2
		c0-0.2,0-0.4-0.2-0.5c-0.5-0.3-1-0.5-1.6-0.6c-2.2-0.6-4.5-1.3-6.8-1.7c-3.6-0.8-7.2-1.4-10.8-1.8c-2.4-0.2-4.8-0.7-7.2-1.3
		c-1.8-0.4-3.7-0.6-5.6-0.6c-2.8-0.1-5.6-0.2-8.4-0.2c-3.5-0.1-7,0-10.4,0.4c-0.3,0-0.6,0-0.9-0.1c0.3-0.3,0.6-0.5,1-0.6
		c1.2-0.3,2.4-0.5,3.6-0.5c1.1,0,2.3-0.1,3.3-0.5c1.8-0.6,3.7-0.9,5.6-0.8c2.1,0.1,4.1,0,6.2-0.2c3.8-0.1,7.5,0.1,11.2,0.6l3.3,0.3
		c1.2,0.1,2.4,0.2,3.6,0.4c3.6,0.7,7.1,1.5,10.7,2.2c0.3,0,0.5,0.1,0.8,0.2c4.1,1.5,8.3,3,12.4,4.4c1.1,0.5,2.3,0.8,3.5,0.9
		c0.4,0.1,0.9,0,1.3-0.2c0.4-0.5-0.1-0.9-0.5-1.1c-1-1-2-1.9-3.1-2.8c-2.6-1.6-5-3.5-7.3-5.6c-0.9-0.7-1.8-1.3-2.8-1.8
		c-6.7-3.7-13.8-6.4-21.3-8.1c-2.7-0.6-5.6-0.7-8.4-0.3l-3.1,0.4C253.6,172.7,250.9,173.3,248.2,174L248.2,174z M310.2,195
		c1,1,2.2,1.9,3.4,2.6c5.2,2.7,10.1,5.9,14.7,9.5c2.3,1.8,4.6,3.6,6.9,5.5c0.1,0,0.2,0.1,0.3,0.1c0.1-0.2,0.2-0.3,0.2-0.5
		c-0.1-0.2-0.1-0.4-0.2-0.6c-0.4-0.7-0.7-1.5-1.2-2.1c-2.4-3.7-4.5-7.7-7.2-11.3c-3.6-5-6.7-10.3-9.2-15.9c-0.4-0.9-0.9-1.7-1.3-2.5
		c-1.1-2.1-1.9-4.4-2.4-6.7c0-0.2,0.1-0.4,0.1-0.6l0.3,0.5c0.3,0.7,0.6,1.3,0.9,1.9c1.4,2.4,2.8,4.8,4.4,7.2
		c0.4,0.7,0.9,1.4,1.4,2.1c2.5,4,5.3,7.8,8.3,11.3c2.9,3.7,5.4,7.6,7.7,11.7c1.3,2,2.4,4.1,3.3,6.4c0,0.1,0.1,0.2,0.2,0.2
		c0.1-0.1,0.4-0.2,0.4-0.4c0.1-0.8,0.2-1.6,0.2-2.5l-0.7-5.6l-0.3-2.8c-0.2-2.7-0.9-5.3-1.9-7.9c-0.8-2.4-1.6-4.7-2.4-7.1
		c-1.5-4.3-3.8-8.4-6.7-11.9c-0.3-0.3-0.6-0.6-0.9-0.9c-3.5-4.5-7.3-8.8-11.3-12.9c-1.4-1.5-2.9-3-4.4-4.4c-2.5-2.4-5-4.7-7.5-7.1
		c-0.2-0.2-0.5-0.3-0.8-0.2c-0.2,0.2-0.3,0.5-0.3,0.8c0.2,1.4,0.2,2.9,0.2,4.4c0.1,1.3,0.1,2.7,0,4.1c-0.6,4.2-0.6,8.5-1.5,12.7
		c-0.3,2-0.5,3.9-0.6,5.9c0,0.3,0,0.6,0.1,0.9c0.6,2.4,1.3,4.8,2.1,7.2c0.5,0.9,0.9,1.9,1.2,2.9c0.3,1.3,1,2.5,2,3.5
		C308.6,193.2,309.4,194.1,310.2,195L310.2,195z M288.4,199.3c-4.1,0.7-8,1.8-11.8,3.4c-2.7,1.2-5.4,2.4-8.1,3.4
		c-1.2,0.5-2.5,0.8-3.7,1.1c-2,0.4-3.9,0.7-5.8,1c-0.2,0-0.4,0.1-0.4,0.3c0,0,0.1,0.3,0.3,0.4c0.2,0.2,0.5,0.3,0.8,0.4
		c0.8,0.4,1.6,0.7,2.4,1.1c0.5,0.2,1.1,0.5,1.6,0.7c2.2,1.3,4.4,2.6,6.8,3.6c0.4,0.1,0.7,0.3,1,0.6c2.5,2,5.3,3.7,8.2,5.1
		c5.9,3.3,12.4,5.3,19.1,6c2.9,0.3,5.7,0.5,8.6,0.5c1.2,0,2.5,0.1,3.7,0.4c1.9,0.3,3.8,0.2,5.6-0.2c3-0.7,6.1-1,9.3-0.7
		c1.4,0.2,2.9,0.1,4.3,0.2c2.3,0.1,4.6,0.3,6.9,0.7c0.3,0,0.6,0,0.8-0.1c0,0,0.1-0.1,0.2-0.2c0.1-0.1-0.2-0.3-0.4-0.4
		c-3.7-2-7.5-3.9-11.3-5.5c-1.2-0.4-2.2-1.1-3.5-1.5c-2.6-1.2-5.3-2.1-8-2.9c-0.7-0.2-1.5-0.5-2.2-0.8c-5.8-2.2-11.9-3.6-18-4.1
		c-1.3-0.2-2.7-0.3-4-0.5c-2.5-0.1-5-0.1-7.4,0.1l-0.6,0c-0.2,0-0.4-0.1-0.6-0.1c0.2,0,0.3-0.1,0.5-0.2c2.4-0.4,4.8-0.9,6.9-1.2
		c0.5-0.1,0.9-0.1,1.4-0.1c3.6,0,7.3,0.2,10.9,0.6c1.4,0.3,2.9,0.3,4.2,0.6c1.3,0.2,2.6,0.6,3.9,1c2.5,0.8,5,1.6,7.5,2.4
		c2.3,0.7,4.6,1.6,6.8,2.6c2,0.8,4,1.7,5.9,2.5c1.9,0.8,3.5,1.7,5.2,2.7c0.7,0.3,1.4,0.6,2.2,0.8c0.1,0,0.2,0,0.2-0.1
		c0,0,0.1-0.2,0-0.2c-0.1-0.2-0.3-0.5-0.5-0.7l-7.2-6c-1-0.8-1.9-1.7-2.9-2.5c-1.1-1-2.3-1.9-3.5-2.7c-3.4-2.2-6.9-4.3-10.2-6.4
		c-0.7-0.4-1.4-0.7-2.2-1c-3.4-1.1-6.9-2.1-10.3-3.2c-0.9-0.2-1.9-0.4-2.9-0.5c-1.8-0.2-3.6-0.5-5.4-0.5
		C291.3,199.1,289.8,199.1,288.4,199.3L288.4,199.3z M302.7,145.6c0.1-0.6-0.2-1.2-0.7-1.5c-2.4-1.4-5.1-2.4-8-2.7
		c-0.3,0-0.5,0-0.8,0.1c-1,0.2-1.2,0.6-0.9,1.1c1.8,2.7,3.6,5.3,5.6,7.9c0.8,1.4,1.4,2.9,2,4.4c0,0.1,0.3,0.2,0.4,0.2
		c0.1,0,0.2-0.1,0.2-0.2c0.1-0.2,0.2-0.3,0.3-0.5c0.6-1.3,1-2.6,1.2-4C302.2,148.8,302.6,147.2,302.7,145.6L302.7,145.6z
		 M310.5,148.5c-0.3,0.3,0.1,0.6,0.2,0.7l2.2,1.8c2.5,2.1,5,4.2,7.3,6.3c2.3,2.2,4.3,4,6.4,6c1,1.1,1.9,2.2,2.8,3.3
		c2.3,2.8,4.4,5.8,6.7,8.6c2.5,2.9,4.6,6.2,6,9.8l1.8,4c0.1,0.2,0.3,0.2,0.5,0.2c0.2,0,0.4-0.2,0.5-0.3c0.8-2,1.4-4.1,1.7-6.3
		c0.2-2.3,0.7-4.7,1-7.1c0.1-0.5,0.1-1,0.1-1.5c-0.6-3.2-2-6.1-4.2-8.5c-3.4-3.2-7.1-6.1-10.9-8.8c-0.9-0.6-1.8-1.1-2.7-1.6
		c-4.3-2.1-8.8-3.6-13.3-5.3c-1.8-0.6-3.6-1.1-5.4-1.5C310.9,148.3,310.7,148.4,310.5,148.5L310.5,148.5z M351.4,227.8
		c1.3,1.5,2.8,2.8,4.2,4c2,1.8,4.1,3.6,6,5.4c0.9,1,2,1.8,3.2,2.4l0.5-0.1c0.1-0.2,0-0.4-0.1-0.6c-1.3-2.3-2.2-4.7-2.8-7.3
		c-0.8-3.3-1.3-6.8-1.2-10.2c0.1-1.9-0.2-3.7-0.7-5.5c-0.4-1.5-0.8-3-1-4.6c-0.7-5.5-1.2-11-1.8-16.5c0-0.9-0.3-1.8-0.7-2.7
		c-0.6-0.9,0-1.6,0-2.4l0.1-0.3c0.1,0,0.3,0.1,0.4,0.2c1.6,2.3,2.6,5,3,7.8c0.4,3,1,5.9,1.7,9.3c0.1,4.1,1,8.1,2.8,11.7
		c0.6,1.6,0.9,3.2,0.9,4.9c0.2,3,0.7,5.9,1.6,8.8c0.3,0.9,0.6,1.8,0.9,2.6c1.6,4,3.7,7.7,6.2,11.1c1.2,1.6,2.2,3.3,3,5.1
		c0.4,1,1,1.8,1.8,2.5c0.9,0.6,1.4,1.8,2.6,1.9c-0.3-1-0.6-2-0.9-2.9c-1.8-5.2-2.7-10.7-2.7-16.2c0-0.8-0.1-1.6-0.3-2.4
		c-0.5-1.7-0.7-3.5-0.6-5.3c0.1-3,0.2-6,0.2-9c0-1-0.1-2.1-0.4-3.1c-0.3-1.1-0.7-2.2-1-3.3c-0.2-0.6-0.3-1.2-0.4-1.8
		c-0.1-2.9-0.9-5.8-2.3-8.3l-1.5-3.1c-0.3-0.7-0.6-1.3-1-1.9c-2-3-4.1-6-6.1-9c-0.9-1.4-2-2.7-3-4c-2.6-2.8-4.6-5.9-7.4-8.5
		l-0.6-0.7c-0.3-0.3-0.7-0.3-1,0c0,0-0.1,0.1-0.1,0.1c-1.8,2.5-2.8,5.4-3.1,8.4c-0.1,1.1-0.4,2.2-0.9,3.3c-1.1,2.9-2,5.9-2.8,8.9
		c-0.2,1.4-0.4,2.9-0.6,4.3c-0.2,1.4-0.3,2.5-0.5,3.7c-0.7,3.9-0.3,7.9,1,11.7c0.7,2,1.4,3.9,2,5.9
		C348.8,224.4,349.9,226.3,351.4,227.8L351.4,227.8z M530,325.1c2.1-2,4.9-3.3,7.8-3.6c0.8-0.1,1.6-0.2,2.5-0.3
		c1.5-0.1,2.9-0.6,4.1-1.4c1.4-0.9,2.8-1.7,4.2-2.7c0.5-0.4,1.6-0.6,1.3-1.4c-0.3-0.8-1.1-0.1-1.7-0.2c-0.2,0-0.4,0-0.6-0.1
		c0,0-0.1-0.2-0.1-0.2s0-0.3,0-0.3c0.5-0.3,1.1-0.6,1.6-0.9c3.1-1.4,5.9-3.2,8.4-5.3c2-1.8,3.7-3.9,5-6.3c0,0-0.2-0.4-0.3-0.4
		c-1,0-2,0.1-3.1,0.2c-0.1,0-0.3-0.2-0.4-0.3c-0.1-0.1,0-0.2,0-0.3c0.3-0.4,0.7-0.8,1.1-1.1c0.8-0.6,1.6-1.1,2.4-1.5
		c2.3-1.2,4.4-2.9,5.9-5c3.1-3.9,5.9-8.1,8.3-12.5c0.1-0.2,0.1-0.4,0.1-0.6l-0.5-0.1c-0.7,0.5-1.3,1-2,1.5c-0.6,0.5-1.1,1-1.6,1.5
		c-2.2,1.9-5.1,3-8,3.1c-0.4,0-0.8-0.1-1.2-0.3c-0.3,0-0.5-0.8-0.2-1.1c0.2-0.2,0.2-0.4,0.4-0.5c0.6-0.4,1.3-0.7,1.9-1
		c4-1.6,7.5-4.2,10.4-7.4c2.4-2.5,4.7-5.3,6.7-8.2c1.1-1.6,1.8-3.3,2.3-5.1c0.3-1.3,0.7-2.6,1-3.9c0.4-1.8,0.4-1.8-1.4-1.3
		c-1,0.2-2.1,0.2-3.1,0c-0.9-0.1-1.6-0.7-1.8-1.5c-0.7-1.7-0.6-3.5,0.2-5.2c0.6-1.3,1.3-2.6,2-3.9c0.3-0.7,0.7-1.3,1-1.9
		c1.2-2.2,1.9-4.6,2.2-7.1l0.9-7.4c0.2-1.5,0-3.1-0.4-4.6c0,0-0.4-0.2-0.5-0.1c-0.3,0.3-0.6,0.6-0.8,0.9c-1,1.7-2.1,3.3-3.4,4.8
		c-1,1.1-1.9,2.3-2.7,3.5c0,0-0.3,0-0.5,0.1c0-0.1,0-0.2,0-0.3c0.5-2.7,1.3-5.2,2.6-7.6c0.7-1.2,1.2-2.4,1.7-3.7
		c0.9-1.7,1.4-3.5,1.7-5.3c0.1-0.8,0.3-1.6,0.6-2.4c0.5-1.6,0.6-3.3,0.4-5c-0.1-0.2-0.2-0.3-0.4-0.5c0,0-0.4,0.1-0.5,0.2
		c-0.3,0.5-0.5,1.2-0.8,1.7c-0.7,1-1.4,2.1-2.1,3c-0.3,0.4-0.8,0.7-1.3,0.9c-0.3,0.1-0.6,0-0.9-0.1c-0.4-0.2-0.2-0.5-0.1-0.8
		c0.6-1.5,1.3-3.1,1.9-4.6c1.5-4.6,2.3-9.3,2.6-14.1c0-0.4,0-0.8,0-1.2c-0.1-1.1-0.5-1.4-1.6-1.2c-0.1,0-0.2,0.1-0.3,0.1
		c-1.7,0.9-3.8,0.2-4.6-1.5c-0.1-0.2-0.2-0.3-0.2-0.5c-0.8-1.5-1.2-3.2-0.9-4.8c0.4-4,1.9-7.7,4.3-10.9c0.1-0.2,0.1-0.4,0.1-0.6
		c-0.2-0.4-0.5-0.2-0.8-0.1c-0.8,0.4-1.5,0.8-2.3,1.1c-0.4,0.2-0.8,0.3-1.2,0.3c-0.2,0-0.4-0.2-0.5-0.4l0.1-0.5
		c0.8-1,1.6-1.9,2.5-2.8c2.1-1.9,3.5-4.4,4.3-7.2c0.7-2.4,1.2-4.8,1.4-7.3c0-0.4,0-0.8-0.1-1.2c-0.1-0.1-0.3-0.2-0.4-0.2
		c-0.6,0.3-1.1,0.6-1.6,0.9c-0.6,0.4-1.4,0.1-1.8-0.5c-0.1-0.2-0.2-0.5-0.2-0.7c0.2-1.9,0.4-3.7,0.6-5.6l0.5-4
		c0.3-1.7,0.4-3.5,0.3-5.3c0-0.1,0-0.2,0-0.3c0.4-4.3,0-8.5-1.1-12.7c-0.7-4.1-1.9-8.1-3.5-12c0-0.2-0.3-0.3-0.4-0.4
		c-0.1-0.2-0.3,0.3-0.3,0.5c-0.2,1.2-0.2,2.5-0.2,3.7c0,1.3,0,2.1-0.1,3.1c-0.1,2.8-0.4,5.6-0.5,8.4c-0.2,5.1-0.9,10.2-2.2,15.2
		c-1.3,5.2-2.8,10.2-4.5,15.2c-0.2,0.5-0.3,1-0.3,1.5c0,0.2-0.1,0.5,0.1,0.6c0.2,0.1,0.5,0.2,0.8,0.1c1.3-0.7,2.7-1.2,4.1-1.5
		c0.3-0.1,0.6-0.1,0.9-0.1c0.3,0.1,0.6,0.2,0.8,0.4c0,0.2-0.1,0.4-0.2,0.5c-0.4,0.4-1,0.8-1.5,1c-1.6,0.6-2.9,1.6-4,2.9
		c-0.5,0.7-1.2,1.2-2,1.4c-0.5,0.1-0.9,0.5-1,1c-0.5,1.6-1.1,3.2-1.6,4.7c-0.2,0.5-0.5,1-0.1,1.4c0.2,0.1,0.7-0.2,1.1-0.4l6.2-2.7
		c1.5-0.7,2.4-0.8,2.2-0.4c-0.3,0.8-1,1-1.6,1.4c-0.9,0.7-1.9,1.3-2.9,1.9c-2.7,1.6-5.2,3.5-7.5,5.7c-0.5,0.4-0.8,0.9-1,1.5
		c-0.6,1.3-1.2,2.7-1.7,4c-0.1,0.2,0,0.4,0.1,0.6c0.1,0.1,0.3,0.2,0.5,0.2c0.2,0,0.4-0.1,0.6-0.2c2.9-0.9,5.8-1.6,8.8-2
		c0.1,0,0.3,0.2,0.5,0.2c0,0.1-0.1,0.2-0.2,0.3c-0.8,0.7-1.7,1.2-2.8,1.3c-2.4,0.7-4.7,1.6-6.9,2.8c-2.6,1.2-4.6,3.4-5.7,6
		c-0.4,1.1-0.9,2.1-1.4,3.1c-0.1,0.2-0.1,0.4-0.1,0.6c0.1,0.1,0.3,0.2,0.5,0.2c3.3-0.9,6.7-1.6,10.1-2.1c2.1-0.3,4-1.1,5.7-2.4
		c0.8-0.6,1.6-1,2.4-1.5l0.5,0.1c0.2,0-0.1,0.4-0.2,0.6c-1.7,1.6-3.6,2.8-5.6,3.8c-2.8,1.2-5.7,2.1-8.7,2.7c-1.8,0.2-3.5,1-4.8,2.3
		c-1.6,1.5-3.8,2.3-4.9,4.2c-1.1,1.9-2.7,3.5-3.8,5.3c-0.1,0.2-0.1,0.6-0.1,0.8c0.2,0,0.4,0,0.6,0c0.5-0.2,0.9-0.5,1.4-0.7
		c2.2-1.4,4.7-2.2,7.3-2.5c6.8-0.8,13.2-3.4,18.6-7.5c0.2-0.1,0.4-0.2,0.6-0.3c0.1,0,0.2,0,0.2,0c0,0,0.1,0.2,0,0.3
		c-0.2,0.3-0.5,0.6-0.8,0.9c-4.8,4-10.5,6.9-16.6,8.3c-1.8,0.4-3.6,0.9-5.4,1.6c-2.2,0.8-4.1,2.1-5.6,3.8c-1.3,1.5-2.8,2.9-4.4,4
		c-0.3,0.1-0.5,0.3-0.7,0.6c-0.5,1.1-0.9,2.3-1.3,3.5c0,0.1,0,0.2,0.1,0.3c0.2,0,0.4,0.2,0.5,0.1c1.3-0.8,2.7-1.7,4-2.5
		c2.1-1.2,4.3-2.2,6.6-2.8c1.3-0.3,2.6-0.7,3.9-1.2c2.1-0.8,4.2-1.3,6.3-1.7c1.7-0.3,3.4-0.9,5-1.6c1.4-0.6,2.9-1.2,4.3-1.7
		c0.1,0,0.3,0.2,0.5,0.3c0.2,0.1,0,0.2-0.2,0.2c-3.2,2.1-6.7,3.8-10.4,5c-3.5,1-6.9,2.3-10.3,3.6c-1.4,0.7-2.8,1.4-4.1,2.2
		c-3.5,2.1-6.7,4.6-9.7,7.4c-0.4,0.3-0.8,0.7-1,1.2c-0.7,1.5-1.4,3-2.1,4.5c0,0,0,0.2,0.1,0.3s0.2,0,0.3,0c0.3-0.2,0.7-0.5,1-0.7
		c1.6-1.4,3.3-2.6,5.1-3.6c2.2-1.4,4.6-2.5,7.1-3.3c0.5-0.1,1-0.3,1.4-0.5c2.2-1.1,4.6-1.7,7-1.9c1.2-0.1,2.5-0.4,3.6-0.8
		c1.3-0.4,2.6-0.7,4-0.9c1-0.2,2-0.6,3,0l-2.6,1l-0.3,0.1c-3.1,1.4-6.4,2.4-9.8,3.1c-0.1,0-0.2,0-0.3,0.1c-3.6,1.5-7,3.2-10.4,5.1
		c-3.5,2.3-6.7,5-9.5,8c-0.6,0.6-1.2,1.2-1.8,1.7c-1.5,1.2-2.2,3.1-2.1,5c0,0,0,0.2,0.1,0.3c0.2,0.1,0.3,0.1,0.5,0.1l5.7-4.9
		c3.6-3,7.9-5.2,12.4-6.4c3.9-1.1,7.8-2.1,11.7-3.3c2.3-0.7,4.5-1.5,6.8-2.4c0.8-0.4,1.7-0.9,2.4-1.4c1.6-1,3.1-2,4.7-3
		c0,0,0.3,0,0.4,0.2c0,0.1,0,0.2,0,0.3c-0.3,0.3-0.6,0.6-0.9,0.9c-0.6,0.4-1.2,0.8-1.8,1.3c-3.2,3.4-7.6,4.6-11.7,6.3
		c-1.9,0.8-3.9,1.4-5.9,2.1c-1.1,0.4-2.1,0.9-3.2,1.2c-2.8,0.9-5.5,2-8,3.5c-1.8,0.9-3.4,2.1-4.8,3.5c-0.6,0.6-1.2,1.1-1.9,1.7
		c-1.8,1.4-3.4,3.1-4.7,5c-0.8,1-1.6,1.9-2.6,2.8c-0.7,0.5-1.1,1.3-1.2,2.1l-0.4,2.8c0,0.1,0,0.2,0.1,0.3c0.2,0.1,0.4,0.1,0.5,0.1
		c0.2-0.1,0.4-0.2,0.5-0.4c2.4-2.1,5.1-3.6,8.1-4.6c3.1-1,6-2.4,8.8-4c0.3-0.2,0.6-0.3,0.8-0.4c2.7-1.6,5.8-2.4,9-2.4
		c2.2,0,4.3-0.5,6.3-1.5c1.6-0.7,3.2-1.6,4.8-2.3c0.7-0.3,1.3-0.6,2-0.9c0.1,0,0.4,0,0.5,0.2c0.2,0.2-0.1,0.2-0.2,0.2
		c-1.9,1.2-3.9,2.5-5.8,3.7c-2.3,1.4-4.9,2.3-7.7,2.5c-3.1,0.2-6.2,1.2-8.8,2.9c-3.3,2.2-6.8,4-10.5,5.4c-1,0.4-1.9,0.9-2.7,1.6
		c-2.3,1.9-4.4,3.8-6.5,5.9c-1.6,1.7-2.2,4.1-1.8,6.4c0.1,0.6,0.5,0.7,0.9,0.4c1.3-1,2.5-2.1,3.8-3.2c1.1-1,2.3-1.9,3.5-2.5
		c1.1-0.6,2.2-1.2,3.3-1.8c3.2-2,6.6-3.5,10.2-4.5c4.3-1.1,8.6-2.5,12.8-4.1c2.7-1,5.4-1.8,8.3-2.4c-0.2,0.3-0.5,0.6-0.8,0.8
		c-1.5,0.7-3,1.4-4.6,2c-2,0.8-4.1,1.5-6.1,2.4c-2.3,1.1-4.7,2-7.1,2.7c-2.6,0.6-5,1.6-7.2,3.1c-0.3,0.2-0.5,0.3-0.8,0.4
		c-1.6,0.9-3.2,1.8-4.8,2.9c-2.3,1.7-4.5,3.5-6.6,5.4c-0.9,0.7-1.7,1.5-2.5,2.3c-0.8,0.8-1.4,1.5-2.2,2.2l-0.2,4.3
		c0,0.3,0.2,0.4,0.4,0.2c0.2-0.1,0.7-0.5,1-0.7l5.2-4c3.3-2.6,7-4.5,11-5.7c3.4-1,6.8-2.1,10.1-3.1c2.3-0.7,4.8-1.4,7.2-2
		c3-0.8,5.9-2,8.6-3.7c3.1-1.9,5.8-4.1,8.7-6.1c0.2-0.1,0.3,0,0.5,0.1c0,0.2,0,0.4-0.1,0.6c-0.1,0.2-0.2,0.4-0.3,0.5
		c-0.2,0.2-0.4,0.5-0.7,0.7c-2.7,1.9-5.3,4-8,6c-2.6,1.8-5.4,3.1-8.5,3.9c-3.1,0.8-6.2,1.9-9.1,3.2c-1.4,0.6-2.9,1.2-4.4,1.7
		c-5.3,1.6-10.2,4.3-14.4,7.9c-2.7,2.2-5.1,4.7-7.5,7.1c-0.4,0.4-0.6,0.8-0.7,1.4c-0.2,1.8-0.3,3.7-0.4,5.6c0,0.2,0.1,0.5,0.2,0.5
		c0.2,0,0.4,0,0.6-0.2c0.3-0.3,0.6-0.5,0.9-0.8c3.8-3.8,8.1-6.9,12.9-9.3c1.1-0.6,2.3-1.1,3.5-1.5c1.2-0.5,2.5-0.9,3.8-1.3
		c4.1-1.2,8-2.8,11.9-4.7c1.9-0.9,3.7-1.9,5.4-3.2c1.2-1,2.5-1.9,3.8-2.8c0.1,0,0.2,0,0.3,0c0.3,0,0.2,0.2-0.1,0.4
		c-3,3.3-6.7,6-10.8,7.8c-4.1,1.7-8.1,3.9-12.4,5.2c-2.1,0.7-4,1.8-5.7,3.2c-3.2,2.3-6.3,4.9-9.1,7.6c-1.2,1.3-2.3,2.7-3.4,4.1
		c-1,1.1-1.4,2.6-1.1,4.1c0.1,0.5,0.4,1.1,0.6,1c0.3-0.1,0.5-0.2,0.8-0.4c2.9-3,6.2-5.6,9.9-7.6c1.1-0.6,2.2-1.2,3.2-2
		c1.7-1.1,3.4-2,5.3-2.6l10.8-4l3.2-1.1c0.1,0,0.2,0,0.3,0l-0.1,0.4c-3.1,2.4-6.7,4.3-10.4,5.6c-2.2,0.7-4.3,1.7-6.1,3.2
		c-0.7,0.6-1.5,1.1-2.3,1.6c-3.1,1.9-6,4.1-8.8,6.6c-2.2,2-4,4.3-5.4,6.9c-0.4,0.6-0.3,1.4,0,2.1c0,0.1,0.4,0.3,0.5,0.2
		c0.5-0.3,0.9-0.6,1.2-0.9c0.8-0.8,1.7-1.6,2.7-2.1c0.6-0.3,1.3-0.7,1.8-1.2c2.2-1.8,4.7-3.2,7.3-4.2c4.8-2.1,9.4-4.5,13.8-7.3
		c0.5-0.3,1-0.7,1.5-1.1c0.2-0.2,0.4-0.2,0.5,0.1c0,0.1,0,0.2,0,0.3c-0.2,0.3-0.3,0.5-0.6,0.7c-2.2,1.6-4.4,3.1-6.8,4.4
		c-3.2,1.9-6.3,3.7-9.3,5.6c-0.9,0.6-1.7,1.2-2.5,1.9c-1.3,1.1-2.5,2.2-3.9,3.2c-1.8,1.6-3.4,3.4-4.9,5.2c-0.3,0.3-0.4,0.7-0.4,1.1
		c0.1,0.4-0.2,2.7,0.3,6.9c0.3,2.5,0.5,5.7,0.5,8.9c0,2.5-0.2,5.7-0.5,8.3c-0.5,4.1-1.8,9-2.5,12.4c-1.5,6.6-3.6,8.5-3.5,9.1
		c0,0.3-0.6,9.7-0.6,9.7c3.6-4.6,7.7-20.1,8.2-22.5c0.9-4.3,1.2-8.2,1.6-10.5c0.8-5.3,0.7-9,0.6-11.4c-0.2-4-1-7.1-0.7-8.6
		C526.1,328.4,528.5,326.5,530,325.1z M572.8,122.2c0.2-2.6,0.1-5.2-0.3-7.8c-0.1-0.2-0.2-0.3-0.3-0.4c-0.1,0.1-0.3,0.3-0.4,0.4
		c-0.2,0.4-0.4,0.7-0.5,1.1c-1.8,5-4.6,9.6-8.3,13.5c-3.6,3.9-6,8.8-6.9,14.1c-0.3,1.5-0.7,3.1-1.1,4.6c-0.5,1.6-1.7,3-3.2,3.7
		c-1.8,1-4.1,0.4-5.2-1.4c-0.4-0.6-0.6-1.3-1-2c-0.1-0.1-0.3-0.1-0.5-0.1c-2.8,3.2-5.4,6.6-7.8,10.2c-1.4,2.2-2.4,4.7-3,7.2
		c-0.4,1.7-1,3.4-1.8,5c-0.4,0.8-1,1.6-1.6,2.3c-1,1-2.3,1.5-3.7,1.4c-1.3,0-2.5-0.7-3.1-1.8c-0.1-0.2-0.2-0.3-0.4-0.5l-0.5-0.1
		c-1.9,2.5-3.5,5.2-4.8,8c-0.9,2-1.6,4.1-1.8,6.3c-0.1,1.7-0.4,3.3-1,4.9c-0.4,1-0.8,1.9-1.3,2.8c-0.7,1.4-2.1,2.4-3.6,2.7
		c-1.5,0.4-3.2,0-4.4-1.1c-0.2-0.3-0.7-0.4-1-0.1c-0.1,0.1-0.2,0.2-0.3,0.4c-0.9,2-1.8,4-2.6,6c-0.7,2-1,4.1-0.8,6.2
		c0.2,3.6,0.4,7.3,0.6,10.9c0.2,1.9-0.1,3.8-0.9,5.5c-0.6,1.2-1,2.5-1.1,3.9c-0.2,1.6-0.7,3.1-1.4,4.4c-0.4,0.8-0.7,1.7-1,2.6
		c-0.4,1.2-0.8,1.4-2.4,1.5c-0.5-0.1-0.6-0.2-0.4-0.5c0.8-2.1,0.8-4.3,0-6.4c-0.3-1-0.6-2-1.1-2.9c-0.1-0.3-0.3-0.3-0.5-0.1
		c-0.3,0.5-0.6,1.1-0.9,1.7c-1.4,4.1-2.5,8.2-3.4,12.4c-0.7,3.2-0.9,6.4-0.5,9.6c0.1,0.4,0.1,0.8,0.1,1.2c0,0.8-0.5,1.4-1.2,1.6
		c-0.6,0.3-1.3,0.2-1.8-0.2c-0.9-0.8-1.7-1.6-2.5-2.3c-0.4-0.4-0.7-0.8-1-1.1s-0.6-0.1-0.7,0.2c-0.7,1.9-1.1,3.8-1.4,5.8
		c-0.8,4.4-0.7,9,0.4,13.3c0.7,2.5,1.1,5.1,1.3,7.7c0.1,1.8,0.9,3.5,2.3,4.6c2,1.7,2.3,9.8,4.3,11.5c0.6,0.4,1,1.1,1.2,1.8
		c0.1,0.7,0.4,1.4,0.9,2c3.7,4.5,7.1,9.3,10,14.3c3.5,6,6.9,7.9,10.4,14c1,1.8,3.9,1.6,4.8,3.4c0,0,0.2,0.1,0.2,0.2
		c0.1,0.1,0.3-0.3,0.3-0.5c-0.4-2.5-0.8-4.9-1.2-7.4l0-0.3c-0.7-3.8-2.2-7.4-4.5-10.5c-0.4-0.6-0.8-1.2-1.4-1.7
		c-1.4-1.4-2.6-3-3.5-4.8c-1.3-2.3-2.8-4.4-4.6-6.3c-0.7-0.8-1.4-1.6-2.1-2.4c-2.3-2.6-4.2-5.5-5.7-8.6c-1.2-2.3-2-4.8-2.3-7.4
		c-0.1-0.9-0.2-1.9-0.3-2.8c0,0,0-0.2,0.2-0.2c0.1,0,0.2,0.1,0.2,0.1c0.3,1,0.7,2,1,3c1.2,4.9,3.8,9.3,7.5,12.7
		c2.3,2.2,4.4,4.4,6.6,6.7c0.7,0.7,1.2,1.4,1.7,2.2c1.1,1.8,2.3,3.5,3.7,5c0.7,0.8,1.3,1.6,1.9,2.5c0.3,0.4,0.5,1,1.1,0.8
		s0.4-0.7,0.4-1.1c0-0.7-0.1-1.4-0.3-2.1c-0.6-2-1.2-4-1.8-6c-1.4-4.4-3.5-8.5-6.2-12.2c-0.8-1.1-1.5-2.2-2.3-3.3
		c-0.8-1.1-2-2.9-3.2-4.3c-3-3.7-5.2-8.1-6.4-12.7c-0.2-1.1-0.4-2.3-0.5-3.4c-0.2-1.9-0.5-3.9-0.8-5.9c-0.1-0.7-0.1-1.5-0.1-2.2
		c0-0.1,0-0.2,0-0.3c0.1,0,0.3,0,0.4,0.2c0.7,2.7,1.4,5.5,2,8.2c1,5.2,3.5,9.9,7.3,13.6c0.4,0.3,0.8,0.7,1.1,1.2c2.4,3,4.8,6,7,9.1
		c0.8,1.2,1.5,2.5,2.1,3.8l1.2,2.2c0.1,0.1,0.2,0.1,0.2,0c0,0,0.2-0.1,0.2-0.2c0.7-2.3,0.8-4.7,0.2-7.1c-0.9-3.5-2.1-7-3.6-10.3
		c-1.4-3-3-6-4.8-8.7c-2-2.8-3.4-6-4.2-9.4c0-0.1,0.2-0.3,0.2-0.5l0.2,0.2l0.2,0.2c3.3,4.9,6.6,9.6,9.8,14.5c0.9,1.6,1.7,3.3,2.5,5
		c0.2,0.5,0.5,0.9,0.7,1.4c0.1,0.1,0.1,0.1,0.3,0.1c0.1,0,0.2-0.1,0.2-0.2c0.5-2.2,0.7-4.5,0.5-6.8c-0.4-3.2-0.9-6.4-1.5-9.6
		c-0.8-3.9-2.3-7.6-4.6-10.9c-2.4-3.6-4.1-7.5-5.1-11.7c-0.1-0.2,0-0.4,0.1-0.6c0.4-0.3,0.5,0.1,0.7,0.3c0.4,0.6,0.8,1.2,1.2,1.8
		c0.6,1,1.1,2,1.7,3c1.3,2,2.5,4.1,3.9,6c2.1,2.9,3.7,6.1,4.7,9.5c0.1,0.5,0.3,1,0.5,1.5c0,0.1,0.3,0.2,0.4,0.3
		c0.1-0.1,0.1-0.1,0.2-0.2c0.8-2.4,1.5-4.7,2.3-7.1c0.3-1.1,0.3-2.3-0.2-3.3c-1.7-4.5-3.8-8.8-5.6-13.2c-2.9-6.7-5.2-13.7-6.7-20.8
		c-0.7-4-0.5-8.1,0.6-12.1c0,0,0.3-0.3,0.4-0.3c0.1,0,0.4,0.3,0.4,0.4c0,2.3,0.1,4.4,0,6.6c0,1.8,0.2,3.5,0.6,5.2
		c1.4,5.2,3.3,10.3,5.8,15.1c2,4,3.9,8.1,5.9,12c0.2,0.4,0.4,0.7,0.6,1c0.1,0,0.2,0.1,0.3,0c0.1,0,0.2-0.1,0.2-0.2
		c0.4-1.4,0.6-2.9,0.4-4.3c-0.5-5.3-1.8-10.5-4-15.3c-2.1-4.8-3.5-9.8-4.2-15c-0.5-3.3-0.4-6.7,0.4-9.9c0.3-1,0.7-2,1.1-2.9
		c0,0,0.2-0.1,0.2-0.2s0.1,0.2,0.1,0.3c-0.1,0.7-0.1,1.5-0.2,2.2c-0.5,4.8,0.2,9.6,1.9,14.1c0.7,1.8,1.3,3.5,2,5.3
		c0.9,2.4,1.9,4.6,2.8,7c1.5,3.1,2.4,6.4,2.8,9.9c0,0.1,0.1,0.2,0.1,0.2c0.1,0.1,0.2,0.1,0.3,0.1c0.1,0,0.2,0.1,0.3,0
		c0.2-0.1,0.3-0.3,0.4-0.5c0.6-1.3,1.3-2.6,1.9-4c0.4-0.5,0.3-1.3-0.2-1.7c-0.3-0.4-0.5-0.9-0.6-1.4c-0.2-1.7-0.3-3.3-0.2-5
		c0.3-3.9,0-7.9-1-11.8c-0.5-2.5-1.3-5-2.2-7.5c-0.6-1.1-0.8-2.4-0.8-3.6c0-0.1,0.1-0.2,0.2-0.2l0.2,0c0.9,2.2,1.9,4.4,2.7,6.6
		c1.5,3.7,2.6,7.5,3.3,11.4c0.2,1.2,0.2,2.5,0.3,3.7s0.2,2.1,0.3,3.1c0,0.1,0.2,0.3,0.4,0.3c0.2,0,0.4-0.1,0.5-0.3
		c0.7-1.2,1.2-2.4,1.4-3.8c0.1-0.8,0.2-1.6,0.2-2.5c0.1-1.8,0.1-3.5,0.2-5.3c0.2-3.3,0.5-6.7,0.6-10c0.2-5.4-0.6-10.8-2.5-15.9
		c-0.8-2.1-1.3-4.4-1.4-6.7c0,0,0-0.2,0.2-0.2c0.1,0,0.2,0,0.2,0c0.2,0.2,0.3,0.5,0.5,0.8c1.3,3.3,2.7,6.5,3.9,9.9
		c1.9,5.3,2.7,10.9,2.4,16.5c0,1,0,2.1,0.1,3.1c0,0.2,0.1,0.4,0.2,0.6c0-0.1,0.3-0.1,0.4-0.3c1.1-1.5,1.7-3.3,2-5.2
		c0.2-2.2,0.5-4.3,1-6.5c0.6-4.7,0.4-9.4-0.5-14c-0.1-0.3-0.2-0.6-0.2-0.9c-0.5-5.9-1.4-11.8-2.6-17.6c0-0.2,0-0.4,0.1-0.6
		c0-0.1,0.1-0.2,0.2-0.2c0.1,0,0.2,0.1,0.3,0.1c0.3,0.5,0.6,1.1,0.9,1.6c0.9,2.8,1.9,5.5,2.6,8.4c1,4.6,1.9,9.3,2.8,13.9
		c0.4,2.8,0.5,5.6,0.4,8.4c0,0.2,0.2,0.5,0.3,0.7c0.2-0.2,0.5-0.3,0.7-0.6c1.8-3,2.7-6.4,2.5-9.8c0.1-0.7-0.1-1.5,0-2.3
		c0.3-2.5,0.4-5,0.3-7.5c0-2.4-0.1-4.8-0.4-7.2c-0.3-1.8-0.5-3.5-0.9-5.3c-0.3-1.7-0.7-3.2-1.2-4.9c-0.3-1.1-0.8-2.1-1.2-3.2
		c0-0.1,0-0.2,0-0.3c0.1,0,0.2,0,0.2,0c0.4,0.4,0.7,0.8,0.9,1.2c2,4.1,3.5,8.5,4.6,12.9c0.8,4,1.2,8,1.2,12.1c0,0.4,0,0.8,0.1,1.2
		c0,0,0.1,0.2,0.2,0.2c0.1,0,0.2,0,0.3-0.1c1-1.4,1.7-2.9,2-4.6c0.9-4.3,1.2-8.7,1-13c-0.1-0.7-0.2-1.4-0.3-2.2
		c0-0.1,0.2-0.3,0.3-0.4c0.1-0.1,0.2,0,0.2,0.2c0.4,1,0.7,2,1,3c0.4,2.1,0.7,4.3,1,6.5c0.1,0.2,0.1,0.4,0.2,0.6
		c0.2-0.2,0.3-0.4,0.5-0.6c0.2-0.6,0.3-1.2,0.6-1.8c0.4-0.9,0.5-1.8,0.3-2.7c-0.3-2.6-0.3-5.2,0-7.8c0.3-3.3,0.2-6.7-0.3-9.9
		c-0.3-1.5-0.4-3.1-0.3-4.7c0.1-0.2,0.2-0.4,0.3-0.5c0.2,0.1,0.3,0.2,0.5,0.4c0.8,1.7,1.5,3.5,1.8,5.3c0.3,1.5,0.6,3.1,0.9,4.6
		c0.1,0.2,0.2,0.3,0.4,0.4c0.1,0,0.3-0.2,0.4-0.3c0.6-1.5,1.2-3.1,1.7-4.7c0.5-1.1,0.6-2.4,0.2-3.6c-0.2-1-0.3-2.1-0.3-3.1
		c-0.1-2.1-0.2-4.2-0.3-6.2c-0.2-1.9-0.6-3.7-1.2-5.5l-0.5-2.1c0,0,0-0.1,0-0.1l0.2,0c1.6,2.4,2.8,5,3.5,7.7
		c0.2,0.9,0.5,1.8,0.8,2.7c0,0.1,0.3,0.2,0.5,0.2c0.2,0.1,0.2-0.1,0.2-0.2c0.1-0.5,0.3-1,0.3-1.5c0.4-3.3,1-6.6,1.4-9.8
		S572.5,125.5,572.8,122.2L572.8,122.2z M392.1,264.1c0.3,0.9,0.8,1.7,1.4,2.4c1.6,1.9,3.4,3.7,5.1,5.5c0.1,0.1,0.3,0.1,0.5,0.1
		c0.1-0.2,0.2-0.4,0.1-0.6c-0.3-1.1-0.7-2.2-1.1-3.2c-0.5-1.2-0.9-2.6-1-3.9c-0.5-4-1-8.1-1.2-12.1c-0.1-2.3-0.1-4.5,0.1-6.8
		c0-3.5,0.3-7.1,0.7-10.6c0.1-0.6,0-1.2-0.1-1.9l-0.9-8.1l-0.1-0.6l0.3,0.4l0,0.3c0.5,0.8,0.7,1.7,0.8,2.7c0.2,1.2,0.5,2.4,0.9,3.6
		c0.6,1.9,0.8,3.9,0.7,5.9c-0.1,0.6-0.1,1.2-0.1,1.9c0.2,6.7,0.7,13.3,1.6,19.9c0.1,0.5,0.2,1,0.2,1.5c0.5,4.8,2.1,9.4,4.7,13.4
		c1.2,2.1,2.6,4,3.9,6c0.2,0.3,0.5,0.6,0.8,0.9c0.1,0.1,0.2,0.1,0.3,0.1c0-0.1,0.3-0.3,0.2-0.4c-0.2-0.7-0.3-1.5-0.3-2.2
		c0.1-1.6,0-3.1-0.2-4.7c-0.6-3.9-0.7-7.9-0.2-11.8c0.3-2.2,0.4-4.4,0.3-6.5c-0.1-2,0-3.9,0.3-5.9c0.1-1.8,0-3.5-0.2-5.3
		c-0.4-3.5-1.1-7-2.1-10.4c-2.1-7.1-5.1-13.9-8.7-20.3c-1.7-3.2-3.8-6.3-5.6-9.3c-1.4-2.2-3.1-4.2-5-6c-1.3-1.1-2.3-2.5-2.9-4
		c-0.3-0.6-0.6-1.1-1-1.5c-0.2-0.1-0.4-0.2-0.6-0.2c-0.2,0.1-0.3,0.3-0.3,0.5c-0.1,1.3-0.1,2.7,0,4c0.3,3.7,0,7.5-0.9,11.2
		c-0.4,1.8-0.5,3.7-0.5,5.6c0.1,4.7,0.4,9.4,1.1,14c0.1,0.6,0.2,1.2,0.2,1.9c-0.2,2.9,0.1,5.8,0.7,8.7l0.5,4c0.2,2,0.7,3.9,1.6,5.7
		c1.4,2.9,2.6,5.9,3.5,9c0.7,2.4,1.6,4.8,2.6,7.1L392.1,264.1z M386.2,275.2c0.3,0.1,0.6,0.1,0.9,0c0.3-0.1,0.6-0.2,0.8-0.4
		c0-0.2-0.2-0.4-0.3-0.5c-1.2-1-2.5-2-3.7-2.9c-2.6-1.7-5.2-3.4-7.9-5c-0.1-0.1-0.2-0.1-0.3-0.2c-5.4-2.4-10.4-5.5-16.2-7.3
		c-2.5-0.7-4.9-1.8-7.3-2.7c-2-0.7-4-1.3-6-1.8c-2.9-0.8-5.8-1.6-8.7-2.3c-1.5-0.4-3.1-0.6-4.6-0.8c-4.1-0.6-8.2-1.3-12.4-1.8
		c-2.5-0.4-4.9-0.7-7.4-1c-2.1-0.3-4.1-0.6-6.2-0.9c-0.1,0-0.2-0.2-0.4-0.3c0.2-0.1,0.3-0.2,0.5-0.3c1.5-0.2,3.1-0.4,4.7-0.4
		c3.2,0,6.4,0.2,9.6,0.6c4,0.6,8.1,0.9,12.1,1.3c3.7,0.4,7.4,1.1,11,2.1c1.1,0.3,2.2,0.7,3.3,0.8c4.2,0.7,8.3,1.8,12.4,3.3
		c4.2,1.4,8.2,3,12.2,4.7c2.1,0.9,4.2,1.7,6.4,2.5c1.4,0.4,2.7,1,4.1,1.5c0.2,0.1,0.3,0,0.5-0.1c0.1-0.2,0-0.4-0.1-0.6
		c-1-1.1-2-2.1-3.1-3.1c-3.2-2.7-6.2-5.6-9.2-8.4c-4.2-3.7-8.8-7.1-13.6-10c-2.4-1.6-5-3-7.6-4.4c-1.1-0.6-2.2-1.1-3.4-1.5
		c-5-1.5-10.1-2.5-15.3-2.9c-2.2,0-4.5,0.1-6.7,0.3c-3.8,0.6-6.6,1-9.3,1.7c-2.7,0.7-5.1,1-7.6,1.7c-5.4,1.3-10.5,3.5-15.2,6.4
		c-0.8,0.5-1.5,1.1-2.3,1.7c-0.4,0.3-0.4,0.7,0.1,1c0.5,0.3,1.1,0.6,1.6,0.9c2.8,1.3,5.6,2.7,8.3,4.3c0.4,0.2,0.8,0.4,1.1,0.6
		c2.5,1.6,4.8,3.3,7.2,4.9c1.2,0.8,2.5,1.6,3.7,2.4c4.1,2.3,8.4,4.2,12.3,6.8c0.3,0.2,0.5,0.3,0.8,0.4c2.7,1,5.4,2.3,7.9,3.8
		c2.4,1.3,5.1,1.9,7.8,1.9c1.8,0,3.5,0.2,5.2,0.8c2.6,0.9,5.2,1.5,7.9,1.9c0.4,0,0.8,0.1,1.2,0.2c2.7,0.7,5.5,0.9,8.4,0.7
		c3.1,0,6.2,0,9.3-0.1c0.4,0,0.8,0,1.2,0C378.3,274.4,382.3,274.5,386.2,275.2z M396.9,309.6c7.3,2.5,14.8,4.4,22.4,5.6
		c2.5,0.3,4.9,0.9,7.2,1.9l0.3,0c0,0,0.2-0.4,0.1-0.5c-1-1.5-2.3-2.7-3.7-3.7c-4.5-3-9.2-5.8-14-8.3c-6-3-12.4-5.4-19-7.1
		c-3.2-0.9-6.4-1.9-9.6-2.7c-3.2-0.8-6.8-1.2-10.1-1.8c-1.5-0.3-3.1-0.5-4.6-0.8c0,0,0-0.2-0.2-0.3c-0.2-0.1,0.2-0.1,0.3,0
		c0.9-0.2,1.9-0.2,2.8-0.2c4.1,0.5,8.3,0.3,12.4,1.2c4.1,0.9,8.3,1.9,12.5,2.8c1.3,0.3,2.6,0.7,3.9,1c2.4,0.4,4.7,1.1,6.9,2
		c0.7,0.3,1.3,0.5,2,0.7c3.4,1,6.7,2.2,10,3.6c1.2,0.5,2.4,1.1,3.7,1.7l0.3,0c0.1,0,0.2-0.2,0.1-0.2c-0.4-0.5-0.7-1-1.2-1.5
		c-2.6-2.6-5.4-5.2-8.1-7.8c-1.2-1.2-2.3-2.4-3.4-3.7c-1.8-2.1-3.9-3.8-6.3-5c-3.1-1.7-6.4-2.9-9.9-3.8c-4.6-1.2-9.4-2.1-14.1-2.7
		c-4.4-0.4-8.7-0.8-13.1-1c-1.4,0-2.7,0.2-4,0.5c-1.4,0.2-2.9,0.6-4.3,0.9c-4.1,0.9-8.1,1.7-12.2,2.6c-2,0.3-3.9,0.8-5.7,1.5
		c-0.9,0.4-1.7,0.8-2.5,1.2c-0.1,0.1-0.2,0.3-0.2,0.5c0.1,0.2,0.2,0.3,0.4,0.4c0.3,0.1,0.6,0.1,0.9,0.2c1.1,0.3,2.3,0.5,3.3,0.8
		c2.6,0.6,5.1,1.8,7.3,3.4c2.2,1.5,4.4,2.8,6.6,4.2c1.3,0.8,2.6,1.7,3.9,2.6c1.3,0.9,2.7,1.9,4.1,2.8c1.6,1,3.1,2.2,4.3,3.6
		c1.6,1.8,3.4,3.4,5.4,4.6l10,6.4c0.4,0.3,0.9,0.6,1.3,0.8c5.5,3,11.3,5.4,17.3,7.1c5.2,1.5,10.6,2.2,16,2c2-0.2,4.2-0.1,6.1-0.2
		c1.9,0,3.3-0.4,4.8-0.9c0.7-0.2,1.6-0.2,2.1-1c-0.6-0.4-1.2-0.8-1.9-1.1c-2.7-1.4-5.5-2.4-8.5-3.2c-6.8-1.9-13.5-4.2-20.1-6.9
		c-1-0.5-2.1-1-3-1.5c0,0-0.1-0.1-0.2-0.2c0.1-0.1,0.3-0.2,0.5-0.3C396.5,309.6,396.7,309.6,396.9,309.6z M258.7,269.2
		c-1.1,1.9-2.2,3.8-3.2,5.7c-0.3,0.5-0.6,1.1-0.7,1.7c-0.3,1.6-0.5,3.3-0.8,4.9c-0.3,2.9,0.2,5.8,1.3,8.5c1,2.6,2.3,5.2,3.9,7.5
		c1.6,2.5,3.8,4.5,6.5,5.7c2.2,1,4.4,2,6.6,2.9c2.9,1.2,6.2,1.4,9.2,0.4c0.8-0.2,1.6-0.4,2.4-0.6c0.8-0.2,1.2-0.1,1.8-0.4
		c2.1-0.5,3.8-1.9,4.6-3.9c0.4-1,0.8-1.9,1.2-2.9c0.9-2.4,0.9-4.9,0.3-7.4c-0.6-2.2-2.7-3.7-4.9-3.6c-1.9-0.1-3.7,0.4-5.4,1.4
		c-1.9,1-2.6,3.4-1.5,5.3c0.2,0.4,0.5,0.7,0.8,1c0.3,0.3,0.6,0.6,1,0.8c1,0.7,2.3,0.7,3.3,0.1c0.5-0.3,1-0.8,1.5-1.1
		c0.2-0.2,0.5-0.3,0.8-0.3c0.2,0,0.5,0.7,0.5,1c-0.3,1.1-1.1,2.1-2.2,2.4c-3,1-6.2-0.1-8-2.7c-0.9-1.8-1.1-3.9-0.5-5.8
		c0.4-1.4,1.3-2.6,2.6-3.4c1.9-1.4,4.2-2.3,6.6-2.6c4.8-0.6,9.2,2.8,9.8,7.6c0,0.2,0,0.4,0.1,0.6c0.5,4.7-0.8,9.4-3.5,13.3
		c-0.8,1.2-2,2.1-3.4,2.7c-3.4,1.3-7,2.2-10.6,2.5c-2.5,0.2-5-0.2-7.4-1.1c-2.4-1.1-5-2.2-7.4-3.3c-3.4-1.7-6.2-4.3-8.1-7.6
		c-1.6-2.4-2.9-5.1-3.8-7.8c-0.1-0.3-0.3-0.5-0.5-0.7c-0.1-0.1-0.2-0.1-0.3-0.1c-0.1,0-0.2,0.1-0.2,0.2c-0.1,1.2-0.3,2.5-0.4,3.7
		c-0.1,2.3-0.3,4.4-0.3,6.6c0.1,2.1,0.4,4.1,0.7,6.2c0.2,1.5,0.6,3,0.9,4.6l0.8,6.5c0.2,2.1,0.8,4.1,1.7,6c1.6,3.2,2.7,6.7,4.7,9.9
		c1.9,3.1,3.7,6.3,5.8,9.3c2.1,3.3,5.9,5.2,9.9,4.9c1.4,0,2.7-0.2,4-0.5c1.8-0.3,3.4-1.1,4.7-2.4c0.8-0.9,1.9-1.6,2.8-2.6
		c2.1-2.1,4.7-3.5,7.5-4.3c2.6-1,5.4-1.7,8.1-2.3c1.9-0.3,3.9-0.4,5.9-0.2c1.9,0.2,3.7,0.1,5.6,0.1c3.1,0.3,6.2,1.1,9.1,2.2
		c0.2,0,0.4,0.2,0.5,0.3c0.7,1.6,2,1.1,3.2,1.1c2.5-0.1,5-0.4,7.4-0.9c3.2-0.5,6.5-0.1,9.5,1.1c1.7,0.6,3.3,1.3,4.9,2
		c0.8,0.3,1.5,0.7,2.2,1.2c1.7,1.1,3.3,2.2,4.9,3.4c0.7,0.5,1.3,1.1,1.7,1.8c0.2,0.2-0.1,0.8-0.3,1.1c-0.2,0.2-0.5,0.4-0.8,0.4
		c-1.2,0.4-2.4,0.7-3.6,1.1c-1.1,0.2-2.1,0.9-2.8,1.8c-0.2,0.4-0.2,0.8,0,1.2c0.4,0.8,1,1.3,1.9,1.6c2.2,0.9,4.6,1.5,7,1.8
		c0.7,0,1.4,0.2,2.1,0.5c4,1.5,7.8,3.6,11.2,6.1c1.9,1.6,3.8,3.2,5.9,4.6c2,1.5,3.7,3.4,5.2,5.4c0.8,1,1.4,2.1,2.1,3.1
		c0.1,0.2,0.1,0.4,0.1,0.6c-0.1,0.1-0.3,0.2-0.5,0.2c-2.7-1.4-5.3-0.5-7.9,0.1c-0.6,0.2-0.9,0.8-0.8,1.4c0,0.1,0.1,0.3,0.2,0.4
		c1.1,1.8,2.5,3.3,4.2,4.6c1.3,0.9,2.7,1.6,4.2,2c2.7,0.7,5.3,1.8,7.7,3.4c1,0.6,1.8,1.4,2.6,2.2c2.5,2.8,4.9,5.7,6.9,8.8
		c0.7,1.2,1.3,2.4,1.8,3.6c0.1,0.2,0,0.4-0.1,0.6c-0.1,0.1-0.3,0.1-0.5,0.1c-0.4-0.1-0.8-0.3-1.2-0.4c-0.7-0.3-1.5-0.2-2.2,0.1
		c-1.3,0.3-2,1.6-1.7,2.8c0.1,0.3,0.2,0.6,0.5,0.9c0.9,1.4,2.2,2.6,3.6,3.4c1.5,1,2.9,1.9,4.4,2.9c0.2,0,0.4,0,0.6-0.1
		c0,0,0.1-0.2,0.1-0.3l-1-8.7c-0.2-1.5-0.8-3-1-4.6c-0.3-2.2-0.9-4.4-1.8-6.5c-0.5-1.5-0.8-3-0.8-4.6c0-0.4,0-0.8,0.1-1.2
		c0.6-2.2,2-4.2,3.8-5.6c0.9-0.6,1.5-1.5,1.8-2.5c0.8-1.9,1.2-4,1.2-6.1c0.1-2.3,0.2-4.6,0.6-6.8c0.3-1.9,1-3.6,2.1-5.2
		c1-1.3,1.9-2.8,2.6-4.2c0.8-1.8,2.4-3.2,4.4-3.7c1.9-0.5,3.8-1.2,5.6-2c2.1-0.8,4.5-1,6.7-0.6c3,0.4,5.9,1.2,8.7,2.5
		c1.3,0.7,2.6,1.3,4,1.8c3.5,1.5,7,3.3,10.3,5.3c3,1.7,5.8,3.7,8.5,5.9c2.9,2.2,3.9,2.7,3.8,2.1c-0.4-1.4-1.3-2.6-2.4-3.5
		c-2.6-3-5-6.1-7.2-9.5c-1-1.5-2.1-2.9-3.4-4.1c-5.2-4.9-10.6-9.4-16.4-13.5c-2.5-1.9-5.4-3.3-8.4-4c-3.3-1-6.7-1.6-10.1-1.8
		c-4.3-1.2-8.5-0.2-12.7,0.4c-1.6,0.3-3.2,0.8-4.8,1.5c-3.4,1.3-6.7,2.9-9.9,4.7c-1,0.6-1.9,1.2-2.9,1.9c-0.2,0-0.3,0.1-0.5,0.1
		c0-0.3-0.1-0.6,0.1-0.8c0.6-0.7,1.3-1.4,2-1.9c3.7-2.3,7.6-4.4,11.6-6.2c2.3-1,4.7-1.7,7.2-2.1c0.8-0.1,1.7-0.2,2.5-0.4
		c0.3,0,0.6-0.1,0.5-0.6c-0.1-0.2-0.2-0.3-0.4-0.4c-1.1-0.2-2.3-0.3-3.4-0.4c-0.5,0-1-0.1-1.6-0.1c-5.2-0.2-10.3-1.6-15-4
		c-2.7-1.3-5.7-2-8.7-1.8c-2.9,0.1-5.8,0.1-8.8,0.1c-0.4,0-0.8,0.1-1.2,0.1c-4.5,0.8-8.9,2.4-12.8,4.8c-0.6,0.4-1.2,0.8-1.9,1.1
		c-0.2,0-0.4,0-0.6-0.1c-0.2-0.1,0.1-0.4,0.2-0.5c0.3-0.4,0.7-0.8,1.1-1.1c3.6-2.8,7.7-4.9,12.1-6.3c2.1-0.5,4.3-0.9,6.4-1.1
		l2.2-0.3c0.3,0,0.3-0.2,0.1-0.5c-0.1-0.2-0.3-0.3-0.4-0.4c-4-2.8-8.3-5.2-12.9-7c-3.2-1-6.3-2.2-9.5-3c-3-0.8-6.1-1.3-9.2-1.5
		c-3.3-0.2-6.7,0-10,0.6c-0.6,0.1-1.2,0.3-1.8,0.6c-3.1,1.2-6.3,2-9.3,3.6c-0.2,0.1-0.4,0.1-0.6,0.1c-0.1,0-0.1-0.1-0.2-0.1
		c0-0.1-0.1-0.2,0-0.3c1-0.7,2-1.4,3.1-2c1.7-0.9,3.6-1.7,5.4-2.5c1.4-0.7,2.8-1.1,4.4-1.2l3.7-0.4l4-0.5c0.9-0.1,1.9-0.1,2.8,0
		c2.3,0.5,4.8,0.3,7.1,0.6c0.2,0,0.4-0.1,0.5-0.2c0-0.2,0-0.4-0.2-0.5c-2.3-1.7-4.5-3.4-6.8-5c-0.8-0.6-1.6-1-2.4-1.5
		c-6.1-3.9-13-6.2-20.2-6.7c-0.6,0-1.3,0-1.9,0.1c-1.4,0.3-2.9,0.3-4.3,0.2c-0.6,0-1.2,0-1.8,0.2c-2.5,0.7-5.1,1-7.7,0.9
		c-1.4,0-2.9,0.3-4.4,0.3c-1.4-0.1-2.5-0.1-3.7-0.2c0,0-0.2-0.1-0.3-0.2c-0.1-0.1,0.3-0.3,0.5-0.3c2.6-0.3,5.2-0.6,7.7-1
		c2.4-0.4,4.7-1,6.9-2c0.6-0.3,1.3-0.6,2-0.8c3.5-0.9,6.9-2.6,9.7-4.8c0.7-0.5,1.4-0.9,2.1-1.4c0.7-0.5,1.6-0.6,1.7-1.6
		c-0.7-0.2-1.4-0.4-2.1-0.5c-4.8-0.6-9.7-1.1-14.6-1.7c-4.4-0.5-8.9-0.9-13.4-1.3c-0.8-0.1-1.7,0-2.5,0.1c-1.7,0.3-3.5,0.5-5.3,0.4
		c-0.5,0-1,0.1-1.5,0.3c-1,0.1-2.1,0.4-3.1,0.5c-0.2,0.1-0.4,0.1-0.6,0.1c0.1-0.1,0.3-0.2,0.4-0.3c3.4-1,6.8-2.1,10.1-3.1
		c0.5-0.1,1-0.2,1.6-0.2c10.1-0.1,20.2,0.6,30.1,2.1c0.2,0,0.4,0,0.6-0.1c0.1,0,0.2-0.1,0.2-0.2l0-0.2c-0.9-0.4-1.9-0.8-2.9-1.2
		c-1.7-0.8-3.4-1.6-5.1-2.4c-3.1-1.7-6.1-3.6-8.9-5.8c-2.2-1.7-4.6-3.2-6.9-4.8c-0.5-0.4-1.1-0.7-1.6-1c-2.6-2-5.3-3.7-8.2-5.2
		c-1.2-0.6-2.3-1.4-3.4-2.3c-2.4-1.7-5-3.1-7.7-4.1c-0.7-0.3-1.5-0.2-2.1,0.1c-1,0.5-2,1-3,1.7c-3.6,2.8-7,5.9-10.2,9.3
		c-1.9,1.9-3.6,4.1-5.1,6.3l-2.4,4l-3.3,5.7c-0.1,0.1-0.2,0.1-0.3,0c0,0-0.2-0.1-0.2-0.2c0-1.1,0.2-2.3,0.6-3.4
		c1.7-4.7,4.1-9.1,7.3-13c1.2-1.5,2.2-3,3.3-4.5c0,0,0.1-0.5-0.1-0.5c-0.2-0.1-0.4,0-0.6,0.1c-1.3,0.7-2.5,1.5-3.8,2.2
		c-1.6,0.8-3,2-4.1,3.4c-0.1,0.2-0.3,0.3-0.4,0.5C262,263.8,260.1,266.4,258.7,269.2z M284.8,348.5c-1.2,1.1-2.7,1.7-4.3,1.9
		c-1,0.2-2,0.4-3,0.7c-0.2,0.1-0.3,0.2-0.4,0.4c0,0.2,0.1,0.4,0.2,0.5c1.5,0.8,2.9,1.7,4.4,2.4c2.9,1.4,5.8,2.8,8.8,4.1
		c3.5,1.3,7.3,2,11,2c0.8,0.1,1.7,0.1,2.5,0.2c3.1,0.5,6.2,1,9.2,1.4c1.6,0.3,3.3,0.4,5,0.2c1.2-0.1,2.5-0.1,3.7-0.1
		c0.7-0.1,1.5,0,2.2,0c3.1-0.2,6.2-0.4,9.3-0.5c2.8-0.1,5.6,0.4,8.2,1.5c0,0,0.1,0.3,0.2,0.4c0.1,0.1-0.2,0-0.3,0l-4.1-0.1
		c-4,0-7.9,0.3-11.8,1c-0.6,0.1-1.2,0.2-1.8,0.4c-0.5,0.1-1,0.3-1.5,0.3c-2.7,0.2-5.4,0.3-8.1,0.5c-0.2,0-0.4,0.1-0.6,0.1
		c-3.6-0.6-7.2-1.1-10.8-1.8c-3.1-0.8-6.3-1.2-9.6-1.3c-1-0.1-2-0.3-3-0.7c-5.2-1.7-10.1-3.9-14.8-6.6c-0.3-0.2-0.6-0.3-0.9-0.3
		l-0.3,0c0,0-0.2,0.4-0.1,0.5c0.2,0.3,0.5,0.7,0.8,1c1.2,1.2,2.3,2.4,3.4,3.6c2.5,3.2,6.1,4.7,9.5,6.4c0.2,0,0.4,0.2,0.6,0.2
		c2-0.5,3.6,0.7,5.4,1.2c1.8,0.5,3.6,1.1,5.4,1.6c3,0.7,6.1,1.3,9.2,1.9c3,0.6,6,0.9,9,0.9c4.2,0.1,8.3,0,12.5-0.1
		c5.2-0.2,10.4,0.1,15.6,0.7c3.6,0.5,7.1,1.5,10.5,3c0.1,0,0.1,0.3,0.2,0.4c0.1,0.1-0.4,0.2-0.6,0.1c-2.5-0.4-4.9-0.9-7.4-1.4
		c-5.6-0.8-11.2-0.8-16.8-0.2c-1.8,0.2-3.5,0.2-5.3,0.3c-0.8,0.1-1.7,0.2-2.5,0.3c-3.9,0.5-7.9,0.5-11.8,0.1
		c-1.3-0.1-2.5-0.3-3.7-0.5c-3.5-0.7-6.9-1.4-10.4-2.1c-1.9-0.4-3.8-1.1-5.7-1.6c-0.2,0-0.4-0.1-0.6,0.1c-0.1,0.2-0.1,0.4-0.1,0.5
		c0.2,1.5,1.4,2.6,2.9,2.9c0.4,0,0.7,0.4,1,0.7c2.3,1.8,4.9,3.2,7.7,4.1c4.3,1.8,8.8,3.3,13.4,4.4c4.4,1,8.8,1.7,13.2,2.2
		c2.5,0.2,5,0.4,7.5,0.6c0.6,0,1.3,0.1,1.9,0c3.2-0.1,6.5-0.3,9.7-0.5c6.3-0.6,12.7,0.3,18.7,2.6c3.6,1.2,7.2,2.6,10.8,4
		c0.6,0.2,1.1,0.5,1.7,0.9c0.8,0.4,1.2,1,0.8,1c-0.4,0-0.8,0-1.1-0.2c-2.5-0.7-5-1.7-7.5-2.3c-1.7-0.5-3.4-0.9-5.1-1.5
		c-1.7-0.5-3.4-0.8-5.2-1c-1.9-0.3-3.7-0.5-5.6-0.8c-2.7-0.4-5.4-0.5-8.1-0.2c-2.8,0.2-5.6,0.2-8.4,0c-0.8-0.1-1.7-0.1-2.5,0
		c-3.5,0.5-7.1,0.5-10.6,0.1c-5.2-0.3-10.4-1.3-15.3-2.8c-2-0.6-3.9-1.4-5.8-2.1c-0.1,0-0.3,0.2-0.5,0.2c0,0.1,0,0.2,0,0.3
		c3.3,3.3,7.4,5.8,11.9,7.2c3.7,1,7.3,2.4,11,3.8c1.7,0.7,3.6,1.1,5.5,1.2c6.1,0.4,12.2,0.8,18.4,1.2c4.2,0.2,8.3,0.4,12.5,0.6
		c1.4,0.1,2.7,0.3,4,0.6c2.4,0.7,4.9,1.2,7.3,1.5c1.5,0.2,3,0.7,4.4,1.4c1.2,0.6,2.5,1,3.8,1.5c0.2,0.1,0.3,0.2,0.5,0.3
		c-0.3,0.1-0.6,0.1-0.9,0.1c-1.4-0.3-2.8-0.7-4.2-1.2c-1.7-0.7-3.6-1.2-5.4-1.3c-2-0.1-3.9-0.5-5.9-0.9c-1.8-0.4-3.7-0.5-5.6-0.2
		c-2.4,0.4-4.8,0.6-7.1,0.3c-0.4-0.1-0.8-0.1-1.2-0.1c-4.6,0.5-9.1,0.7-13.7,0.4c-3.3-0.1-6.7-0.4-10-0.8c-1.3-0.3-2.6-0.7-3.9-1.2
		l-3-0.9c-0.1,0-0.2,0-0.3,0c0,0.2-0.1,0.4,0.1,0.5c1.3,1.2,2.6,2.3,4,3.5c0.3,0.2,0.7,0.4,1.1,0.6c5.3,2,10.5,4.1,15.9,5.6
		c2.9,0.8,5.9,1.2,8.9,1.2c5.8,0,11.7,0.3,17.4,1.1c3,0.4,5.9,1.2,8.9,1.8c0.7,0.2,1.4,0.4,2.1,0.7c0.1,0.1,0.1,0.1,0.2,0.2
		c-0.1,0.1-0.2,0.1-0.3,0.2c-0.1,0-0.2,0-0.3,0c-3.8-0.3-7.7-0.7-11.5-1c-1.9-0.2-3.7-0.2-5.6-0.1c-1.5,0.1-2.9,0.1-4.4-0.1
		c-1.8-0.2-3.5-0.1-5.3,0.1c-3.6,0.6-7.3,0.3-10.8-0.8c-0.2-0.1-0.4-0.1-0.6-0.1c-0.2,0-0.4,0.1-0.5,0.2c0,0.1,0,0.2,0,0.3
		c0.4,1.5,1.5,2.8,2.9,3.4c3.6,1.7,7.4,2.7,11.3,3.1c4,0.4,8,1,12.1,1.4c1.6,0.2,3.3,0.5,4.9,0.8c0.3,0,0.6,0.2,0.9,0.2
		c4.2,0.5,8.4,1.4,12.5,2.8c4.3,1,8.2,3,11.6,5.8c0,0.1,0,0.4,0.2,0.5c0.1,0.2-0.4,0.2-0.6,0.1c-0.6-0.2-1.2-0.5-1.7-0.7
		c-5.4-2.8-11.1-4.8-17.1-5.9c-2.9-0.5-5.8-0.7-8.7-0.6c-4.5,0.2-9.1,0-13.6-0.7c-1.5-0.3-3-0.5-4.6-0.7c-0.9-0.1-1.7-0.9-2.6-0.3
		l1.6,1.9c2.3,2.5,5.2,4.2,8.5,5c4.3,1.3,8.8,2,13.2,2.1c4.9,0.2,9.8,0.9,14.5,2c2.2,0.6,4.3,1.6,6.1,3.1l0,0.2
		c-0.1,0.1-0.2,0.1-0.3,0.1c-0.4-0.1-0.8-0.2-1.2-0.3c-3.1-1.2-6.4-1.9-9.8-1.8c-4.1-0.1-8.1,0-12.2,0c-2.8,0-5.6-0.3-8.4-0.7
		c-0.1,0-0.3,0.2-0.5,0.3c-0.1,0.1,0,0.2,0,0.3l0.3,0.5c0.2,0.2,0.4,0.5,0.6,0.7c2,3.2,5.2,5.5,8.8,6.5c3.1,1.2,6.4,1.9,9.8,2.1
		c2.3,0,4.4,0.3,6.6,0.5c4.2,0.5,8.2,1.5,12.1,3.1c2,0.7,3.8,1.8,5.3,3.2c0,0,0.2,0.2,0,0.3c-0.1,0-0.3,0.3-0.3,0.3
		c-0.9-0.2-1.8-0.5-2.7-0.9c-3.1-1.2-6.4-1.9-9.7-2.1c-1.8-0.1-3.5-0.2-5.3-0.1c-2.3,0-4.4-0.1-6.6-0.1c-3-0.2-6-0.7-8.9-1.6l-0.3,0
		c0,0-0.2,0.4-0.1,0.5c1,1.8,2.1,3.6,3.4,5.2c0.4,0.5,0.9,0.9,1.5,1c3.6,0.8,7.1,1.8,10.7,2.3c4.1,0.6,8.2,1.5,12.2,2.6
		c1.5,0.4,3,0.9,4.4,1.6c2.4,1.1,2.4,1.1,2.8-1.3c0.2-1.4,0.4-2.9,0.7-4.3c0.3-2.2,0.5-4.3,0.5-6.5c0.1-1.1-0.4-2.1-1.4-2.6
		c-1.1-0.8-2.2-1.6-3.2-2.5l-0.1-0.5c0.2-0.1,0.4-0.1,0.6-0.1c0.8,0.2,1.6,0.5,2.3,0.8c1.2,0.4,1.6,0.2,1.7-0.9l0.2-3.4
		c0-0.7-0.1-1.5,0-2.3c0.5-3.7-0.2-3.4-2.1-5.4c-1.6-1.6-3.4-3.1-5.1-4.7c-0.9-0.8-2-1.6-3.1-2.2c-1.2-0.7-2.3-1.5-3.3-2.3
		c-0.1-0.1,0-0.4-0.2-0.5c-0.2-0.2,0.4-0.2,0.6-0.1c0.2,0.1,0.9,0.5,1.4,0.7c1.6,0.6,3.2,1,4.8,1.4c1.8,0.3,3.7,0.3,5.6,0.5
		c0.4,0,0.8-0.4,0.8-0.8l0,0c0-0.6-0.1-1.3-0.5-1.8c-1.6-2.3-3.7-4.2-6.2-5.6c-2-1-3.7-2.5-5-4.2c-0.9-1-1.4-2.3-1.5-3.7
		c-0.3-2,0.9-4,2.9-4.6c0.4,0,0.8-0.3,1.2-0.4c0.4-0.1,0.4-0.5,0.2-0.8c-2.1-2.3-4.1-4.7-6.2-7c-0.7-0.8-1.6-1.6-2.5-2.2
		c-2-1.2-4.1-2.1-6.3-2.7c-4.7-1.4-8.5-4.8-10.5-9.2c-0.9-1.8-0.3-4,1.5-4.9c0.4-0.2,0.9-0.4,1.4-0.4c1.1-0.1,2.3,0,3.4,0
		c0.2,0.1,0.5,0,0.5-0.3c0.1-0.2,0-0.5-0.3-0.5c-1.9-1.8-3.9-3.4-6.1-4.9c-0.8-0.5-1.5-1.1-2.2-1.7c-2.4-2.1-5-3.8-7.8-5.2
		c-3.1-1.4-6.1-3.1-9.2-4.6c-0.5-0.3-1.1-0.5-1.8-0.5c-1.6-0.1-3.1-0.6-4.3-1.6c-0.5-0.4-1-0.8-1.4-1.4c-0.7-1-0.6-2.3,0.1-3.2
		c0.7-1.2,1.8-2.1,3.1-2.6c0.7-0.3,1.3-0.6,2-0.9c0.3,0,0.2-0.4-0.1-0.5c-1.3-0.7-2.6-1.4-3.9-2c-1.3-0.6-2.5-0.9-3.8-1.5
		c-2.4-0.9-5-1.5-7.6-1.6c-0.3,0-0.6,0-0.9,0.1c-2,0.9-4.2,1.2-6.4,0.9c-3.4-0.1-6.9,0.5-10.1,1.8c-0.9,0.3-1.7,0.7-2.6,1
		c-0.3,0-0.6-0.1-0.8-0.3c-0.2-0.3-0.2-0.6-0.1-0.9c0.7-1.3,1.7-2.4,3.1-3c0.7-0.4,1.5-0.7,2.2-1.1c0.1,0,0.1-0.3,0.2-0.4
		c-0.1,0-0.2-0.1-0.3-0.1c-1.8-0.1-3.5-0.3-5.3-0.5c-0.5-0.1-1-0.1-1.6,0c-2.9,0.3-5.8,0.3-8.7-0.1c-0.7-0.1-1.5,0-2.2,0.3
		c-2.6,0.7-5.2,1.4-7.8,2.2c-2.2,0.7-4.2,1.9-5.9,3.5C287.5,346.5,286.1,347.4,284.8,348.5z M392.6,478.8c-0.2,0-0.4,0.1-0.5,0.2
		c-0.1,0.2-0.1,0.4-0.1,0.5c0.4,0.8,0.8,1.7,1.2,2.5c0.7,2.4,2.6,3,4.7,3.6c0.1,0,0.2,0,0.3,0c0.1,0,0.2,0,0.3,0
		c0.1-0.1,0.2-0.1,0.2-0.2l1.3-3.5c-0.7-1.1-1.9-1.3-2.9-1.7C395.6,479.7,394.1,479.2,392.6,478.8L392.6,478.8z M394,470.1
		c-0.5-0.1-1-0.3-1.5-0.4c-2-0.3-3.9-0.7-5.8-1.4c-0.1,0-0.2,0-0.3,0c0,0.2-0.2,0.4-0.1,0.5l2.7,4.9c0.3,0.6,0.9,1.1,1.6,1.4
		c1.2,0.4,2.4,0.9,3.5,1.3c2.2,0.7,4.3,1.6,6.3,2.7c0.2,0,0.4,0,0.6-0.1c0.2-0.1,0.3-0.3,0.4-0.4c0.9-1.7,1.5-3.4,1.9-5.2
		c0.1-0.6-0.1-0.9-0.8-1.1C399.8,471.7,396.9,470.9,394,470.1L394,470.1z M389.9,465.8c4.3,0.8,8.5,2.1,12.4,4
		c0.4,0.2,0.8,0.3,1.2,0.4c0.3,0.1,0.7,0,0.9-0.4c0-0.1,0-0.1,0-0.2l0.8-4.9c0.1-0.4,0.1-0.8,0.1-1.2c0.2-0.5-0.1-1.1-0.7-1.3
		c0,0,0,0,0,0c-2.6-1.1-5.3-1.8-8.1-2.1c-5.6-0.7-11.2-1.3-16.7-2.3c-0.2-0.1-0.4,0-0.5,0.1c-0.1,0.2-0.2,0.4-0.1,0.6
		c1.2,2.4,2.9,4.5,5,6.3c0.7,0.7,1.7,0.9,2.6,0.7C387.9,465.4,388.9,465.5,389.9,465.8z M263,362.3c-0.6,0.4-1.1,0.9-1.6,1.5
		c-0.9,1.4-1.7,2.9-2.4,4.4c-1,2.3-2.1,4.5-3.3,6.7c-0.9,1.3-1.4,2.8-1.7,4.4c-0.5,3-0.9,6-1.5,8.9c-0.7,3.8-0.9,7.6-0.4,11.4
		c0.2,3,0.8,6,1.7,8.9c-0.2,2.3,1.3,3,3.1,3.5c0.7,0.2,0.9,0.1,1.3-0.8c0.2-0.5,0.5-0.5,0.9-0.4c1.7,0.6,3.1,1.7,4.1,3.2
		c2.4,3.5,4.2,7.5,5.3,11.6c0.7,2.9,1.5,5.8,2.3,8.7c0.1,0.4,0.2,0.8,0.4,1.2c0.4,0.7,0.2,1.9,1.2,2s1.3-0.4,2-0.8
		c1.6-1,3.6-0.7,4.9,0.7c0.4,0.4,0.9,0.8,1.5,1.2c1.7,1.2,2.9,3.1,3.2,5.2c0.5,2.3,1,4.7,1.3,7.1c0.4,2.7,1.3,5.3,2.6,7.6l2.4,4
		c0.1,0.3,0.5,0.4,0.8,0.3c0.1,0,0.2-0.1,0.2-0.2c1-1.4,2.7-2,4.3-1.6c2.7,0.1,5.1,1.6,6.4,3.8l5.3,7.8c1.4,2.1,3.1,4,4.9,5.7
		c0.3,0.3,0.6,0.6,0.9,0.9c1,0.9,1.4,2.2,2.8,2.6c-0.2-1.2-0.5-2.4-1-3.5c-0.3-1.1-0.6-2.2-0.8-3.3l-1.1-5.5c-0.3-1.4-0.3-2.9,0-4.3
		c0-0.1,0.1-0.2,0.1-0.3c0,0.1,0.3,0.2,0.3,0.3c0.9,3.3,2.7,6.4,5,8.8c1.3,1.6,2.6,3.2,3.9,4.9c1.9,2.5,4,4.9,6.3,7
		c2.3,2.1,4.5,4.3,6.8,6.5c0.3,0.3,0.6,0.5,1,0.7c0.2,0.1,0.4,0,0.5-0.1c0.2-0.7,0.4-1.4,0.6-2.1c0.2-1.5,1.6-2.5,3-2.3
		c0.2,0,0.3,0.1,0.5,0.1c3.9,0.7,7.5,2.7,10.2,5.7c1.8,2,3.3,4.3,4.4,6.8c1.1,2.5,2.5,4.8,4.2,7c0.3,0.4,0.6,0.9,0.9,1.3
		c0.3,0.2,0.6,0.4,1,0.6c0.1-0.4,0.2-0.8,0.2-1.2l-0.3-2.5l-0.3-2.8c-0.1-0.8,0.3-1.7,1-2.2c0.3-0.3,0.8-0.5,1.1-0.1
		c1.4,1.5,2.9,3,4.2,4.6c1.2,1.6,2.6,3,4.1,4.2c2.5,2,4.8,3.9,7.2,5.9c1.1,0.9,1.4,0.9,2.2-0.3c2.2-2.5,4.3-5,6.3-7.7
		c0.6-0.7,0.9-1.6,1.1-2.6c0.6-3.3,1.5-6.5,2-9.8c0.3-1.8,0.2-3.7,0.4-5.6c0.4-2.6-0.2-5.2-1.6-7.4c-0.7-1-1.1-2.2-1.7-3.3
		c-0.1-0.1-0.1-0.2-0.2-0.2c-0.2,0-0.4,0.2-0.4,0.3c-0.6,2.9-0.9,5.8-0.9,8.7c0,0.9-0.1,1.9-0.5,2.7c-0.8,2.1-1.3,4.2-1.7,6.3
		c-0.1,0.7-0.3,1.4-0.6,2.1c-1,2.1-1.9,4.3-2.6,6.5c-0.1,0.4-0.7,0.8-1,1.1c-0.1,0-0.2,0.1-0.3,0c0,0-0.2-0.2-0.2-0.2
		c0.3-2.3,0.8-4.5,1.6-6.7c0.6-1.3,0.9-2.8,1.1-4.2c0.2-1.3,0.5-2.7,1-3.9c0.4-1.3,0.6-2.6,0.6-4c0-2,0.2-3.9,0.2-5.9c0-2,0-3.3,0-5
		c-0.1-0.9,0-1.9,0.1-2.8c0.4-1.4-0.1-3-1.1-4c-0.1-0.2-0.3-0.3-0.5-0.3c-0.4-0.1-0.5,0.3-0.5,0.6c-0.5,2.1-0.9,4.3-1.1,6.4
		c-0.1,1-0.4,2.1-0.8,3c-0.7,1.5-1.2,3.1-1.5,4.7c-0.3,1.5-0.8,3-1.5,4.4c-0.9,1.8-1.7,3.6-2.4,5.4c-0.5,1.3-1.3,2.4-2.4,3.2
		c0,0-0.2,0.1-0.3,0c-0.1-0.1-0.4-0.2-0.2-0.5c1.1-1.5,1.9-3.2,2.2-5.1c0.3-1.1,0.6-2.2,1.1-3.2c0.8-1.6,1.2-3.4,1.3-5.1
		c0-0.8,0.1-1.7,0.4-2.5c0.8-2.4,1.3-4.8,1.4-7.3c0.1-2.3,0.6-4.8,0.9-7.1c0.2-1.5-0.1-2.9-1-4.1c-0.9-1.2-1.6-2.5-2.4-3.7
		c-0.3-0.4-0.5-1.4-1.3-1c-0.8,0.3-0.1,0.9-0.1,1.4c0,0.4,0,0.8,0,1.2c-0.3,5.2-1.3,10.3-3,15.3c-0.1,0.3-0.2,0.6-0.3,0.9
		c-0.8,3.9-1.9,7.7-3.3,11.4c-0.6,1.8-1.1,3.6-1.6,5.4c-0.2,1-0.7,2-1.4,2.8c-0.2,0.1-0.3,0.2-0.5,0.3c0-0.2-0.2-0.4-0.2-0.5
		c0.8-2.9,1.4-5.9,1.9-8.8l0.8-3.3c0.5-1.7,0.8-3.4,1.1-5.2c0.2-2.1,0.6-4.1,1.2-6.1c0.9-3.7,1.4-7.4,1.5-11.1
		c0.2-2.6-0.2-5.2-0.3-7.8c-0.1-2.2-1.1-4.3-2.7-5.8c-0.1-0.1-0.2-0.1-0.3-0.1c0,0-0.1,0.1-0.2,0.2c-0.1,0.3-0.1,0.6-0.1,0.9
		c0.3,3.7-0.2,7.5-1.3,11.1c-0.2,0.4-0.3,0.8-0.3,1.2c-0.8,4.5-2.1,8.9-4,13.1c-0.9,2.1-1.6,4.3-2.1,6.6c-0.5,1.9-1.3,3.8-2.5,5.4
		c-0.3,0.5-0.2,1.3-1.1,1.3l0.3-1.8c0.1-0.2,0.1-0.4,0.3-0.6c1.2-2.1,1.7-4.5,1.7-7c0-0.7,0.2-1.5,0.3-2.2c0.7-2.8,1.6-5.6,2.2-8.4
		l0.2-0.6c0.7-3.8,1.6-7.5,2.1-11.3c0.2-2.2,0.3-4.4,0.3-6.5c-0.1-1.4-0.2-2.9-0.1-4.4c0.3-1.9-0.4-3.8-1.8-5.1
		c-1-1.1-1.8-2.3-2.7-3.4c0,0-0.2-0.2-0.3-0.1c0,0-0.3,0.3-0.3,0.4c0,1.6,0,3.3,0,5c-0.2,5.2-1.1,10.4-2.6,15.3
		c-1.6,5.8-4,11.4-5.9,17.1c-0.4,1.1-0.9,2.1-1.5,3.1c-0.5,0.9-1.2,1.4-1.2,1c0-0.5,0.1-1,0.3-1.4c0.8-1.7,1.4-3.5,1.6-5.3
		c0.4-2.7,1-5.3,1.8-7.9c0.4-1.2,0.7-2.4,0.9-3.6c0.5-2.1,1-4.3,1.3-6.4c0.9-4.7,1.5-9.5,1.5-14.3c-0.1-1.6-0.3-3.1-0.6-4.6
		c-0.2-0.7-0.3-1.5-0.3-2.2c0.3-1.2-0.3-2.4-1.5-2.8c-2.2-0.8-3.9-2.6-4.7-4.8c0,0-0.3-0.1-0.5-0.1c-0.2,0-0.1,0.2-0.1,0.3
		c0,0.3,0.1,0.6,0.1,0.9l0.4,3.1c0.4,3.4,0.5,6.9,0.3,10.3c-0.1,5.7-1,11.4-2.6,16.9c-0.3,0.9-0.4,1.8-0.6,2.8
		c-0.6,2.9-1.5,5.6-2.8,8.3c-0.8,1.7-1.5,3.4-2.3,5.1c-0.5,1.1-1.1,2.2-1.7,3.3l-0.2,0c-0.1,0-0.2-0.1-0.2-0.2
		c0-0.3,0.1-0.6,0.2-0.9c0.8-2.6,1.6-5.1,2.6-7.7c1.1-3,1.8-6.2,2-9.4c0.1-2,0.6-3.9,0.9-5.8c0.8-5.4,1-10.8,0.9-16.2
		c0.1-2,0-4-0.3-5.9c-0.7-3.3-1.5-6.6-2.3-9.7c-0.2-0.5-0.4-1-0.7-1.4c-0.5-0.7-1.1-1.5-1.8-2.2c-0.6-0.7-1.5-1.3-1.7-1
		c-0.2,0.4,0.1,1.2,0.4,1.7c0.5,1.5,1.1,2.9,1.6,4.3c0.4,1.3,0.6,2.6,0.5,4c-0.1,0.8-0.1,1.7,0,2.5c0.6,5.5,0.5,11-0.3,16.5
		c-0.1,1-0.3,2-0.6,3c-0.9,3.1-1.6,6.3-2.8,9.3c-1.1,2.7-2.4,5.3-3.8,7.9c-0.6,1.2-1.3,2.4-2.1,3.5c-0.9,1.3-2,2.5-2.9,3.7
		c-0.1,0.2-0.5,0.1-0.8,0.1c0-0.2,0.1-0.4,0.2-0.6c1.2-1.7,2.1-3.6,2.8-5.6c1.1-2.7,2.3-5.4,3.4-8.1c0.3-0.7,0.5-1.4,0.7-2.1
		c0.7-3.1,1.5-6.3,2-9.5c0.3-2.2,0.5-4.3,0.6-6.5c0.2-2.8,0.2-5.6,0-8.4c-0.3-2.7-0.3-5.4-0.7-8.1c-0.2-0.9-0.4-1.8-0.8-2.7
		c-0.5-1.4-1.1-2.7-1.7-4c-0.8-1.6-1.3-3.3-1.5-5.1c0-1.2-0.6-2.2-1.6-2.9c-1.7-1.2-3.3-2.5-5-3.7c-0.1,0-0.2,0-0.2,0
		c0,0-0.2,0.2-0.1,0.3c0.4,1.2,0.8,2.4,1.2,3.5l1.7,5c0.9,3,1.3,6.1,1.1,9.3c0,0.3,0.1,0.6,0.1,0.9c0.2,4.3,0,8.5-0.6,12.8
		c-0.3,4.7-1.4,9.3-3.3,13.6c-0.9,3.1-2.4,6-4.3,8.6c0,0-0.2,0.2-0.3,0.1c0,0-0.3-0.3-0.3-0.3c0.5-1.3,0.9-2.6,1.4-3.8
		c2.2-5.3,3.3-11,3.4-16.7c0-3.2,0.1-6.4,0.2-9.7c0-3.9-0.3-7.7-0.9-11.5c-0.3-1.5-0.7-3-1.3-4.5c-0.9-2.7-1.8-5.3-2.8-8
		c-0.4-1-0.8-1.9-1.3-2.8c-0.4-0.6-0.7-1.2-1-1.9c-0.3-1.5-1.1-2.7-2.4-3.5c-1.3-1-2.6-1.9-4-3l-0.3,0c0,0-0.2,0.3-0.2,0.4
		c1,2.3,1.9,4.6,3.1,6.9c0.6,1.8,1.2,3.5,1.6,5.4c0.5,1.3,0.8,2.6,1.1,3.9c0.3,1.5,0.5,3.1,0.6,4.6c0.2,1.6,0,3.1,0.1,4.7
		c0.6,6.1-0.2,12.3-2.3,18.1c-1.3,3.2-2.4,6.5-3.3,9.8c-0.5,1.7-1.2,3.3-2.1,4.8c-0.8,1.3-1.4,2.8-2.1,4.2l-0.4,0.1
		c-0.2,0-0.1-0.2,0-0.3c0.3-1.2,0.6-2.4,1.1-3.5c1.2-2.7,2-5.5,2.4-8.4c0.3-2.3,0.8-4.5,1.5-6.7c0.6-2.2,1.1-4.4,1.6-6.7
		c0.3-1.9,0.4-3.9,0.3-5.9c0-3.1-0.4-6.2-0.5-9.3c-0.2-2.5-0.6-5-1.3-7.4c-0.7-3-1.8-6-3.1-8.8c-1.6-3.4-2.9-6.9-4.3-10.4
		c-0.3-0.7-0.7-1.3-1.3-1.7c-0.7-0.6-1.5-1.2-2.2-1.8c-2.5-2-2.9-2.2-3-1.7c-0.1,1.3,0.9,2.1,1.3,3.1c1.6,3,3,6.2,4,9.4
		c0.1,1,0.5,2,0.7,3.1l0.5,4.3c0.4,2.5,0.4,5-0.1,7.5c-0.9,6.4-2.4,12.7-4.3,18.8c-1,3.1-1.8,6.2-3.1,9.2l-0.3,0.6l-0.2,0
		c0-0.1-0.1-0.2,0-0.3c0.9-3.5,1.1-7.2,1.8-10.8c0.5-2.7,1.1-5.3,1.5-8c0.3-2,0.5-3.9,0.7-5.9c0.2-2,0.5-4.3,0.6-6.5
		c0.1-0.8,0-1.7-0.2-2.5c-0.5-1.8-0.8-3.7-1-5.5c-0.3-2.4-1-4.7-2.1-6.8c-2.2-4.4-4.4-8.8-6.4-13.2c-0.7-1.5-1.9-2.7-3.3-3.6l-0.3,0
		c0,0-0.3,0.4-0.3,0.5c0.4,1.7,1,3.4,1.7,5c1.7,3.6,2.5,7.5,2.5,11.5c0,0.9,0,1.9,0.1,2.8c0.5,3.8,0.4,7.7-0.2,11.5
		c-0.6,5.5-1.8,10.9-3.7,16.1c-0.4,1.2-0.8,2.3-1.2,3.6c-0.1,0.4-0.1,1.2-0.8,1c-0.7-0.2-0.4-0.9-0.3-1.4c0.2-1.2,0.4-2.5,0.7-3.7
		c1.2-4.7,1.9-9.6,2-14.5c0.1-1.9,0.2-3.7,0.3-5.6c0-0.7,0-1.5-0.1-2.2l-1.4-12.1c-0.1-1.4-0.5-2.7-1.1-3.9
		c-1.4-2.8-2.2-5.8-3.7-8.6c-1.1-2.1-1.9-4.3-2.7-6.3c-0.6-1.6-1.6-3.2-2.8-4.4l-3-3.2c-0.1,0-0.2,0-0.3,0c-0.1,0-0.1,0.1-0.2,0.2
		l0.6,5.3c0.2,1.8,0.6,2.9,0.8,4.3c0.2,1.4,0.4,3.1,0.8,4.6c0.1,0.8,0.3,1.5,0.7,2.2c0.7,1.3,1.2,2.7,1.4,4.1
		c0.4,2.2,0.8,4.3,1.2,6.4c0.1,0.3,0.1,0.6,0.1,0.9c0.5,6.9-0.3,13.8-2.4,20.3c-0.2,0.4-0.3,0.8-0.5,1.1c-0.1,0-0.2,0.1-0.3,0
		c-0.1,0-0.2-0.1-0.2-0.2c-0.1-0.3-0.1-0.6-0.1-0.9l0.5-4c0.5-3.8,0.5-7.7,0.1-11.5c-0.5-4.1-1.5-8-2-12c-0.4-2.6-1-5.1-1.9-7.5
		c-0.3-0.9-0.5-1.8-0.6-2.7c-0.4-2.4-0.9-4.7-1.5-7c-0.1-0.2-0.2-0.4-0.3-0.5c-0.1,0.2-0.2,0.3-0.3,0.5c-0.9,3.7-1.3,7.6-1.3,11.4
		c0,0.5-0.1,1-0.2,1.5c-0.1,2.3-0.3,4.5-0.2,6.8c0,4.5-0.6,8.9-1.8,13.3c-0.5,1.9-1.4,3.7-2.6,5.3c-0.1,0.1-0.2,0.1-0.2,0.2
		c0-0.2-0.2-0.4-0.2-0.5c0.1-0.6,0.2-1.2,0.4-1.8c1.1-3.7,1.7-7.6,1.6-11.5c0.1-2,0-4-0.2-5.9c-0.2-1.7-0.2-3.3-0.1-5
		c0-2.3,0.1-4.4,0-6.6c-0.1-2.1,0.5-4.2,1.7-5.9c0.4-0.6,0.8-1.2,1.1-1.9c0.5-1.2,0.1-2.6-1.1-3.3
		C264.9,361.4,263.8,361.5,263,362.3z"/>
</g>
</svg>
