<?xml version="1.0" encoding="utf-8"?>
<!-- Generator: Adobe Illustrator 23.0.1, SVG Export Plug-In . SVG Version: 6.00 Build 0)  -->
<svg version="1.1" id="Layer_1" xmlns="http://www.w3.org/2000/svg" xmlns:xlink="http://www.w3.org/1999/xlink" x="0px" y="0px"
	 viewBox="0 0 727.4 605.4" style="enable-background:new 0 0 727.4 605.4;" xml:space="preserve">
<style type="text/css">
	.st0{opacity:0.2;fill-rule:evenodd;clip-rule:evenodd;fill:#534741;enable-background:new    ;}
</style>
<title>doormat-decal</title>
<g>
	<g id="doorMat">
		<g>
			<path id="Fill-1" class="st0" d="M576.3,605.4c0.2-0.3,0.4-0.6,0.6-1c0.7-1.7,1.2-3.6,1.9-5.2c0.4-1.3,0.9-2.5,1.5-3.7
				c1.8-3.3,3-6.8,3.7-10.4c1.6-6.4,1.9-13.1,0.9-19.7c-0.2-1.3-0.2-2.6-0.4-3.9c0-1.3-0.4-2.6-1.2-3.7c-0.7-1-1.1-2.1-1.1-3.3
				c0-1.1-0.1-2.1-0.3-3.2c-0.2-2.5-1.1-4.9-2.4-7c-1.3-1.8-1.9-4-3.5-5.7c-1.1-1.5-1.3-3.5-0.5-5.3c0.2-0.6,0.6-1.2,0.9-1.8
				c0.4-0.9,1.3-1.4,2.3-1.4c1.5,0,2.9,0.3,4.1,1.1l3.4,2c0.1,0,0.2,0,0.3-0.1c0.2-0.1,0.4-0.4,0.4-0.5c-0.8-4.1-2.5-8.1-4.9-11.5
				l-3-4.6c-1.5-2.6-1.7-5.6-0.7-8.4c0.6-1.4,2-2.2,3.5-2.1c1,0,2.1,0.4,3.1,0.5c0.3,0,0.5-0.1,0.7-0.3c0.1-0.2,0.1-0.5,0-0.7
				c-1.2-2.2-2.3-4.4-3.7-6.5c-2.6-3.8-4.8-7.9-6.5-12.2c-0.7-1.8-1.8-3.4-3.1-4.8c-1-1.1-2-2.1-3.1-3.1c-0.2,0-0.4,0.1-0.6,0.3
				c-0.2,0.2-0.3,0.5-0.3,0.7c-0.1,1.2-0.3,2.4-0.3,3.5c0.1,3.9-0.3,7.9-1.2,11.7c-0.3,1.3-0.1,1.7,1.1,2.2c1.8,0.6,3.4,1.4,4.9,2.5
				c0.1,0.2,0.2,0.5,0.2,0.7h-0.4l-0.8-0.3c-0.5-0.2-1-0.4-1.5-0.6c-4.1-1.4-4.1-1.4-4.9,2.9c-0.3,1.6-0.8,3.4-1.3,5
				c-0.2,0.5,0.1,1.1,0.6,1.4l6.8,4.1c0.1,0.2,0.2,0.5,0.2,0.7c-0.1,0.1-0.2,0.1-0.3,0.1c-0.4-0.1-0.7-0.2-1.1-0.4l-2.6-1.1
				c-1-0.4-2-0.8-3-1.1s-1.3-0.1-1.6,0.7l-0.5,1.1c-1.2,2.8-1.3,3,1.4,4.2c0.5,0.2,1,0.5,1.4,0.8c1.8,1.4,3.7,2.6,5.7,3.6
				c1.1,0.5,2,1.3,2.5,2.4c0.1,0.1,0.1,0.2,0,0.3l-0.3,0.1c-0.4-0.1-0.8-0.2-1.1-0.3c-3.1-1.1-6.2-2.3-9.1-3.8
				c-0.5-0.2-1-0.4-1.5-0.5c-0.5-0.2-1.1,0.1-1.4,0.6c-0.6,1.2-1.1,2.3-1.6,3.6c-0.2,0.5,0,1,0.5,1.3h0.1c0.7,0.3,1.5,0.6,2.2,0.9
				c2,1,4,1.9,6,3c0.5,0.4,1,0.8,1.3,1.4c0.1,0.3-1,0.4-2.1,0.1s-1.8-0.6-2.6-0.9c-0.4-0.1-0.8-0.2-1.2-0.2
				c-0.2,0.1-0.4,0.3-0.5,0.5c0,0.3,0.1,0.5,0.3,0.7l7.6,12c0.6,1,1.2,2.1,1.7,3.1c1.2,2.8,2.6,5.5,4.2,8.1c0.7,1.2,1.3,2.6,1.8,3.9
				c0.8,1.7,1.2,3.5,1,5.4c-0.3,2.1-0.1,4.2,0.6,6.2c0.4,1.3,0.5,2.6,0.3,3.9c-0.2,2.9,0,5.8,0.1,8.7c0,0.5-0.1,1-0.2,1.6l-0.3,0.1
				c-0.1,0-0.3,0-0.3-0.1c-0.7-1.7-1-3.5-1.1-5.3c0.1-4.4-0.5-8.7-1.7-12.9c-0.2-0.6-0.3-1.3-0.3-1.9c-0.5-3.4-1.6-6.7-3.2-9.7
				c-0.1-0.2-0.3-0.3-0.5-0.5c-0.1,0.2-0.1,0.5-0.2,0.7c-0.2,1.6-0.2,3.2-0.6,4.7c-0.7,3.5-1.2,4.5-1.6,4c-0.9-1.3-0.2-2.8-0.1-4.2
				c0.2-1.7,0-3.4-0.4-5.1c-0.5-1.9-0.8-3.9-1.2-5.6c-0.2-1.2-0.5-2.3-0.9-3.4c-1.3-2.6-3-5-5-7.1c-0.1-0.1-0.2-0.1-0.4-0.1
				c-0.1,0-0.2,0-0.3,0.1c-0.1,0.2-0.2,0.5-0.2,0.8c0,0.9,0,1.8,0,2.8c0.3,4.4-0.3,8.7-1.7,12.8c0,0-0.4,0.3-0.5,0.2
				c-0.2-0.1-0.4-0.4-0.5-0.6c-0.1-0.8-0.2-1.6-0.2-2.3c-0.1-2.6,0-5.3-0.3-7.9c-0.3-3.8-0.7-7.6-1.1-11.4c-0.1-0.2-0.3-0.3-0.5-0.5
				c-0.1,0.1-0.2,0.2-0.2,0.3c-0.1,0.5-0.3,1-0.4,1.5c-1.5,7.4-4,14.5-7.3,21.3c-0.8,1.7-1.7,3.2-2.6,4.9c-0.4,0.7-0.3,1.6,0.3,2.2
				c0.6,0.7,1.2,1.4,1.7,2.2c1.1,1.7,1.4,1.3,2.7,0.1c2.2-2.7,6-3.3,9-1.5c1.7,0.8,3.2,1.8,4.6,3c3.6,3.3,6.2,7.3,7.8,11.9
				c0.9,2.8,1.6,5.8,2,8.7c1,4.4,1.7,8.8,1.8,13.3c0.1,2.1-0.1,4.2-0.1,6.2l0.1,0.3c0.1,0.1,0.2,0.2,0.3,0.1l0,0L576.3,605.4z
				 M560.3,464.6c-0.2-1.7-0.6-3.4-1-5l-4.1-18.5c-0.1-0.5-0.2-1-0.2-1.6c-0.2-2.2-0.6-4.4-1.2-6.6c-1.6-7.2-4-14.2-7.2-20.9
				c-1.4-3.4-3-6.7-4.7-10.1c-0.8-1.5-1.6-3-2.6-4.5l-5.8-9.8c-0.9-1.5-1.1-1.5-2.6-0.3c-1.4,1.1-2.3,2.6-2.6,4.3
				c-0.3,1-0.3,2.1,0,3.1c0.6,1.3,0.8,2.8,1.3,4.2c0.2,0.7,0.6,1.4,1.1,2c1.5,1.7,2.7,3.6,3.6,5.6c1.1,2.6,2.6,5,4,7.7
				c3.2,5.8,5.8,11.9,7.6,18.3c0.2,0.9,0.5,1.8,0.9,2.7c2.1,5,3.6,10.2,4.5,15.5c0.7,3.4,1.5,6.7,2.5,9.9c1.3,4,2.1,8.2,2.4,12.4
				c0.2,2.4,0.7,4.7,1.5,6.9c1.3,3.8,2,7.7,2.2,11.6c0.1,1,0,2.1,0.1,3c0.1,0.2,0.3,0.4,0.5,0.5c0.2,0.2,0.2-0.2,0.2-0.4
				c0.2-2.2,0.5-4.4,0.5-6.7c0.2-7.9-0.1-15.9-0.8-23.8L560.3,464.6z M557.6,434.2c0.4-1.1,0.5-2.3,0.2-3.5c-1.2-4.4-2.1-9-2.7-13.5
				c-0.4-2.1-0.9-4.1-1.6-6.1l-3.2-11.8c-0.2-0.8-0.3-1.5-0.4-2.3c-0.2-3.7-1.1-7.2-2.7-10.5c-1-2.4-1.7-4.8-2.3-7.3
				c-0.7-2.5-1.6-5-2.8-7.4c-1.1-2.6-2.4-5.1-3.6-7.9c-0.8-1.8-1.3-3.7-1.6-5.7c-0.4-2.5-0.7-4.9-0.9-7.4c0-0.6-0.6-0.8-1.2-0.5
				c-1.8,1-2.9,2.9-3.1,4.9c-0.1,0.9-0.2,1.9-0.3,2.8c-0.1,1.2-0.5,2.3-1.2,3.3c-1,1.3-1.3,3-0.9,4.5c0.7,4.7,2.1,9.3,4.1,13.6
				c1.5,3.2,3.2,6.3,5.1,9.3c0.3,0.5,0.5,1,0.6,1.5c1.5,3.5,3,7,4.7,10.3c0.9,2.2,2.4,4.1,3.1,6.4s1.4,4.3,2.2,6.3l2.5,5.9
				c1.1,3.5,2,7.1,3.1,10.6c0.5,1.5,1,3,1.5,4.5c0.1,0.2,0.3,0.4,0.6,0.5c0,0,0.5-0.2,0.5-0.4L557.6,434.2z M584,379.8
				c2.3,0.4,4.7,0.9,7,1.4c8.6,1.9,17,5.1,24.8,9.2c2.7,1.5,5,3.3,7.6,5s4.3,3,6.5,4.4c4.3,2.8,8.7,5.5,13,8.3
				c1.2,0.8,2.4,1.7,3.4,2.7c3.9,3.5,7.7,7.2,11.7,10.7c3.6,3.3,7,6.8,10.2,10.5c3.3,3.4,6.4,7,9.3,10.8l1.6,2.4
				c1.1,1.6,2.2,3.2,3.5,4.7c3.3,3.8,6.2,7.8,8.8,12.1c1.6,2.7,3.2,5.4,5,8c1,1.4,2,2.8,3.1,4.1c2,2.3,3.8,4.7,5.4,7.3
				c1.1,2,2.5,3.7,4.2,5.2c2.1,2,3.9,4.4,5.2,7c0.9,1.6,1.9,3.1,3.1,4.6c1.9,2.3,3.5,4.9,4.7,7.7c1.2,2.6,2.7,5.1,4.4,7.4
				c0.2,0.2,0.4,0.2,0.7,0.2c0.2-0.1,0.4-0.4,0.4-0.5c-0.7-3.5-1.8-6.9-3.3-10.2l-1.5-3.6c-0.3-0.8-0.8-0.8-1.5-0.5
				c-0.2,0.1-0.8-0.2-1-0.5c-0.5-0.9-1-1.9-1.4-2.9c-2.7-6.4-5.6-12.8-8.3-19.3c-1.6-3.8-3.5-7.4-5.4-11s-3.9-7.6-5.8-11.3
				c-0.7-1.3-1.5-2.5-2.4-3.6c-1.8-2.6-3.5-5.3-4.9-8.1c-0.7-1.3-1.5-2.5-2.3-3.7l-8.1-13.1c-0.6-1-1.3-2-2-2.9
				c-2.9-3.6-5.7-7.3-8.8-10.7c-3.2-3.8-6.8-7.4-10.6-10.6c-3.4-2.7-6.7-5.5-10-8.4c-1.5-1.3-2.7-2.9-4.2-4.4
				c-3.7-3.8-7.7-7.2-12-10.3c-6.7-4.5-13.3-9.1-19.9-13.7c-1.4-1-3-1.8-4.4-2.7l-8.8-5.3c-2.6-1.6-5.3-2.9-8.2-3.8
				c-1.8-0.5-3.5-1.3-5.2-1.9c-1.6-0.7-3.2-1.3-4.8-1.8c-10-3-20.4-4.8-30.8-5.4c-0.8,0-1.6,0-2.4,0c-2.5,0.2-3.2,0.8-3.5,3.3
				c-0.2,1.2-0.1,2.4,0.3,3.5c0.3,0.5,0.8,0.7,1.3,0.6c0.4-0.2,0.9-0.6,1.3-0.8c0.8-0.5,1.7-0.9,2.6-1.1c5.6-1.2,11.4-0.6,16.6,1.8
				c0.2,0.1,0.3,0.3,0.5,0.5l-0.7,0.3c-2.4-0.2-4.7-0.4-7.1-0.6c-2,0-4,0.1-6,0.4c-2.2,0.4-4.2,1.4-6,2.7c-0.7,0.4-1,1.3-0.8,2.1
				c0.4,1,0.8,2,1.2,2.9c0.7,1.6,1.5,2,3.1,1.3c3-1.2,6.1-1.7,9.3-1.5c4.1,0.1,8.2,0.2,12.3,0.5c4.6,0.5,9.1,1.7,13.4,3.4
				c4.4,1.6,8.8,3.6,13.1,5.5c2.3,1,4.4,2.3,6.7,3.5c1.6,0.9,3.2,1.7,4.9,2.6c2.4,1.1,4.6,2.5,6.6,4.3c1.1,0.9,2.3,1.7,3.6,2.5
				c1.2,0.6,2.3,1.4,3.2,2.3c1.2,1.8,3,3.2,5,4l6.6,5.7l10.9,9.4c0.5,0.4,1.1,0.8,1.7,1.1c3.1,1.8,5.9,4.1,8.2,6.8l11.1,12.9
				c0.3,0.4,0.7,0.8,0.9,1.3c2.1,3.6,4.5,7.2,7,10.5c1.7,2.4,3.6,4.6,5.7,6.6c1,1,1.9,2.3,2.8,3.3l0.1,0.3c0,0.1-0.3,0.1-0.5,0
				c-2.8-2.2-5.3-4.8-7.5-7.6c-2.5-3.2-4.9-6.5-7.3-9.9c-3-4.1-6.4-8-10.1-11.6c-1.3-1.3-2.7-2.6-3.9-3.9c-2.5-2.7-5.4-5.1-8.5-7
				c-0.8-0.5-1.5-1-2.2-1.7c-2.6-2.4-5.1-4.9-7.8-7.3c-5.8-5.6-12.3-10.4-19.3-14.5c-1.9-0.9-3.6-2.3-4.9-3.9
				c-0.6-0.7-1.4-1.2-2.2-1.6c-7.2-3.8-14.7-7.1-22.3-10c-4.3-1.7-8.7-3-13.3-4c-5.2-0.9-10.5-1.2-15.8-0.9
				c-2.2,0.2-4.4,0.8-6.5,1.7c-0.6,0.2-0.9,0.9-0.7,1.5v0.1c0.4,1,0.9,1.9,1.5,2.8c0.7,1.1,2.1,1.7,3.3,1.2c4.8-1,9.7-1,14.5,0
				c5.7,1.1,11.3,2.6,16.8,4.7c0.5,0.2,1,0.4,1.4,0.6c0.3,0.2,0.8,0.5,0.8,0.8s-0.6,0.2-0.9,0.2c-2.6-0.6-5.2-1.1-7.7-1.8
				c-3.9-0.9-7.8-1.6-11.7-2.1c-3.8-0.3-7.7,0-11.4,1c-1,0.2-1.3,1.3-0.6,2.2c0.5,0.5,0.8,1.1,1.1,1.7c0.5,1.4,1.9,2.3,3.4,2.2
				c0.8,0,1.6,0,2.4-0.1c6.2-0.3,12.4,0.2,18.4,1.6L584,379.8z M681,416v-0.4c-0.2-0.9-0.7-2.9-1-3.9s-0.7-2-1.1-3
				c-1.9-4.6-3.9-9.2-5.7-13.9c-1.4-3.5-2.4-7.2-3.7-10.8c-1-2.7-2-5.2-3.1-7.7c-1-2.1-1.9-4.4-2.6-6.6c-0.9-2.5-1.9-4.9-3-7.3
				c-1-2-1.6-4.2-2.4-6.2c-3.1-7-4.8-14.6-8.7-21.2c-2-3.3-4-6.5-6.1-9.6c-3.9-5.9-7.9-12-12.3-17.4c-2.7-3.3-5.2-6.6-7.8-9.9
				c-0.6-0.9-1.2-1.8-1.8-2.6c-0.5-0.8-1.1-1.6-1.7-2.4c-3.5-4.5-7.2-8.7-11.2-12.7l-0.2-0.3c-5.5-6.5-11.8-12-17.8-18.1
				c-3.3-3.6-6.3-7.4-9.1-11.4c-1.2-1.6-2.2-3.3-3.4-4.8c-0.9-1.1-1.8-2.2-2.9-3.3c-2.6-2.6-4.7-5.7-6.2-9.1c-0.4-1-0.9-1.9-1.5-2.7
				c-0.1-0.1-0.2-0.2-0.3-0.1c-0.1,0.1-0.2,0.2-0.2,0.3c-0.1,1.3,0.1,2.6,0.7,3.8l2.2,4.6l0.2-0.1l1,2.2c0.7,2,1.7,3.9,3,5.5
				c0.6,0.8,1.1,1.6,1.5,2.4c0.1,0.2,0.1,0.5,0.1,0.8c-0.2,0-0.4-0.1-0.6-0.2c-1.3-1.4-2.6-2.9-3.7-4.5c-1.4-2.1-3-4-4.8-5.8
				c-0.8-0.8-0.5,0.2-0.8,0.4c-1,1.1-0.7,2,0,3.1c4.7,6.7,9.7,13.1,15.2,19.2c2.7,3.4,5.8,6.7,8.3,10.1c2.3,3.1,4.5,6.1,7,9.1
				c5.4,6.5,10.7,13.1,16.4,19.2c1.7,1.7,3.1,3.6,4.5,5.5c0.8,1.2,1.7,2.3,2.6,3.5c1.7,2,3.2,4.2,4.5,6.5c0.8,1.3,1.7,2.6,2.7,3.9
				c1,1.5,2.1,3.1,3,4.7c2.2,4,4.7,7.9,7.4,11.6c1.9,2.7,3.5,5.6,4.8,8.6l7.8,16.9c1.5,3.1,2,6.6,3.3,9.7c0.1,0.1-0.1,0.3-0.2,0.5
				l-0.3-0.2c-1.2-1.2-2.1-2.8-2.5-4.4c-2.1-5.8-4.6-11.5-7.4-17l-1.8-4c-1.5-3.4-3.5-6.5-6-9.2c-2.1-2.3-4-4.9-5.5-7.7
				c-1.6-2.6-3.3-5.1-5.2-7.4L620,316c-0.3-0.4-0.6-0.9-0.9-1.3c-3.3-3.7-6.1-7.9-9.7-11.5c-1.2-1.2-2.2-2.6-3.1-4.1
				c-2.7-4.5-5.9-8.7-9.6-12.5c-1.6-1.7-3.1-3.6-4.5-5.5c-3.5-4.9-7.3-9.7-11-14.4s-7.7-10.1-11.3-15.2c-0.5-0.8-1.1-1.4-1.8-2.1
				c-0.5-0.2-1-0.3-1.5-0.1c-0.5,0.1-0.8,1.2-0.5,1.7c0.2,0.6,0.5,1.2,0.8,1.8c0.5,0.8,1.1,1.6,1.7,2.3l8.8,12.2
				c0.3,0.3,0.5,0.6,0.7,0.9c2,4.3,5.1,8,7.6,12.1c1,1.7,2.2,3.3,3.2,5c1.9,3,3.9,5.9,5.7,9c0.6,1.1,1.2,2.3,1.7,3.6
				c0.1,0.1,0.1,0.2,0.2,0.3c-0.2,0-0.3-0.1-0.5-0.2c-1.5-2-3.1-3.9-4.5-6c-2.7-4-5.7-7.8-8.9-11.5c-2.1-2.4-3.9-5-5.6-7.6
				c-1.5-2.7-3.2-5.3-5.2-7.6c-0.3-0.3-0.5-0.6-0.8-0.8c-0.2-0.1-0.5-0.2-0.7-0.1c-0.2,0.1-0.2,0.4-0.2,0.6c1.1,2.4,2,4.9,3.3,7.2
				s3,4.6,4.5,7c0.5,0.6,0.9,1.3,1.2,2c1.7,3.7,3.8,7.2,6.4,10.4c1.2,1.7,2.3,3.5,3.3,5.4c3.3,5.4,6.9,10.6,11,15.4
				c5.1,6.7,10.3,13.3,15.1,20.3c4.4,6.4,8.9,12.8,13,19.4c2.7,4.4,5.8,8.5,8.8,12.7c1.9,2.5,3.7,5.2,5.2,7.9c0.8,1.4,1.6,2.7,2.6,4
				c3.3,4.3,6.6,8.5,9.9,12.8c0.7,0.9,1.6,1.8,2.5,2.5c1.4,1.2,2.9,2.2,4.4,3.4c1,0.6,1.9,1.4,2.7,2.3c2.6,3.1,5.4,6.1,8.3,9
				c2.6,3,5.5,7,8.1,9.9c0.1,0.1,0.3,0.1,0.5,0.1s0-0.2,0-0.3L681,416z M557.2,219.1c0.3-2.7,0.4-5.5,0.4-8.3
				c0-3.4,0.3-6.9,0.6-10.3c0.4-5.6,0.3-11.3-0.5-16.9c-1.4-9.8-3.3-19.5-5.7-29.1c-1.2-5-3-9.8-4.6-14.7c-0.8-2-1.9-3.8-3.3-5.4
				c-0.7-0.9-1.3-1.9-1.8-3c-2.6-5.3-5.9-10.3-9.6-14.9c-7.2-8.9-15.4-16.8-24.6-23.6c-3.2-2.3-6.6-4.4-10.2-6.1h-0.6
				c-0.2,0,0.1,0.6,0.3,0.7c1.2,1.1,2.4,2.1,3.7,3c4.6,3.7,8.9,7.9,12.8,12.3c1.6,1.8,3,3.6,4.4,5.6c2.7,3.7,5.9,7,8.5,10.9
				c3.5,5.1,6.5,10.5,9.1,16.2c0.4,0.8,0.6,1.7,1,2.7c0.6,1.6,1.1,3.2,1.8,4.8c1.1,2.2,2,4.6,2.6,7c0.6,2.3,1.4,4.5,2.2,6.7
				c0.6,1.9,1.2,3.8,1.7,5.7c1.8,6.8,3.2,13.6,4,20.6c0.1,0.8,0.2,1.6,0.3,2.4c0,4.3,0,8.7-0.1,13c-0.2,7.1-0.4,14.2-1,21.3
				c-0.1,3.4,0.4,6.8,1.6,10c1.3,3.9,2.6,7.7,4.1,11.5c1,2.6,2.4,5.1,3.4,7.6c0.1,0.1,0.2,0.2,0.3,0.3c0,0,0.3-0.2,0.3-0.4
				c0-0.9-0.2-1.9-0.3-2.8C556.2,237,555.9,228,557.2,219.1L557.2,219.1z M497.8,91.4c0.1,0.2,0.3,0.4,0.5,0.6
				c1.7,1.9,3.4,3.7,5.1,5.5c3.3,3.3,6.3,6.8,9,10.5c0.7,1,1.5,1.9,2.1,2.9c1.7,2.3,3.2,4.7,4.5,7.3c2,4.3,4.1,8.6,6.3,12.7
				c2.1,4.1,3.7,8.5,4.8,13c0.2,0.9,0.5,1.8,0.9,2.7c1.7,4.2,3,8.4,4,12.8c0.7,2.5,1.3,5.1,1.9,7.7s1.2,5.9,1.8,8.9
				c1,5.9,2.2,11.7,3.8,17.4c0.8,3.2,1.4,6.4,1.9,9.7l1,5c0.1,0.2,0.3,0.4,0.6,0.5c0,0,0.3-0.2,0.4-0.4s-0.1-0.2,0-0.4
				c0.7-7,1.1-13.9,1.2-20.9c-0.1-5-0.7-10-1.8-14.8c-0.7-3.2-1.5-6.4-2.3-9.6c-0.7-2.9-1.6-5.8-2.7-8.6c-0.5-1.3-1-2.7-1.3-4.1
				l-1.9-5.2l-0.3,0.2c-0.7-2-1.2-4-2-5.9c-1.5-3.2-2.8-6.6-4.4-9.7c-2.7-5-5.9-9.7-9.5-14.1c-2.2-2.6-4.3-5.4-6.3-8
				c-0.5-0.6-1-1.3-1.5-1.9c-4.5-5.2-9.5-9.9-14.9-14.1c-0.2-0.1-0.4-0.2-0.6-0.2C497.6,90.9,497.7,91.2,497.8,91.4z M627.8,362.3
				c-4.4-4.4-9-8.5-13.8-12.3c-1.3-1-2.4-2-3.6-3.1c-1.8-1.8-3.7-3.4-5.8-4.8c-0.8-0.6-1.6-1.3-2.4-2.1c-2.9-2.5-5.8-5-8.8-7.3
				c-2.4-1.9-4.7-3.9-6.8-6c-2.4-2.4-5-4.7-7.5-7c-3.7-3.4-7.1-7.1-10.3-11c-3.7-4.3-7.1-8.8-10.6-13.2c-3.3-4.1-6.2-8.5-8.7-13.2
				c-1.1-2.2-2.5-4.4-3.8-6.5c-0.1-0.2-0.3-0.3-0.5-0.4l-0.1,0.7c-0.1,0.4,0,0.9-0.3,1.1c-0.5,0.8-0.6,1.8-0.1,2.6
				c0.8,1.9,1.4,4,2.2,5.9s1.7,3.5,2.6,5.3c1.8,3.8,3.9,7.5,6.3,10.9c0.4,0.7,0.7,1.4,0.9,2.2c0,0.1-0.1,0.3-0.1,0.4
				c-0.1,0.1-0.2,0.1-0.3,0c-3.2-2.3-6-5.1-8.2-8.4c-0.6-1.2-1.4-2.2-2.3-3.3c-1-1.4-1.9-2.9-2.5-4.4c-0.4-0.9-1-1-2-0.5
				c-0.9,0.6-1.8,1.1-2.8,1.6l-2.9,1.2c-1,0.4-1.6-0.2-2.1,0.7c0.4,0.5,0.9,1,1.4,1.4c1.7,1.4,3.5,2.8,5.2,4.2
				c1.1,0.8,2.1,1.6,3,2.6c2.9,3.3,3.2,3.1-1.1,4.7l-2.6,1.1c-1.4,0.6-3.7,2.1-5.9,3.3s-4.8,2.3-7.2,3.4c-0.1,0.1-0.2,0.2-0.3,0.3
				c0.1,0.1,0.2,0.2,0.3,0.2c0.1,0,0.3,0.1,0.4,0c3.3,0.3,6.6,0.2,9.8-0.3c1.8-0.4,3.7-0.3,5.5,0.2c4.2,1.1,8.5,2.1,12.6,3.5
				c2.3,0.9,4.6,2,6.7,3.3c4.2,2.6,8.5,5.3,12.8,7.9c1.8,1.1,3.5,2.4,5.2,3.6c5.6,4.2,11.1,8.5,16.7,12.7c2.3,1.8,4.7,3.5,7.1,5
				c4.7,3.1,9.7,5.9,14.3,9.1c3.9,2.7,7.5,5.8,11.2,8.8c1.6,1.3,3.3,2.7,4.8,4.1s2.7,2.6,4,3.9l8.3,8.4c0.1,0.2,0.6,0.2,0.9,0.3
				c0-0.4-0.1-0.8-0.2-1.1c-1.1-2-2.5-3.8-4.1-5.3c-4.6-4.8-9.5-9.7-14.5-14.6L627.8,362.3z M586.8,316.1c-0.3-0.6-0.6-1.2-0.9-1.7
				l-8.8-12.7c-1.7-2.4-3.2-5.1-4.6-7.8c-4.5-8.8-8.5-17.8-12-27.1c-1-2.6-1.8-5.2-2.5-7.9c-0.2-0.4,0.1-1.1-0.5-1.1
				c-0.2,0.3-0.3,0.7-0.3,1.1c0.1,2.1,0.3,4.2,0.5,6.3c0.2,1.2,0.5,2.3,0.7,3.5c0,1-0.8,1.8-1.8,1.8c-0.2,0-0.4,0-0.5-0.1
				c-0.6-0.3-1.1-0.6-1.6-1c-1.8-1.5-3.6-3.2-5.3-4.7c-0.5-0.4-1-0.8-1.6-1.1c-0.2,0-0.5,0.1-0.6,0.3c-0.2,0.1-0.1,0.5-0.2,0.7
				c0.1,0.3,0.2,0.6,0.4,0.9l9.1,14.2c1,1.5,2,3.1,2.8,4.7c1.2,2.1,2.6,4,4.3,5.6c2.1,2.2,4,4.6,5.6,7.1c0.3,0.5,0.6,0.9,1,1.3
				c4.8,5.4,9.2,11.2,14.5,16.1c0.8,0.7,1.6,1.4,2.4,2.1c0.1-0.1,0.2-0.1,0.4,0c0.2,0.1-0.3,0-0.3-0.1L586.8,316.1z M534.5,261
				c-1.4-3.4-3.2-6.6-5.3-9.7c-0.9-1.4-1.7-3-2.6-4.4c-3.4-5-7.3-9.7-11.6-14c-2.6-2.5-5.5-4.9-8.1-7.5c-3.8-3.3-7.2-7-10.2-11.1
				c-0.3-0.4-0.7-0.8-1.1-1.1c-0.2-0.1-0.5-0.1-0.8-0.1c-0.1,0.1-0.2,0.2-0.2,0.3c-0.2,3.8-0.2,7.6,0,11.4c0.2,3,0.6,6,1.1,9
				c1.6,7.1,3.2,14,5.2,21.1c1.3,5,3.9,9.6,7.5,13.2c0.3,0.4,0.6,0.8,0.8,1.3c1.2,2.8,3.3,5.2,5.9,6.7c1.7,1,3.4,2,5.1,3l7.4,4.5
				c0.2,0.1,0.4,0.2,0.7,0.3c-0.1-0.2,0-0.6-0.1-0.8c-1.1-1.9-2.3-3.8-3.5-5.7l-6.2-9.6c-0.2-0.4-0.3-0.7-0.5-1.1
				c-2.2-5.1-4.7-10.1-6.3-15.4c-0.2-0.5-0.4-1-0.5-1.5c-0.8-3.7-1.6-7.4-2.4-11.3c-0.2-1.3-0.2-2.6-0.1-3.9
				c0.1-0.1,0.2-0.2,0.3-0.3c0.1,0,0.2,0,0.3,0.1c0.3,0.7,0.7,1.4,0.9,2.2l3.4,10.9c2.2,3.3,2.8,7.4,5.6,10.4
				c0.3,0.4,0.6,0.9,0.8,1.4c3.6,8.4,9.3,15.6,14.2,23.2c2.2,3.5,2.1,2.9,5.7,1.2c0.9-0.4,1.1-1,0.8-2c-1.3-4.8-2.6-9.6-4-14.5
				C536.1,265.5,535.3,263.3,534.5,261L534.5,261z M540.5,254.1c0.1-0.2,0.2-0.5,0.3-0.7c1.2-4.2,1.7-8.5,1.4-12.9
				c-0.3-2.8-0.4-5.5-0.4-8.3c-0.3-3.9-0.9-7.8-1.9-11.6c-1.3-5.2-3.2-10.3-5.6-15.1c-1-2-2.2-3.9-3.7-5.6l-13.8-16.8
				c-3.2-3.6-5.9-7.6-8.1-11.9c-0.9-1.6-1.8-3.2-2.9-4.7c0,0-0.1-0.3-0.3-0.2c-0.1,0-0.2,0-0.3,0.1c-0.2,0.5-0.3,1-0.4,1.5
				c-0.2,2.2-0.5,4.5-0.5,6.7c0,5.9-0.1,11.8,0,17.8c0.3,4.5,1,8.9,2.1,13.2c0.7,2.1,1.5,4.2,2.6,6.2l1.4,3.3c0.8,1.9,2.1,3.6,3.6,5
				c4.4,4,8.4,8.4,11.9,13.2c0.9,1.3,1.7,3,3.5,3.3c0.2-1.6,0.1-3.2-0.5-4.6c-1-5-2.8-9.9-5.2-14.4c-3.1-5.5-5.9-11.1-8.3-17
				c-1.3-3.9-2.4-7.8-3.2-11.8c-0.1-0.1-0.1-0.3,0-0.4c0.1-0.2,0.4,0.2,0.4,0.3l1.5,3.6c1.2,3.2,2.7,6.3,4.6,9.2
				c1.8,4.1,4.1,7.9,7.1,11.3c3.2,4.4,5.5,9.3,7,14.5c1.5,5.5,2.3,11.1,2.3,16.8c-0.1,0.6,0,1.3,0.3,1.9c1.7,2.7,3.2,5.4,4.6,8.3
				c0,0,0.1,0.3,0.3,0.2C540.1,254.4,540.3,254.3,540.5,254.1L540.5,254.1z M488.1,180.2c-2.3-8.5-5.6-16.8-9.6-24.6
				c-1.9-3.5-4-6.8-6.1-10.1c-1.4-2.1-3-4-4.8-5.8c-3.7-4.1-7.9-7.8-12.4-11c-5-3.4-9.8-7.1-14.4-11c-4.9-4.3-10.1-8.1-15.6-11.4
				c-2.1-1.1-4-2.6-5.6-4.3c-0.1-0.2-0.5-0.2-0.7-0.2s-0.5,0.5-0.5,0.8c0.1,1.1,0.3,2.1,0.3,3.2s0.3,2.6,0.3,3.9
				c0.2,6.2,0.3,12.4,0.5,18.6c0.1,2.9,0.6,5.8,1.4,8.7c0.7,3.2,1.6,6.4,2.4,9.6c0.3,1.6,1.2,3,2.6,3.8c2.6,1.5,5.2,3.1,7.8,4.7
				c9.6,6.1,18.8,12.7,27.7,19.8c0.6,0.5,1.3,0.9,1.9,1.4c0.1,0.1,0.3,0.1,0.4,0c0.2-0.1,0.3-0.4,0.3-0.6c-0.9-3-2-6-3.5-8.8
				c-1.2-2-2.2-4.2-3-6.4c-0.7-1.7-1.6-3.4-2.7-4.8c-1.5-1.8-2.8-3.9-3.8-6c-0.8-1.7-1.8-3.2-3-4.6c-2.3-3.1-4.4-6.3-6.3-9.6
				c-1.9-3-3.9-5.9-5.9-8.8l-1.2-2l-0.1-0.3c0.1-0.1,0.4-0.2,0.5,0c1.3,1.1,2.6,2.2,3.8,3.4c4.3,4.3,8.3,8.8,12,13.6
				c1.4,1.8,2.8,3.5,4,5.4c1.7,2.3,3.2,4.8,4.6,7.3c1.7,3.3,3.8,6.3,5.6,9.5c0.9,1.8,1.7,3.6,2.3,5.4c0.4,1.5,0.9,3,1.5,4.5
				c1.8,3.5,3.3,7.2,4.6,10.9c0.8,1.8,1.8,3.5,3,5.1c4.6,6,8.3,12.6,10.9,19.6l1.7,4c0.1,0.2,0.3,0.3,0.5,0.3
				c0.2-0.1,0.4-0.3,0.4-0.6c0.4-3.8-0.1-7.7-1.5-11.2c-0.6-1.2-0.8-2.5-0.7-3.8c0-1.3-0.3-2.6-0.9-3.8l-3-6.5
				c-0.5-0.9-0.7-2-0.5-3.1c0,0,0.1-0.3,0.2-0.3s0.5,0,0.6,0.1l7.2,10.8c0.3,0.4,0.6,0.8,1,1.2c0.1,0.2,0.5,0.1,0.8,0.1
				s0.1-0.2,0-0.4l-2.2-6.3C489.4,186.4,488.5,183.3,488.1,180.2L488.1,180.2z M393.7,91.2c-9.5-6.5-19.9-11.5-30.9-14.9
				c-0.6-0.2-1.3-0.4-1.9-0.6c-3.5-1.3-6.9-2.6-10.4-3.9c-4.3-1.8-8.8-2.9-13.5-3.2c-1.7-0.2-3.4-0.7-4.9-1.4
				c-0.6-0.2-1,0.2-0.8,0.8c0.5,2.2,1.3,4.3,1.7,6.5c0.6,2.7,1.4,5.3,2.4,7.9c1.1,3.4,2.7,6.6,4.6,9.5c1.4,2.5,2.9,4.7,4.3,7.1
				c2.4,3.9,4.9,7.8,7.1,11.8c3.5,5.4,7.6,10.5,12.3,14.9c2.4,2.6,4.9,5.1,7.4,7.6c2,1.9,4.2,3.6,6.6,5.1c3.6,2.2,7.2,4.5,10.6,6.9
				c3.2,2.2,6.7,4.1,10.4,5.5c3.4,1.4,6.8,2.9,10.1,4.5c3.3,1.6,6.4,3.7,9.3,6c0.9,0.7,1.9,1.4,2.9,2c0.1,0,0.2-0.1,0.3-0.1
				c0.1-0.1,0.1-0.2,0.1-0.3c0-0.4-0.1-0.8-0.2-1.2c-0.3-1.3-0.7-2.5-1-3.8c-0.3-1.8-1.1-3.5-2.1-5.1c-3.8-5.1-7.5-10.1-11.3-15.2
				c-0.2-0.3-0.5-0.6-0.7-0.9c-4.9-4.8-8.9-10.4-13.5-15.4c-2.3-2.4-4.3-5-6.6-7.4c-2.6-2.8-5.4-5.4-8.3-7.8
				c-5.5-4.5-10.8-9.3-16.1-14c-4.5-3.9-9.5-7.2-14.8-9.9c-1.3-0.7-2.5-1.4-3.8-2.2c-0.1-0.1-0.2-0.2-0.1-0.3
				c-0.1-0.3,0.1-0.5,0.5-0.2c5.2,2.5,10.7,4.4,15.8,7.3c5.2,3.2,10.2,6.6,14.9,10.4c3,2.2,5.8,4.6,8.7,6.8c3.3,2.7,6.3,5.6,9.1,8.8
				c2,2.3,4,4.2,5.8,6.5s3.9,4.5,5.9,6.9c0.9,1.1,1.9,2.3,2.9,3.2c2.7,2.7,5.2,5.6,7.4,8.7c0.2,0.3,0.5,0.6,0.9,0.8
				c0.2,0.1,0.5,0.1,0.7,0.1c0-0.1,0.1-0.3,0-0.4c-0.4-2.5-0.7-4.9-1-7.4s-0.4-4.5-0.6-6.7c-0.2-5-1.1-10-2.7-14.7
				c-0.5-1.4-1.2-2.6-2.2-3.7c-0.7-0.8-1.4-1.6-2-2.5C403.3,98.9,398.8,94.6,393.7,91.2L393.7,91.2z M320.4,262
				c-2.6,0.4-5.1,1.2-7.5,2.3c-0.9,0.5-1.9,0.7-2.9,0.6c-1-0.2-2.1,0-3,0.6c-1.2,0.6-6.6,4.5-7.9,4.9c-2.1,0.7-6.2,6.6-8.3,14.5
				c-1,2.8-0.7,5.9,0.7,8.6c0.9,1.7,2,3.4,3.2,5c0.5,0.6,1.2,1,1.9,1.4c0.7,0.4,1.4,0.6,2.1,1c0.2,0.1,0.4,0.3,0.6,0.5
				c-0.3,0.2-0.6,0.4-0.9,0.6c-0.6,0.2-1.3,0.2-2,0.1c-1.1-0.3-2.3-0.3-3.5-0.1c-0.8,0.2-1.6,0.1-2.4-0.2c-3.4-1-6.2-3.3-8-6.3
				c-0.6-1.3-1.2-2.6-2.6-3c-0.4-0.2-0.6-0.8-0.9-1.2c-0.8-1.1-0.7-2.6,0.3-3.6c1.2-1.3,2.3-2.7,3.4-3.9s1.1-2,0.4-2.4
				s-1.5-0.1-2.1,0.3c-4.8,3.1-8.7,7.3-11.5,12.3c-0.6,1-1.1,2.1-1.7,3.1c0,0.2-0.4,0.3-0.6,0.5c-0.1-0.2-0.3-0.4-0.4-0.7
				c-0.4-1.7-0.8-3.4-1-5.1c-0.3-2.6-0.3-5.2-0.4-7.9c0.2-2.1,0.7-4.2,1.6-6.1c0.2-0.5,0.5-0.9,0.9-1.2c0.5-0.5,1.1-0.8,1.5-1.3
				s2.3-0.9,2.1-2.1c-0.1-0.7-1.1-1.4-1.8-2c-1.2-1-2.4-2.1-3.6-3.1c-0.6-0.5-1.1-1.2-1.3-1.9c-0.4-2.5-1-4.9-1.2-7.4
				c0-1,0.2-1.9,0.6-2.8c0-0.3,0.4-0.5,0.7-0.7c0.2,0.2,0.3,0.4,0.4,0.7c0.6,1.5,1.3,2.9,1.9,4.4c1.4,3,3.5,5.7,6.1,7.7
				c0.7,0.7,1.9,0.9,2.8,0.4c1.1-0.5,2.2-0.7,3.4-0.7c2-0.1,4-0.6,5.8-1.5c4-2,7.8-1.9,10.3-4.6c2.3-2.4,5.1-4.2,8.2-5.3
				c2.6-0.9,15.4-7.1,18.1-7.7c0.6-0.1,1.3-0.2,2-0.3c1.7-0.3,3.5,0.5,4.4,2.1c1,1.7-7.8,8.7-6.7,10.4c0.4,0.8,0.4,1.4-1.2,1.5
				L320.4,262z M290.9,331c0.2,2.5,0.3,5,0.3,7.5c-0.1,4.8-0.9,9.5-2.4,14c-1.6,5.4-3.8,10.7-6.4,15.7c-0.8,1.5-1.7,2.9-2.7,4.3
				c-1.9,2.7-4,5.4-6,7.9c-1.8,2.1-3.2,4.5-4.3,7.1c0,0.4-0.5,0.6-0.7,0.9c-0.2-0.3-0.4-0.5-0.5-0.9c-1-5.7-1.7-11.4-2.1-17.2
				c-0.4-3.9-0.3-7.9,0.3-11.8c0.4-2.4,0.9-4.7,1.4-7c0.6-2.8,1.2-5.6,2.1-8.4c2.3-6.7,5.2-13.2,8.8-19.4c0,0,0.3-0.2,0.3-0.2
				s0.4,0.3,0.4,0.5c-0.2,2.8-0.4,5.6-0.9,8.6c-0.1,1.5-0.6,2.8-0.8,4.3c-0.2,2.8-0.7,5.5-1.3,8.2c-0.2,0.9-0.4,1.9-0.4,2.8
				c0.1,2.8-0.4,5.5-1.3,8.1c-0.2,0.7-0.2,1.3-0.1,2c0,2.4-0.4,4.7-1.3,6.9c-0.1,0.4-0.1,0.8-0.1,1.2c0,0.1,0,0.2,0,0.3
				c0.2,0,0.4-0.1,0.5-0.3c0.5-1.1,0.9-2.2,1.4-3.3c1.3-3.3,2.3-6.7,3.6-10c0.9-2.6,1.6-5.3,2.1-8c1.7-6.8,2.8-13.7,3.5-20.6
				c0.2-2.8,0.7-5.6,1.1-8.6l0.1-2c0-0.6-0.6-1.5,0.2-2.2c0.4,0.7,0.8,1.4,1.1,2.1C288.9,319.2,290.3,325,290.9,331z M261.1,384.4
				c-2.4,2.2-5.1,4.2-8,5.8c-2.4,1.2-4.8,2.3-7,3.7c-3.9,2.3-8.1,4.2-12.4,5.7c-1.5,0.5-2.9,1.2-4.4,1.7s-2.5,0.9-3.7,1.3
				c-1.8,0.5-3.6,0.9-5.4,1.4c-4.8,1.3-4.6,1.6-4.4-2.5c0-1.1,0.1-2.2,0.3-3.3c0.8-3.2,1.4-6.5,1.8-9.7c0.1-0.8,0.2-1.6,0.2-2.3
				l0.4-5.1c1.1-6,2.5-11.9,4.4-17.6c0.7-2.5,1.7-5,2.8-7.4c0.4-1.1,1.6-1.9,2.8-1.8l6.7,0.1c0.2,0,0.4,0.1,0.6,0.3
				c0.1,0.3,0.1,0.5-0.1,0.8c-0.9,1.5-1.7,3-2.7,4.4c-3.4,5-5.4,10.7-5.9,16.7c-0.2,1.3-0.4,2.6-0.7,3.9c-0.7,3.1-0.9,6.3-0.7,9.4
				c0.1,0.2,0.3,0.4,0.5,0.5c0.2,0,0.6-0.2,0.6-0.3c0.6-1.5,1.1-2.9,1.5-4.5c1.7-5.8,4-11.5,6.8-16.9c0.4-0.8,0.9-1.6,1.5-2.4
				c2.4-3.5,4.7-7,7.1-10.5c0.6-0.8,1.3-1.6,2.1-2.4c0.8-0.9,1.8-1.5,3-1.7c2-0.6,4-1.3,6-2c0.6-0.2,1.2-0.9,1.7-0.3
				c0.5,0.6-0.1,1-0.1,1.4c-2,3.9-3.2,8.1-4.8,12.1c-2.7,6.3-5.7,12.5-9.1,18.5c-1,2-2.2,3.9-3.1,6c-0.4,0.9-1.4,1.7-0.8,2.8
				c0.6-0.7,1.2-1.4,1.8-2s0.5-1,0.9-1.3c2.2-2.1,4-4.6,5.3-7.3l12.3-19c0.2-0.3,0.6-0.4,0.9-0.6c0,0.2,0,0.5,0,0.7
				c-0.7,3.6-0.7,7.4-0.1,11c0.1,2.9,0.7,5.8,1.7,8.5c0.2,0.6,0.3,1.3,0.5,1.9C262.3,383,261.9,384,261.1,384.4L261.1,384.4z
				 M254.8,406.1c-1.4,3.4-2.7,6.9-4.4,10.2c-3.8,7.8-8.4,15.3-13.6,22.2c-3.1,4-6.7,7.5-10.8,10.4c-1.8,1.3-3.7,2.5-5.6,3.7
				c-0.4,0.2-1,0-1.2-0.5c0,0,0-0.1,0-0.1c-0.4-3.6-0.5-7.3-0.3-10.9c0.5-6.9-0.7-4.9,4.9-8.4c0.5-0.3,0.9-0.5,1.4-0.8
				c3.5-1.7,6.6-4,9.2-6.8c0.6-0.5,1.2-1,1.9-1.4c4.8-3.2,9.1-7.3,12.6-12c1.7-2.2,3.5-4.3,5.3-6.4c0.2-0.2,0.4-0.3,0.6-0.4
				C254.7,405.4,254.9,405.9,254.8,406.1L254.8,406.1z M212.9,431.7c-4,1.6-8,3.4-12,5.1c-0.5,0.2-1.1-0.1-1.3-0.6
				c-0.1-0.2-0.1-0.5-0.1-0.8c-0.1-3.3-0.1-6.6-0.2-9.9s0-6.9-0.1-10.3l0.1-1.6c0.3-5.3,1.4-10.5,3.1-15.5c0.2-0.6,0.6-1.2,1.2-1.5
				c1-0.6,2.1-1.1,3.2-1.5c0.6-0.3,1.1,0.1,1.1,0.6c-0.2,2.2-0.1,4.5-0.3,6.7c-0.2,2.2-0.2,4.5,0,6.7c0,1.1,0.3,2.1,1,2.9
				c0.6,0.6,0.7,1.5,0.4,2.2c-0.4,1.4-0.9,2.7-1.5,4.1c-1,2.2-1.7,4.4-2.2,6.8c0,0.6,0.1,1.3,0.3,1.9c0,0,0.4,0.3,0.6,0.2
				c0.2-0.1,0.4-0.3,0.5-0.5c1-2,2.3-3.8,3.9-5.4c1.6-1.8,2.8-3.8,3.6-6.1c0.4-1.4,1.8-2.4,3.3-2.4c1.7-0.2,3.4-0.4,5.1-0.8l1.5-0.3
				c0.4,0,0.8,0.3,0.8,0.7c0,0.1,0,0.2,0,0.4c-0.6,1.7-1.3,3.4-2,5.2c-0.2,0.3-0.3,0.7-0.3,1.1c0.1,0.4,0.3,0.7,0.6,1
				c0,0,0.5,0,0.7-0.1c0.3-0.3,0.6-0.5,0.8-0.8c2.5-3.1,5-6.1,7.5-9.2c0.6-0.7,1.3-1.3,2.1-1.7l8.1-3.2h0.3c0,0,0.2,0.6,0.1,0.7
				c-3.8,8.1-9.8,14.9-17.3,19.9C221.5,427.9,217.3,430.1,212.9,431.7L212.9,431.7z M209.5,453.3c-3.2,1.3-6.2,2.9-9.1,4.7
				c-1.7,1-3.5,1.8-5.3,2.4c-4.8,1.8-9.7,3.4-14.6,5.3c-4,1.3-8.2,2-12.4,2c-0.8,0.1-1.6-0.5-1.8-1.3c0-0.1,0-0.2,0-0.4
				c-0.1-1.6,0.1-3.2,0.4-4.7c1.4-5.6,2.9-11,4.4-16.4c0.3-1.6,1.5-2.9,3.1-3.4c1.5-0.5,2.9-1.1,4.4-1.6s2.9-1.2,4.4-1.7
				c0.6-0.2,1.2-1,1.7-0.3s-0.3,1.2-0.6,1.7c-0.2,0.6-0.6,1.2-1,1.7c-2.1,3-3.9,6.3-5.3,9.7c-0.1,0.5-0.2,1-0.1,1.5
				c0,0.1,0.1,0.3,0.1,0.4c0.1,0,0.2,0,0.3,0c1.2-1.2,2.3-2.5,3.3-3.9c1.1-1.8,2.4-3.5,3.8-5.1c1-1.2,1.9-2.5,2.8-3.8
				c1-1.6,2.2-3,3.7-4.1c0.4-0.2,1,0,1.2,0.4c0,0,0,0,0,0.1c0.1,1.1,0.1,2.1,0.2,3.1s0.6,1.4,1.6,1.3c4.9-0.3,9.7-1.1,14.4-2.5
				c0.6-0.2,1.3-0.5,1.9-0.6s1.2,0.1,1.2,1c0.1,3,0.1,6.1,0.1,9.2c-0.1,0.5-0.1,1-0.1,1.5C212.3,451.2,211.2,452.9,209.5,453.3
				L209.5,453.3z M161.7,453.4c-0.1,1.1-0.9,1.9-1.9,2.1c-4,0.9-7.9,1.9-11.9,2.8c-2.4,0.6-4.9,1.2-7.3,1.9
				c-2.5,0.8-5.2,1.1-7.8,0.9c-4.1-0.1-8.2,0-12.2,0.3c-0.5,0-1.1,0.1-1.6,0.2c-2.1,0-2.8-0.6-3-2.8c-0.1-1.2-0.1-2.4,0-3.6l0.5-7.1
				l0.2-2.3c0.3-5.1,1.2-10.2,2.8-15.1c0.2-1.2,1.1-2.1,2.3-2.4c3.6-0.9,7.2-1.6,10.9-2c0,0,0.4,0.4,0.4,0.5
				c-0.2,0.5-0.5,0.9-0.8,1.3c-2.6,3.1-5.3,6.2-7.9,9.3c-0.4,0.5-0.9,1-1.3,1.5c-0.6,0.9-0.8,2-0.2,2.1c0.7,0,1.3-0.4,1.7-0.9
				c2.1-2.3,4.5-4.3,7.1-6c3.9-2.9,7.6-6.2,10.9-9.8c1.1-1,2.1-2,3.1-3c0.8-0.7,1.7-1.2,2.8-1.4c0.4-0.2,0.9,0.1,1.1,0.5
				c0,0,0,0,0,0c0.1,0.2,0.1,0.4,0,0.6c-0.8,2.4-1.2,4.9-1.3,7.4c-0.1,1.3-0.7,2.6-1.7,3.4c-1.1,0.9-2.1,2-3.1,3.1
				c-2.8,3.6-5.7,7.2-8.4,11c-1.2,2-2.4,4.1-3.3,6.3c0,0.1,0,0.2,0,0.4h0.6l3.1-3.1c1.1-1.1,1.4-1.6,2.1-2.4
				c3.1-2.9,6.1-5.7,9.2-8.6l0.6,0c0.2,0,0.2,0.2,0.2,0.3c0,0.1,0,0.2,0,0.4l-0.5,6.3c-0.2,1.3-0.8,2.5-1.7,3.5
				c-0.8,1.1-1.5,2.2-2.2,3.3s-0.4,1.7,0,1.6c0.5-0.1,1-0.3,1.3-0.7c1.6-1.9,3.4-3.7,5.4-5.3c0.6-0.7,1.5-1.1,2.5-1.1
				c3.4-0.1,6.8-0.6,10.2-1.3c0.4-0.1,0.8,0.2,0.9,0.5c0,0.1,0,0.3,0,0.4C162.8,448.9,162.2,451.2,161.7,453.4L161.7,453.4z
				 M106.7,423.1h-0.4c-1.4,0.1-1.9-0.4-1.8-1.9l0.8-11.1c0.4-9.6,2.1-19.2,5.2-28.3c0.2-1.3,1.3-2.4,2.6-2.6c1.8-0.4,3.5-1,5.3-1.5
				c2.4-0.7,4.8-1.5,7.2-2.1c0.3-0.1,0.5,0,0.7,0.2c0.1,0.2,0.1,0.5-0.1,0.6c-1.1,1.6-2.3,3.2-3.6,4.7c-3,3.4-5.4,7.2-7.2,11.3
				c-1.3,3-2.3,6.2-3.1,9.4c-0.1,0.6,0,1.3,0.1,1.9c0,0.1,0.1,0.2,0.2,0.3h0.6c1.3-2.3,2.6-4.6,3.8-7c1.3-2.6,3-5,4.9-7.2
				c1.8-2.2,3.6-4.5,5.5-6.7c1.5-1.7,3.1-3.3,4.5-5c1.9-2.2,3.7-4.4,5.6-6.6c0.5-0.6,1-1.2,1.7-1.6c3.6-1.6,7.1-3.4,10.5-5.5l0.6,0
				c0.1,0.2,0.1,0.5-0.1,0.7c-1.6,3.5-3.7,6.7-6.1,9.6c-4.4,5.1-8.3,10.6-11.8,16.4c-1.4,2.2-2.8,4.4-4.3,6.6
				c-1.6,2.3-2.7,4.8-3.4,7.5c0,0.2,0.2,0.4,0.3,0.6s0.3,0,0.4,0c0.3-0.2,0.7-0.5,0.9-0.8c0.4-0.5,0.8-1,1.1-1.6
				c1-1.5,2-3.1,3.2-4.6c0.3-0.6,0.7-1.1,1.2-1.5c3.1-2.4,5.8-5.4,7.8-8.8c2.3-3.2,5.1-6.1,8.1-8.6c0.9-0.8,1.7-1.6,2.6-2.4
				c0.2-0.2,0.4-0.3,0.6-0.4c0,0.2,0.3,0.5,0.3,0.7c-0.2,2.8-0.7,5.6-1.1,8.6c-1.1,4.9-1.8,9.9-2.1,14.9c-0.1,0.9-0.1,1.9,0,2.9
				c0.2,1.3,1.3,2.3,2.7,2.3c0.6,0,1.3-0.1,2-0.1s0.7,0.6,0.7,0.7c-0.6,2.1-1.4,4.3-2.1,6.4c-0.3,0.7-1,1.3-1.8,1.4
				c-1.7,0.7-3.5,1.2-5.3,1.6c-3.7,0.9-7.5,1.5-11.3,1.8c-1.1,0-2.1,0.2-3.1,0.5c-2.9,0.9-5.9,1.6-8.9,1.9
				C116.3,421.8,111.6,422.8,106.7,423.1L106.7,423.1z M108.5,446.3c-0.2,0.8-0.8,1.4-1.7,1.5c-2.6,0.5-5.1,1.3-7.7,1.6
				c-3,0.4-6,0.6-9,0.6c-2.1,0-4.2-0.3-6.3-0.5c-3.5-0.4-7.1-0.5-10.6-0.1c-1.2,0.1-2.4,0-3.5-0.3c-0.7,0-1.7,0.9-2.1-0.1
				s0.1-1.5,0.3-2.3l3.8-15.8c1.2-4.3,2.7-8.5,4.5-12.6c0.3-0.6,0.7-1.1,1.3-1.3c3.6-0.9,7.2-1.7,10.8-2.5h0.3v0.7
				c-0.3,0.4-0.7,0.8-1.1,1.2c-4.2,4.9-7.8,10.3-10.8,16c0,0-0.2,0.3,0,0.4s0,0.7,0.1,1.1c0.2-0.1,0.5-0.2,0.7-0.3
				c0.3-0.3,0.5-0.6,0.8-0.9c0.7-0.9,1.4-1.9,2.1-2.9c2.5-3.9,5.6-7.4,9.3-10.3c2.4-2.1,4.7-4.2,7.2-6.2c0.2-0.1,0.5-0.2,0.7-0.1
				c0.2,0.1,0.4,0.3,0.4,0.6L97.1,425c-0.1,0.8-0.5,1.5-1,2.1c-2.3,2.9-4.6,5.8-6.9,8.7c-1.9,2.4-3.7,4.8-5.6,7.2
				c-0.3,0.4-0.5,0.9-0.6,1.4c0,0.3,0,0.5,0.2,0.7c0.2,0.1,0.5,0.1,0.7,0c1.1-0.8,2.1-1.6,3-2.6c2.1-2.3,4.5-4.5,6.9-6.5
				c1.6-1.4,3.1-2.9,4.6-4.4c0.7-0.8,1.7-1.3,2.8-1.3l6.7,0c0.4,0.1,0.7,0.5,0.6,0.9c0,0.1-0.1,0.2-0.1,0.2c-1.3,2-3,3.8-4.9,5.3
				c-1.5,1.2-2.6,2.9-3.2,4.8c0,0.2,0,0.6,0.2,0.7c0.3,0.2,0.7,0.2,1,0.1c0.6-0.5,1.2-1,1.7-1.6c1.6-1.4,3.4-2.6,5.4-3.4
				c0.4-0.2,0.8,0,1,0.4c0,0,0,0,0,0c0.1,0.1,0.1,0.3,0.1,0.4C109.2,440.9,108.9,443.6,108.5,446.3L108.5,446.3z M67,410.2
				c-1.4-0.3-1.8-0.8-1.6-2.1c0.4-2.6,1.1-5.1,1.9-7.6c0.9-2.6,1.6-5.3,2.4-7.9s1.5-4.8,2.4-7.1c1.7-4.6,3.5-9.1,5.1-13.8
				c0.4-1.2,1.3-2.2,2.6-2.6l5.3-1.6c0.4,1.9,0.3,3.9-0.4,5.6c-0.5,2.1-0.6,4.2-0.2,6.3c0.2,1.1-0.1,2.2-0.9,2.9
				c-1.1,1.1-2.1,2.3-3.1,3.5c-2.7,2.9-4.7,6.4-6.1,10.1c0,0.1,0.1,0.3,0.2,0.3h0.4c0.4-0.3,0.8-0.6,1.2-1c2.8-3.1,5.8-6,9-8.7
				c1.6-1.4,3.7-2.2,5.8-2.2c1.3,0,2.6-0.1,3.9-0.2c1.8-0.1,3.6-0.6,5.3-1.4c0,0,0.6,0.3,0.5,0.4c-0.7,2.8-2.3,5.4-4.7,7.1
				c-3.3,2.4-6.6,4.8-10,7.1c-1.5,1-3.2,1.9-4.8,2.8c-1.1,0.5-2,1.3-2.6,2.3v0.3c0.1,0.1,0.2,0.2,0.3,0.2c0.2,0.1,0.5,0.1,0.8,0.1
				c3-1.5,5.7-2.8,8.4-4.4c1.8-1.1,3.8-2,5.9-2.4c0.8-0.1,1.5-0.5,2-1.1c0.7-0.9,1.7-1.7,2.8-2.2c0.5-0.2,1.1,0,1.3,0.5
				c0,0.1,0.1,0.2,0.1,0.4v0.4l-0.1,1.4c-0.4,2.6-0.8,5.1-1.1,7.6c-0.1,0.8-0.6,1.5-1.4,1.7c-2.5,0.8-5,1.8-7.5,2.5
				s-4.8,1.3-7.3,1.9c-0.8,0.2-1.6,0.3-2.3,0.3c-2.6-0.1-5.3,0.1-7.8,0.7C70.6,410.5,68.8,410.5,67,410.2z M74.3,364.7v-0.4
				c4-8.5,8.7-16.6,14.1-24.2c0.7-0.9,1.4-1.8,2.2-2.7c2-2.2,3.8-4.5,5.3-7.1c0.5-0.8,1-1.5,1.7-2.2c0.6-0.5,1.5-0.7,2.2-0.3
				c0.3,0,0.5,0.6,0.8,0.9c-0.5,1.1-1.1,2.1-1.7,3.1c-1.3,2.1-2.4,4.5-3.2,6.9c-0.8,2.1-1.7,4.2-2.5,6.2c-1.2,2.9-2.4,5.8-3.5,8.8
				c-0.5,1.5-0.8,3.1-1.2,4.6c-0.3,1.7-1.5,3.1-3.1,3.7c-3.1,1.1-6.2,2.2-9.3,3.3c-0.4,0.1-0.8,0.1-1.1,0.1
				c-0.3,0.1-0.7-0.2-0.7-0.5C74.2,364.9,74.2,364.8,74.3,364.7L74.3,364.7z M74.6,339.8c-0.7,0-1.3,0-1.9-0.1
				c-0.5-0.1-0.9-0.6-0.9-1.1c0,0,0,0,0,0c0.1-0.3,0.1-0.5,0.2-0.8c3.1-8.4,7.7-16.2,13.6-23c4.1-4.5,7.9-9.3,11.8-13.9
				c0.4-0.5,0.9-1,1.4-1.4c0.1-0.1,0.2-0.1,0.4-0.1c0.2,0.1,0.3,0.3,0.4,0.6c0.1,0.4,0.1,0.8,0.1,1.2c0,1.2-0.4,2.3-1.2,3.3
				c-2.7,3.6-5.2,7.3-7.8,10.9c-0.2,0.3-0.4,0.6-0.6,1c-0.6,1.7-1.6,3.4-2.7,4.9c-0.3,0.4-0.6,0.9-0.7,1.4c-0.5,1.4,0.3,2.8,1.6,3.3
				l0.3,0.1l3.2,0.2c0.5,0,0.9,0.4,0.9,0.9c0,0.2-0.1,0.4-0.2,0.6c-0.5,0.8-1,1.6-1.5,2.3c-2.1,2.7-4.2,5.4-6.3,8
				c-0.5,0.6-1.2,1.1-2,1.2C79.8,339.4,77.2,339.6,74.6,339.8L74.6,339.8z M105.9,304.7c1.7-2.1,3.5-4,5.5-5.7
				c5.3-4.6,10.8-8.9,16.6-12.8c4.1-2.7,8.6-4.7,12.8-7.2c1.5-0.7,3.2-0.8,4.8-0.5c0.9,0.2,1.7,0.4,2.5,0.7c0.1,0,0.3,0.5,0.2,0.6
				c-0.3,0.3-0.6,0.5-0.9,0.7c-3,1.8-5.9,3.5-8.9,5.3s-5.3,3.5-7.8,5.4c-2.1,1.5-4.2,3.2-6.1,5c-1.9,1.8-3.1,3-4.5,4.4l-3.6,3.6
				c-1.1,1-1.7,2.4-1.6,3.9c0.1,0.2,0.3,0.3,0.5,0.4c0.6-0.3,1.1-0.7,1.6-1.1c5.1-4.3,10.6-8.3,16.4-11.8c1.5-0.8,3.1-1.5,4.7-2.1
				c1.5-0.6,2.9-1.1,4.4-1.9c3.7-2,7.6-3.7,11.4-5.5c2.9-1.3,6-2,9.1-2.1c0.4,0.1,0.7,0.2,1,0.5c-0.1,0.2-0.3,0.5-0.5,0.6l-5.3,4
				c-3.5,2.4-6.5,5.4-9.1,8.8c-0.5,0.9-1.4,1.6-2.5,1.8c-2.3,0.6-4.5,1.6-6.4,3c-1.9,1.2-3.9,2.3-5.9,3.1c-2.2,0.8-4.2,2.2-5.8,4
				c-1,1.2-2.2,2.3-3.3,3.4c0,0.1,0,0.3,0,0.4c0,0.4,0.2,0.4,0.6,0.2c1.3-0.7,2.5-1.4,3.7-2.2c2.3-1.5,4.8-2.7,7.5-3.5l5.8-2.2
				c0.2,0,0.5,0,0.6,0.2c0.1,0.2,0.1,0.5,0,0.7c-1.9,3.4-3.8,6.8-5.7,10.1c-0.4,0.6-1,0.9-1.7,0.9c-4.6,0.9-9.3,1.9-14,2.7
				c-3.3,0.7-6.8,1.1-10.2,1c-0.7,0-1.3,0.1-2,0.3c-1.8,0.3-3.7,0.3-5.5,0c-2-0.3-3.9-0.4-5.9-0.5c-0.9,0-1.9-0.1-2.8-0.2
				c-0.6,0-1.1-0.5-1.1-1.1c0-0.2,0.1-0.4,0.2-0.6c0.7-1.1,1.4-2.3,2.2-3.3C100,312.4,102.8,308.5,105.9,304.7L105.9,304.7z
				 M108.7,288.3c1.4-2.7,3-5.3,4.4-8c2.1-3.9,4.9-7.5,8.2-10.5c2.5-2.4,5.1-4.6,7.7-6.8c2-1.7,4.3-3.1,6.8-4.1
				c3.5-1.4,6.8-3,10-4.9c1.3-0.7,2.6-1.3,3.9-1.9c0.2-0.1,0.5-0.1,0.7,0c0,0,0.1,0.5,0,0.6c-3.4,3.3-6.4,7-8.9,11
				c-2.1,3-4,6.2-5.9,9.3c-0.6,1-1.5,1.8-2.7,2.2c-5.1,1.8-9.8,4.6-13.9,8.2l-10.9,9.4c-0.4,0.3-0.8,0.6-1.2,0.9c-0.1,0-0.3,0-0.4,0
				c0,0-0.2-0.2-0.1-0.3C107.1,291.6,107.8,289.9,108.7,288.3L108.7,288.3z M160.6,255.7c4.3-3.3,8.9-6.2,13.7-8.6
				c5.6-2.7,11.6-4.4,17.7-5.3c5.4-0.3,10.8,0.5,16,2.2c2.8,1.1,5.5,1.8,8.3,2.8c2.8,0.9,5.5,2,8.1,3.3c4.3,2.2,8.7,4.3,13,6.7
				c3.8,2.1,7.8,3.9,11.7,5.8c1.8,0.8,3.5,1.8,4.9,3.2c0.3,0.4,0.6,0.8,0.9,1.3c0,0.1,0,0.3,0,0.4c-0.1,0.1-0.2,0.2-0.3,0.2
				c-0.4,0-0.8,0-1.2-0.1c-4-1.4-8-2.7-12-4.2c-2.4-1-5-1.6-7.7-1.8c-0.8,0-1.6,0-2.4-0.2c-3.8-1-7.8-1.5-11.7-1.7
				c-2.6-0.2-5.2-0.6-7.8-1.1c-5-1.2-10.3-1-15.3,0.5c-1.9,0.5-3.8,0.8-5.8,1c-0.1,0-0.3,0.1-0.4,0.2c0.1,0.2,0.3,0.4,0.5,0.6
				c1.1,0.7,2.5,1,3.8,0.7c1.1-0.1,2.1-0.2,3.1-0.4c2.8-0.5,5.7-0.6,8.5-0.1c1,0.1,1.9,0.3,2.8,0.6c4.7,1.7,9.6,2.7,14.6,3.2
				c3,0.4,5.9,1.3,8.9,1.8c4.3,0.8,8.4,2.1,12.4,3.8c1.3,0.6,2.8,1,4.1,1.5c0.3,0,0.5,0.6,0.7,0.9c-0.2,0.1-0.5,0.2-0.7,0.3
				c-3.4,0.7-6.8,0.7-10.2,0.1c-3.9-0.6-7.9-0.6-11.8-0.1c-2,0.2-4,0-5.9-0.7c-1.9-0.6-3.9-0.8-5.9-0.6c-0.5,0.1-1,0.1-1.6,0.1
				c-6.6-0.1-13.2-0.3-19.8-0.5c-3.6-0.2-7.1,0-10.6,0.8c-0.1,0.2-0.2,0.4-0.3,0.5c0,0.2,0.1,0.2,0.2,0.3c0.2,0.2,0.4,0.3,0.6,0.4
				c0.4,0.1,0.8,0.1,1.2,0.1c4.3,0.3,8.7,0.8,12.9,1.6c3.4,0.5,6.8,0.7,10.3,0.8v0.1l4.7,0.4c3.4,0,6.9,0.5,10.1,1.6
				c2.6,0.9,5.2,1.7,7.9,2.6c0.4,0.2,0.6,0.7,0.4,1.1c0,0,0,0,0,0c0,0.1,0,0.1-0.1,0.1c-0.3,0.3-0.6,0.5-0.9,0.8
				c-2.5,2.8-6.2,4.3-9.9,4c-2.3,0.1-4.5,0-6.7,0c-3.2-0.1-6.3-0.5-9.4-1.4c-1.8-0.4-3.6-1-5.3-1.7c-1-0.6-2-1.2-3.1-1.7
				c-0.9-0.2-2.1,0.3-3.1,0.3c-1-0.1-2.1-0.3-3.1-0.7c-5.2-1.6-10.4-3.1-15.3-5.2c-4.4-1.9-9.1-3-13.8-3.1l-7.9-0.6
				c-2.6,0-5.3,0.2-7.8,0.7c-0.9,0.2-1.8,0.2-2.7-0.2c-0.2-0.1-0.3-0.4-0.3-0.6c0.1-0.4,0.2-0.7,0.5-1c1.2-1.4,2.4-2.8,3.8-4
				C151,263.7,155.6,259.5,160.6,255.7L160.6,255.7z M152.6,326.4c0.5,0.3,0.9-0.1,1.2-0.6l0.2-0.3l0.8-0.9
				c4.6-5.7,9.5-11,14.9-15.9c2-2,4.3-3.9,6.6-5.6c1.2-0.8,2.3-1.8,3.4-2.8c3.7-3.4,7.6-6.5,11.8-9.3l0.6-0.4c2-1.6,4.6-2.2,7.1-1.6
				c2.8,0.7,5.4,1.1,8.1,1.6c0,0,0.3,0.2,0.3,0.2s0,0.6-0.3,0.7c-3,2.1-6,4.2-9.2,6.1c-7.4,4.6-14,10.4-19.6,17.1
				c-1.8,2.1-3.6,4.2-5.4,6.3c-0.8,0.9-1.5,1.9-2.2,2.7c-0.1,0.2-0.2,0.5-0.1,0.7c0.2,0.2,0.4,0.3,0.6,0.2c1.9-1,3.6-2.2,5.1-3.7
				c1.7-1.7,3.5-3.2,5.5-4.5c2-1.3,3.9-2.8,5.8-4.2c7.5-5.3,15.5-10,23.8-14c2.5-1.1,5.1-2.1,7.8-2.9c0.2,0,0.5,0,0.7,0.2
				c0.2,0.2,0.2,0.5,0.2,0.7c-1.1,2.4-1.8,5-2.1,7.6c-0.1,0.8-0.6,1.5-1.3,1.8c-2.7,1.6-5.4,3.3-8.2,4.8c-3.7,1.8-7.2,3.9-10.5,6.3
				c-1.7,1.3-3.2,2.8-4.4,4.5v0.3c0.2,0.2,0.4,0.3,0.6,0.4c0.4,0.1,0.8,0,1.2-0.1c1.3-0.9,2.9-1.3,4.5-1c1.2,0.1,2.2-0.8,3.2-1.4
				c3.8-2.4,7.9-4.3,12.2-5.4c0.4-0.2,0.7-0.3,1.1-0.3c0.3,0,0.8,0.4,0.8,0.7c0.1,0.9,0,1.9-0.2,2.8c-0.6,2.8-1.4,5.6-2,8.4
				c-0.1,1.1-0.9,2-1.9,2.3c-1.4,0.5-2.7,1.2-4,1.7s-3.3,1-4.9,1.7c-4.8,1.8-9.9,2.9-15,3.1c-4.2,0.3-8.4,1-12.5,2.1
				c-4,1-8,1.5-12.1,1.5l-3.8-0.3c-1.5-0.3-3-0.5-4.5-0.3c-6.3-0.3-12.6-0.7-18.9-1.1c-0.5,0-0.9-0.3-0.9-0.8c0-0.2,0-0.4,0.1-0.5
				c2.6-4.9,5.2-9.8,7.9-14.6c0.6-1,1.3-2,1.9-3l5.2-8.4c0.7-1.1,1.3-2.3,2-3.4c2.3-2.9,4.6-5.7,7-8.6c1.6-1.9,3.4-3.7,5.5-5.1
				c2.4-1.7,4.7-3.4,7-5.2c0.9-0.8,2.1-1.1,3.3-0.9l8.6,1.5c0.2,0,0.6,0.3,0.6,0.4c-0.1,0.4-0.2,0.7-0.5,1c-2.4,1.8-4.9,3.5-7.3,5.4
				c-6.4,4.7-11.9,10.5-16.4,17c-0.7,0.9-1.4,1.8-2.2,2.7c-1.6,2-3.1,3.9-4.8,5.8c-1.2,1.6-2.1,3.4-2.4,5.4
				C152.1,325.4,152.2,326,152.6,326.4L152.6,326.4z M102.9,360.2c0,0.1,0,0.2,0,0.4h0.3c0.2-0.2,0.3-0.4,0.5-0.6
				c2-2.9,4-5.9,6.1-8.8c1.6-2.4,3.5-4.6,5.7-6.5c3.3-2.9,6.5-5.8,9.8-8.6c1.6-1.2,3.2-2.3,4.9-3.4c0.2-0.1,0.5-0.1,0.7,0.1
				c0.2,0.2,0.3,0.4,0.3,0.6c0,0.5-0.1,0.9-0.3,1.4c-0.1,1.5-0.6,3-1.4,4.3c-0.6,1.1-0.2,2.5,0.9,3.1c0,0,0,0,0,0
				c0.1,0.1,0.2,0.1,0.3,0.1c1.7,1,3.6,1.4,5.6,1.2c0.3,0,0.5,0,0.8,0.1c1.5,0.1,3.1-0.6,4.4,0.8c-0.4,1.6-1.8,2.2-2.9,3.2
				c-4.7,4-9.7,7.5-15,10.5c-1.8,1.1-3.6,2.2-5.4,3.3s-2.2,1.5-1.7,1.7c1,0.3,1.8-0.4,2.6-0.7s2.4-1.1,3.6-1.6
				c1.1-0.7,2.5-1,3.8-0.8c0.2,0.1,0.5,0.1,0.8,0.1c2.7-1,5.3-2.3,7.7-3.9c3.9-3.3,7.9-6.6,11.9-9.9c0.8-0.7,1.9-1,2.9-0.7
				c1.9,0.4,3.9,0.7,5.8,0.9l5.1,0.6l0.3-0.2c0,0.2-0.2,0.4-0.3,0.4c-1.7,0.5-3.2,1.3-4.5,2.5c-5.1,3.7-10.3,7.4-15.6,10.9
				c-2.2,1.4-4.5,2.6-7,3.5c-6,2.4-12.1,4.5-18.3,6.3c-4.6,1.3-9,3-13.6,4.3c-2.9,0.8-6,1.2-8.9,1.8c-1,0.2-1.3-0.5-1.2-1.5
				c0.6-3.8,1.5-7.5,2.7-11.2c1.1-3.5,2-7,2.6-10.6c0.3-1.8,0.9-3.6,1.7-5.3c2.4-5.5,4.9-10.8,7.3-16.2c0.4-0.8,0.9-1.6,1.3-2.4
				c0.4-0.6,1-0.9,1.6-0.9l15-1.1c0.3,0,0.5,0.1,0.7,0.3v0.6c-3,4-6.3,7.8-9.9,11.4c-5.2,5.6-9.2,12.3-11.6,19.6
				C103,359.5,102.9,359.8,102.9,360.2L102.9,360.2z M167.2,406h5.1c0.2,0,0.5,0.1,0.6,0.4c0.1,0.2,0.1,0.5-0.1,0.7
				c-0.9,1.3-1.8,2.7-2.7,3.9c-1.6,2.2-2.9,4.7-4,7.2l-0.1,0.7c0,0.2,0.5,0,0.7-0.1c3.1-2.5,6-5.2,8.7-8.1c0.6-0.7,1.3-1.4,1.8-2.1
				c1.9-2.7,4.8-4.6,8.1-5.1c0.8-0.1,1.5-0.4,2.3-0.6c0.4-0.1,0.7-0.1,1.1,0.1c0.2,0,0.2,0.8-0.1,1c-1.7,3.3-3.8,6.4-6.2,9.1
				c-2.9,3.3-5.4,6.8-7.5,10.6c-0.5,0.9-0.8,1.8-1.1,2.8c0,0.3,0.1,0.5,0.3,0.7c0.2,0.1,0.4,0.2,0.6,0.1c0.9-0.8,1.7-1.7,2.5-2.6
				c2.8-3.5,5.9-6.7,9.3-9.7c2-1.7,3.7-3.7,5.1-6c0.2-0.3,0.5-0.5,0.8-0.6c0.1,0.4,0.2,0.7,0.2,1.1l-0.2,3.2
				c-0.3,3.8-0.3,7.6-0.2,11.4c0.1,3.6-0.1,3.6-3.4,4.7c-2.1,0.7-4.2,1.5-6.3,2.4c-2.9,1-5.6,2.2-8.5,3.1c-4,1.3-8.1,2.4-12.2,3.5
				c-1.8,0.5-3.6,0.9-5.4,1.1c-0.9,0.1-1.7-0.5-1.8-1.4c0,0,0,0,0,0c0-0.1,0-0.1,0-0.2c0.2-1.6,0.4-3.1,0.8-4.7
				c0.3-1.5,0.6-2.6,0.8-3.9c0.7-5.7,1.8-11.3,3.3-16.8c0.4-1.5,0.6-3.1,0.9-4.7c0.1-0.8,0.8-1.4,1.7-1.4h5.1L167.2,406z M196,381.3
				c0.1,0,0.2,0,0.3,0c1.5-0.5,2.9-1.3,4.1-2.3c3-2.2,6-4.3,9-6.5c0.5-0.5,1.2-0.6,1.8-0.3c0.1,0,0.3,0.4,0.2,0.7
				c-0.1,1.1-0.2,2.1-0.4,3.1c-0.4,2.3-0.9,4.6-1.3,7c-0.1,1.1-0.8,2-1.8,2.4c-4.1,1.7-8.2,3.6-12.4,5.2c-2.3,0.7-4.6,1.2-6.9,1.5
				c-4.8,0.8-9.5,2.1-14.3,3.2c-4.5,1.2-9.1,1.6-13.7,1.4c-4.1-0.3-4.3-0.3-3.4-4.4l2-8.9c0.5-2.4,1-4.9,1.6-7.3
				c0.4-1.8,1.1-3.5,1.7-5.3c0.9-2.5,1.9-5,2.6-7.5c1.8-5.3,3.8-10.4,6-15.5c0.5-1.3,1.6-2.2,3-2.3c3.6-0.8,7.2-1.7,10.8-2.5
				c0.3,0,0.5,0,0.7,0.2c0.1,0.2,0,0.5-0.1,0.7c-0.1,0.2-0.2,0.5-0.4,0.7c-2.1,3.2-4.1,6.5-6.1,9.7c-2.9,4.9-5.2,10.1-6.9,15.5
				c-0.8,2.5-1.7,5-2.6,7.5c-0.6,1.8-0.9,3.6-0.8,5.5c0,0.1,0,0.2,0,0.4c0.2-0.1,0.3-0.2,0.4-0.3c2.1-4.2,4.3-8.5,6.5-12.7
				c1.2-2.3,2.5-4.6,4-6.8c3.5-5.4,7.5-10.5,11.9-15.3c1.3-1.3,2.6-2.6,3.9-3.9c0.9-0.8,1.8-1.7,2.5-2.6c1-1.4,2.5-2.4,4.2-2.8
				c2.9-0.9,5.8-2,8.6-3c0.2,0,0.5,0,0.7,0c0.1,0.4,0.2,0.7,0.2,1.1c0,0.3-0.1,0.5-0.3,0.7c-0.7,1.5-1.6,3-2.5,4.5
				c-2,3-4.1,5.8-6.2,8.7c-0.4,0.5-0.9,1-1.4,1.4c-5.9,5.6-11.2,11.9-15.8,18.7c-2.2,3-3.9,6.3-5,9.8c-0.2,0.6-1.1,1.3-0.2,2.1
				c0.5-0.3,1.1-0.7,1.6-1c0.5-0.5,0.9-1,1.3-1.5c3.1-4.3,6.7-8.2,10.6-11.7c3.1-2.9,6-6,9.2-8.9c1.4-1.3,2.9-2.6,4.5-3.8
				c0.8-0.6,1.9-0.9,2.9-0.9c1.6,0.1,3.2,0,4.7,0c0.9,0.1,1.3,0.4,1,1.2c-0.6,2.1-1.9,4-3.6,5.4c-3.5,2.8-6.8,5.9-9.7,9.3
				c-2.4,2.4-4.5,5.1-6.3,8c-0.3,0.4-0.5,0.9-0.7,1.4C195.8,380.8,195.8,381.1,196,381.3z M258.8,280.5c0.3,1.6,0.6,3.1,0.8,4.6
				c-0.1,0.2-0.3,0.4-0.5,0.5c-0.9,0.2-2-0.1-2.7,0.4c-3.5,1.5-6.9,3.3-10.1,5.3c-1.5,1.3-2.9,2.7-4.2,4.1
				c-3.3,3.4-6.1,7.3-8.2,11.5c-0.4,0.8-0.8,1.7-1,2.5c-0.7,2.8-1.4,5.4-1.9,8.1c-0.2,1.3-0.3,2.6-0.3,3.9c0,0.1,0,0.3,0.1,0.4
				c0.2,0.1,0.2-0.1,0.3-0.2c0.6-1,1.1-2.1,1.6-3.2c2-4.4,4.6-8.6,7.6-12.5c0.7-1,1.5-1.8,2.4-2.7c4.4-4.2,9.5-7.7,15-10.2
				c0.9-0.4,1.6-0.1,1.7,0.8s0.1,1.8,0.3,2.9c0.2,1-0.1,2-0.8,2.8c-3.8,4.4-7,9.2-9.6,14.5c-0.6,1-1.1,2.1-1.8,3.1
				c-2.2,3.3-4.1,6.8-5.6,10.4c-1.1,2.1-2.3,4.1-3.7,6c-1.2,1.4-2,3.1-2.3,4.9c0,0.2,0.2,0.4,0.4,0.6c0.1,0,0.2,0,0.3,0
				c0.5-0.4,1-0.8,1.5-1.3c1.5-1.6,2.8-3.1,4.3-4.7c0.7-0.8,1.4-1.6,2.1-2.3c3.6-3.5,6.9-7.3,9.6-11.5c2.2-3.3,4.2-6.7,6-10.2
				c0.4-0.7,0.6-1.5,1-2.2c0.2-0.3,0.4-0.6,0.8-0.7c0.3,0.1,0.6,0.3,0.9,0.5c0.6,0.8,1.1,1.8,1.8,2.6c0.5,0.6,1,1.2,1.6,1.7
				c1.1,0.9,2.6,0.7,3.5-0.3c0,0,0,0,0,0c0.2-0.2,0.3-0.4,0.4-0.7c0-0.3,0-0.5,0.1-0.8c1-4.4,3.1-8.5,6-11.9c0-0.2,0.5-0.4,0.6-0.3
				c0.3,0.2,0.6,0.4,0.7,0.8c0.5,1.5,0.7,3.1,0.6,4.7l-0.2,3c0,3.7-0.6,7.5-1.8,11c-0.2,0.6-0.5,1.2-0.9,1.7
				c-6,8.7-13.2,16.5-21.4,23.2c-3.3,2.6-7.3,4.4-11.5,5c-2.1,0.4-4.1,0.7-6.2,1.1c-3.8,0.7-7.6,1-11.4,0.8c-2.6-0.2-5.3-0.2-7.9,0
				c-1.3,0-2.6-0.1-3.9-0.3c-0.4-0.1-0.7-0.5-0.7-0.9c0,0,0,0,0,0c0-0.1,0.1-0.2,0.1-0.3c0.2-0.3,0.4-0.7,0.6-1
				c0.7-0.9,1.3-2,2.1-2.9c1.8-2.2,3.1-4.7,3.8-7.4c0.5-2.2,1.1-4.3,1.9-6.4c0.1-0.2,0.1-0.5,0.1-0.8c-0.1-3.2,0.4-6.3,1.5-9.3
				c0.3-1,0.3-2.1,0.5-3.1c0.3-1.5,0.7-3.1,0.9-4.6c1-5,2.9-9.9,5.5-14.3c0.6-1.2,1.3-2.3,2.1-3.4c0.5-0.8,1.2-1.4,1.7-2.2
				c4.7-6.1,11.6-10.2,19.2-11.4c0.6-0.2,1.3-0.3,2-0.3C255.8,279.6,257.4,279.8,258.8,280.5L258.8,280.5z M324.5,71.3l-6.8-4.8
				c-1.7-1.1-3.5-2.1-5.5-2.7c-1.8-0.6-3.6-1.4-5.3-2.2c-3.3-1.5-6.7-2.6-10.2-3.5c-3.4-1-6.8-2.3-10-3.9c-0.3-0.1-0.7-0.2-1-0.3
				c-0.1,0-0.2,0.1-0.3,0.1c0,0-0.1,0.3,0,0.3c0.5,1,1.1,1.9,1.8,2.8c2.7,3.4,5.1,7,7,10.9c1.6,2.5,3,5.1,4.2,7.9
				c0.1,0.2,0.3,0.4,0.4,0.6c3.5,5.8,7.4,11.3,11.5,16.7c0.8,0.9,1.5,2,1.9,3.1c0.5,1.1,1.2,2.1,2.2,2.9c2,1.7,3.9,3.7,5.6,5.7
				c0.4,0.5,0.8,0.9,1.3,1.3c2.7,2.3,5.2,4.7,7.7,7.2c2.8,2.6,6.1,4.7,9.7,6.2c3.8,2.1,7.8,3.8,11.9,5.2c1.4,0.5,2.7,1.1,3.9,1.8
				c0.2,0,0.4,0,0.6,0c0-0.2,0-0.5-0.1-0.7c-0.2-0.3-0.4-0.5-0.6-0.8l-7.3-11.7c-1-1.6-2-3.1-2.9-4.8c-0.6-0.9-1.4-1.7-2.3-2.2
				c-5-2.9-9.7-6.2-14-10c-2.2-2-4.2-3.6-6.4-5.4c-0.9-0.8-1.6-1.7-2.4-2.7c-1.8-2.1-3.5-4.1-5.1-6.3c-3.5-4.6-7.4-8.8-11.2-13.1
				l-0.2-0.6c-0.1-0.2,0.4-0.2,0.6,0c4.4,2.6,8.4,5.7,12.1,9.3c2.6,2.4,5,5.1,7.2,7.8c0.3,0.4,0.6,0.7,1,1L335,96
				c0.1,0.2,0.4,0,0.6,0.1s0.2-0.5,0.1-0.7c-0.5-1.4-1.2-2.7-1.9-4c-2.4-3.9-4-8.1-4.8-12.6c0-0.1-0.1-0.2-0.1-0.3
				C328,73.8,328,73.8,324.5,71.3L324.5,71.3z M273,58.2c-5.2-2.5-10.4-5-15.4-7.6c-2.1-1.3-4-2.8-5.7-4.5c-1.4-1.2-2.6-2.5-3.9-3.8
				c-0.1-0.2-0.4-0.1-0.6-0.2s-0.2,0.5-0.2,0.7c0.1,1.4,0.4,2.8,0.7,4.1c0.6,2,1.5,4,2.3,6c1.6,4.3,3.7,8.4,6.3,12.2
				c0.1,0.4,0.3,0.7,0.6,0.9c4.1,5.6,9.2,10.3,15.2,13.9c3.2,1.7,6.3,3.4,9.5,5.2c1.8,1,3.8,1.6,5.8,1.6c1.2,0,2.4,0.3,3.5,0.9
				c1.1,0.5,2.2,0.9,3.4,1.4c0.3,0.1,0.7,0.1,1,0c0.2-0.1,0.2-0.9-0.1-1.4c-2-3.1-4.6-5.7-7.6-7.8c-2.8-1.9-5.6-3.7-8.6-5.3
				c-3.5-1.9-6.7-4.3-9.6-7.1l-0.2-0.6c0.2-0.1,0.4-0.1,0.6-0.1c2.4,0.8,4.7,1.8,6.8,3.1c1.5,0.8,3,1.5,4.5,2.3
				c2.4,1.3,4.8,2.7,7.2,4c0.8,0.4,1.5,0.9,2.2,1.3c0.1,0,0.2,0,0.3-0.1c0,0,0.1-0.3,0.1-0.4c-1.2-3-2.3-6.1-3.6-9
				c-0.7-1.6-1.5-3.1-2.5-4.6c-1.5-0.6-3.2-1.1-4.7-1.8C277.8,60.2,275.3,59.2,273,58.2L273,58.2z M239.2,40.7
				c-3.8-2-7.7-4-11.6-5.8c-0.6-0.3-1.3-0.5-2-0.7c-0.8-0.1-1.6-0.3-2.4-0.5c-4.9-1.7-9.8-3.3-14.6-5c-1-0.4-2-1-2.8-1.6
				c-1.6-1-3.2-2.2-4.7-3.4c-1.6-1.5-3.1-3-4.6-4.6c-0.1-0.2-0.4-0.2-0.6-0.2s-0.2,0.5-0.1,0.7c0.4,1,0.8,2.1,1,3.2l0.2-0.1
				c0.4,1.6,0.7,3.2,1.2,4.7c0.7,3,1.6,6.1,2.6,9c1,2.3,2.1,4.5,3.4,6.6c1,1.7,1.8,3.5,2.9,5.2c2.6,3.9,5.6,7.4,8.9,10.6
				c3,2.8,6.4,5.2,10,7.2c1.6,0.8,3.3,1.4,5,1.6c1.9,0.2,3.8,0.8,5.5,1.6c1.7,0.9,3.6,1.3,5.5,1.4c3.2,0.2,6.4,0.9,9.5,1.9
				c0.5,0.2,1.1,0.8,1.5-0.1c0.1-0.3-0.2-1-0.5-1.3c-0.8-0.9-1.6-1.8-2.5-2.6c-1.6-1.5-3.1-3.2-4.3-5c-1.1-1.6-2.5-3-4.1-4
				c-2.8-1.9-5.7-3.6-8.7-5c-4.8-2.3-9.3-5-13.9-7.7c-3.3-2.2-5.9-5.3-7.5-8.8c0-0.2,0.1-0.4,0.1-0.6c0.1,0,0.2,0,0.3,0.1
				c1.5,1.3,3,2.5,4.5,3.8c1.7,1.4,3.5,2.6,5.6,3.4c3.5,1.3,6.9,2.9,10.3,4.6c0.5,0.3,1.1,0.6,1.6,0.8c3.2,1.1,6.2,2.6,9,4.5
				c0.9,0.5,2,1,3,1.3c0,0,0.6-0.6,0.5-0.7c-0.3-1-0.6-1.9-1.1-2.8c-1.4-2.1-2.3-4.5-2.7-7C242.4,43,241.1,41.3,239.2,40.7
				L239.2,40.7z M180.6,25c-0.7-0.4-1.4-0.9-2.2-1.3c-4.8-2.6-9.8-4.6-15-6c-4.5-1.1-8.9-2.7-13.1-4.7c-2-0.9-3.9-1.9-5.7-3.2
				c-0.1-0.2-0.5-0.2-0.6-0.1c-0.2,0.2-0.2,0.4-0.2,0.7c0.2,1,0.4,2,0.5,2.9c2.5,3.8,3.3,8.5,5.9,12.1c2.9,6,7,11.3,12,15.8
				c1.3,1.1,2.6,2.1,4,3.1c1.2,0.8,2.6,1.3,4,1.5c2.5,0.4,4.9,1.1,7.4,1.7c4.2,1,8.3,2.3,12.4,3.6c0.3,0.1,0.9,0.1,1-0.1
				c0.4-0.8-0.3-0.8-0.7-0.9c-3-2.4-6.1-4.6-9.5-6.4c-2.1-1.1-4.2-2.4-6.1-3.9c-4.7-3.5-9.1-7.3-13.3-11.3c-0.5-0.5-1-1-1.5-1.6
				c-0.1-0.1-0.1-0.2-0.1-0.3l0.2-0.1c0.2,0.1,0.4,0.2,0.6,0.3c3.3,2.3,6.7,4.3,10,6.5c4.1,3,8.5,5.5,13.1,7.5
				c1.9,0.7,3.7,1.7,5.3,3c1.3,1,2.8,1.8,4.2,2.7s3.2,2.1,4.9,3.1c0.2,0.1,0.5,0.1,0.7,0.1c-0.1-0.2,0.1-0.5,0-0.7
				c-1.2-2.4-2.2-4.7-3.5-7c-2.5-4.5-5.7-8.5-9.4-12C184.4,28.1,182.6,26.4,180.6,25L180.6,25z M121.1,14.3c-2.3-0.2-4.5-1-6.4-2.3
				c-0.7-0.5-1.8-0.5-2.8-0.6c-0.2,0-0.4,0.1-0.6,0.3c-0.2,0.1,0,0.5,0,0.7c0.1,0.2,0.1,0.4,0.2,0.6c0.1,0.4,0.4,0.8,0.6,1.1
				c2.4,2.6,3.9,6,6.2,8.7c0.9,1.2,1.7,2.4,2.3,3.8c0.8,1.8,1.9,3.4,3.4,4.8c1.5,1.4,3.1,2.7,4.8,3.9c3.2,2.6,6.6,4.9,10.2,6.8
				c2.3,1.2,4.8,2.1,7.4,2.5c0.7,0,1.4,0.2,2.1,0.5c2.2,1.1,4.9,0.9,6.9-0.5c0.4-0.2,0.6-0.7,0.4-1.1c0,0,0-0.1-0.1-0.1
				c-0.7-1.2-1.8-2.1-3-2.6c-1.8-0.8-3.4-1.6-5.3-2.3c-0.4-0.2-0.9-0.4-1.3-0.7c-4.6-3.1-9.2-6.2-13.8-9.3c-0.8-0.7-1.6-1.5-2.2-2.4
				c-0.3-0.4-0.4-0.9-0.4-1.4l0.8,0.9c0.5,0.4,0.9,0.8,1.5,1.1c2.8,1.4,5.5,2.8,8.3,4.2l5.2,2.5c0.3,0.1,0.7,0.2,1,0.2
				c0-0.5-0.1-0.9-0.2-1.4c-0.2-0.4-0.5-0.9-0.8-1.3c-1.1-1.9-2.3-3.8-3.3-5.8c-0.7-2.1-2.5-3.7-4.8-4.1c-0.6-0.1-1.1-0.4-1.6-0.8
				C131.4,17.4,126.3,15.4,121.1,14.3z M67.1,24.8c-0.6,0.1-1.2,0.2-1.8,0.4c-0.2,0.2-0.2,0.4-0.2,0.6c0.2,0.3,0.5,0.6,0.8,0.8
				c4.6,3.4,8.9,7,13.2,10.9c1.3,1.1,2.6,2.1,4,3c1.5,0.8,2.8,1.9,4,3.1c0.3,0.5,0.9,0.7,1.4,0.5c0,0,0.1,0,0.1-0.1
				c0.1-0.1,0.2-0.1,0.3-0.3c1.3-0.8,2.5-1.6,3.8-2.3c5.7-3,11.9-4.7,18.2-5c1,0,1.9,0,2.9,0.2c1,0.1,1.9,0.1,2.9,0.1l0.9-0.4
				c-0.1-0.2-0.3-0.3-0.5-0.5c-1.5-0.5-2.9-1-4.4-1.3c-3.5-0.8-7.1-1.3-10.8-1.5c-0.8,0-1.7-0.1-2.5-0.2c-1.8-0.3-3.6-0.4-5.4-0.3
				c-1.1,0-2.2-0.1-3.2-0.3L90.8,32c0.1-0.1,0.2-0.1,0.3-0.1c2.6-0.1,5.3-1,7.9-1c4.3-0.3,8.7-0.1,13,0.4c1.4,0.2,2.8,0.5,4.3,0.7
				l0.6-0.3c0-0.2-0.1-0.5-0.2-0.6c-0.4-0.6-0.9-1.2-1.4-1.7c-2.5-2.2-4.7-4.6-6.6-7.3c-0.6-0.8-1.6-1.2-2.5-1
				c-1.1,0.1-2.2,0.2-3.2,0.1c-2.1,0.1-4.1,0.1-6.2,0.4C86.8,22.8,76.9,23.8,67.1,24.8z M77.1,59.8c-1.3,1.2-2.7,2.3-3.9,3.5
				c-0.3,0.4-0.5,0.7-0.6,1.2c0.4,0,0.7-0.1,1.1-0.2c3.9-0.9,7.9-1.2,11.8-1c5.7,0.4,11.3,0.5,17,0.1c0.2,0,0.5,0,0.7,0
				c4.7,0.4,9.3-0.6,13.4-3.1c2.3-1.4,4.4-2.8,6.8-4c2.7-1.5,5.5-2.8,8.3-4.2l3-1.4c0.1-0.1,0.2-0.2,0.2-0.3l-0.1-0.3
				c-0.1,0-0.2,0-0.3,0c-5.7,0.2-11.4,0.8-17,1.6c-4,0.8-8.1,1-12.2,2.3c-2.2,0.7-4.5,1.2-6.7,1.7c-0.8,0.2-1.7,0.3-2.5,0.5
				c-0.2,0.1-0.3-0.1-0.5-0.2c0.1-0.1,0.2-0.1,0.3-0.2l4.8-2.2c0.9-0.4,1.9-0.5,2.8-1c3.8-1.6,7.6-2.8,11.6-3.8
				c4.3-1.2,8.8-2,13.3-2.3c1.8-0.2,3.6-0.3,5.4-0.6l0.6-0.3c0.2-0.1-0.3-0.7-0.5-0.8c-1.8-0.9-3.6-1.9-5.4-2.8
				c-1.6-0.6-3.3-0.9-4.9-0.7c-7.9,0.4-15.7,1.9-23.2,4.4c-1.6,0.6-3.3,1-4.9,1.7C88.8,50.8,82.6,54.9,77.1,59.8L77.1,59.8z
				 M121.1,65.4c-2.2,1.9-4.5,3.6-7,5c-0.8,0.6-1.6,1.2-2.3,2c0,0.1,0,0.2,0,0.3c0,0.1,0.1,0.2,0.1,0.3c0.2,0.1,0.5,0.2,0.7,0.2
				c0.5,0,0.9,0,1.4-0.1c6.6-0.8,13.3-0.8,19.9,0.1c4.5,0.3,8.9,0.1,13.3-0.7c2.8-0.4,5.5-1.4,7.9-2.9c2.9-1.9,5.7-4,8.5-6.1
				c0.3-0.2,0.6-0.5,0.8-0.8c0.1-0.1,0.1-0.2,0.1-0.3c-0.1-0.1-0.2-0.1-0.3-0.1c-0.1,0-0.2,0-0.4,0c-0.9,0.1-1.9,0.4-2.9,0.4
				c-5.6,0.4-11.1,1.5-16.4,3.2c-1.3,0.4-2.6,0.6-3.9,1c-0.1,0-0.2,0-0.3-0.1c0.1-0.1,0.2-0.2,0.3-0.3c0.2-0.1,0.4-0.2,0.6-0.3
				c6-3.2,12.4-5.5,19-6.8c0.4,0,0.7-0.1,1.1-0.2c3.4-1.3,7-2.1,10.7-2.3c2.6-0.4,5.1-1.5,7.3-3c0,0,0.2-0.3,0.2-0.3
				s-0.2-0.5-0.4-0.6c-1.3-0.5-2.5-0.8-3.8-1.2c-0.6-0.2-1.2-0.3-1.8-0.4c-1.4-0.1-2.8,0-4.3-0.2s-2.8-0.7-4.3-0.7
				c-2.3-0.1-4.6,0.1-6.8,0.5c-4.6,0.8-9.1,1.7-13.5,3s-8,2.9-12.1,4.5C128.7,60.3,124.7,62.7,121.1,65.4L121.1,65.4z M180.5,61.4
				c-3.6,3.1-7.3,6.1-11,9.2c-0.7,0.5-1.3,1.2-1.9,1.8c-3.4,3.9-7.2,7.5-11.3,10.6c-0.5,0.4-0.9,0.9-1.2,1.4c0,0.2,0.1,0.4,0.2,0.6
				c0.6,0.2,1.2,0.2,1.8,0.3c2.5-0.1,5,0,7.5,0.3c4.1,0.5,8.2,0.7,12.3,0.7c4.6-0.2,9.2-0.9,13.6-2c0.9-0.3,1.7-0.6,2.5-1l11.1-5.1
				c3.4-1.4,6.8-2.7,10.3-3.8c3.2-1.2,6.6-1.8,9.9-2.7c0.2-0.1,0.4-0.3,0.5-0.5c0-0.2-0.2-0.5-0.4-0.6c-1.2-0.7-2.6-1.1-4-1.1
				c-2.4-0.1-4.8-0.5-7.1-1c-2.3-0.5-4.8-0.6-7.1-0.1c-2.6,0.5-5.5,0.8-8.3,1.2c-2.7,0.3-5.3,0.9-7.8,1.9c-4.8,1.6-9.4,3.5-14,5.6
				c-0.3,0.2-0.7,0.3-1,0.5c-0.1,0-0.2,0-0.3-0.1c-0.1-0.2-0.1-0.5,0.1-0.7c0.4-0.7,0.9-1.2,1.5-1.7c2-1.7,4.3-3,6.8-3.7
				c0.9-0.2,1.7-0.6,2.4-1.1c2.1-1.5,4.5-2.6,7-3.3c1.6-0.4,3.1-0.9,4.6-1.4c3.6-1,7.3-1.8,11-2.3c0.2,0,0.4-0.1,0.6-0.3
				c0.4-0.5,0-0.7-0.3-0.9c-0.1-0.2-0.3-0.4-0.5-0.5c-1.7-1.5-3.4-3.1-5.2-4.6c-0.4-0.3-0.8-0.5-1.3-0.5c-0.8-0.2-1.7-0.2-2.5-0.1
				c-2.4,0.5-4.8,0.7-7.2,0.7c-2,0.1-4,0.7-5.7,1.7C183.9,59.1,182.1,60.2,180.5,61.4L180.5,61.4z M207.6,85.8
				c-5.2,4.2-10.3,8.4-15.7,12.2c-0.2,0.1-0.2,0.4-0.2,0.6c0.1,0.2,0.3,0.3,0.6,0.4c2.4-0.1,4.8-0.3,7.2-0.4
				c3.1-0.1,6.3,0.1,9.3,0.8c4.1,0.8,8.2,1.7,12.4,2.2c4.1,0.5,8.1,0.7,12.2,0.8c3.5,0.1,7.1-0.6,10.3-2c1-0.5,2.2-0.3,3.1-0.8
				s1.3-1.5,2-2.1c0.8-0.6,1.7-1.1,2.6-1.5l7.3-4.4c0.2-0.1,0.4-0.5,0.4-0.6s-0.4-0.7-0.6-0.7c-3.5-0.3-6.9-0.5-10.4-0.9
				c-7-0.6-14-0.4-20.9,0.6l-2.9,0.3c-0.1,0-0.2,0-0.3,0c0.1-0.1,0.2-0.1,0.3-0.1l2.4-1.1c2.3-1.3,4.9-2.2,7.5-2.5
				c6.1-1.1,12.3-1.3,18.4-0.7c1.1,0.1,2.1,0.1,3.3,0.1c3.2,0.2,6.5,0.3,9.7,0.6c1.9,0.1,3.9,0.1,5.8-0.2c0.2-0.1,0.4-0.3,0.4-0.6
				c0-0.2-0.2-0.4-0.4-0.5c-2.2-0.2-4.3-0.7-6.3-1.6c-1-0.4-2-0.8-3-1.2c-4-2-8.2-3.6-12.4-4.8c-3.3-0.8-6.6-1.2-10-1.3
				c-1,0-1.9,0-2.9,0.2c-2.4,0.4-4.8,1.1-7.1,1.3c-4.3,0.7-8.6,1.7-12.8,3C213.5,81.7,210.3,83.5,207.6,85.8L207.6,85.8z M262.6,98
				c-0.7,0.3-1.3,0.7-1.9,1.2c-1.9,1.9-4.3,3.3-6.9,4.1c-0.4,0.1-0.7,0.3-1,0.5c-0.3,0.1-0.7,0.6-0.3,0.9c2.1,2.4,4.4,4.5,7,6.4
				c3,2,6.1,3.9,9.2,5.8c0.6,0.4,1.3,0.6,2,0.8c4.6,1.4,9.2,2.8,13.8,4.2c1,0.3,2,0.7,3,1.3c1.7,0.9,3.7,1.4,5.6,1.4l5,0.1
				c3.8,0,7.5,0.1,11.2,0.1c0.8,0,1.6,0.7,2.3-0.3c-0.4-0.7-0.9-1.4-1.5-2c-3-3-6.2-5.8-9.7-8.3c-0.6-0.4-1.1-0.9-1.6-1.4
				c0-0.1,0-0.2,0-0.4c0.1-0.1,0.1-0.1,0.2-0.1c0.2,0.1,0.4,0.2,0.6,0.3c3.7,2.2,7.4,4.6,10.9,7.2c3.5,2.7,7.7,5.3,11.6,8.1
				c0.9,0.6,2,0.9,3.1,0.7c3-0.4,6-0.6,9-0.8c2.1-0.1,4.1-0.1,6.2,0.1l0.6-0.3c-0.1-0.2-0.3-0.3-0.4-0.5l-4-1.9
				c-5.1-2.8-9.8-6.2-14.1-10c-0.8-0.7-1.7-1.3-2.6-1.7c-4.8-2.5-10-4.2-15.3-5.1c-3.8-0.6-7.6-1.2-11.4-1.6
				c-3.1-0.3-6.3-0.2-9.4-0.3c-1.9-0.1-3.9-0.1-5.8-0.3c-3.9-0.2-7.7,0.2-11.5,1c-0.1,0.1-0.3-0.1-0.5-0.2s0.3-0.4,0.5-0.5
				c1.3-0.6,2.7-1.1,4.1-1.6c5.3-1.1,10.7-1.9,16.1-2.4c3-0.2,6.1-0.1,9.1,0.3c5.1,0.4,10.3,1.1,15.3,2.1l0.6-0.3
				c0-0.2-0.1-0.4-0.3-0.7c-0.8-1.1-1.7-2.2-2.4-3.3c-1.8-2.8-4.6-4.7-7.8-5.6c-3.7-1.3-7.3-2.3-10.9-3.6c-1.8-0.7-3.9-0.8-5.8-0.3
				c-1.3,0.4-2.5,0.6-3.8,0.7c-4.7,0.3-9.4,1.7-13.5,4c-1.6,0.8-3.1,1.5-4.7,2.3L262.6,98z M264.2,121c-0.1,0.2-0.1,0.5,0,0.7
				c1.2,2.4,2.3,4.7,3.6,6.9c2,3.9,3.6,8,4.7,12.2c1.3,5.8,4.2,11.2,8.5,15.4c2.4,2.5,5.1,4.8,7.9,6.9c1,0.9,2,1.9,2.7,3
				c0.7,1,1.9,1.5,3.2,1.3c3.7-0.6,7.5-0.1,11,1.2c0.8,0.1,1.5-0.4,1.6-1.2c0-0.1,0-0.2,0-0.3c0-0.5-0.1-1-0.4-1.4
				c-1.9-3.3-4.2-6.4-6.7-9.3c-2.5-2.6-4.6-5.4-6.5-8.4c-0.6-0.9-1.3-1.8-2.2-2.5c-3.3-3.3-7.1-6.3-11.1-8.8
				c-0.2-0.1-0.5-0.4-0.4-0.5s0.6-0.1,0.8-0.1s0.2,0.1,0.3,0.1c6.2,2.2,11.7,5.9,16,10.9c1.3,1.5,2.6,2.9,4,4.3c3.2,3,6,6.4,8.5,10
				c2.3,2.9,4.8,5.5,7.6,7.8c1.5,1.2,3.2,2.2,5,2.8c0.2,0.1,0.5,0.1,0.7,0c0.1-0.1,0.2-0.5,0.1-0.6c-0.9-2.5-1.6-5-2.1-7.6
				c-0.4-1.5-0.9-2.9-1.6-4.3c-1.5-5.8-4.9-9.6-7.7-13.8c-0.2-0.3-0.5-0.6-0.8-0.8c-3.8-3-7.3-6.5-11.3-9.1
				c-1.9-1.2-3.9-2.4-5.9-3.5c-1.4-0.8-2.8-1.5-4.1-2.3c-2.3-1.5-4.9-2.6-7.6-3.2c-3.4-0.7-6.7-1.8-9.8-3.4
				c-2.5-1.2-5.1-2.1-7.8-2.7c0,0-0.6,0.1-0.7,0.3L264.2,121z M252.9,131.5c-7.2-0.9-14.4-1.4-21.6-1.4c-3,0.1-6,0.4-9,0.6
				c-0.8,0.1-1.7,0.3-2.5,0.5c-2.9,0.8-5.9,1.4-8.9,1.6c-1.4,0.1-2.9,0.3-4.3,0.5c-0.2,0.1-0.4,0.3-0.5,0.5
				c-0.1,0.1,0.1,0.4,0.2,0.6c0,0.1,0.1,0.2,0.1,0.3c3.2,3.4,5.9,7.2,8.2,11.3c2.1,3.5,4.5,6.8,7.1,9.9c2.6,2.9,5.6,5.3,9,7.2
				c6,3.3,12.7,5.3,19.5,5.7c2.4,0.3,4.8,0.4,7.2,0.6c3.7,0.3,7.4,0.3,11.2,0.1c3.9-0.5,8-0.4,11.9,0.4c0.8,0.1,1.7,0,2.5-0.3
				l0.6-0.3c0-0.3,0-0.7-0.2-1c0,0-0.1-0.2-0.3-0.3c-1.5-1.6-3.1-3-4.9-4.2c-1.8-0.7-3.6-1.2-5.5-1.5c-2.9-0.9-5.7-1.9-8.5-2.9
				c-1.8-0.6-3.5-1.3-5.4-2.1c-4.1-1.4-8-3.3-11.6-5.6c-3-1.9-6.2-3.7-9.3-5.4c-1.1-0.5-2.1-1-3.3-1.4c-2.4-1-4.9-2.1-7.3-3
				c-1.8-0.7-3.5-1.5-5.1-2.6l-0.2-0.5c0.1-0.1,0.2-0.1,0.3-0.1c2.3-0.2,4.6,0,6.8,0.6c4,1.3,8.1,2.4,12,3.8
				c3.2,1.2,6.4,2.7,9.5,4.2c3.1,1.5,6,3.1,9,4.7c1.3,0.6,2.6,1.3,3.9,2c2.2,1.2,4.6,2.1,7,2.7c0.4,0,0.7,0,1.1-0.1
				c-0.1-0.3,0.1-0.9-0.1-1.2c-2.3-3.4-4-7.2-5-11.1c-0.8-2.6-2.2-5-4-7c-1.9-1.9-4-3.5-6.3-4.8C255.2,131.9,254,131.6,252.9,131.5
				L252.9,131.5z M197.8,134.9c-0.7-0.1-1.4-0.1-2.3-0.2c-0.8-0.1-1.6-0.1-2.4,0c-5.5,0.8-11.1,0.6-16.6,0.9
				c-3.7,0.2-7.5,0.3-11.2,0.2c-1.7-0.1-3.3-0.3-4.9-0.7c-0.5,0-0.9,0-1.4,0c-0.1,0.1-0.2,0.1-0.2,0.3c0,0.1,0,0.2,0.1,0.3
				c0,0.1,0.1,0.3,0.1,0.4c5.2,5.3,9.6,11.4,14.3,17.2c4.9,6.2,11.2,11.1,18.5,14.2c1.6,0.6,3.1,1.2,4.7,1.9
				c1.6,0.7,3.4,0.6,4.8-0.4c3.3-2,6.7-3.8,10.1-5.4c0.1-0.1,0.2-0.4,0.2-0.6s-0.1-0.2-0.1-0.3c-0.2-0.1-0.5-0.2-0.7-0.2
				c-0.7-0.1-1.4-0.2-2.1-0.3c-3.8-0.3-7.6-1.2-11.1-2.7c-2.2-1-4.3-2.1-6.4-3.3c-2.5-1.4-5.1-2.7-7.6-4.1c-3-1.6-5.7-3.6-8.3-5.8
				c-1.2-1-2.4-2-3.6-3.1c-0.5-0.4-1.4-0.5-1.4-1.5c0.7,0.2,1.4,0.4,2,0.7c1.6,0.9,3.1,1.8,4.6,2.8c2.8,1.9,5.8,3.4,9,4.7
				c3.4,1.4,6.7,2.6,10,4.2c4.2,2,8.8,3.2,13.5,3.5c0.3,0,0.7-0.1,0.9-0.4c0.1-0.3,0-0.7-0.2-1c-0.4-0.6-0.9-1.2-1.4-1.7
				c-1.8-1.9-3-4.2-3.8-6.8c-1.5-3.9-3.3-7.8-5.4-11.5c-0.2-0.8-1-1.3-1.7-1.2L197.8,134.9z M145.5,139.5c-6,0.1-12.1,0.5-18.1,1.4
				c-3.5,0.5-6.9,1.3-10.3,2.3c-3.3,1-6.6,1.6-10,1.7c-2.4,0.2-4.8,0.3-7.2,0.4c-0.4,0-0.7,0.4-0.7,0.8c0,0.1,0,0.2,0.1,0.3
				c0.4,0.6,0.8,1.2,1.3,1.7c4.8,4.9,10.3,9.1,16.3,12.4c0.6,0.4,1.3,0.6,2,0.9c2,0.9,4,1.6,5.9,2.7c4.2,2.3,8.9,3.7,13.7,4.2
				c0.5,0,1,0,1.4,0.2c2,0.8,4.3,0.6,6.2-0.6c3-1.4,6.2-2.4,9.3-3.6c0.9-0.3,1.9-0.6,2.8-0.8l6.1-1.4l-0.1-0.1
				c0.6-0.1,1.2-0.3,1.8-0.4c0.1,0,0.2-0.1,0.3-0.1c-0.1-0.2-0.3-0.3-0.5-0.4c-2.8-0.2-5.5-0.4-8.3-0.6c-4.1-0.1-8.1-0.8-12-1.8
				c-3.2-0.9-6.1-2.1-9.2-3.1c-1.9-0.7-3.8-1.2-5.8-2s-4.3-1.6-6.3-2.6c-2.3-1-4.8-1.7-7.3-1.9c-0.4,0-0.4-0.2-0.2-0.5
				c0.1-0.1,0.2-0.1,0.3-0.1c0.3-0.1,0.7-0.2,1.1-0.2c0.7,0,1.4,0.1,2.1,0.3c2.5,0.5,4.9,1,7.4,1.5c6.7,1.5,13.3,3,20,4.6
				c3.2,0.8,6.4,1.2,9.7,1.4c1.8,0.1,3.6,0.1,5.4,0.2c0.4,0,0.7-0.4,0.6-0.8c0-0.1,0-0.2-0.1-0.3c-1.2-2.2-2.3-4.4-3.6-6.5
				c-1.5-2.5-3.1-5-4.8-7.4c-0.5-0.7-1.4-1-2.2-1c-2.5-0.4-4.9-0.6-7.4-0.6L145.5,139.5z M87.7,145.9c-1.2-0.4-2.4-0.4-3.6,0.1
				c-1.8,0.5-3.5,1.2-5.2,1.9c-3.3,1.3-6.3,3-9.1,5.1c-4.5,3.1-9.5,5.4-14.7,7c-2.5,0.7-5,1.2-7.5,1.7c-0.2,0.1-0.4,0.2-0.5,0.4
				c0.1,0.2,0.2,0.4,0.3,0.6c1.5,1.1,3.2,2,4.9,2.7c2.4,1,4.9,2.1,7.2,3.2c2,1,4.2,1.8,6.4,2.2c1.1,0.2,2.1,0.4,3.2,0.6
				c2.5,0.8,5.1,1.3,7.8,1.5c1.3,0.1,2.6,0.3,3.9,0.6l5,0.9c0.7,0,1.5-0.3,2-0.8c2.8-2.1,5.6-4.3,8.3-6.5c0.2-0.1,0.3-0.4,0.3-0.6
				c-0.1-0.2-0.3-0.4-0.6-0.4c-0.8-0.2-1.7-0.3-2.5-0.4c-2.1-0.3-4.3-0.6-6.4-0.8c-0.6-0.1-1.2-0.1-1.8-0.1c-4.2,0-8.4,0.1-12.7,0.2
				c-2.4,0-4.8,0-7.2,0c-0.2,0.1-0.3-0.2-0.5-0.3c0.2-0.1,0.4-0.4,0.6-0.4c3.1-0.6,6.2-1.5,9.3-1.9c2.3-0.3,4.6-0.4,6.8-0.9
				c2.5-0.4,5.1-0.5,7.6-0.2c3,0.2,6,0.1,9,0.2c2,0.1,4.1,0.2,6.1,0.4c0.3-0.1,0.8,0.2,0.9-0.4c0-0.4-0.2-0.7-0.4-0.9
				c-1.2-1-2.4-2-3.7-2.9c-0.6-0.4-1.2-0.7-1.9-0.8c-3.4-0.3-6.7-0.6-10.1-0.8c-4.1-0.2-8.2-0.1-12.3,0.4c-0.2,0-0.5,0-0.7-0.1
				c0.2-0.1,0.3-0.4,0.5-0.5c0.1-0.1,0.2-0.1,0.3-0.1c2.8-1.3,5.7-2.2,8.8-2.6c2.7-0.2,5.6-0.6,8.3-0.7c0.3-0.1,0.6-0.2,0.9-0.4
				c-0.1-0.3-0.3-0.7-0.5-1C92.6,148.7,90.3,146.9,87.7,145.9L87.7,145.9z M21.9,172.9c-3.6,2.3-7.3,4.4-11.2,6.1
				c-2.7,1.1-4.5,1.8-6.3,2.6l-4,1.9c-0.2,0.1-0.3,0.4-0.4,0.6c0.1,0.1,0.2,0.2,0.3,0.2l1.1,0.1c4.8,0.4,9.6,0.8,14.3,1.1
				c1.5,0.2,3.1,0.6,4.5,1.3c1.2,0.7,2.6,0.7,3.8,0c3.1-0.5,5.9-2.1,7.7-4.6c3.6-3.7,7.8-6.6,12.4-8.7l4-1.9
				c0.2-0.1,0.4-0.5,0.5-0.8s-0.3-0.3-0.5-0.4c-2-1.2-4-2.3-5.8-3.6c-1.6-1.3-3.9-1.6-5.8-0.8c-1.9,0.9-3.9,1.4-5.9,2.1
				C27.6,169.3,24.7,170.9,21.9,172.9L21.9,172.9z M52.9,174l-1.1,0.5c-2.9,1.7-6.6,3.7-10.2,6c-4.4,3.2-8.5,6.7-12.2,10.6
				c-1.3,1.2-2.5,2.5-3.7,3.8c-0.1,0.1-0.1,0.4-0.2,0.6c0.1,0,0.2-0.1,0.3-0.1c0.2-0.1,0.5-0.2,0.7-0.3l2-0.9
				c3.4-1.6,7.3-2.1,11-1.5c1.4,0.3,2.9,0.2,4.3,0.3c2.3,0.2,4.5,0.5,6.8,0.6c4.6,0.3,9.1,0.1,13.6-0.7c1.7-0.4,3.3-1,4.8-1.7
				c0.6-0.3,1-0.6,1.4-1.1c1.8-2.3,3.5-4.6,5.2-7.1c0.2-0.1,0.2-0.6,0.1-0.7s-0.6-0.5-0.9-0.4c-3.8,0.4-7.7,0.9-11.5,1.4
				c-4.7,0.5-9.4,1.4-14,2.6c-1.3,0.4-2.5,0.8-3.8,1.2s-2.8,0.7-4.2,1.1H41c0.1-0.1,0.2-0.3,0.3-0.4c3.7-2.7,7.8-4.8,12.2-6.1
				c5.8-1.8,11.7-3,17.8-3.8c0.2,0,0.5-0.1,0.6-0.3c0.3-0.5-0.2-0.6-0.5-0.7c-0.3-0.1-0.7-0.2-1-0.3l-8.3-2.4
				c-0.5-0.1-0.9-0.2-1.4-0.4C58.2,172.3,55.2,172.4,52.9,174z M77.5,192.3c-1.1,1.1-2,2.1-3.1,3.3l-0.1,0.4c0,0.1,0.4,0.1,0.6,0.1
				c2.2-0.7,4.3-1.8,6.6-2.4c5.9-1.5,11.9-2.3,17.9-2.4c3.5-0.1,7-0.4,10.4-1.1c1.5-0.4,3-0.9,4.5-1.6c1.6-0.9,3.3-1.7,5-2.3
				c1-0.5,1.9-1.1,2.8-1.9c3.7-2.6,7.4-5.1,11-7.7c0.4-0.3,0.7-0.6,1.1-1c0.1-0.1,0.1-0.2,0.1-0.3c-0.1-0.2-0.2-0.5-0.4-0.5
				c-0.7-0.1-1.4-0.1-2.1,0c-3,0.4-6,0.8-9,1.2c-4.7,0.6-9.3,1.8-13.7,3.6c-1.3,0.6-2.8,1-4.2,1.5c-0.9,0.3-1.8,0.7-2.7,1.2
				c-1.9,1.2-3.9,2.1-6,2.8c-0.2,0-0.5,0-0.7,0c-0.3,0,0.2-0.4,0.3-0.5c1.7-1.2,3.4-2.5,5.2-3.7c1-0.7,2.1-1.4,3.2-1.9l5-2.3
				l1.7-0.8c3.8-2,7.9-3.2,12.2-3.5c0.3-0.1,0.7-0.2,1-0.3c0.1-0.1,0.2-0.2,0.2-0.3c0-0.1,0-0.2-0.1-0.3c0-0.1,0-0.2,0-0.3l-9.4-5.3
				c-0.6-0.4-1.4-0.4-2.1-0.1c-4.5,1.8-8.7,4.2-12.7,6.9c-6.5,5-12.6,10.5-18.2,16.4C80.1,189.9,78.8,191,77.5,192.3L77.5,192.3z
				 M149.4,174.2c-4.1,2-8.1,4.2-12,6.7c-2.3,1.7-4.8,3.2-7.3,4.5c-4.7,2.6-9.1,5.7-13.1,9.3c-0.4,0.4-0.8,0.9-1.1,1.4l0.2,0.5
				c0.6,0,1.2-0.1,1.8-0.1c5-0.4,10.1,0.1,15,1.5c5.7,1.6,11.5,2.7,17.3,3.2l3.2,0.4c3.2,0.4,6.5,0.3,9.7-0.5
				c2.3-0.5,4.4-1.7,6.1-3.4c3.9-3.9,7.9-7.8,12-11.5c1.8-1.7,3.8-3.2,5.8-4.9c0.4-0.3,0.7-0.7,1-1.1c0-0.1,0.1-0.2,0.1-0.4
				c0-0.1,0-0.2-0.1-0.3c-0.7,0-1.4,0.1-2.2,0.1c-7.2,1.3-14.3,2.5-21.5,3.9c-4.7,0.8-9.3,2.1-13.7,4c-0.3,0.2-0.6,0.4-1,0.5
				c-2.6,0.4-5.2,1-7.8,1.9c-0.1,0-0.2,0-0.4,0c0.1-0.1,0.1-0.4,0.3-0.5c1.9-0.9,3.8-1.9,5.6-2.8l2.7-1.3c4.4-2.2,9-4,13.7-5.3
				c0.9-0.2,1.7-0.5,2.6-0.6c7.2-2,14.5-3.3,21.8-4.6c0.2,0,0.5-0.1,0.7-0.2c0.2-0.1,0.4-0.3,0.5-0.5c0-0.2-0.1-0.4-0.2-0.6
				c-0.9-0.6-1.9-1.2-2.8-1.6c-2.6-1-5-2.5-7.1-4.3c-1.3-1.2-3-1.6-4.7-1.1c-2.5,0.5-5,1-7.4,1.7c-3.2,0.9-6.3,1.9-9.4,3
				c-2.9,0.7-5.6,1.7-8.3,3L149.4,174.2z M169.5,207.3c-1.8,2-3.3,4.2-4.6,6.6c0,0-0.1,0.3,0,0.4s0.4,0.3,0.5,0.3
				c5.3-1.5,10.6-2.6,16-3.5c10.6-2,21-3.9,31.5-6.4c5.6-1.4,11-3.5,16.1-6.3c2.4-1.1,4.6-2.4,6.9-3.6c5-2.5,10-5,14.9-7.5
				c0.7-0.3,1.3-0.7,1.9-1.1c0.1-0.1,0.2-0.2,0.2-0.3c-0.1-0.2-0.3-0.3-0.5-0.4c-0.4-0.1-0.7-0.1-1.1,0c-3.3,0.6-6.7,1.2-10.1,1.7
				c-2.7,0.6-5.5,1.1-8.2,1.4c-0.4,0-0.7,0.1-1.1,0.1c-4.7,1.9-9.9,1.6-14.5,3.8c-0.8,0.3-1.7,0.5-2.6,0.6
				c-5.6,1.8-11.1,4.1-16.3,6.8c-2.6,1.9-5.5,3.4-8.5,4.6c-0.2,0.1-0.4,0.1-0.6,0c-0.1-0.1-0.1-0.2,0-0.4c0.1-0.3,0.4-0.6,0.6-0.9
				c3.6-2.5,7.1-5.2,10.8-7.4c1.6-1,3.3-1.7,4.9-2.6c5.6-2.9,11.3-5.5,17.1-8c1.6-0.6,3.2-1.1,4.9-1.5c4.7-1.4,9.3-3.2,14.1-4.1
				l5-1.1c1.1-0.2,2.1-0.5,3.2-0.8c0.2-0.1,0.3-0.3,0.3-0.5c0-0.1-0.1-0.2-0.2-0.2c-2.4-0.6-4.9-1.3-7.3-1.9
				c-1.7-0.4-3.5-0.8-5.2-1.2s-4.4-1.3-6.6-1.9c-1.3-0.6-2.8-0.8-4.2-0.7c-0.5,0.2-1.1-0.3-1.7-0.4c-0.6-0.1-1.2-0.1-1.8,0
				c-2.5,0.7-4.9,1.5-7.3,2.5l-6.4,3c-7.3,3.2-14.2,7.3-20.4,12.2c-7.1,5.7-13.8,12-19.9,18.9L169.5,207.3z M261.3,186.7
				c-1.7,1.1-3.4,2.4-4.9,3.8c-5,4.5-10.3,8.4-15.6,12.5c-2.7,2.1-5.3,4.2-7.9,6.4c-0.6,0.4-1.2,0.9-1.7,1.3
				c-0.2,0.2-0.4,0.5-0.5,0.8c0.3,0.1,0.7,0.2,1,0.2c0.5,0,0.9-0.1,1.4-0.2c4.3-1.2,8.9-1.4,13.3-0.7c2.2,0.4,4.5,0.4,6.7,0.7
				s4.2,0.6,6.3,0.8c2,0.2,4,0.4,6,0.4c3,0,5.9-0.1,8.8-0.4c2.9-0.4,5.8-1,8.7-1.5c3.9-1.1,7.7-2.6,11.3-4.4l3.6-1.6
				c2.8-1,5.5-2.5,7.9-4.3c2.7-1.9,5.5-3.5,8.5-4.8c0.6-0.2,1.1-0.5,1.5-0.9c0,0,0.2-0.1,0.1-0.3s-0.2-0.5-0.4-0.5
				c-0.7-0.2-1.4-0.2-2.1-0.2c-2.9,0-5.9,0-8.8,0.3c-4.6,0.3-9.2,0.8-13.7,1.6c-3,0.6-6.1,0.9-9.2,0.9c-2.4,0.2-4.7,0.6-7,1.2
				c-3.5,0.8-6.9,1.8-10.4,2.7c-4.3,1.1-8.5,2.5-12.6,4.1c-0.4,0.1-0.8,0.2-1.1,0.2c0.3-0.4,0.6-0.8,1-1.1c1.4-0.8,2.8-1.4,4.3-1.9
				c1.4-0.4,2.7-1,3.9-1.8c2-1.3,4.2-2.3,6.5-2.9c2.5-0.6,5-1.4,7.5-2.4c4.5-1.5,9.2-2.6,13.9-3.2l4.2-0.8c1.5-0.3,3-0.6,4.6-0.8
				c4.6-0.4,9.2-0.7,13.8-1c0.4-0.1,0.7-0.1,1.1,0l16.6,1.1c1.5,0.2,3.1,0.1,4.6-0.1c0.6-0.1,1.1-0.3,1.5-0.7c0.3-0.7-0.4-1-1-1.2
				c-1.5-0.9-3.1-1.6-4.8-2.3c-3.7-1.1-7.4-2.5-10.9-4.2c-1.3-0.6-2.6-1-4-1.2c-9.4-2.2-19.1-3-28.8-2.4c-3.6,0.2-7.1,1.1-10.3,2.6
				l-3.7,1.6c-3.2,1.4-6.3,3-9.3,4.8L261.3,186.7z M344.1,190.6c1.6,0.9,3.3,1.6,5.1,2c7.2,1.5,14.3,3.7,21.2,6.4
				c3.4,1.4,6.8,2.8,10.3,4.2c0.1,0,0.2,0,0.4,0c0.1-0.2,0.1-0.5,0-0.7c-0.1-0.2-0.3-0.4-0.5-0.6c-0.7-0.8-1.4-1.5-2.2-2.1
				c-4.3-3.7-8.2-7.8-12.7-11.3c-6.1-4.8-11.7-10.2-16.8-16.1c-0.8-0.9-1.6-1.7-2.5-2.6c-2.1-2.2-3.9-4.7-5.2-7.4
				c-0.1-0.2-0.1-0.5,0-0.8l0.5,0.6c0.6,0.7,1.2,1.4,1.8,2c2.6,2.4,5.1,4.8,7.9,7.2c0.8,0.7,1.6,1.4,2.4,2.1
				c4.4,3.9,9.1,7.6,14,10.9c4.8,3.5,9.3,7.4,13.5,11.6c2.3,2,4.4,4.2,6.2,6.6c0.1,0.1,0.2,0.2,0.3,0.2c0.1-0.2,0.4-0.4,0.3-0.6
				c-0.1-1-0.4-2.1-0.7-3.1l-2.8-6.6l-1.4-3.3c-1.2-3.2-2.9-6.2-5-8.9c-1.9-2.6-3.6-5.2-5.4-7.8c-3.3-4.8-7.5-8.9-12.4-12.1
				c-0.5-0.2-0.9-0.5-1.4-0.8c-5.9-4.3-12-8.2-18.4-11.8c-2.2-1.4-4.6-2.6-6.9-3.8c-3.8-2-7.7-4-11.6-6c-0.3-0.2-0.7-0.2-1,0
				c-0.2,0.3-0.3,0.7-0.1,1.1c0.7,1.7,1.3,3.5,1.8,5.2c0.6,1.6,1.1,3.2,1.4,4.9c0.7,5.4,2.3,10.5,2.6,15.9c0.3,2.5,0.7,5,1.4,7.4
				c0.1,0.4,0.2,0.7,0.5,1.1c1.6,2.8,3.3,5.4,5.1,8c0.9,0.9,1.7,2,2.5,3.1c0.9,1.5,2.1,2.7,3.7,3.5
				C341.5,189,342.9,189.8,344.1,190.6L344.1,190.6z M319.1,203.6c-4.7,2.2-9.1,5-13.1,8.3c-2.8,2.4-5.7,4.8-8.7,7
				c-1.3,1-2.7,1.9-4.2,2.6c-2.3,1.2-4.5,2.2-6.7,3.3c-0.2,0.1-0.4,0.3-0.5,0.5c0,0,0.2,0.4,0.5,0.4c0.3,0.1,0.7,0.2,1.1,0.3
				c1.1,0.2,2.2,0.3,3.3,0.5c0.7,0.1,1.5,0.2,2.2,0.3c3.1,0.9,6.3,1.5,9.5,2c0.5,0,1,0.2,1.4,0.4c3.8,1.6,7.8,2.6,11.8,3.3
				c8.3,1.9,17,2.1,25.4,0.6c3.6-0.6,7.1-1.4,10.6-2.4c1.5-0.4,3.1-0.7,4.7-0.9c2.4-0.3,4.7-1.1,6.8-2.3c3.4-2,7.2-3.4,11.1-4.1
				c1.8-0.3,3.5-0.9,5.3-1.3c2.8-0.7,5.7-1.3,8.6-1.6c0.4-0.1,0.7-0.2,1-0.4c0.1-0.1,0.1-0.2,0.2-0.3c0-0.1-0.4-0.3-0.6-0.3
				c-5.2-1.2-10.4-2.1-15.7-2.8c-1.6-0.1-3.1-0.5-4.8-0.7c-3.6-0.5-7.1-0.8-10.7-0.8c-1,0-2,0-2.9-0.2c-7.8-0.6-15.7-0.2-23.3,1.3
				c-1.7,0.2-3.4,0.6-5,0.9c-3.1,0.7-6.1,1.6-9,2.7l-0.7,0.3c-0.2,0-0.5,0.1-0.7,0.1c0.2-0.1,0.3-0.3,0.5-0.4l8-3.9
				c0.6-0.2,1.1-0.5,1.7-0.6c4.4-1.3,8.9-2.3,13.5-3.1c1.8-0.2,3.6-0.6,5.3-0.8c1.7-0.2,3.4-0.2,5.1-0.2c3.4,0.1,6.6,0.2,10,0.3
				c3.1,0.1,6.2,0.4,9.2,0.8c2.7,0.3,5.5,0.6,8.1,1s4.8,0.9,7.3,1.4c1,0.1,2,0.2,3,0.2c0.1,0,0.2-0.1,0.2-0.2c0,0,0.1-0.2-0.1-0.2
				c-0.3-0.3-0.6-0.5-0.9-0.6l-10.8-4.8c-1.5-0.6-2.9-1.4-4.4-2c-1.7-0.8-3.4-1.5-5.2-2.1c-4.9-1.5-9.9-2.8-14.6-4.3
				c-1-0.3-2-0.4-3-0.4L335,200c-1.2,0-2.4,0.2-3.6,0.4c-2.3,0.4-4.6,0.7-6.8,1.3c-1.8,0.4-3.6,1.1-5.3,1.9L319.1,203.6z
				 M317.7,133.1c-0.1-0.8-0.6-1.4-1.4-1.6c-3.5-0.9-7.1-1.1-10.7-0.6c-0.3,0.1-0.6,0.2-0.9,0.4c-1.1,0.5-1.3,1.1-0.7,1.6
				c3.2,2.6,6.3,5.2,9.6,7.7c1.5,1.5,2.8,3,4,4.7c0.1,0.1,0.4,0.1,0.6,0.1c0.1-0.1,0.2-0.2,0.2-0.3c0.1-0.2,0.2-0.5,0.2-0.7
				c0.2-1.8,0.2-3.5,0-5.3C318.2,137.1,318,135.1,317.7,133.1L317.7,133.1z M328.1,133.9c-0.3,0.5,0.3,0.6,0.5,0.8l3.3,1.4
				c3.8,1.7,7.5,3.3,11.1,5.1s6.6,3.3,9.9,5.1c1.6,0.9,3.1,2,4.6,3.1c3.7,2.7,7.4,5.5,11.2,8c4.1,2.7,7.7,6,10.8,9.8l3.5,4.2
				c0.2,0.1,0.4,0.2,0.6,0.1c0.2-0.1,0.4-0.3,0.5-0.6c0.3-2.7,0.3-5.5-0.1-8.3c-0.5-2.9-0.9-6-1.3-9c-0.1-0.7-0.2-1.3-0.4-1.9
				c-1.8-3.7-4.6-6.8-8.1-8.9c-5.3-2.6-10.8-4.9-16.4-6.8c-1.3-0.4-2.5-0.8-3.9-1c-6-1.1-12-1.3-18.1-1.8c-2.4-0.1-4.8-0.1-7.1,0.1
				C328.6,133.4,328.3,133.6,328.1,133.9L328.1,133.9z M405.7,216c2.1,1.3,4.3,2.4,6.6,3.4c3.1,1.5,6.2,3,9.2,4.5
				c1.5,0.9,3.1,1.5,4.8,1.8l0.6-0.2c0-0.3-0.1-0.5-0.3-0.7c-2.3-2.3-4.4-5-6-7.8c-2.2-3.8-3.9-7.8-5.1-12c-0.6-2.3-1.5-4.5-2.8-6.5
				c-1.1-1.7-2-3.4-2.8-5.2c-2.7-6.4-5.3-12.9-8-19.4c-0.4-1.1-1-2.1-1.8-3c-1-0.9-0.6-1.9-0.9-2.9v-0.4c0.2,0,0.4,0.1,0.6,0.1
				c2.7,2.3,4.9,5.1,6.4,8.4c1.5,3.5,3.4,6.9,5.3,10.7c1.5,4.9,4.1,9.5,7.6,13.3c1.2,1.7,2.2,3.6,2.9,5.6c1.3,3.6,3,7,5,10.2
				c0.6,1,1.3,2,2,2.9c3.3,4.3,7.2,8.1,11.5,11.3c2,1.6,3.8,3.3,5.5,5.1c0.8,1,1.9,1.8,3.1,2.4c1.3,0.4,2.3,1.7,3.8,1.4
				c-0.7-1.1-1.4-2.2-2.1-3.3c-4-5.7-7.1-12.1-9-18.8c-0.3-1-0.7-2-1.2-2.9c-1.2-1.9-2-4-2.6-6.2c-0.9-3.7-1.8-7.4-2.9-11.1
				c-0.4-1.3-0.9-2.5-1.5-3.6c-0.7-1.2-1.6-2.4-2.4-3.6c-0.5-0.6-0.8-1.4-1.1-2.1c-1.2-3.5-3.2-6.7-5.8-9.3l-2.9-3.1
				c-0.6-0.7-1.2-1.4-1.9-2c-3.5-3-7.1-5.9-10.6-8.8c-1.6-1.3-3.3-2.6-5.1-3.8c-4.1-2.5-7.7-5.5-12-7.7l-1-0.6
				c-0.4-0.2-1-0.1-1.2,0.4c0,0.1,0,0.1-0.1,0.2c-1.3,3.6-1.6,7.5-0.9,11.3c0.2,1.4,0.3,2.9,0.1,4.3c-0.3,3.9-0.4,7.9-0.3,11.8
				c0.2,1.8,0.5,3.6,0.7,5.5s0.5,3.1,0.7,4.7c0.6,5,2.4,9.7,5.4,13.8c1.5,2.2,3.1,4.3,4.5,6.5C401.4,212.8,403.4,214.7,405.7,216
				L405.7,216z M657.3,271.7c1.9-3.2,4.7-5.7,8.2-7.2c0.9-0.4,1.9-0.8,2.9-1.2c1.7-0.7,3.3-1.8,4.5-3.2c1.4-1.6,2.8-3.1,4.2-4.8
				c0.5-0.7,1.7-1.3,1.1-2.2s-1.4,0.2-2.2,0.3c-0.2,0.1-0.5,0.1-0.8,0.1c-0.1-0.1-0.2-0.2-0.2-0.3c0-0.1-0.1-0.3-0.1-0.4
				c0.5-0.6,1.1-1.1,1.7-1.7c3.2-2.7,6.1-5.9,8.4-9.4c1.9-2.9,3.2-6.1,3.9-9.5c0,0-0.4-0.4-0.5-0.4c-1.2,0.4-2.4,0.9-3.7,1.3
				c-0.2,0-0.5-0.1-0.7-0.3c-0.2-0.1,0-0.3,0-0.4c0.2-0.6,0.5-1.2,0.9-1.7c0.7-1,1.5-1.9,2.5-2.7c2.4-2.2,4.3-5,5.4-8.1
				c2.5-5.9,4.4-11.9,5.8-18.1c0-0.2,0-0.5-0.1-0.7l-0.6,0.1c-0.7,0.8-1.3,1.7-1.8,2.6s-1,1.6-1.5,2.4c-2.1,3.1-5.1,5.4-8.7,6.6
				c-0.5,0.1-1,0.2-1.5,0.1c-0.4,0.1-0.8-0.9-0.7-1.3s0.1-0.5,0.3-0.7c0.6-0.7,1.3-1.3,2-1.9c4.2-3.4,7.7-7.7,10-12.6
				c2.1-3.9,3.8-8.1,5.2-12.3c0.7-2.3,1.1-4.6,1.1-7c-0.1-1.7,0-3.4-0.1-5.1c-0.1-2.3-0.2-2.3-2.2-1c-1.2,0.6-2.4,1-3.8,1.1
				c-1.1,0.2-2.2-0.3-2.8-1.2c-1.4-1.8-2-4.1-1.6-6.4c0.3-1.8,0.7-3.6,1-5.4c0.2-0.9,0.4-1.8,0.6-2.7c0.7-3.1,0.7-6.3,0.2-9.5
				l-1.5-9.4c-0.3-1.9-1-3.8-2-5.4c0,0-0.6-0.1-0.6,0.1c-0.3,0.4-0.5,0.9-0.6,1.4c-0.6,2.4-1.4,4.8-2.5,7.1c-0.8,1.7-1.4,3.4-2,5.2
				c-0.2,0-0.4,0.1-0.5,0.2c-0.1-0.1-0.1-0.2,0-0.3c-0.4-3.4-0.2-6.8,0.4-10.2c0.4-1.7,0.7-3.4,0.8-5.1c0.5-2.3,0.5-4.7,0.2-7.1
				c-0.1-1-0.1-2.1-0.1-3.1c0-2.1-0.4-4.2-1.2-6.2c-0.2-0.2-0.4-0.4-0.6-0.4c0,0-0.5,0.2-0.5,0.4c-0.2,0.8-0.2,1.6-0.4,2.3
				c-0.4,1.5-0.9,3-1.5,4.5c-0.3,0.6-0.7,1.1-1.2,1.5c-0.3,0.2-0.7,0.3-1.1,0.2c-0.5-0.1-0.4-0.5-0.4-0.9c0.2-2.1,0.5-4.2,0.7-6.3
				c0.2-6.1-0.4-12.2-1.8-18.1c-0.1-0.5-0.2-1-0.4-1.5c-0.5-1.3-1.1-1.6-2.3-0.9c-0.1,0.1-0.2,0.2-0.3,0.2c-1.8,1.6-4.5,1.5-6.1-0.2
				c0,0,0,0,0,0c-0.2-0.2-0.3-0.4-0.4-0.6c-1.5-1.5-2.5-3.4-2.8-5.6c-0.9-5-0.4-10.1,1.4-14.8c0.1-0.2,0-0.5-0.1-0.7
				c-0.4-0.5-0.7-0.1-1,0.2c-0.8,0.7-1.5,1.4-2.4,2.2c-0.4,0.3-0.8,0.6-1.3,0.8c-0.3,0-0.6-0.1-0.8-0.3l-0.1-0.6
				c0.6-1.5,1.2-2.9,2-4.3c1.8-3.1,2.7-6.6,2.7-10.2c0.1-3.2-0.2-6.3-0.9-9.4c-0.1-0.5-0.3-1-0.5-1.5c-0.2-0.1-0.4-0.2-0.6-0.1
				c-0.6,0.5-1.1,1.1-1.7,1.6c-0.6,0.6-1.7,0.6-2.3,0c-0.2-0.2-0.4-0.5-0.5-0.8c-0.4-2.3-0.9-4.7-1.3-7l-0.8-5.1
				c-0.2-2.2-0.7-4.5-1.5-6.6c0-0.1,0-0.3-0.1-0.4c-1.1-5.3-3-10.4-5.8-15c-2.3-4.8-5.2-9.2-8.5-13.4c0-0.2-0.4-0.3-0.6-0.4
				s-0.3,0.5-0.2,0.7c0.3,1.6,0.6,3.1,1,4.6s0.7,2.5,1,3.8c0.8,3.4,1.5,6.9,2.3,10.4c1.6,6.3,2.5,12.7,2.7,19.2
				c0.3,6.7,0.2,13.4-0.2,20.1c0,0.7,0,1.3,0.1,2c0,0.3,0.1,0.6,0.4,0.7c0.3,0.1,0.7,0,1-0.2c1.3-1.3,2.8-2.4,4.5-3.2
				c0.3-0.2,0.7-0.4,1.1-0.5c0.4,0,0.8,0,1.1,0.2c0,0.2,0,0.5-0.1,0.7c-0.4,0.7-0.9,1.3-1.5,1.8c-1.7,1.3-3,2.9-3.8,4.9
				c-0.4,1-1,1.9-1.9,2.4c-0.6,0.3-0.9,1-0.9,1.6c-0.1,2.1-0.2,4.2-0.3,6.3c0,0.7-0.3,1.4,0.4,1.7c0.3,0.1,0.8-0.5,1.2-0.8l6.6-5.4
				c1.5-1.3,2.6-1.8,2.5-1.3c0,1-0.9,1.6-1.5,2.3c-0.9,1.2-1.9,2.3-2.9,3.3c-2.8,2.9-5.1,6.1-7.1,9.6c-0.4,0.7-0.7,1.4-0.7,2.2
				c-0.3,1.8-0.5,3.7-0.7,5.5c0,0.3,0.1,0.5,0.3,0.7c0.2,0.1,0.5,0.1,0.7,0.1c0.3-0.1,0.5-0.2,0.7-0.4c3.2-2.1,6.5-3.9,10-5.6
				c0.2,0,0.5,0,0.7,0.1c0,0.1-0.1,0.3-0.1,0.4c-0.7,1.1-1.7,2-2.9,2.6c-2.7,1.7-5.2,3.6-7.4,5.9c-2.7,2.4-4.4,5.7-4.8,9.4
				c-0.2,1.4-0.4,2.9-0.6,4.3c0,0.2,0,0.5,0.1,0.7c0.2,0.1,0.5,0.1,0.7,0.1c3.7-2.3,7.5-4.3,11.5-6.1c2.4-1.1,4.5-2.8,6.1-4.9
				c0.7-0.9,1.6-1.8,2.5-2.6l0.6-0.1c0.2,0,0.1,0.6,0,0.8c-1.5,2.5-3.4,4.7-5.5,6.6c-3,2.4-6.2,4.5-9.6,6.3c-2.1,0.9-3.8,2.5-5,4.4
				c-1.4,2.4-3.8,4.2-4.5,6.9s-2,5.2-2.7,7.8c-0.1,0.3,0.1,0.7,0.2,1.1c0.2,0,0.5-0.1,0.7-0.3c0.5-0.4,1-0.9,1.4-1.4
				c2.2-2.4,5-4.4,8-5.6c8-3.3,14.9-8.7,20-15.7c0.2-0.2,0.4-0.4,0.6-0.5c0.1,0,0.2,0,0.3,0c0,0,0.2,0.3,0.1,0.3
				c-0.2,0.5-0.4,0.9-0.7,1.4c-4.5,6.6-10.4,12.1-17.3,16c-2.1,1.1-4.1,2.4-6,3.8c-2.4,1.7-4.3,4-5.5,6.6c-1,2.3-2.3,4.5-4,6.4
				c-0.3,0.3-0.5,0.6-0.7,1c-0.2,1.6-0.3,3.1-0.4,4.7c0,0.1,0.1,0.2,0.2,0.3c0.2,0,0.5,0.1,0.6-0.1c1.3-1.4,2.7-3,4-4.4
				c2.1-2.2,4.4-4.2,7.1-5.7c1.5-0.9,2.9-1.8,4.3-2.9c2.2-1.6,4.6-3.1,7.1-4.2c2-1,3.9-2.2,5.5-3.7c1.5-1.3,3.1-2.4,4.7-3.6
				c0.2,0,0.5,0.1,0.7,0.2c0.3,0,0,0.3-0.2,0.4c-3.2,3.7-6.8,7-10.9,9.7c-3.9,2.4-7.6,5.2-11.3,8c-1.5,1.3-2.9,2.7-4.2,4.2
				c-3.5,3.8-6.6,8-9.2,12.4c-0.4,0.5-0.7,1.2-0.8,1.8c-0.4,2-0.7,4.1-1,6.2c0,0,0,0.3,0.3,0.3c0.1,0,0.2,0,0.3-0.1
				c0.4-0.4,0.7-0.8,1-1.2c1.5-2.2,3.1-4.3,4.9-6.2c2.2-2.4,4.7-4.6,7.4-6.5c0.6-0.3,1.1-0.7,1.6-1.2c2.3-2.1,5-3.7,7.9-4.7
				c1.5-0.6,2.8-1.4,4.1-2.3c1.4-1,2.9-1.8,4.5-2.5c1.1-0.5,2.2-1.5,3.6-1.1l-2.8,2.2l-0.3,0.2c-3.3,2.8-7,5.2-10.9,7.2
				c-0.1,0.1-0.2,0.1-0.3,0.2c-3.8,3-7.4,6.3-10.8,9.8c-3.4,4-6.4,8.4-8.8,13.1c-0.5,0.9-1,1.9-1.6,2.7c-1.3,2-1.6,4.6-0.8,6.8
				c0,0,0,0.3,0.2,0.3c0.2,0,0.4,0,0.6-0.1l5.2-8c3.3-4.9,7.7-9.1,12.8-12.2c4.3-2.8,8.8-5.3,13.1-8.1c2.6-1.6,5-3.4,7.4-5.3
				c0.9-0.8,1.7-1.6,2.5-2.6c1.6-1.8,3.1-3.6,4.7-5.4c0.2,0,0.4,0,0.5,0.1c0.1,0.1,0.1,0.2,0.1,0.4c-0.2,0.5-0.5,0.9-0.8,1.4
				c-0.6,0.7-1.2,1.4-1.7,2.2c-2.7,5.3-7.6,8.3-12.1,11.7c-2.1,1.6-4.3,3.1-6.4,4.7c-1.2,0.8-2.3,1.8-3.5,2.6
				c-3.1,2-5.9,4.4-8.5,7.1c-1.8,1.7-3.4,3.7-4.6,5.9c-0.5,0.9-1.1,1.8-1.7,2.7c-1.7,2.3-3.1,4.9-4,7.7c-0.6,1.5-1.3,2.9-2.2,4.3
				c-0.6,0.9-0.9,1.9-0.7,3l0.5,3.5c0,0.1,0.1,0.2,0.2,0.3c0.2,0,0.5,0,0.7-0.1c0.2-0.2,0.4-0.4,0.5-0.6c2.1-3.3,4.9-6.2,8.2-8.5
				c3.4-2.3,6.5-5,9.3-8c0.3-0.3,0.6-0.5,0.9-0.8c2.8-2.9,6.2-4.9,10.1-6c2.7-0.7,5.1-2.1,7.1-4c1.7-1.5,3.3-3,5-4.5
				c0.7-0.6,1.4-1.2,2.1-1.7c0.2-0.1,0.5,0,0.7,0.1c0.3,0.2-0.1,0.3-0.2,0.3c-1.9,2.2-3.8,4.4-5.8,6.5c-2.3,2.6-5.2,4.5-8.5,5.7
				c-3.7,1.4-7.1,3.7-9.7,6.7c-3.2,3.8-6.9,7.3-10.8,10.3c-1.1,0.8-2,1.7-2.7,2.9c-2.1,3.1-4,6.2-5.8,9.5c-1.3,2.6-1.3,5.8,0.1,8.4
				c0.3,0.6,0.8,0.7,1.2,0.1c1.2-1.7,2.3-3.4,3.5-5.2c0.9-1.6,2.1-3.1,3.4-4.3c1.2-1.1,2.2-2.3,3.3-3.4c3.2-3.5,6.8-6.6,10.9-9.1
				c4.9-2.9,9.6-6.1,14.1-9.5c2.9-2.2,6-4.1,9.2-5.8c-0.1,0.4-0.4,0.9-0.7,1.2c-1.6,1.4-3.2,2.7-4.9,4c-2.2,1.7-4.5,3.3-6.5,5.1
				c-2.4,2.1-5,4-7.7,5.7c-2.9,1.6-5.5,3.8-7.6,6.3c-0.3,0.3-0.5,0.6-0.8,0.8c-1.7,1.6-3.3,3.4-4.8,5.2c-2.2,2.9-4.3,5.8-6.1,8.9
				c-0.8,1.2-1.6,2.4-2.3,3.7c-0.7,1.2-1.2,2.3-1.8,3.5l1.3,5.4c0.1,0.4,0.4,0.4,0.6,0.1s0.7-0.8,1-1.2l4.8-6.7
				c3.1-4.3,7-8,11.4-10.8c3.8-2.4,7.5-4.9,11.3-7.3c2.6-1.7,5.3-3.4,8.1-5c3.4-2,6.5-4.5,9.1-7.5c3.1-3.4,5.6-7,8.4-10.5
				c0.2-0.1,0.4-0.2,0.6-0.1c0.1,0.2,0.2,0.5,0.1,0.7c0,0.3-0.1,0.5-0.2,0.7c-0.2,0.4-0.4,0.7-0.6,1c-2.5,3.3-5,6.8-7.6,10.1
				c-2.5,3.1-5.5,5.7-8.9,7.8c-3.5,2.1-6.8,4.5-10,7.1c-1.5,1.3-3.1,2.5-4.7,3.6c-5.9,3.8-10.9,8.8-14.8,14.7
				c-2.5,3.6-4.6,7.5-6.7,11.2c-0.3,0.6-0.4,1.2-0.3,1.9c0.4,2.3,1,4.6,1.5,6.9c0,0.2,0.3,0.5,0.5,0.5c0.3,0,0.5-0.2,0.6-0.4
				c0.3-0.4,0.6-0.9,0.8-1.3c3.3-5.9,7.5-11.3,12.4-15.9c1.2-1.1,2.4-2.1,3.7-3c1.3-1.1,2.8-2,4.2-2.9c4.5-2.9,8.8-6.1,12.8-9.7
				c2-1.7,3.8-3.7,5.4-5.8c1.2-1.6,2.4-3.2,3.6-4.7c0.1-0.1,0.2-0.1,0.4-0.1c0.3-0.1,0.3,0.2,0.1,0.6c-2.5,5.1-6,9.7-10.4,13.3
				c-4.4,3.6-8.5,7.6-13.2,10.7c-2.3,1.6-4.2,3.6-5.8,5.9c-3.1,3.9-5.9,8.1-8.4,12.5c-1,2-1.8,4.1-2.7,6.2c-0.8,1.7-0.8,3.7,0,5.4
				c0.3,0.6,0.8,1.2,1.1,1c0.3-0.2,0.6-0.5,0.8-0.8c2.4-4.7,5.6-9,9.3-12.7c1.1-1.1,2.2-2.3,3.2-3.5c1.6-1.9,3.5-3.6,5.5-5.1
				l11.8-8.6l3.6-2.5c0.1-0.1,0.2-0.1,0.4-0.1l0.1,0.6c-3,4-6.6,7.6-10.7,10.4c-2.4,1.6-4.6,3.6-6.3,6c-0.7,1-1.4,1.9-2.2,2.8
				c-3.1,3.4-5.9,7.1-8.3,11.1c-1.9,3.2-3.3,6.6-4.1,10.3c-0.2,0.9,0.1,1.9,0.8,2.5c0,0.2,0.6,0.2,0.7,0.1c0.5-0.5,0.9-1,1.2-1.6
				c0.6-1.3,1.5-2.5,2.5-3.5c0.7-0.6,1.3-1.3,1.8-2.1c2.1-2.9,4.5-5.5,7.4-7.7c5.1-4.3,9.8-8.8,14.3-13.7c0.5-0.6,1-1.2,1.5-1.9
				c0.2-0.3,0.4-0.3,0.6-0.1c0,0.1,0,0.2,0,0.4c-0.1,0.4-0.2,0.8-0.5,1.1c-2.1,2.7-4.3,5.3-6.7,7.8c-3.2,3.4-6.3,6.7-9.4,10.1
				c-0.9,1-1.6,2.1-2.4,3.2c-1.2,1.7-2.3,3.5-3.6,5.2c-1.6,2.6-3,5.3-4.1,8.1c-0.2,0.5-0.3,1-0.1,1.5c0.7,2.8,1.7,5.6,2.8,8.3
				c1.5,3.5,2.7,7,3.7,10.6c0.9,3.4,1.7,6.9,2.3,10.3c0.8,5.1,1,11.5,1.3,16c0.5,8.6-1.4,11.6-1.1,12.3c0,0.3,2.7,12.1,2.7,12.1
				c2.8-6.8,2.3-27.2,2.1-30.2c-0.4-5.6-1.4-10.4-1.8-13.4c-0.6-4.8-1.7-9.6-3.2-14.1c-1.6-4.8-3.7-8.3-3.9-10.2
				S655.9,274,657.3,271.7L657.3,271.7z M638.1,9.8c-0.6-3.2-1.6-6.4-3-9.4c-0.2-0.2-0.3-0.3-0.5-0.4c-0.1,0.2-0.2,0.4-0.3,0.7
				c-0.1,0.5-0.2,1-0.3,1.6c-0.4,6.8-2.2,13.3-5.4,19.3c-3,6.1-4.2,12.9-3.4,19.6c0.2,2,0.3,3.9,0.3,5.9c0,2.2-1,4.2-2.6,5.6
				c-1.9,1.8-4.8,1.9-6.8,0.2c-0.7-0.6-1.3-1.4-1.9-2c-0.2-0.1-0.4,0-0.6,0.1c-2.3,4.9-4.2,9.9-5.9,15.1c-0.9,3.2-1.2,6.5-1.1,9.8
				c0.1,2.2-0.1,4.5-0.5,6.7c-0.2,1.2-0.6,2.3-1.2,3.3c-0.8,1.5-2.3,2.6-4,3c-1.5,0.5-3.2,0-4.4-1.1c-0.2-0.2-0.4-0.3-0.7-0.4
				l-0.6,0.1c-1.4,3.7-2.4,7.5-3,11.5c-0.5,2.7-0.5,5.5,0,8.3c0.5,2.1,0.7,4.2,0.5,6.3c-0.2,1.3-0.3,2.6-0.6,3.9
				c-0.4,2-1.6,3.7-3.5,4.6c-1.8,1-3.9,1.1-5.7,0.2c-0.4-0.3-0.9-0.2-1.2,0.2c-0.1,0.2-0.2,0.4-0.2,0.6c-0.4,2.7-0.8,5.5-1.1,8.2
				c-0.1,2.7,0.3,5.3,1.2,7.8c1.5,4.4,3,8.7,4.6,13.1c0.9,2.2,1.2,4.6,0.8,7c-0.3,1.7-0.3,3.4,0,5.1c0.3,2,0.3,4-0.2,5.9
				c-0.2,1.2-0.3,2.3-0.3,3.5c-0.1,1.7-0.5,2-2.5,2.6c-0.6,0.1-0.8-0.1-0.7-0.5c0.3-2.8-0.5-5.6-2.2-7.8c-0.7-1.1-1.5-2.2-2.4-3.2
				c-0.2-0.3-0.5-0.2-0.6,0.1c-0.2,0.8-0.4,1.5-0.5,2.3c-0.2,5.4-0.2,10.8,0.2,16.2c0.3,4.1,1.2,8.1,2.8,11.9c0.2,0.5,0.4,1,0.6,1.5
				c0.2,0.9-0.2,1.9-0.9,2.4c-0.6,0.6-1.5,0.7-2.2,0.4c-1.3-0.6-2.6-1.3-3.9-2c-0.6-0.3-1.1-0.7-1.7-1s-0.8,0.1-0.8,0.6
				c-0.2,2.5,0,5,0.3,7.5c0.6,5.7,2.4,11.1,5.2,16.1c1.7,2.8,3.1,5.8,4.3,8.9c0.7,2.2,2.3,3.9,4.4,4.7c3.1,1.4,6.2,11.1,9.3,12.5
				c0.9,0.3,1.6,0.9,2.1,1.7c0.4,0.8,1,1.5,1.8,2.1c6.1,4.1,11.9,8.8,17.2,13.9c6.4,6.1,11.2,7.2,17.6,13.3c1.9,1.8,5.3,0.6,7,2.5
				l0.4,0.1c0.1,0,0.3-0.5,0.2-0.7c-1.3-2.9-2.7-5.7-4-8.6l-0.1-0.4c-2.1-4.4-5.3-8.2-9.1-11.3c-0.7-0.6-1.5-1.2-2.3-1.6
				c-2.2-1.2-4.2-2.8-5.9-4.6c-2.4-2.3-5-4.3-7.8-6.1c-1.1-0.7-2.2-1.5-3.3-2.1c-3.7-2.3-7-5.2-9.9-8.4c-2.3-2.4-4.1-5.2-5.4-8.2
				c-0.4-1.1-0.9-2.2-1.3-3.3c0-0.1,0-0.3,0.2-0.3c0.1,0,0.2,0,0.3,0.1c0.7,1.1,1.6,2.1,2.2,3.3c3.2,5.5,8,10,13.7,12.9
				c3.5,1.8,6.9,3.8,10.3,5.8c1,0.6,2,1.3,2.8,2.1c1.9,1.8,4,3.4,6.3,4.8c1.1,0.7,2.2,1.5,3.2,2.4c0.5,0.4,1,1,1.6,0.6
				s0.2-1,0.1-1.5c-0.3-0.9-0.7-1.7-1.2-2.5c-1.4-2.2-2.8-4.5-4.3-6.6c-3.3-4.8-7.3-9.1-11.9-12.6c-1.3-1.1-2.6-2.2-4-3.3
				s-3.5-2.8-5.4-4.1c-5-3.5-9.2-8-12.3-13.2c-0.7-1.3-1.3-2.6-1.8-4c-1-2.3-2-4.6-3-6.9c-0.4-0.8-0.6-1.7-0.9-2.6
				c0-0.1,0-0.2-0.1-0.4c0.2,0,0.4-0.1,0.5,0.1c1.8,3.1,3.6,6.1,5.3,9.3c3,6,7.8,10.9,13.7,14c0.6,0.3,1.2,0.6,1.7,1
				c3.9,2.9,7.9,5.7,11.8,8.7c1.4,1.2,2.7,2.5,3.9,3.9l2.2,2.2c0.1,0,0.2,0,0.3-0.1c0,0,0.2-0.2,0.2-0.3c0-3-0.7-6-2.2-8.7
				c-2.4-4-5-7.7-8-11.2c-2.8-3.2-5.8-6.2-9-8.9c-3.4-2.7-6.2-6.1-8.3-9.9c0-0.2,0.1-0.5,0.1-0.7l0.4,0.1l0.3,0.2
				c5.7,4.8,11.4,9.4,17,14.2c1.7,1.7,3.3,3.4,4.8,5.3c0.5,0.5,0.9,1,1.4,1.4c0.1,0.1,0.2,0.1,0.3,0.1c0.1-0.1,0.2-0.2,0.2-0.3
				c-0.2-2.9-0.8-5.7-1.8-8.5c-1.6-3.7-3.3-7.5-5.1-11.1c-2.3-4.5-5.5-8.4-9.3-11.7c-4.1-3.5-7.6-7.7-10.3-12.4
				c-0.1-0.2-0.2-0.5-0.1-0.7c0.3-0.5,0.7-0.1,0.9,0.1c0.7,0.6,1.4,1.2,2.1,1.8c1.1,1,2.1,2,3.1,3c2.3,2,4.4,4.2,6.9,5.9
				c3.6,2.7,6.6,6.1,9,9.9c0.3,0.6,0.7,1.1,1.1,1.6c0,0.2,0.4,0.2,0.6,0.2c0.1-0.1,0.1-0.2,0.1-0.4c0.1-3.1,0.2-6.3,0.3-9.5
				c0-1.5-0.5-2.9-1.4-4c-3.6-4.9-7.7-9.4-11.5-14.1c-5.9-7.1-11.1-14.8-15.4-23c-2.2-4.7-3.4-9.7-3.6-14.9c0,0,0.3-0.5,0.3-0.5
				s0.6,0.2,0.6,0.4c0.8,2.7,1.7,5.3,2.4,8c0.6,2.2,1.5,4.2,2.6,6.1c3.5,5.9,7.6,11.4,12.4,16.4c3.8,4.2,7.6,8.4,11.3,12.6
				c0.4,0.4,0.7,0.7,1.1,1.1c0.1,0,0.3,0,0.4-0.1c0.1-0.1,0.2-0.2,0.2-0.3c0-1.8-0.3-3.7-1-5.4c-2.5-6.3-5.9-12.1-10.3-17.3
				c-4.2-5.1-7.7-10.7-10.3-16.8c-1.7-3.9-2.8-8-3-12.2c0-1.3,0.1-2.6,0.3-3.9c0.1-0.1,0.2-0.2,0.2-0.3c0.1-0.1,0.2,0.2,0.3,0.3
				c0.1,0.9,0.4,1.8,0.6,2.8c1.1,6,3.6,11.7,7.3,16.5c1.5,1.9,2.8,3.8,4.3,5.7c2,2.6,3.9,5,5.9,7.5c2.9,3.2,5.2,7,6.9,11
				c0.1,0.1,0.2,0.2,0.3,0.2c0.1,0.1,0.2,0.1,0.4,0.1c0.1,0,0.2,0,0.3,0c0.1-0.2,0.2-0.4,0.3-0.7c0.3-1.8,0.6-3.7,0.9-5.5
				c0.3-0.8,0-1.6-0.8-2c-0.5-0.4-1-0.9-1.2-1.5c-0.8-1.9-1.5-3.9-2-6c-1-4.9-2.8-9.6-5.3-14c-1.6-2.9-3.3-5.7-5.3-8.3
				c-1.1-1.2-1.9-2.6-2.3-4.1c0-0.1,0.1-0.2,0.1-0.3h0.3c1.9,2.4,3.9,4.7,5.7,7.1c3.1,3.9,5.8,8.2,8,12.7c0.6,1.4,1.1,3,1.7,4.4
				s1,2.5,1.5,3.7c0,0.2,0.4,0.3,0.6,0.3c0.2-0.1,0.4-0.3,0.5-0.5c0.5-1.7,0.6-3.4,0.3-5.1c-0.1-1-0.4-2.1-0.6-3.1
				c-0.5-2.2-1.1-4.4-1.6-6.6c-0.9-4.1-1.8-8.3-2.8-12.4c-1.6-6.7-4.5-13-8.6-18.5c-1.8-2.3-3.1-4.9-4.1-7.6c0-0.1,0-0.3,0.1-0.3
				c0.1,0,0.2,0,0.3,0c0.3,0.2,0.6,0.5,0.8,0.8c2.8,3.5,5.6,7,8.3,10.6c4.2,5.8,7.1,12.3,8.7,19.2c0.3,1.3,0.7,2.5,1.2,3.8
				c0.1,0.2,0.3,0.4,0.5,0.6c0-0.1,0.4-0.3,0.4-0.5c0.8-2.3,1-4.7,0.6-7c-0.5-2.7-0.9-5.5-1.1-8.2c-0.9-5.9-2.8-11.6-5.5-16.9
				c-0.2-0.3-0.4-0.7-0.6-1.1c-2.7-7-5.8-13.9-9.4-20.5c-0.1-0.2-0.1-0.5-0.1-0.7c0-0.1,0-0.2,0.2-0.3c0.1,0,0.3,0,0.4,0.1
				c0.6,0.5,1.2,1.1,1.6,1.7c2.1,3,4.3,6,6.1,9.3c2.9,5.3,5.6,10.6,8.2,15.9c1.4,3.3,2.6,6.6,3.5,10.1c0,0.3,0.4,0.5,0.6,0.8
				c0.3-0.3,0.5-0.6,0.7-1c1.1-4.2,1-8.7-0.3-12.8c-0.1-0.9-0.6-1.7-0.8-2.8c-0.5-3.1-1.3-6.2-2.3-9.2c-0.8-2.9-1.8-5.8-3-8.6
				c-0.9-2.1-1.9-4.1-2.9-6.1s-2-3.7-3.1-5.5c-0.7-1.2-1.7-2.3-2.6-3.4c-0.1-0.1-0.1-0.2,0-0.3c0.1,0,0.2,0,0.3,0
				c0.6,0.3,1.1,0.7,1.5,1.2c3.9,4.3,7.3,9.1,10.2,14.1c2.3,4.6,4.2,9.4,5.7,14.3c0.2,0.5,0.3,1,0.5,1.5c0,0,0.2,0.2,0.3,0.2
				c0.1,0,0.2-0.1,0.3-0.3c0.7-2,1-4.1,0.8-6.3c-0.4-5.5-1.5-11-3.3-16.3c-0.4-0.9-0.8-1.7-1.1-2.5c0-0.2,0.1-0.4,0.2-0.6
				s0.3,0,0.3,0.2c0.8,1,1.6,2.1,2.2,3.3c1.2,2.5,2.3,5,3.5,7.5c0.1,0.2,0.3,0.4,0.4,0.6c0.2-0.3,0.3-0.6,0.3-0.9
				c0-0.8-0.1-1.6,0-2.4c0.1-1.2,0-2.4-0.5-3.4c-1.3-3.1-2.2-6.2-2.7-9.5c-0.8-4.2-2-8.2-3.9-12c-0.9-1.7-1.6-3.6-2-5.6
				c0-0.3,0.1-0.5,0.2-0.7c0.2,0.1,0.5,0.2,0.7,0.3c1.6,1.7,3,3.7,4.1,5.8c0.9,1.8,1.8,3.5,2.8,5.3c0.2,0.2,0.4,0.3,0.7,0.3
				c0.1,0,0.3-0.3,0.3-0.5c0.2-2.1,0.3-4.2,0.5-6.3c0.2-1.6-0.1-3.2-1.1-4.5c-0.6-1.2-1.1-2.4-1.4-3.7c-0.9-2.5-1.8-5-2.6-7.5
				c-0.9-2.2-2.1-4.3-3.4-6.3l-1.3-2.4c0,0,0-0.1,0-0.1h0.3c2.8,2.3,5.1,5.1,7,8.1c0.6,1,1.2,2,1.9,3c0,0.1,0.5,0.1,0.7,0.1
				s0.1-0.2,0.1-0.4c-0.1-0.7,0-1.3-0.1-2c-0.7-4.2-1.1-8.4-1.7-12.4S639,13.9,638.1,9.8L638.1,9.8z M468.1,245.9
				c0.7,0.9,1.6,1.8,2.6,2.4c2.6,1.7,5.4,3.4,8.1,5c0.2,0.1,0.4,0,0.6-0.1c0.1-0.2,0.1-0.5,0-0.8c-0.8-1.2-1.6-2.4-2.5-3.5
				c-1.1-1.3-2-2.8-2.6-4.4c-2-4.8-4-9.5-5.8-14.3c-0.9-2.7-1.7-5.5-2.2-8.3c-1.2-4.3-2.2-8.7-2.9-13.1c-0.1-0.8-0.4-1.5-0.8-2.2
				l-3.9-9.5l-0.3-0.7l0.6,0.4l0.1,0.4c0.9,0.8,1.5,1.9,1.9,3c0.7,1.4,1.5,2.8,2.3,4.1c1.4,2.1,2.4,4.4,2.9,6.9
				c0.1,0.8,0.3,1.5,0.5,2.3c2.6,8,5.6,15.9,9,23.7c0.3,0.6,0.5,1.2,0.8,1.8c2.3,5.6,5.8,10.6,10.4,14.6c2.2,2.1,4.5,4,6.8,6
				c0.4,0.3,0.8,0.6,1.3,0.8c0.1,0,0.2,0.1,0.4,0.1c-0.1-0.2,0.2-0.5,0.1-0.6c-0.5-0.8-0.9-1.7-1.1-2.6c-0.5-1.9-1.1-3.8-1.9-5.6
				c-2.1-4.5-3.6-9.3-4.4-14.3c-0.4-2.7-1-5.4-1.9-8.1c-0.8-2.4-1.3-4.8-1.7-7.3c-0.5-2.2-1.2-4.3-2.1-6.4
				c-1.7-4.2-3.8-8.1-6.3-11.9c-5.1-7.9-11-15.1-17.7-21.7c-3.2-3.3-6.8-6.3-10.1-9.4c-2.5-2.2-5.2-4-8.2-5.5
				c-1.9-0.9-3.6-2.2-5-3.8c-0.5-0.6-1.1-1.1-1.8-1.5c-0.2-0.1-0.5-0.1-0.8,0c-0.2,0.2-0.3,0.4-0.2,0.7c0.3,1.7,0.8,3.3,1.4,4.9
				c1.7,4.5,2.6,9.2,2.8,13.9c0.2,2.4,0.6,4.7,1.3,7c1.7,5.7,3.8,11.2,6.2,16.7c0.4,0.7,0.7,1.4,0.9,2.2c0.8,3.6,2.1,7.1,3.9,10.3
				l2,4.8c0.9,2.3,2.2,4.5,3.9,6.4c2.7,3,5.2,6.3,7.4,9.7c1.7,2.7,3.6,5.2,5.7,7.7L468.1,245.9z M464.8,261.5c0.4,0,0.8-0.1,1.1-0.3
				c0.3-0.2,0.6-0.5,0.9-0.7c-0.1-0.2-0.3-0.4-0.6-0.5c-1.8-0.7-3.7-1.5-5.5-2.2c-3.8-1.2-7.6-2.3-11.4-3.4c-0.1,0-0.3-0.1-0.4-0.1
				c-7.5-1-14.6-3-22.3-3.2c-3.3,0-6.6-0.5-9.9-0.7c-2.6-0.1-5.3-0.1-7.9-0.1c-3.8,0-7.6,0.1-11.4,0.3c-2,0.1-3.9,0.4-5.9,0.6
				c-5.2,0.7-10.5,1.4-15.7,2.1c-3.1,0.4-6.2,0.9-9.4,1.3c-2.6,0.4-5.2,0.7-7.8,1c-0.2,0.1-0.4-0.1-0.5-0.2c0.2-0.2,0.3-0.4,0.5-0.5
				c1.8-0.8,3.7-1.5,5.5-2.1c3.9-1.1,8-2,12-2.7c5.1-0.7,10.1-1.8,15.2-2.7c4.7-0.8,9.4-1.2,14.2-1.3c1.4-0.1,2.9,0,4.3-0.1
				c5.4-0.6,10.8-0.7,16.2-0.4c5.5,0.2,11,0.8,16.5,1.4c2.9,0.3,5.8,0.6,8.7,0.8c1.8,0.1,3.7,0.3,5.5,0.4c0.2,0,0.4-0.1,0.6-0.2
				c0-0.2-0.1-0.5-0.3-0.6c-1.6-1-3.2-1.9-4.9-2.7c-4.8-2.1-9.5-4.6-14.2-7c-6.5-3-13.1-5.5-20-7.5c-3.5-1.1-7.1-1.9-10.7-2.7
				c-1.5-0.3-3.1-0.5-4.7-0.6c-6.6-0.1-13.2,0.5-19.7,1.9c-2.7,0.8-5.4,1.7-8.1,2.7c-4.4,2.1-7.7,3.6-10.7,5.4s-5.8,3.1-8.6,4.8
				c-6.1,3.5-11.6,7.9-16.2,13.1c-0.8,0.9-1.5,1.9-2.2,2.8c-0.4,0.5-0.2,1,0.5,1.1c0.8,0.2,1.5,0.4,2.3,0.5
				c3.9,0.5,7.8,1.3,11.6,2.3c0.5,0.1,1,0.2,1.5,0.3c3.6,1.1,7,2.3,10.5,3.5c1.8,0.6,3.6,1.1,5.3,1.6c5.8,1.3,11.7,2.2,17.4,4
				c0.4,0.1,0.8,0.2,1.1,0.3c3.7,0.3,7.3,0.9,10.9,1.9c3.4,0.7,6.8,0.6,10.1-0.4c2.1-0.7,4.4-0.9,6.6-0.8c3.4,0.2,6.9,0,10.3-0.4
				c0.5-0.1,1-0.2,1.6-0.2c3.6-0.1,7.1-0.8,10.4-2.1c3.8-1.1,7.6-2.3,11.4-3.4c0.5-0.1,1-0.2,1.5-0.4
				C454.9,263.4,459.8,262.1,464.8,261.5L464.8,261.5z M489.8,299.6c9.8,0.5,19.5,0.1,29.3-1c3.1-0.6,6.3-0.6,9.4-0.2l0.4-0.2
				c0,0,0.1-0.5-0.1-0.6c-1.7-1.4-3.7-2.5-5.8-3.2c-6.5-2.1-13.2-3.9-19.9-5.2c-8.4-1.6-17-2.2-25.6-1.9c-4.2,0.1-8.4,0-12.6,0.1
				s-8.7,0.9-13,1.3c-2,0.2-3.9,0.5-5.9,0.6c-0.1-0.1-0.2-0.3-0.4-0.3c-0.3,0,0.2-0.2,0.3-0.1c1.1-0.5,2.2-0.9,3.3-1.2
				c5.2-0.8,10.3-2.5,15.6-2.9s10.8-0.6,16.2-1c1.7-0.1,3.4,0,5.1-0.2c3-0.3,6.1-0.3,9.1,0c0.9,0.1,1.8,0.2,2.8,0.2
				c4.5,0,9,0.3,13.4,0.9c1.7,0.1,3.3,0.5,5.1,0.8l0.3-0.1c0.1,0,0.1-0.3,0.1-0.3c-0.6-0.5-1.3-0.9-1.9-1.4c-4-2.3-8.4-4.4-12.5-6.7
				c-1.9-1-3.7-2.1-5.4-3.3c-2.9-1.9-6.1-3.2-9.5-3.8c-4.4-0.9-8.9-1.3-13.4-1.1c-6.1,0.1-12.1,0.7-18.1,1.7
				c-5.4,1-10.9,2.1-16.3,3.3c-1.6,0.5-3.2,1.2-4.7,2c-1.7,0.7-3.3,1.7-4.9,2.5c-4.6,2.5-9.3,5-14,7.4c-2.3,1.1-4.4,2.4-6.4,3.9
				c-0.9,0.8-1.8,1.5-2.6,2.4c-0.1,0.2-0.2,0.5-0.1,0.7c0.1,0.2,0.4,0.3,0.6,0.4c0.4,0,0.8-0.1,1.2-0.1c1.5-0.1,3-0.2,4.3-0.2
				c3.4-0.1,6.9,0.4,10.1,1.5c3.1,1,6.3,1.9,9.5,2.8c1.9,0.6,3.8,1.2,5.6,1.8s4,1.4,6,1.9c2.3,0.6,4.5,1.6,6.5,2.9
				c2.5,1.7,5.3,2.9,8.3,3.7l14.4,4.3c0.6,0.2,1.3,0.4,1.9,0.5c7.8,1.7,15.7,2.6,23.7,2.5c6.9,0,13.7-1.1,20.2-3.2
				c2.4-1,5-1.6,7.3-2.3c2-0.6,3.8-1.6,5.5-2.8c0.8-0.5,1.9-0.8,2.2-2c-0.9-0.2-1.8-0.5-2.6-0.7c-3.8-0.7-7.6-1-11.4-0.9
				c-9,0.1-18-0.4-26.9-1.4c-1.4-0.2-2.8-0.5-4.3-0.8l-0.3-0.2c0.1-0.2,0.3-0.4,0.5-0.5C489.3,299.8,489.5,299.7,489.8,299.6
				L489.8,299.6z M307.6,298.9c-0.7,2.7-1.3,5.4-1.9,8.1c-0.2,0.8-0.3,1.6-0.3,2.4c0.2,2.1,0.5,4.2,0.8,6.3c0.7,3.6,2.3,7,4.6,9.9
				c2.1,2.9,4.6,5.5,7.4,7.7c2.8,2.5,6.2,4.1,9.9,4.7c3,0.4,6,0.9,9,1.2c4,0.5,8-0.5,11.3-2.7c0.9-0.5,1.8-1,2.8-1.5
				c0.7-0.3,1.4-0.7,2.1-1.1c2.4-1.3,3.9-3.7,4.2-6.4c0.1-1.3,0.3-2.6,0.5-3.9c0.2-3.2-0.6-6.4-2.3-9.1c-1.5-2.5-4.5-3.6-7.3-2.6
				c-2.3,0.6-4.4,1.9-6,3.6c-1.9,1.9-1.9,5.1,0,7c0.4,0.4,0.9,0.7,1.4,1c0.5,0.3,0.9,0.5,1.4,0.6c1.4,0.5,3,0.1,4-1
				c0.5-0.6,0.9-1.3,1.4-1.9c0.2-0.3,0.5-0.5,0.9-0.7c0.3-0.1,0.9,0.6,0.9,1.1c0.1,1.5-0.6,2.9-1.9,3.7c-3.3,2.2-7.6,2-10.6-0.5
				c-1.7-1.8-2.7-4.3-2.6-6.8c0-1.9,0.7-3.7,1.9-5.1c1.9-2.4,4.3-4.3,7.2-5.4c5.6-2.4,12.2,0.2,14.6,5.8c0,0,0,0,0,0
				c0.1,0.2,0.2,0.5,0.3,0.7c2.2,5.6,2.4,11.8,0.4,17.4c-0.6,1.8-1.7,3.3-3.1,4.4c-3.7,2.8-7.7,5.1-12,6.7c-3,1.1-6.2,1.6-9.4,1.3
				c-3.3-0.5-6.8-1-10.2-1.5c-4.7-0.8-9.1-3-12.5-6.4c-2.8-2.4-5.3-5.2-7.4-8.2c-0.3-0.3-0.6-0.5-0.9-0.7c-0.1,0-0.3,0-0.4,0
				c-0.1,0.1-0.2,0.2-0.2,0.3c0.3,1.5,0.5,3.1,0.8,4.6c0.6,2.8,1.1,5.5,2,8.1c0.9,2.5,1.9,4.9,3.1,7.3c0.8,1.8,1.8,3.5,2.7,5.3
				l3.2,7.7c1,2.4,2.4,4.7,4.2,6.7c3.1,3.4,5.7,7.3,9.1,10.4s6.8,6.4,10.3,9.3c3.8,3.3,9.1,4.3,13.8,2.5c1.6-0.5,3.2-1.2,4.7-2
				c2-1,3.7-2.5,4.8-4.5c0.7-1.4,1.7-2.7,2.5-4.1c1.8-3.2,4.4-6,7.6-7.9c2.8-2.1,5.9-4,9-5.6c2.3-1.1,4.6-1.9,7.1-2.4
				c2.3-0.4,4.6-1.2,6.9-1.8c3.9-0.7,7.9-0.9,11.8-0.4c0.3-0.1,0.5,0,0.7,0.2c1.4,1.7,2.8,0.7,4.3,0.3c3-0.9,5.9-2.2,8.7-3.7
				c3.7-1.7,7.9-2.4,11.9-2c2.2,0.1,4.5,0.4,6.7,0.8c1,0.1,2.1,0.4,3.1,0.7c2.4,0.7,4.8,1.5,7.2,2.4c1,0.4,1.9,0.9,2.7,1.5
				c0.3,0.2,0.2,1,0.1,1.4c-0.2,0.3-0.5,0.6-0.8,0.8c-1.3,0.9-2.6,1.7-4,2.5c-1.3,0.7-2.3,1.8-2.8,3.2c-0.1,0.5,0,1,0.4,1.4
				c0.7,0.8,1.8,1.3,2.8,1.2c3,0.3,6.1,0.2,9.1-0.3c0.9-0.2,1.8-0.3,2.7-0.1c5.4,0.4,10.7,1.6,15.8,3.4c2.9,1.2,5.8,2.5,8.8,3.6
				c2.9,1.2,5.7,2.8,8.2,4.8c1.3,0.9,2.5,2,3.7,3c0.2,0.2,0.3,0.4,0.3,0.7c-0.1,0.2-0.3,0.4-0.5,0.4c-3.7-0.7-6.6,1.3-9.6,2.9
				c-0.7,0.4-0.9,1.3-0.5,1.9c0,0,0,0,0,0.1c0.1,0.2,0.2,0.3,0.4,0.4c2,1.8,4.2,3.1,6.7,4c1.9,0.7,3.8,1,5.8,1
				c3.6-0.1,7.1,0.4,10.5,1.4c1.4,0.4,2.7,1,4,1.8c4,2.5,7.9,5.3,11.5,8.3c1.3,1.2,2.4,2.4,3.5,3.8c0.1,0.2,0.2,0.5,0.1,0.7
				c-0.1,0.2-0.4,0.3-0.6,0.3c-0.5,0-1-0.1-1.6-0.1c-1-0.1-2,0.2-2.7,0.9c-1.4,0.9-1.9,2.7-1,4.1c0.2,0.3,0.5,0.6,0.8,0.9
				c1.6,1.4,3.5,2.3,5.6,2.9c2.2,0.7,4.2,1.3,6.4,2c0.2,0,0.5-0.1,0.7-0.3c0-0.1,0.1-0.2,0.1-0.4l-4.3-10.2c-0.8-1.8-2-3.4-2.8-5.2
				c-1.2-2.6-2.7-5.1-4.5-7.3c-1.1-1.6-2-3.4-2.6-5.3c-0.2-0.5-0.3-1-0.3-1.5c0-2.9,0.9-5.8,2.7-8.2c0.9-1,1.4-2.3,1.4-3.7
				c0.3-2.6,0-5.3-0.7-7.8c-0.7-2.8-1.3-5.6-1.7-8.5c-0.3-2.4-0.1-4.8,0.7-7c0.7-2,1.3-4,1.7-6.1c0.3-2.5,1.8-4.7,4-6
				c2.1-1.3,4.2-2.8,6.1-4.4c2.3-1.7,5.1-2.8,7.9-3c3.8-0.6,7.6-0.6,11.4,0c1.8,0.4,3.7,0.6,5.5,0.8c4.8,0.6,9.6,1.5,14.4,2.8
				c4.2,1.1,8.4,2.4,12.3,4.2c4.3,1.7,5.7,1.9,5.4,1.2c-1-1.5-2.5-2.7-4.2-3.4c-4.2-2.7-8.3-5.7-12-9c-1.7-1.5-3.6-2.8-5.6-3.8
				c-8-4.1-16.2-7.7-24.7-10.7c-3.7-1.4-7.7-2.1-11.6-1.9c-4.4,0-8.7,0.4-13,1.3c-5.6,0-10.4,2.8-15.3,5c-1.9,1-3.7,2.1-5.3,3.5
				c-3.6,2.8-7.1,5.9-10.4,9.1c-1,1-1.9,2.2-2.8,3.3c-0.2,0.1-0.4,0.2-0.6,0.3c-0.1-0.3-0.3-0.8-0.2-1c0.5-1.1,1.1-2.1,1.8-3
				c3.7-4.1,7.7-8,11.9-11.7c2.4-2,5.1-3.7,8-5.1c1-0.4,1.9-0.9,2.9-1.4c0.3-0.1,0.8-0.3,0.4-0.9c-0.1-0.2-0.4-0.3-0.6-0.3
				c-1.4,0.2-2.9,0.4-4.3,0.7c-0.7,0.1-1.3,0.3-1.9,0.5c-6.4,1.5-13.1,1.7-19.6,0.4c-3.8-0.7-7.6-0.4-11.3,0.8
				c-3.5,1.1-7.1,2.1-10.6,3.2c-0.5,0.2-1,0.4-1.5,0.6c-5.2,2.6-9.9,6-13.9,10.3c-0.6,0.7-1.2,1.4-1.9,2c-0.2,0.1-0.5,0.2-0.7,0.1
				c-0.3-0.1-0.1-0.5,0.1-0.7c0.3-0.6,0.6-1.2,1-1.7c3.4-4.7,7.7-8.7,12.5-12c2.4-1.3,4.9-2.5,7.5-3.5l2.6-1.1
				c0.3-0.1,0.3-0.4,0-0.6c-0.2-0.2-0.4-0.3-0.7-0.4c-5.9-2.1-11.9-3.4-18.1-4c-4.2-0.1-8.4-0.5-12.6-0.3c-4,0.1-7.9,0.6-11.8,1.4
				c-4.1,0.9-8.1,2.3-11.9,4.2c-0.7,0.4-1.4,0.8-2,1.3c-3.3,2.6-7,4.7-10.1,7.6c-0.2,0.2-0.4,0.2-0.7,0.3c-0.1,0-0.2,0-0.3-0.1
				c-0.1-0.1-0.2-0.2-0.2-0.4c1-1.2,2-2.4,3.1-3.6c1.8-1.7,3.8-3.3,5.6-4.9c1.4-1.3,3.1-2.3,4.9-3l4.4-1.9l4.8-2
				c1.1-0.5,2.2-0.8,3.4-1c3-0.2,5.9-1.3,8.9-1.8c0.3-0.1,0.5-0.2,0.6-0.5c0-0.2-0.2-0.4-0.4-0.5c-3.3-1.3-6.7-2.5-10-3.7
				c-1.1-0.4-2.3-0.7-3.5-1c-8.8-2.7-18.1-3-27-1.1c-0.8,0.2-1.5,0.4-2.3,0.8c-1.7,0.8-3.4,1.4-5.2,1.8c-0.8,0.2-1.5,0.5-2.2,0.9
				c-2.8,1.7-5.8,3-9,3.8c-1.8,0.5-3.4,1.5-5.2,1.9s-3.1,0.7-4.6,1.1l-0.4-0.1c-0.1,0,0.3-0.4,0.5-0.5c3-1.3,6.1-2.6,9.1-4
				c2.7-1.3,5.3-2.9,7.7-4.8c0.7-0.6,1.4-1.2,2.2-1.7c4-2.3,7.4-5.5,10.2-9.2c0.7-0.8,1.4-1.6,2-2.5s1.7-1.3,1.5-2.6
				c-0.9,0-1.8,0-2.7,0.1c-6.1,1-12.2,2-18.3,3.1c-5.6,1-11.2,2-16.7,3.1c-1,0.2-2,0.6-3,1c-2,1-4.1,1.8-6.3,2.3
				c-0.6,0.2-1.2,0.5-1.7,0.9c-1.2,0.5-2.4,1.2-3.5,1.7c-0.2,0.1-0.5,0.2-0.7,0.3c0.1-0.2,0.2-0.3,0.4-0.5c3.7-2.4,7.5-4.9,11.3-7.3
				c0.6-0.4,1.2-0.6,1.8-0.8c12.2-3.7,24.7-6.4,37.4-8c0.3-0.1,0.5-0.2,0.7-0.3c0.1-0.1,0.2-0.2,0.2-0.3l-0.1-0.3
				c-1.3-0.2-2.6-0.3-3.9-0.5c-2.3-0.4-4.7-0.7-7-1.2c-4.4-0.9-8.7-2.3-12.8-4c-3.3-1.4-6.8-2.3-10.1-3.4c-0.8-0.3-1.5-0.4-2.3-0.7
				c-3.8-1.5-7.8-2.6-11.8-3.4c-1.7-0.3-3.3-0.9-4.9-1.6c-3.5-1.3-7.1-2-10.8-2.2c-0.9-0.1-1.9,0.2-2.6,0.9c-1.1,0.9-2.1,2-3,3.1
				c-3.4,4.7-6.5,9.7-9.1,14.8c-1.6,3-3,6.2-4,9.5l-1.5,5.8l-2.1,8.1c-0.1,0.1-0.2,0.2-0.3,0.1c0,0-0.3-0.1-0.3-0.2
				c-0.4-1.4-0.5-2.8-0.5-4.3c0.4-6.3,1.8-12.6,4.4-18.4c0.9-2.2,1.7-4.5,2.5-6.7c0,0-0.1-0.6-0.2-0.5c-0.2,0-0.5,0.1-0.6,0.3
				c-1.3,1.3-2.6,2.7-3.8,4c-1.7,1.6-3,3.5-3.8,5.6c-0.1,0.3-0.2,0.5-0.4,0.7C309.6,291.3,308.2,295,307.6,298.9L307.6,298.9z
				 M367.2,386.3c-1.1,1.7-2.7,3-4.5,3.8c-1.2,0.6-2.3,1.2-3.5,1.9c-0.2,0.2-0.3,0.4-0.3,0.7c0,0.2,0.2,0.4,0.4,0.5
				c2,0.5,4.1,1,6.2,1.4c4,0.7,8.1,1.4,12.1,1.9c4.7,0.4,9.5-0.1,14.1-1.4c1-0.2,2-0.5,3.1-0.6c3.9-0.5,7.9-1,11.7-1.5
				c2.1-0.2,4.2-0.7,6.1-1.5c1.5-0.5,3-1,4.5-1.4c0.9-0.4,1.8-0.5,2.7-0.8c3.7-1.3,7.4-2.7,11.2-3.9c3.4-1.1,7-1.4,10.5-1.1
				c0,0,0.3,0.3,0.4,0.4s-0.2,0.1-0.4,0.1l-5,1.3c-4.8,1.4-9.5,3.2-14,5.4c-0.7,0.3-1.4,0.7-2,1.2c-0.6,0.4-1.1,0.7-1.8,1
				c-3.2,1.1-6.5,2.3-9.7,3.4c-0.2,0.1-0.5,0.2-0.7,0.3c-4.6,0.6-9.2,1.2-13.8,1.6c-4.1,0.2-8.1,0.8-12.1,1.8
				c-1.3,0.3-2.6,0.4-3.9,0.2c-6.9-0.2-13.7-1.1-20.4-2.8c-0.4-0.1-0.8-0.1-1.1-0.1l-0.3,0.1c0,0,0,0.6,0.1,0.7
				c0.4,0.3,0.8,0.6,1.3,0.9c1.9,1,3.7,2.1,5.4,3.2c4.1,3,9,3.5,13.8,4.5c0.2-0.1,0.6,0.1,0.8,0c2.2-1.3,4.6-0.4,6.9-0.5
				s4.7,0.1,7.2,0c3.9-0.2,7.9-0.6,11.9-0.9c3.8-0.3,7.6-1,11.3-2c5.1-1.4,10.1-2.9,15.2-4.5c6.3-2,12.7-3.5,19.2-4.6
				c4.6-0.6,9.2-0.6,13.8-0.1c0.1,0,0.3,0.3,0.4,0.4s-0.4,0.4-0.7,0.3c-3.1,0.4-6.3,0.6-9.5,0.9c-7.1,1-14,2.9-20.5,5.6
				c-2.1,0.9-4.2,1.5-6.4,2.2c-1,0.4-2,0.8-2.9,1.2c-4.6,2-9.4,3.4-14.4,4.3c-1.6,0.3-3.1,0.5-4.7,0.7c-4.5,0.4-8.9,0.7-13.4,1.1
				c-2.5,0.2-5,0-7.5,0.1c-0.2,0.1-0.6,0.1-0.7,0.3c-0.1,0.2,0,0.5,0.1,0.7c0.8,1.7,2.7,2.7,4.5,2.5c0.4-0.2,1,0.3,1.5,0.4
				c3.5,1.3,7.1,2.1,10.8,2.4c5.9,0.7,11.9,0.9,17.8,0.6c5.7-0.3,11.3-1,16.9-2c3.1-0.7,6.2-1.2,9.3-1.8c0.8-0.2,1.5-0.4,2.3-0.6
				c3.9-1.3,7.8-2.6,11.6-4c7.5-3,15.6-4.1,23.7-3.4c4.9,0.2,9.7,0.7,14.6,1.1c0.8,0.1,1.6,0.2,2.3,0.5c1.1,0.3,1.8,0.8,1.3,1
				c-0.5,0.2-1,0.2-1.4,0.2c-3.3,0-6.6-0.3-9.9-0.1c-2.2,0-4.5,0-6.7,0c-2.2,0-4.5,0.2-6.7,0.5c-2.4,0.3-4.7,0.6-7.1,1
				c-3.4,0.4-6.8,1.3-9.9,2.5c-3.3,1.2-6.8,2.2-10.2,2.9c-1,0.2-2,0.5-3,0.9c-4.1,1.8-8.4,3.1-12.9,3.8c-6.4,1.4-13,2.1-19.6,2
				c-2.6-0.1-5.2-0.4-7.9-0.5c-0.2,0.1-0.4,0.3-0.5,0.5c0,0.1,0.1,0.2,0.1,0.3c5.2,2.9,11,4.4,17,4.6c4.9-0.1,9.8,0.4,14.6,0.7
				c2.4,0.2,4.8,0.1,7.1-0.4c7.5-1.6,15.1-3.3,22.8-5c5.1-1.2,10.3-2.5,15.4-3.6c1.7-0.4,3.4-0.6,5.1-0.6c3.2,0,6.3-0.3,9.5-0.8
				c2-0.3,3.9-0.2,5.9,0.1c1.7,0.3,3.4,0.3,5.1,0.5c0.2,0,0.5,0.1,0.7,0.2c-0.3,0.2-0.6,0.4-1,0.4c-1.8,0.1-3.7,0.1-5.5,0
				c-2.4-0.3-4.8-0.2-7.1,0.3c-2.5,0.5-4.9,0.8-7.5,0.9c-2.4,0.1-4.7,0.7-6.9,1.7c-2.7,1.4-5.6,2.3-8.6,2.9c-0.5,0.1-1,0.2-1.5,0.3
				c-5.4,2.2-10.9,3.9-16.6,5.2c-4.1,1.1-8.2,1.9-12.4,2.5c-1.7,0.1-3.4,0.1-5.1-0.1l-3.9-0.1c-0.1,0-0.2,0-0.3,0.1
				c0.1,0.2,0,0.6,0.3,0.6c2,1,4,1.9,6.1,2.8c0.5,0.2,1,0.3,1.5,0.3c7.1,0.6,14.2,1.3,21.3,1.3c3.8,0,7.6-0.6,11.3-1.7
				c7.1-2.1,14.3-3.7,21.6-4.8c3.8-0.5,7.6-0.7,11.4-0.9c0.9,0,1.8,0.1,2.8,0.2c0.1,0,0.2,0.1,0.3,0.2c-0.1,0.1-0.2,0.2-0.3,0.3
				c-0.1,0.1-0.2,0.1-0.4,0.1c-4.8,0.9-9.6,1.9-14.4,2.8c-2.3,0.4-4.6,1-6.9,1.8c-1.7,0.7-3.5,1.1-5.3,1.4c-2.2,0.4-4.4,1.1-6.4,2
				c-4.2,2-8.8,2.9-13.5,2.8c-0.3,0-0.5,0-0.8,0.1c-0.2,0.1-0.4,0.3-0.5,0.5c0,0.1,0,0.2,0.1,0.3c1,1.7,2.8,2.9,4.8,3.1
				c4.9,0.8,10,0.7,14.9-0.1c5.1-0.9,10.1-1.6,15.2-2.6c2.1-0.4,4.2-0.5,6.3-0.7c0.3-0.1,0.8,0,1.2-0.1c5.3-0.9,10.8-1.2,16.2-1
				c5.6-0.2,11.1,0.8,16.2,3c0.1,0.2,0.2,0.4,0.4,0.6c0.2,0.1-0.4,0.4-0.7,0.3c-0.8-0.1-1.6-0.2-2.3-0.3c-7.5-1.5-15.2-1.9-22.9-1.2
				c-3.7,0.4-7.3,1.2-10.8,2.4c-5.4,1.9-11.1,3.2-16.8,3.9c-2,0.2-3.9,0.4-5.8,0.8c-1.1,0.2-2.4-0.5-3.3,0.6l2.6,1.7
				c3.6,2.2,7.8,3.3,12.1,3.1c5.7,0,11.3-0.7,16.8-2.1c6-1.5,12.2-2.4,18.4-2.7c2.9-0.1,5.8,0.5,8.5,1.6l0.1,0.3
				c0,0.1-0.1,0.2-0.3,0.3c-0.5,0.1-1,0.1-1.5,0c-4.2-0.4-8.5,0-12.5,1.2c-5,1.3-9.9,2.9-14.8,4.3c-3.4,1-6.9,1.7-10.5,2
				c-0.2,0.2-0.4,0.3-0.5,0.6c-0.1,0.2,0.1,0.2,0.1,0.3l0.6,0.5c0.4,0.2,0.7,0.4,1,0.7c3.6,3.2,8.2,4.9,13,4.8
				c4.2,0.4,8.5,0,12.6-0.9c2.8-0.7,5.4-1.1,8.2-1.7c5.2-0.9,10.5-1.1,15.8-0.5c2.6,0.2,5.2,0.9,7.6,2c0,0,0.3,0.2,0.1,0.3
				s-0.2,0.5-0.3,0.5c-1.2,0-2.4,0-3.6-0.1c-4.2-0.3-8.5,0-12.6,0.8c-2.2,0.4-4.4,1-6.5,1.8c-2.8,0.8-5.3,1.4-8,2.1
				c-3.7,0.8-7.5,1.3-11.4,1.2l-0.4,0.1c0,0.2,0,0.5,0.1,0.7c1.8,1.9,3.8,3.6,5.9,5.2c0.6,0.5,1.4,0.7,2.2,0.7
				c4.6-0.3,9.2-0.3,13.8-1c5.2-0.6,10.5-0.9,15.7-1c2,0,3.9,0.1,5.9,0.4c3.3,0.5,3.3,0.5,2.9-2.5c-0.2-1.8-0.5-3.7-0.6-5.5
				c-0.3-2.7-0.9-5.5-1.7-8.1c-0.3-1.3-1.3-2.4-2.6-2.7c-1.6-0.5-3.2-1.2-4.8-1.9l-0.2-0.6c0.2-0.1,0.4-0.2,0.7-0.3
				c1,0,2.1,0.1,3.1,0.1c1.6,0.1,2-0.3,1.7-1.7L548,452c-0.2-0.9-0.6-1.8-0.8-2.8c-0.7-4.7-1.4-4.1-4.5-5.8
				c-2.5-1.4-5.2-2.6-7.8-3.9c-1.4-0.7-2.9-1.2-4.5-1.5c-1.7-0.4-3.3-1-4.8-1.7c-0.2-0.1-0.2-0.4-0.4-0.5s0.4-0.4,0.7-0.3
				c0.6,0.2,1.3,0.3,2,0.3c2.1,0.1,4.2,0.1,6.3,0c2.4-0.3,4.6-0.9,7-1.4c0.5-0.2,0.8-0.7,0.6-1.3l0,0c-0.1-0.8-0.6-1.5-1.3-2
				c-2.8-2.2-6-3.8-9.5-4.6c-2.7-0.6-5.3-1.7-7.6-3.4c-1.4-1-2.5-2.3-3.2-3.9c-1.1-2.4-0.3-5.2,1.9-6.6c0.5-0.2,0.9-0.5,1.3-0.9
				c0.3-0.2,0.3-0.5,0.1-0.8c-0.1-0.1-0.1-0.1-0.2-0.2c-3.3-2.1-6.7-4.3-10-6.3c-1.2-0.8-2.5-1.4-3.8-1.8c-2.8-0.8-5.7-1.1-8.6-1.1
				c-6.2-0.1-12-2.8-16-7.5c-1.8-1.8-1.7-4.7,0.1-6.5c0,0,0,0,0,0c0.4-0.4,0.9-0.8,1.5-1c1.4-0.5,2.8-0.9,4.2-1.2
				c0.3,0,0.6-0.2,0.6-0.5c0-0.3-0.2-0.6-0.5-0.6c-2.9-1.5-6-2.8-9.1-3.8c-1.1-0.3-2.3-0.8-3.3-1.3c-3.6-1.7-7.4-2.9-11.3-3.6
				c-4.3-0.7-8.5-1.6-12.8-2.4c-0.8-0.2-1.6-0.2-2.3,0c-1.9,0.4-4,0.3-5.8-0.4c-0.8-0.3-1.5-0.7-2.2-1.2c-1.2-1-1.6-2.6-1-4
				c0.5-1.7,1.5-3.2,2.8-4.3c0.7-0.6,1.4-1.2,2.1-1.8c0.3-0.1,0.2-0.5-0.2-0.6c-1.8-0.4-3.6-0.8-5.4-1.1s-3.4-0.2-5.1-0.5
				c-3.3-0.3-6.6,0-9.8,0.8c-0.4,0.1-0.8,0.2-1.1,0.5c-2.2,1.8-4.7,2.9-7.5,3.4c-4.3,1.1-8.3,3.1-11.8,5.8c-1,0.7-1.9,1.5-2.9,2.1
				c-0.4,0.1-0.8,0.1-1.1-0.1c-0.3-0.3-0.4-0.6-0.4-1c0.4-1.8,1.3-3.5,2.7-4.7c0.7-0.8,1.6-1.4,2.3-2.1c0.1,0,0.1-0.4,0.1-0.6
				c-0.1,0-0.3,0-0.4,0c-2.2,0.4-4.4,0.9-6.6,1.3c-0.7,0.1-1.3,0.3-1.9,0.5c-3.4,1.4-7,2.4-10.6,3c-0.9,0.2-1.8,0.6-2.6,1.1
				c-2.9,1.8-5.9,3.5-8.7,5.4c-2.4,1.6-4.5,3.8-6,6.3C369.6,382.9,368.3,384.6,367.2,386.3L367.2,386.3z M544,507
				c-0.3,0-0.5,0.2-0.6,0.4c-0.1,0.2,0,0.5,0.1,0.7c0.8,0.8,1.6,1.7,2.3,2.7c1.7,2.7,4.2,2.7,7,2.7c0.1,0,0.3-0.1,0.4-0.2
				c0.1,0,0.2-0.1,0.3-0.1c0.1-0.1,0.2-0.2,0.2-0.3l0.4-4.7c-1.2-1.1-2.7-0.9-4.1-1C548.1,507.1,546.1,507,544,507L544,507z
				 M542.7,496c-0.7,0-1.3,0-2,0.1c-2.5,0.4-5,0.5-7.5,0.4c-0.1,0-0.2,0.1-0.3,0.1c0.1,0.2,0,0.6,0.1,0.7l5,5
				c0.6,0.7,1.5,1.1,2.4,1.1c1.6,0.1,3.2,0.2,4.7,0.3c2.9,0,5.8,0.4,8.6,1.1c0.2,0,0.5-0.1,0.7-0.3c0.2-0.2,0.3-0.4,0.4-0.7
				c0.5-2.3,0.7-4.7,0.5-7c0-0.8-0.4-1-1.3-1C550.2,496,546.4,496,542.7,496L542.7,496z M536.2,492.2c5.5-0.6,11.1-0.4,16.5,0.5
				c0.5,0.1,1.1,0.1,1.6,0.1c0.5,0,0.9-0.3,0.9-0.8c0-0.1,0-0.2,0-0.3l-0.8-6.3c-0.1-0.5-0.2-1-0.3-1.4c0-0.7-0.5-1.3-1.2-1.3
				c0,0,0,0,0,0l0,0c-3.5-0.4-7.1-0.3-10.6,0.3c-7,1.1-14,2.4-21.1,3c-0.2,0-0.4,0.1-0.6,0.3c-0.1,0.2-0.1,0.5,0.1,0.7
				c2.3,2.5,5.2,4.5,8.3,5.9c1.1,0.6,2.3,0.6,3.4,0C533.6,492.4,534.9,492.2,536.2,492.2L536.2,492.2z M345.4,410.7
				c-0.6,0.7-1.1,1.5-1.4,2.3c-0.6,2-1.1,4.1-1.4,6.2c-0.4,3.1-1,6.2-1.7,9.3c-0.6,1.9-0.8,4-0.6,6c0.5,3.8,1,7.6,1.3,11.4
				c0.4,4.8,1.6,9.6,3.6,14c1.3,3.6,3,7.1,5.2,10.3c0.6,2.8,2.6,3.2,5,3.2c0.9,0,1.2-0.2,1.3-1.5c0.1-0.7,0.4-0.8,1-0.8
				c2.3,0.1,4.4,1,6.2,2.4c4.2,3.4,7.7,7.6,10.5,12.2c1.8,3.3,3.9,6.6,5.8,9.8c0.3,0.5,0.6,0.9,1,1.3c0.7,0.7,0.9,2.2,2.2,2
				s1.5-1,2.1-1.6c1.6-1.7,4.2-2.1,6.2-0.9c0.7,0.4,1.4,0.7,2.2,0.9c2.5,0.9,4.6,2.7,5.7,5.1c1.4,2.7,2.8,5.4,4.1,8.1
				c1.4,3.1,3.4,6,5.9,8.3l4.3,4.1c0.3,0.3,0.7,0.4,1.1,0.1c0,0,0,0,0,0c0.1-0.1,0.2-0.2,0.2-0.3c0.7-2,2.6-3.4,4.7-3.5
				c3.3-0.8,6.7,0.1,9.2,2.4l9.1,7.6c2.4,2,5.1,3.7,7.9,5.2c0.5,0.3,1,0.5,1.4,0.7c1.5,0.7,2.5,2.2,4.3,2.2
				c-0.7-1.4-1.5-2.7-2.5-3.9c-0.8-1.3-1.5-2.5-2.1-3.8l-3.3-6.3c-0.9-1.6-1.4-3.4-1.5-5.3c0-0.1,0-0.3,0-0.4c0,0.1,0.4,0.1,0.5,0.3
				c2.3,3.7,5.5,6.8,9.2,9c2.1,1.5,4.3,3,6.5,4.6c3.1,2.4,6.5,4.5,10.1,6.3c3.6,1.7,7,3.7,10.5,5.5c0.5,0.2,1,0.4,1.5,0.5
				c0.2,0,0.5-0.1,0.6-0.3c0-0.9,0-1.8,0-2.7c-0.3-1.9,1-3.6,2.9-3.8c0,0,0,0,0,0c0.2,0,0.4,0,0.6,0c5-0.6,10.1,0.6,14.4,3.3
				c2.9,1.8,5.6,4.1,7.8,6.7c2.2,2.6,4.8,5,7.5,7.1c0.5,0.5,1,0.9,1.6,1.2c0.4,0.2,0.9,0.3,1.4,0.4c0-0.5-0.1-1-0.2-1.5l-1.2-2.9
				l-1.4-3.3c-0.4-1-0.2-2.1,0.4-3c0.3-0.5,0.7-0.9,1.3-0.5c2.3,1.3,4.6,2.6,6.8,4.1c2,1.5,4.2,2.7,6.5,3.7
				c3.7,1.5,7.2,3.1,10.8,4.6c1.6,0.7,2,0.6,2.6-1.1c1.8-3.8,3.4-7.6,5-11.6c0.4-1.1,0.6-2.3,0.4-3.5c-0.4-4.2-0.5-8.5-1.1-12.6
				c-0.3-2.3-1-4.6-1.4-6.9c-0.5-3.3-2.1-6.3-4.5-8.5c-1.2-1-2.2-2.3-3.2-3.5c-0.1-0.1-0.2-0.1-0.3-0.2c-0.2,0.1-0.3,0.3-0.3,0.5
				c0.3,3.7,1,7.3,1.9,10.9c0.3,1.1,0.5,2.3,0.4,3.5c-0.2,2.8-0.2,5.6,0.1,8.3c0.2,0.9,0.2,1.8,0,2.8c-0.5,2.9-0.8,5.8-0.9,8.8
				c0,0.6-0.5,1.2-0.8,1.7c-0.1,0.1-0.2,0.1-0.3,0.1c0,0-0.3-0.1-0.3-0.2c-0.4-2.9-0.6-5.8-0.4-8.7c0.2-1.8,0.2-3.7-0.2-5.5
				c-0.2-1.7-0.3-3.5-0.2-5.2c0-1.7-0.2-3.4-0.7-5.1c-0.7-2.4-1.2-4.8-1.8-7.3s-1.2-4-1.7-6.1c-0.4-1.1-0.7-2.3-0.8-3.5
				c-0.1-1.9-1.1-3.6-2.8-4.5c-0.2-0.1-0.5-0.2-0.7-0.2c-0.6,0-0.5,0.5-0.4,0.9c0.1,2.8,0.4,5.5,0.9,8.2c0.3,1.3,0.3,2.6,0,3.9
				c-0.3,2.1-0.4,4.1-0.1,6.2c0.2,2,0.1,4-0.3,5.9c-0.4,2.5-0.8,5-1.1,7.4c-0.1,1.7-0.7,3.4-1.7,4.8c0,0-0.2,0.2-0.3,0.2
				s-0.5-0.2-0.4-0.5c0.9-2.2,1.2-4.6,0.9-7c-0.1-1.4,0-2.9,0.2-4.3c0.4-2.2,0.3-4.5-0.3-6.7c-0.3-1-0.5-2.1-0.4-3.1
				c0.2-3.2-0.1-6.3-0.9-9.4c-0.6-2.8-0.9-6-1.4-9c-0.2-1.9-1.2-3.5-2.7-4.6c-1.5-1.1-2.8-2.5-4.2-3.6c-0.5-0.4-1.1-1.5-1.9-0.8
				s0.2,1.1,0.4,1.7c0.2,0.5,0.3,1,0.4,1.5c1.5,6.4,2,13,1.7,19.6c0,0.4,0,0.8,0,1.2c0.5,5,0.5,10,0,15c-0.1,2.4-0.1,4.8-0.1,7.2
				c0.1,1.3-0.1,2.6-0.7,3.8c-0.2,0.2-0.3,0.4-0.5,0.6c-0.1-0.2-0.4-0.4-0.4-0.6c-0.1-3.8-0.3-7.6-0.8-11.4l-0.2-4.3
				c0-2.2-0.2-4.5-0.5-6.7c-0.4-2.6-0.7-5.2-0.7-7.8c-0.2-4.7-0.9-9.5-2-14.1c-0.7-3.2-2.1-6.2-3-9.4c-0.9-2.6-2.8-4.8-5.3-6.1
				c-0.1,0-0.3,0-0.4,0c-0.1,0.1-0.1,0.2-0.1,0.3c0,0.4,0.1,0.8,0.2,1.2c1.6,4.5,2.4,9.2,2.3,13.9c-0.1,0.5-0.1,1.1,0,1.6
				c0.6,5.8,0.5,11.6-0.4,17.4c-0.3,2.9-0.4,5.8-0.2,8.7c0.1,2.5-0.3,5-1.1,7.4c-0.2,0.7,0.2,1.6-0.9,1.9l-0.3-2.2
				c0-0.3,0-0.5,0.1-0.8c0.7-3,0.5-6.1-0.4-9.1c-0.2-0.9-0.3-1.8-0.3-2.8c-0.1-3.7-0.1-7.4-0.2-11.1v-0.8c-0.5-4.9-0.8-9.7-1.4-14.5
				c-0.5-2.7-1.1-5.4-1.9-8.1c-0.7-1.7-1.2-3.5-1.7-5.3c-0.3-2.4-1.8-4.5-3.9-5.6c-1.6-1-3-2.1-4.4-3.2c0,0-0.4-0.1-0.4-0.1
				s-0.3,0.5-0.2,0.6c0.6,2,1.2,4,1.8,6c1.6,6.4,2.3,13,2.3,19.6c0.1,7.6-0.9,15.3-1.1,22.9c-0.1,1.4-0.3,2.9-0.7,4.3
				c-0.2,1.3-1,2.1-1.1,1.7c-0.2-0.6-0.3-1.2-0.2-1.8c0.4-2.3,0.5-4.7,0.1-7.1c-0.5-3.4-0.7-6.8-0.5-10.3c0-1.6-0.1-3.2-0.2-4.7
				c-0.2-2.8-0.3-5.5-0.6-8.3c-0.5-6-1.5-12-3.2-17.9c-0.6-1.9-1.4-3.7-2.3-5.5c-0.5-0.8-0.9-1.7-1.1-2.6c0-1.5-1.2-2.8-2.8-2.8
				c-2.9-0.2-5.6-1.8-7.4-4.1c-0.2,0-0.4,0-0.7,0c-0.2,0.1-0.1,0.3-0.1,0.4c0.1,0.4,0.3,0.7,0.5,1.1l1.5,3.6c1.7,4,3.1,8.2,4,12.4
				c1.9,7,2.8,14.2,2.8,21.5c0,1.2,0.2,2.4,0.3,3.6c0.3,3.7,0.1,7.4-0.5,11c-0.4,2.3-0.6,4.7-1,7.1c-0.2,1.5-0.6,3.1-0.9,4.6
				l-0.3,0.1c-0.1,0-0.2-0.1-0.3-0.2c-0.1-0.4-0.1-0.8-0.1-1.2c0.1-3.4,0.2-6.8,0.5-10.3c0.3-4.1,0-8.2-0.8-12.2
				c-0.5-2.4-0.6-5-1-7.4c-1-6.8-2.5-13.5-4.6-20c-0.6-2.4-1.4-4.8-2.4-7.1c-2-3.7-4.2-7.5-6.2-11c-0.4-0.6-0.8-1-1.4-1.4
				c-0.9-0.7-1.9-1.4-2.9-2.1s-2.3-1.1-2.4-0.6s0.6,1.4,1.1,2c1.2,1.6,2.3,3.2,3.5,4.7c1,1.4,1.7,3,2,4.7c0.2,1,0.5,2,0.9,3
				c2.6,6.5,4.4,13.3,5.5,20.2c0.2,1.3,0.3,2.6,0.3,3.9c0,4.1,0.2,8.2-0.1,12.4c-0.4,3.7-1,7.3-1.9,10.9c-0.3,1.7-0.8,3.4-1.3,5
				c-0.6,1.9-1.5,3.7-2.2,5.5c-0.1,0.3-0.6,0.3-0.9,0.4c0-0.2,0-0.5,0-0.7c0.8-2.5,1.3-5.1,1.5-7.8c0.4-3.6,0.9-7.3,1.3-11
				c0.1-0.9,0.1-1.9,0.1-2.8c-0.3-4.1-0.4-8.2-0.9-12.2c-0.4-2.7-0.9-5.4-1.6-8.1c-0.8-3.5-1.7-6.9-2.9-10.3
				c-1.3-3.1-2.3-6.5-3.6-9.6c-0.5-1.1-1.1-2.1-1.9-3c-1.1-1.5-2.3-2.9-3.5-4.3c-1.6-1.6-2.8-3.5-3.6-5.6c-0.5-1.4-1.5-2.5-3-3
				l-7.3-2.8c-0.1,0-0.2,0-0.3,0.1c0,0-0.1,0.3-0.1,0.4c0.9,1.3,1.8,2.6,2.7,3.9l3.9,5.5c2.2,3.3,3.8,7,4.6,10.9
				c0.1,0.4,0.3,0.7,0.5,1.1c1.8,5.1,3.1,10.4,3.8,15.8c1.3,5.8,1.5,11.8,0.8,17.7c-0.1,4.1-0.8,8.2-2.2,12c0,0-0.2,0.3-0.3,0.3
				s-0.4-0.2-0.4-0.3c0.1-1.7,0.1-3.4,0.3-5.1c0.8-7.2,0.1-14.5-1.8-21.5c-1.1-4-2.2-7.9-3.2-11.9c-1.3-4.7-3-9.3-5.1-13.7
				c-0.9-1.8-2-3.4-3.2-5c-2-2.9-4.1-5.9-6.1-8.7c-0.8-1-1.7-2-2.6-3c-0.7-0.6-1.3-1.2-1.8-2c-0.8-1.7-2.3-2.9-4.1-3.4
				c-1.9-0.8-3.9-1.4-5.9-2.3l-0.3,0.1c0,0-0.2,0.5,0,0.6c2,2.5,3.9,5,6.1,7.3c1.4,1.9,2.7,3.9,3.8,6c1,1.4,1.9,2.8,2.7,4.4
				c0.9,1.8,1.7,3.6,2.3,5.5c0.8,1.8,1.1,3.8,1.8,5.6c2.8,7.3,4,15.1,3.5,22.9c-0.4,4.3-0.6,8.7-0.6,13.1c0,2.2-0.3,4.4-0.9,6.5
				c-0.5,1.9-0.7,3.9-1.1,5.8L431,509c-0.2,0.1-0.2-0.2-0.1-0.3c-0.1-1.6-0.1-3.1,0-4.7c0.5-3.7,0.5-7.4,0-11.1
				c-0.4-2.9-0.6-5.7-0.6-8.6c0-2.9-0.2-5.8-0.4-8.7c-0.3-2.5-0.8-4.9-1.7-7.3c-1.2-3.8-2.6-7.5-3.9-11.2c-1.1-3-2.5-5.8-4.1-8.5
				c-2-3.4-4.3-6.7-6.9-9.6c-3.1-3.6-6-7.4-8.9-11.1c-0.6-0.7-1.3-1.3-2.2-1.6c-1.1-0.4-2.2-0.9-3.3-1.4c-3.7-1.5-4.3-1.6-4.2-1
				c0.3,1.6,1.8,2.3,2.7,3.3c3,3.1,5.8,6.5,8.2,10.1c0.5,1.2,1.3,2.3,1.9,3.5l2.1,5.1c1.3,2.9,2.2,6,2.5,9.1
				c1.1,8.1,1.6,16.3,1.4,24.5c-0.1,4.1-0.1,8.2-0.6,12.2l-0.1,0.8l-0.2,0.1c-0.1-0.1-0.1-0.2-0.1-0.3c-0.1-4.6-1.2-9.1-1.6-13.7
				c-0.3-3.4-0.5-6.8-1-10.2c-0.3-2.5-0.8-4.9-1.2-7.4s-1-5.4-1.5-8.1c-0.2-1-0.5-2-1-2.9c-1.3-2-2.3-4.2-3.1-6.4
				c-1.2-2.8-2.9-5.3-4.9-7.6c-4.2-4.5-8.4-9.1-12.4-13.8c-1.4-1.6-3.3-2.7-5.3-3.2l-0.3,0.1c0,0-0.3,0.5-0.1,0.7
				c1.1,1.9,2.4,3.7,3.9,5.5c3.3,3.8,5.7,8.3,7,13.1c0.3,1.1,0.7,2.3,1.1,3.4c1.9,4.5,3.2,9.3,3.8,14.1c1.3,6.9,1.6,13.9,1.1,20.9
				c-0.1,1.6-0.1,3.1-0.2,4.7c0,0.6,0.3,1.5-0.6,1.5s-0.8-1-0.9-1.6c-0.2-1.6-0.4-3.1-0.5-4.7c-0.2-6.2-1.1-12.4-2.6-18.5
				c-0.6-2.3-1-4.6-1.6-6.9c-0.2-0.9-0.5-1.8-0.9-2.7l-6-14.2c-0.6-1.6-1.5-3.1-2.6-4.4c-2.7-2.9-4.7-6.3-7.5-9.1
				c-2.1-2.2-3.8-4.5-5.5-6.7c-1.4-1.8-3.1-3.3-5-4.4l-4.7-2.8c-0.1,0-0.2,0.1-0.3,0.1c-0.1,0.1-0.1,0.2-0.1,0.3l2.6,6.2
				c0.9,2.1,1.7,3.3,2.5,4.9s1.5,3.6,2.5,5.4c0.4,0.9,0.9,1.7,1.6,2.4c1.3,1.3,2.4,2.8,3.1,4.6c1.3,2.5,2.5,5,3.7,7.4
				c0.2,0.4,0.3,0.7,0.5,1.1c3,8.2,4.4,16.9,4.2,25.6c-0.1,0.5-0.1,1-0.3,1.6c-0.1,0.1-0.2,0.1-0.3,0.1c-0.1,0-0.2,0-0.3-0.1
				c-0.2-0.3-0.4-0.7-0.5-1.1l-0.9-5.1c-0.7-4.8-2-9.5-3.9-14c-2-4.8-4.7-9.2-6.7-13.9c-1.3-3-3-5.9-5-8.5c-0.7-1-1.2-2-1.7-3.1
				c-1.3-2.8-2.7-5.4-4.3-8c-0.2-0.2-0.4-0.4-0.6-0.5c-0.1,0.2-0.1,0.5-0.1,0.7c0.3,4.9,1.1,9.7,2.4,14.4c0.2,0.6,0.3,1.3,0.4,1.9
				c0.7,2.8,1.3,5.6,2.1,8.4c1.6,5.4,2.4,11.1,2.4,16.8c0,2.5-0.4,5-1.4,7.4c-0.1,0.1-0.1,0.2-0.2,0.3c-0.1-0.2-0.4-0.3-0.5-0.5
				c-0.1-0.8-0.2-1.6-0.1-2.4c0.1-4.9-0.6-9.8-2-14.5c-0.6-2.4-1.3-4.8-2.3-7.1c-0.8-2-1.4-4-1.9-6c-0.8-2.7-1.4-5.4-2.3-8
				c-0.8-2.5-0.8-5.2-0.1-7.8c0.3-0.9,0.5-1.8,0.7-2.7c0.2-1.6-0.8-3.2-2.5-3.6C347.4,409.1,346.1,409.6,345.4,410.7z"/>
		</g>
	</g>
</g>
</svg>
