<?xml version="1.0" encoding="utf-8"?>
<!-- Generator: Adobe Illustrator 23.0.1, SVG Export Plug-In . SVG Version: 6.00 Build 0)  -->
<svg version="1.1" id="Layer_1" xmlns="http://www.w3.org/2000/svg" xmlns:xlink="http://www.w3.org/1999/xlink" x="0px" y="0px"
	 viewBox="0 0 1920 242" style="enable-background:new 0 0 1920 242;" xml:space="preserve">
<title>landing-btm-desc</title>
<g>
	<g id="Landing">
		<path d="M1920,26.4c0,0-3.5-1.2-5.2,0.2c-0.6,0.5-1.4,0.8-2.2,0.7c-9-0.4-17.3,2-26.3,1.7c-8-0.3-15.5,2.1-23.8,1.5
			c-3.2-0.2-6.3,0.5-9.6-1.5c-1.4-0.8-4.8-0.3-6.3,0c-4.9,1.3-10,1.3-14.9,0.1c-1.6-0.2-3.2-0.3-4.9-0.3c-13.2,0-26.2-0.3-39.6,0.2
			c-5.6,0.2-11.1,1.1-16.4,2.8c-1.7,0.6-3.7,0-5.8,0.2c-3.6,0.3-5.1-3-9.2-0.6c-2,1.2-6.1,0.7-8.7,0.6c-1.4-0.1-2.4,1.2-3.7,1.7
			c-5-2.4-9.6-2-15-1.1c-1.5,0.3-3,1-4.5,1c-9.2,0-18.5,0-27.7,0.2c-2.6,0-4.3-1.9-6.9-1.7s-4.9,0-7.6,0.1c-3.1,0.1-5.9-0.8-8.6,1.6
			c-0.5,0.2-1.1,0.2-1.6,0c-6.3-2.3-12.9-1.4-19.4-1.5s-12.9-0.2-19.3,0.1c-7,0.4-13.3-1.9-20.3-1.7s-13.9,0.2-20.9,0.1
			c-2.6,0-4.1-2.3-6.9-1.6c-8.6,2.4-17.2,1.3-26.1,1.6c-1.3-0.1-2.7,0.2-3.8,0.9c-1.8,1.2-4.1,1.2-6,0.1c-2.6-1.6-5.7-1.9-8.6-0.8
			c-5,1.9-9,1.4-13.8,1.3c-8-0.1-15,1-22.7-1.3c-8.6,2.6-17.5,1.8-26.1,1c-17.9-1.7-35.4-0.5-53.1-2.1c-11.7-1.1-22.9-1.1-34.7-1.4
			s-23.5-0.3-35.5-0.5c-2.9,0-6,0.8-8.6-1.6c-0.4-0.4-1.7-0.3-2.4,0c-8.4,2.2-17,3.2-25.7,2.8c-2.4-0.1-4.7,0.3-7.2-1.3
			c-1.9-1-4.2-1.1-6.2-0.3c-3.2,1.8-6.3,1.3-9.6,1.3c-15.5-0.2-30.3-0.3-45.8-0.4c-2.7,0-5.5-0.9-7.8,1.5c-0.2,0.2-1.1,0.1-1.6,0
			c-2.6-0.3-5-1.8-7.7-1.8s-4.8,1.9-7.8,1.8c-4.6-0.3-8.9-2.1-13.7-1.9s-9.1,0.9-13.8-1.4c-1.3-0.6-3.3-0.1-5-0.1
			c-11.6,0-23-0.1-34.7-0.1c-2.4,0-4.8,0.5-7.2-1.4c-0.9-0.7-3.4-0.7-4.8-0.1c-4.4,2-9.5,2-13.9,0c-1.8-0.7-3.9-0.7-5.7,0
			c-4.4,2.1-8.3,1.2-13,1.6c-2.2,0-4.3,0.4-6.3,1.1c-2.8,1.1-6.9,1.5-9.6,0.4c-3.8-1.5-6.9-1.3-10.5-1.2c-7.2,0.1-13.6-0.7-20.5,1.6
			c-1.3,0.5-2.8,0.5-4.1,0c-5.1-2.1-10.3-1.3-15.4-1.3c-3.6,0-7.8,1-10.7-0.2c-4.2-1.7-7.5-0.9-11.4-1.1s-7.5,0.7-10.9-0.1
			c-8.3-1.9-15.7-0.9-24-1.1c-2,0-4,0.7-5.5,2c-2.4-2.2-5.8-2.8-8.8-1.5c-3.4,1.5-6.4,1.4-9.6,1.5c-10.5,0.3-20.8,2.5-31,2.5
			s-20.3,0.3-30.4,1s-20,1.2-29.8,1.9c-2.3,0.2-5.2,1.1-6.8,0.3c-2.8-1.6-3.9,1.1-6,0.5c-7-1.7-13.7,0-20.5-0.8
			c-9.3-1.1-17.7-0.2-27.2-0.1c-2.3,0-4.7-0.5-6.5,1.7c-0.7,0.4-1.5,0.4-2.2,0.1c-4.5-2.2-8.9-1.3-13.8-1.2c-3.6,0-6-2-9.9-1.6
			c-3.4,0.3-6.5,0.9-9.8-1.2c-1.1-0.7-3-0.1-4.7-0.1c-3.9,0.2-7,3.5-10.7,0.3c-3.7-0.1-7.7-0.2-11.2,0c-2,0.1-2.6-1.5-4.2-1.7
			c-1.2-0.2-1.8,1.5-2.5,1.4c-6.2-0.5-12,0.9-17.9,1.8c-8,1.2-15.6,1-23.6,1.2c-2.7,0.1-4.8,2.5-7.5,1.4c-5.2-2-10.2-1.4-15.6-1.7
			c-2-0.1-3.3,1-5.1,1.6c-0.9-0.6-1.9-1.2-3-1.6c-1.3-0.2-2.5-0.2-3.8-0.1c-11.2,0.4-22.2-1.9-33.2-1.5c-2.1,0.1-3-1.5-5-1.7
			c-3.7-0.4-7-1.9-10.8-1.4c-1.8,0.3-1.9-1.2-3.4-1.5s-2,1.8-3.7,1.7c-3.2-0.2-6.7,0-10,0.1c-0.8,0-1.7,0.4-2.4-0.4
			c-2.5-3-6-2.4-9.5-2.3c-9.9,0.3-19.3,0.7-29.1,1.3c-6.6,0.4-12.3-1.7-19.1-1c-7.2,0.7-15,2.8-22.5,1.9c-10,2.8-19.7,1.2-30,1.3
			c-3.8,0-8.3-0.2-12.3-0.1c-11,0.4-22.1-1.9-32.9-2.2s-21.1-0.5-31.7-0.9c-1.8-0.1-2.4-0.8-3.5-1.9c-2.6,0.1-4.5,1.4-7.1,1.6
			s-3.3-2.4-6.4-1c-1.8,0.8-4.9,0.2-7.3,0s-5-0.3-7.5-0.4c-1.6-0.2-3.1,0-4.6,0.4c-3.2,1-6.3,1-9.1-0.9c-1.2-1-2.8-1.1-4.1-0.3
			c-2.1,1.3-3.9,0.3-5.9,0.5c-3,0.4-3.9-2.1-6.5-2.3c-2.1-0.1-4.1-0.4-6.1-0.9c-0.5-0.2-0.9-1-1.2-1.4c-1.8-0.4-2.9,1.4-4.7,1.1
			c-4-0.6-8.1-0.9-12.2-1.7c-2.9-0.7-5.7-1.7-8.4-3c-2.2-1-4.6-1.8-7-2.1c-8.4-1.4-15.8-2.6-25-3.9c-4-0.6-9-2-14.5-1.1
			c-4.9,0.8-11.3-1.7-17.1,0c-1.6,0.5-5.4-0.6-7.7-0.8c-19.9-2.1-42.9-5.7-62.3-7.1c-23.7-1.8-43.9,1.3-67,1.7
			c-4.4,2.4-9-0.2-13.8,2c-4.3,1.9-10.8,2-15.3,1.8C66.9,5.3,52.7,7.9,39,8c-5.1,0-7.6,1.9-12,2.3s-7.6-0.8-11.3,1.9
			c-0.2,0.1-0.5,0-0.8,0C10,11.8,0,13.4,0,13.4V242h1920V26.4z"/>
	</g>
</g>
</svg>
