<?xml version="1.0" encoding="utf-8"?>
<!-- Generator: Adobe Illustrator 23.0.1, SVG Export Plug-In . SVG Version: 6.00 Build 0)  -->
<svg version="1.1" id="Layer_1" xmlns="http://www.w3.org/2000/svg" xmlns:xlink="http://www.w3.org/1999/xlink" x="0px" y="0px"
	 viewBox="0 0 200 200" style="enable-background:new 0 0 200 200;" xml:space="preserve">
<style type="text/css">
	.st0{fill:#520000;}
	.st1{fill:#FFFFFF;}
	.st2{fill:#808080;}
</style>
<g>
	<path d="M197.3,107c-1.4-2-1.9-4.2-0.9-6.5c0.9-2,2.8-3.5,3.4-5.7c1.2-4.8-4.1-6.6-5.2-10.5c-1.2-4.3,3.5-8,1.4-12.3
		c-0.5-1-1.3-1.6-1.6-2.7c-0.3-1.2,0-1.5-1.1-2.3c-1.7-1.3-3.2-2-3.7-4.3c-0.5-2.3,0.6-4.4,0.5-6.7c-0.1-2.2-0.8-3.8-2.6-5.1
		c-3.3-2.4-7.2-2.1-7.9-7c-0.3-2.1,0.7-4.4-0.6-6.3c-1.3-1.9-3.1-2.8-5.2-3.2c-2.3-0.5-3.9-0.7-5.6-2.4c-0.5-0.5-3.2-3.5-2.5-4.3
		c0.4-0.4,0.7,0.3,0.7-0.5c0-0.4-0.3-0.7-0.4-1.1c-0.5-1.3-1.4-2.8-2.5-3.8c-2.6-2.5-5.7-1-8.9-2c-5.3-1.6-3.8-9.4-9.8-10.1
		c-1.6-0.2-3.1,0.3-4.6,0.5c-1.8,0.2-3-0.1-4.7-0.7c-1-0.3-1.9-0.4-2.7-0.8c-1.2-0.6-1.8-2.8-2.6-3.7c-4.6-5.2-10.5,2.3-15.6-0.5
		c-2.4-1.4-3.9-4.4-6.7-4.8c-4-0.6-5.6,3.2-9.1,4c-3,0.7-5.2-1.4-7.6-2.7c-3-1.6-5.6-0.4-7.9,1.8c-2.4,2.3-4.2,4-7.6,3.1
		c-2.8-0.8-5.4-2.6-8.3-1.1c-2.5,1.3-3,4.5-5.5,5.8c-1.2,0.6-2.7,1.2-4,1.4c-1.7,0.3-3.2-0.4-4.9-0.5c-3.8,0-4.9,2.8-6.2,5.8
		c-1.5,3.4-4.8,4.2-8.4,4.7c-2.1,0.3-3.6,0-5,1.7c-1.1,1.4-1.5,2.9-1.8,4.6c-0.4,1.9-2.9,8.5-6,5.8c-0.2,0.2,0,1.2-0.4,1.2
		c-0.6,0-0.9-0.3-1.6-0.2c-1.9,0.3-3.8,2-4.6,3.6c-1,1.9-0.3,4.1-0.5,6.2c-0.2,2.2-1.5,4.3-3.4,5.5c-3.3,2.2-7.9,2.9-7.3,8.1
		c0.2,2.2,1,4.1,0.8,6.3c-0.1,0.8,0,2.1-0.6,2.7c-0.6,0.8-0.5,0.2-1.1,0.4c0.1,0-0.4,0.9-0.6,1c-0.6,0.6-1.3,0.9-1.8,1.6
		c-1.2,1.4-1.5,2.9-1.2,4.7c0.7,3.8,3.4,6.9,0.9,10.6c-1.9,2.9-5.3,4.7-4.2,8.7c1,3.8,5.3,5.8,3.5,10.2c-1.4,3.5-4.7,5.9-2.3,9.8
		c1.9,3.2,5.6,4.4,5,8.6c-0.6,3.7-3.6,7.1-0.4,10.5c0.9,0.9,2.5,1.4,2.9,2.7c0-0.2-0.3,2.2,0,2c-0.2,0.1-0.5-0.2-0.4,0.2
		c0.1,0.4,0.3,0.7,0.8,0.5c-2.8,1.8-0.8,5.8,1.1,7.4c2.8,2.3,6.3,3.2,7.9,6.8c1.4,3.2-0.8,7.3,2.7,9.7c3.1,2.1,6.9,0.8,9.4,4.4
		c2,2.9,0.8,7.1,4.2,9.2c3.3,2,7.5-0.3,10.5,2.8c2.3,2.3,2.2,6.8,5.4,8.1c3.6,1.5,7.3-1.2,10.8,0.6c3.5,1.8,4.1,6.3,8.2,7.3
		c0.6,0.2,2.8,1.6,2.9,1.5c0.3-0.5-0.6-0.8-0.4-1.3c0.2-0.8,1.3-1,2-1.2c4.4-1.7,6.3-0.7,9.5,2.4c3.9,3.8,6.4,2.4,10.4,0
		c4.4-2.6,6.7,0.3,10.4,2.3c3.7,2,6.5-0.8,9-3.1c3.5-3.3,6.5-1.1,10.4,0.1c4,1.2,6.2-1.3,8.4-4.2c3-3.9,6-3.4,10.4-2.9
		c1.3,0.1,3,0.1,4.4-0.5c1.7-0.7,1.7-2.2,2.5-3.6c2.7-4.8,7.8-2.1,11.7-3.9c2-1,1.6-2.2,2.5-3.8c0.5-0.9,0.6-0.2,1.3-0.7
		c0.2-0.2,0.8-1.7,0.2-1.7c0.6,0-2,1.5-1.1,0.2c0.4-0.5,1.2-0.9,1.8-0.3c0.3-1-0.7-1.6-0.7-2.5c0-0.8,0.9-1.6,1.4-2.2
		c1.2-1.6,2.4-3,4.2-3.9c1.6-0.8,3.4-0.5,5-1.2c1.6-0.6,2.8-2,3.5-3.4c1.1-2.1,0-3.9,0.6-6.1c0.4-1.6,0.7-2.7,2.1-3.6
		c2.7-1.9,7.2-2.5,8.1-6.3c0.4-1.9-0.2-4-0.4-5.9c-0.2-2.3,0.3-2.7,2.1-3.9c1.6-1.1,3.1-2.1,3.6-4.1c0.5-2.1-0.6-3.8-0.9-5.8
		c-0.2-1.6,0-3.1-0.1-4.7c-0.1-1.1-0.6-0.5,0.3-1.8c0.4-0.6,1.2-1.2,1.7-1.7C200,113.9,200.2,111.3,197.3,107z M171.3,42.5
		c0.3-0.5,0.8-0.8,1.3-0.6C172.7,42,170.6,43.8,171.3,42.5z M164.1,32.6c0.2-0.1,1.7-0.5,2-0.5c0.1,0,0.4,0.4,0.3,0.4
		c0.1,0-0.3,0.7,0.2,0.6c0.6-0.1,0.8-0.5,1-1c0.5,0.9-0.8,1.2-0.6,2c0.3,0.3,0.8-0.6,1.1,0.1c0.1,0.2-0.3,1.6-0.4,1.8
		c-1.2,1.8-1.5-0.7-1.8-0.7c0.8,0,1.5-0.8,0.4-1.6c-0.4-0.3-2-0.2-1.5,0.6C164.6,34,162.6,33.4,164.1,32.6z M165.6,36.3
		c-0.3-0.1-2.5-0.5-1.5-1.1C164.9,34.7,165.3,35.7,165.6,36.3z M109.7,11.3c0.2-0.6,0.3,0.3,0.3,0.3c-0.2,1-1.1,0.9-1.7,0.6
		C108.8,12,109.5,11.9,109.7,11.3z M104.1,9.7c0.1,0.7-0.7,1.7-1.4,1.4c-0.4-0.1-0.3-1.7-0.3-2C102.9,9.6,103.5,10.4,104.1,9.7z
		 M97.1,9.7c0.6-0.3,0.7,1.7,0.5,2C97.5,11.4,96.6,10,97.1,9.7z M92,8.1c-0.1,0.1-0.2,0.2-0.3,0.2c-0.2,0-0.6-1.6-0.7-1.6
		C91.6,7.1,92.5,7.2,92,8.1z M79.4,10.6c0.3,0.3-0.5,0.6,0.4,1c0.5,0.2,0.3-0.4,0.5-0.4c0,0,0.7,0,0.9,0c0.1,0,1.7,0.2,1.8,0.1
		c0.7-0.9-1.4-1.1,0.9-1.5c-0.6-0.3-2,0.1-1.7-0.9c-0.1,0.2,1.4-0.2,1.6-0.3c0.1-0.1-0.5-0.7-0.3-0.7c-0.3,0.1,1-0.3,0.6,0
		c-0.3,0.2,0.9,0.4,0.8,0.4c0.3,0-0.1-0.6,0.4-0.7c0.3-0.1,0.6,0.5,0.7,0.5c0.2-0.1,0.8-0.7,0.9-0.7c1.1,0.2,0,0.6-0.4,0.8
		c0.7,0.6,1.4-0.6,2.4-0.5c0.2,0,1.2,0.4,1,0.8c1.3,0.2,0.3-0.9,0.4-1.3c1.2,0.2,0.7,1.2,0.5,2.1c0.7-0.8,1.8-0.1,2.6-0.8
		c0.3,0.4-0.4,0.5-0.3,0.9c0.4,0.3,1.1-0.6,1.3-0.7c0.7-0.2,0.2,0.8,0.9,0.1c-0.2,0.1,0.2,2.1-1.2,1.5c0.2,0.7,0.9,0.8,1.1,1.5
		c-0.8-0.3-2-1.7-2.1-0.6c0,0.2,0.7,0.6,0.6,1c-0.1,0.8-0.4,0.4-1,0.6c-1.5,0.6-4.4,0.4-4-2.1c-1.7,0.9,0.9,2.6-1.2,2.5
		c-0.3,0,0-0.6-0.3-0.7c-0.3-0.1-0.5,0.1-0.8,0.1c-0.7-0.1-0.9,0.3-1.6,0.5c0.7-0.7-0.4-3.3-1-2.8c-0.3,0.2,0.2,0.6,0.1,0.9
		c0,0-0.7,0.9-0.7,0.9c-0.1,0.3-0.5,0.1-0.6,0.6c0,0,1.2,1.3,1.2,1.4c-1.5,0.2-1,1.3-1.8,0.4c0.4,0.5-0.4-1.9-0.5-1.3
		c0.1-0.4,0.9-0.7,0.8-1.1c-0.5-1.3-1.5,1.2-2,1.2c-0.6-0.1-1-2.4-1.4-2.9C79,10.3,79.2,10.4,79.4,10.6z M81.5,14.6
		c-1,1.1-1.7,1.1-2.1,0C80,14.9,80.7,14.8,81.5,14.6z M72.5,13.3c0.4-0.2,0.7-0.2,1.1,0C73.3,14.3,71.4,14.2,72.5,13.3z M44.1,31.3
		c0.7-0.7,1.2,1.1,1.1,1.1c-0.2,0.1-1,0.4-1.2,0.3C44,32.7,44.4,31,44.1,31.3z M43.1,31.2c0.2,0,0.4,1.5-0.2,1.5
		C42,32.8,42.7,31.3,43.1,31.2z M41,30.1c0.7-0.6,1.9,0.6,1,0.7C41.7,30.9,40.9,30.2,41,30.1z M38.2,31c1.3,1.9,1.5-1.4,2.7-0.8
		c0.1,0.1,0.4,2.5,0.5,2.2c-0.1,0.3-0.2,1-1,1.1c-0.8,0.1-1.1-0.7-1.7-1.5c-0.3,0.6,0,1.5-1,1.3C38,32.5,37.9,31.7,38.2,31z
		 M38.1,33.6c0.8,0.2,1.7,1.3,0.5,1.1C38,34.5,37.3,33.4,38.1,33.6z M35.5,34.6c0,0.6,0.9,1.4-0.1,1.5
		C34.4,36.2,35.5,34.7,35.5,34.6z M28.4,40.5c-0.7,0.5-1.2,0.4-1.8-0.9C27.2,40.2,27.9,40.2,28.4,40.5z M23.4,43.9
		c0.2-0.6,1.1,0.1,1.5,0c-0.5-1.5,0.7-0.7,1.4-1.2c0.1-0.1,0.6-1.1,0.5-1.1c0.6-0.2,1,0.1,1.7,0.2c-0.5,1.1-0.7,0.4-1.6,0.4
		c-0.1,0.4,0.8,1.2,0.9,1.2c0.6,0.1,0.7-1.2,1.3-0.7c0,0-0.6,2.1-0.6,2.3c0.4-1.3-0.9-0.6-0.9-0.6c0,0-0.3,0.6-0.4,0.6
		c-0.5,0.2-1.2-0.5-1.8-0.3c0-0.1,1.5,1.7,0.1,1.8C25.3,46.7,23.2,44.4,23.4,43.9z M23.9,47.6c-0.3-0.5-0.1-1.7,0.9-1.1
		c-0.1-0.1,0.3,2.4,0.5,2.8C24.1,48.7,24.6,48.5,23.9,47.6z M25.4,48c0.5-0.2,1.2-2.9,1.5-1.6c0.1,0.4-0.6,1.9-1.1,1.9
		C25.8,48.3,25,48.1,25.4,48z M22,52.3c0.5,0.5,1,0.6,1.1,1.4c0,0-0.2,2.3-0.5,2.3c-1.1,0-0.5-1.9,0.2-2.3c-0.5-0.4-1.2,0-1.5-0.5
		C21.5,52.9,22,52.9,22,52.3z M20.1,57.1c0.4-0.5,1.2,0.5,1.4,0.8c-0.1,0.1-2.2,1.3-1.8,0.2c0.1-0.2,0.6,0.2,0.7,0
		C20.5,57.6,19.7,57.5,20.1,57.1z M18.9,60.9c0,0.1-0.3-0.2-0.3-0.8c0-0.7,0.4-1.5,1.1-1.6C20,59.4,18.7,59.9,18.9,60.9z M18.4,53.1
		c1.3-0.2,1.3,1.6,0.7,2.3c0.1-0.8-0.1-1.2-0.9-0.6C18.7,54.1,18.6,53.8,18.4,53.1z M17.8,55.6c0.9-0.1,1.6,0.5,0.7,1.1
		c-0.3,0.2-0.7-0.7-1.3-0.4C17.3,55.9,17.5,55.7,17.8,55.6z M16.6,62.6c1.1-0.9,0.5,0.8,0.2,1.4c0.1-0.9-0.7-0.8-1.2-1.3
		C15.9,62.7,16.3,62.6,16.6,62.6z M14.6,56.9c0.1-0.8,1.9-0.6,1.4,0.3C15.8,57.5,14.5,57.6,14.6,56.9z M12.8,78.5
		c-0.6,1-0.6,2.8,0.4,3.6c-1.7,0-0.9-2.4-1.7-3.2C11.9,78.6,12.4,78.5,12.8,78.5z M12.3,89.1c0,0.6-0.1,1.1-0.8,1
		c0.5-1.1-0.2-0.5-0.1-1.5C11.8,88.6,12.3,88.5,12.3,89.1z M11.5,90.1c0.3,0.6,0.9,0.6,1,1.4c-0.4-0.2-0.7-0.5-1.1-0.7
		c-0.4,0.4,0.5,1.2-1,0.6C10.4,90.7,11.2,90.6,11.5,90.1z M10,101c0.2,0.2,0.2,0.3,0,0.5c-0.8,0.3-0.5-1.4,0.9-1.4
		C11,100.7,9.8,100.4,10,101z M11.4,102.7c-0.6,0.1-1,0.5-1.5,0.9C9.8,102.5,10.2,102.2,11.4,102.7z M10.4,97.1
		c0.5-0.7-0.6-0.6-0.5-1.2c0.5,0.3,1.8,1.1,1,1.8c-0.5,0.5-1.2-0.1-1.8,0.2C9.4,97.2,10,97.6,10.4,97.1z M7,108.6
		c0.6-1.3,1.6,0.7-0.4,0.9C6.7,109.1,6.8,108.8,7,108.6z M13.3,120.1c-0.2,0.7-0.8-0.1-1.2,0.3c-0.6,0.6,0.1,0.9-0.8,1.2
		c-0.3,0.1-0.8,0-0.9-0.2c-0.4-0.7,1-0.3,1.1-0.5c0.6-0.9-0.3-0.6-0.3-0.9c0-0.6,0.2-1.2,0.1-1.8c-0.1-2-0.6,0.4-1.4-1.4
		c-0.7,0.3,0.2,1.5-0.9,1.2c-0.8-0.2,0.3-2.3-1.7-0.7c0.3-0.8,1-1,0.8-1.8c0,0-1-0.9-1.1-0.9c0.5-0.5,0.5,0.1,1.1,0
		c0,0,0.3-1.1,0.3-1c0-0.7-0.6-0.6-0.6-1.3c0-0.5,0.3-2.1,0.9-2c0.2,0.1-0.5-0.8-0.3-0.6c-0.2-0.3-0.9,0.4-1.2,0.3
		c0.6-1.3,1.7,0.1,2.2-0.4c0,0-0.6-2.3-0.6-2.4c0.1-0.1,1,0.3,1,0c0-0.6-0.6-0.4-0.6-0.9c0-1.9,1.2-1,1.9,0c0.3-0.3,0.6-0.6,0.8-0.9
		c0.1,0.9-0.9,1.5-0.8,2.4c0.6-0.2,0.6-0.2,1.1-0.2c0.1,0.2,0.3,0.3,0.5,0.3c0.2-0.3,0.5-0.4,0.8-0.6c-0.6,1,0.1,1.2,0.2,1.9
		c-0.2-1.2-0.7,2.3-0.1,1.2c0,0.1-0.3,0.5-0.5,0.7c-1.4,1.4-2.1-0.7-3.5-0.8c0.4,0.6,0.4,1.3-0.3,1.6C9,111.8,9,111,8.9,111
		c-0.3,0.2-0.9,0.3-0.6,1c0.4,0.8,0.6,0.1,1.2,0.1c0.3-0.2,0.6-0.4,0.9-0.5c0.3,0.1,0.5,0.3,0.7,0.5c1,0.1,2.4-0.9,2.3,0.8
		c0,0-0.8,0.3-0.8,0.8c0,0.4,0.6,0.9,0.5,1.3c-0.1,0.8-0.6,0.4-1.4,0.6c-0.7,0.1-1.8,0.8-0.9,1.3c0.3,0.2,0.8-0.5,1.3-0.1
		c0.2,0.2,0.3,0.9,0.3,1.2c0.1,0.8-0.5,0.6,0,1.5C12.7,119.8,13.5,119.4,13.3,120.1z M13,118.8c-0.4-0.2-0.6-0.5-0.6-1
		c0.9,0.2,0.9-1.1,1.7-1.3c-0.2,0.9,0.6,1.1,1.1,1.6c-0.6,0.4-0.9-0.2-1.4-0.4C13.6,118,14,119,13,118.8z M13.9,132.8
		c-1.4-1,2.4-1.3,2.2-1.1c-0.7-0.8-0.9-2.6,0.2-1.7c0.5,0.5-0.1,2.1-0.3,2.3c-0.8,0.8-0.3,0.5-0.9-0.1
		C14.8,131.9,14.3,133.1,13.9,132.8z M15.7,136c-0.6-0.6-0.5,0.2-0.9,0.1c-0.2-0.1-0.7-1.1-0.5-1.4c0.3-0.6,0.6-0.3,1.2-0.3
		c0.6-0.1,0.5,1,1.1,0.1c0-0.4-0.2-0.7-0.5-0.9c0-0.4,0.1-0.8,0.3-1.3c0.2,0.1,1,1.6,1.1,1.9c0.2,0.4-0.1,0.8,0.2,1.1
		c0.2,0.2,1,0.1,1,0.1c0-0.1,0.2,0.2,0.2,0.3c0,0.3-0.7,0-0.8,0.2c-0.2,0.4-0.2,1.2-0.5,1.6c-0.6-0.3-0.8-2.7-1.3-1.7
		c-0.8,1.3,0.8,1.7-1.2,2.3C15.1,137.4,16.4,136.7,15.7,136z M18.9,139.6c-0.1,0.1-0.3-0.5-0.3-0.4c0,0,0.7-0.5,0.7-0.5
		C20.9,137.4,20.1,138.8,18.9,139.6z M20,140.6c-0.8,0.3-1.1,0.8-1.3,1.5c-0.8-0.4-0.1-2-1.5-1.6c0.1-0.7,0.2-1.3,0.3-2
		C18.5,139.4,18.3,140.9,20,140.6z M19,137.7c-0.2,0.6-0.9-0.5-0.6-1.1c0.6-1.1,1.2,0.7,1.3,0.9C19.4,137.3,19.1,137.3,19,137.7z
		 M17.1,142.6c-0.5,0.1-0.5-1.8,0.1-2c0,0.6,0,1.1,0.8,0.5C18.6,142,17.7,142.5,17.1,142.6z M20.2,145.8c-0.3,0-1.9,0.1-1.9-0.3
		c0-1.4,4.7,0.7,4.6,1.4C22.8,147.7,20.4,146.2,20.2,145.8z M21.6,144.7c-0.5,0.2-1.2-0.8,0-0.7c1.3,0,1.1,1.9,0.8,1.7
		C22.2,145.5,22.7,144.2,21.6,144.7z M24.1,149.9c-0.5-0.1-2.6,0.2-1.7-1.4c0.3-0.5,1.5-0.3,1.8,0.4c-3,0,0,1.7,0.4,0
		C24.8,149.5,25.2,150.2,24.1,149.9z M28.6,156c-0.4,0.4-1.1,0.3-0.7,1.1c-1.8,0.3,0.8-1.7,0.3-2.8C28.7,154.6,29.1,155.5,28.6,156z
		 M40.7,171.2c-0.5,0.2-0.7-1-0.6-1.3c0.4,0.3,0.5,1,1,1.1C41,171,40.8,171.1,40.7,171.2z M41.1,171c0.1,0,3.1-0.5,1.8,0.6
		C42.6,171.8,41.2,171.4,41.1,171z M46.5,172.5c-0.8-1-1.7-0.7-2.6,0c0.3,0.6,1,0.2,0.3,0.8c0.3-0.2-2.9-0.1-2.5,0.2
		c-0.3-0.2,3-2.3,3.4-2.3c0.4-0.1,1,0.1,1.4,0.4C46.9,171.9,46.9,173,46.5,172.5z M51,177.7c-1.1,0.3-0.4-0.5,0.4-0.6
		c0.2,0,0.4,0.1,0.3,0.4C51.5,178.2,51.5,177.6,51,177.7z M52.7,180.7c-0.8-0.2,0.1-1.5,0.6-1.3C53.7,179.6,52.9,180.7,52.7,180.7z
		 M54.9,181.4c-0.5,0.7-1.1,0-1.8,0.5c-0.4-1.3,1-0.5,1.3-1.1c0.3-0.7-1.1-1.4,0-2C55.1,179.5,55.6,180.4,54.9,181.4z M55.4,178.4
		c0.4-0.6,0-0.9-0.5-1.2c1.7,0.2,0.7,0.9,1.1,2C55.7,179.1,55.1,178.8,55.4,178.4z M56.6,181.2c0.1-0.3,0.1-0.6,0.2-0.8
		c-0.5-0.2-0.6,0.5-1.1,0.3c0.6-0.1,0.2-0.9,0.8-0.9C58.1,179.6,56.9,180.9,56.6,181.2z M58.1,183.4c0.2-0.2-1-0.9,0.5-1.2
		c0.1-0.5-1.1-0.3-0.8-0.9c0,0,1.5-0.5,1.5-0.5c1,0.2,0.1,0.2,0.1,0.7c0,0.2-0.2,0.8-0.2,1c-0.1,0.5,0.7,0.2,0.9,0.4
		C59.4,183.4,58.6,182.9,58.1,183.4z M60.5,182.7c-0.6-0.3-0.7-0.9-0.7-1.4c0.4,0.6,1.2,0.8,1.9,0.9C61.4,182.4,61,182.9,60.5,182.7
		z M61,181.1c-1,0.3,0.7-1.5,0.8-1.5C61.9,180.3,61.7,180.9,61,181.1z M62.2,185.1c-0.1-1.1,1.1-1.9,1.9-0.9
		C63.2,183.9,63,184.9,62.2,185.1z M65.5,183.7c-0.4,0.4,0.4,0.8,0.3,1.2c0,0.4-0.6,0.7-0.5,1.2c-1.5-1.1,0.1-2-0.4-2.8
		c-0.2-0.4-0.4-0.2-0.7-0.4c-0.2,0.1-0.4,0.2-0.7,0.2c-0.4-0.2-0.8-0.5-1-0.8c1,0,2,0.4,1.9-1.1c0,1.7,2,1,2.3,2.3
		C66.3,183.3,65.8,183.3,65.5,183.7z M69.1,185.3c-0.9,0.5-1.6,2.1-1.7,0.3c0-0.3,0.9-0.1,0.7-0.8c-0.2-0.7-1.2-0.7-1.7-0.4
		c0.2-0.3,0.3-0.6,0.4-0.9c0.3,0.1,0.5,0,0.7-0.2c-0.1-0.2-0.2-0.4-0.4-0.5c-1.6,0.1,1.3,0,1.1-0.2c0.3,0.2-0.3,0.6,0.3,1
		c-0.1,0,1.4,0,1.3,0c0.4-0.3,0.3-0.9,0.5-1.4c0.8,0.2-0.1,1.4,0.8,1.5C70.5,184.5,69.8,184.8,69.1,185.3z M71.1,183.9
		c0.9,0.7,1.4-0.2,0.7,1.6C71.1,184.9,71.1,184.8,71.1,183.9z M92.1,192.9c-0.4,0.4-0.9,0.6-1.4,0.5c0.4-0.3,0.8-1.7,1.1-1.7
		C92.1,191.7,92.3,192.6,92.1,192.9z M94.1,191.1c-0.7,0.4-0.2-1.1-0.2-1.2c-0.9,0.1-0.9,0.8-0.6,1.5c0,0-2.7-0.9-2.5-1
		c-0.5,0.2,0.1,2-0.1,2.5c-0.5-0.6,0.1-1.5-0.9-1.7c0.1,0.3,0.2,0.6,0.3,0.9c-0.8-0.7-1.1,0.3-1.7,0.1c-0.2,0-0.8-0.4-0.9-0.4
		c-0.2,0-2.3-0.4-1.6,0.9c-0.5-0.5-1.3-1.2-2-1.5c-0.6-0.3-1.6,0.1-1.8-0.2c-0.5-0.8,1.2-0.6,1.1-0.5c0.5-0.8-0.1-0.3-0.6-0.9
		c-0.8-1.2-0.2-0.6-1.6-0.9c0,0-1-0.1-0.7-0.1c-0.1,0-0.1-0.4-0.5-0.3c-1,0.3,0,0.6-0.5,1.1c-0.7,0.7-0.6-0.1-0.4-0.8
		c-1.4-0.7-1,1.4-1.3,1.5c-0.8,0.3-0.5-1.3-1.2-1.8c-0.3-0.2-0.9,0.2-1.1,0c-0.1-0.2-0.2-0.7-0.2-0.6c0.1,0.2,0.2-0.6,0.1-0.8
		c-0.3-0.5-0.7,0.3-0.9,0.4c-0.6-0.6,0.9-0.9-0.7-1c-1.6,0-0.3,0.8-0.5,1.1c-0.1,0.4-0.9,0.2-1.1,0.8c-0.1,0.4,1,0.8,0.4,1.3
		c-0.4,0.4-0.4-0.7-0.6-0.7c-0.6,0-0.4,0-1,0.5c0.5-1.2,0.1-1.6,0.9-2.7c0.4-0.6,0.1-0.5,0.8-0.8c0.3,0.3,0.6,0.4,1,0.2
		c0.2-0.1,0.4-0.3,0.6-0.4c0.7-0.1,1.2,0.2,1.8-0.5c0.4-0.4-0.7-0.7-0.4-0.8c0.8-0.4,0.9,0.8,1.6,0.4c-0.7-1.7,1.3-1.3,1.5-1.4
		c0.3,0.6-1.1,0.6-1.3,0.7c0.2,0.3,0.7,1.1,0.8,1.5c0.1,0.4-0.8,0.6-0.5,0.9c0.1,0.1,0.9,0.2,0.9,0.2c0-0.1,0.3,1.1,0,0.8
		c0.3,0.4-0.9,0.3,0.4,0.7c0.3,0.1,0.6-0.7,1-0.6c-0.1-0.5-0.6,0.1-0.6-0.3c-0.1-0.9,1.2,0.1,1.1,0.1c0.5,0.2,1.5,1.5,1.7,0.1
		c1.6,0.4,0.6,0.8,1.1,1.6c0.4,0.7,0.4,0.9,1-0.3c0.3-0.6,0.1-1.8,0.2-2c0.2-0.2,1.8,0.4,1.9,0.8c0.3-0.4,0.9-0.5,0.4-1.1
		c1.3-1.2,0.8,2.2,0.9,2.3c0.9,1.2,1.1-2.9,1.9-2.2c0.5,0.4-0.1,0.6,0.5,0.6c0.2-0.4,0.6-0.5,1-0.4c0.2,0.1,0.4,0.3,0.6,0.4
		c2.1,1-0.2,1.1,0.3,2.4c0.5-0.5,2-1.3,2.6-1.1c-0.4,0.2-0.7,0.4-1,0.6C94.5,190.6,96.2,189.8,94.1,191.1z M82,185.6
		c-0.7-2,1.5,0.4,1.5,0.6c0,0.1-1.5,1.3-1.6,1.3C80.5,187.4,82.2,186,82,185.6z M79.3,185.4c1-1.1,1.3-1.1,2.1,0.1
		C80.6,185.1,80,185.1,79.3,185.4z M97.4,190.1c-2.2,1.2-1.7-1.4-0.7-0.9c0.2-0.2-0.9,1-0.7,0.5c0,0.3,0.1,0.4,0.3,0.6
		c0.3,0,0.8-1.1,1.3-0.6C97.7,189.9,97.6,190,97.4,190.1z M109.2,189.6c-0.2,0.1-0.4,0.1-0.5,0c-0.6-0.7,0.8-1,0.1-1.9
		c0.1,0.2,0.1-1.1,0.9,0.2C110,188.6,110.1,189.4,109.2,189.6z M118.7,187.8c1.7-0.8,2.6-0.6,2.8,0.7
		C120.6,187.4,119.5,188.3,118.7,187.8z M124,186.4c0,0.6-0.2,0.7-0.7,0.4c1-0.2,0-2.1,1.5-1.8C124.1,185.2,124,185.8,124,186.4z
		 M127.9,187.8c0.2-1-0.3-0.8-1-0.7c0-0.4,0.2-0.8,0.5-1.1C127,186.9,129.1,186.6,127.9,187.8z M137.4,184.1c0-0.1-1.1-1.8,0-1.4
		C138.5,183.2,137.2,183.5,137.4,184.1z M141,183.5c-0.5,0.2-0.5-1.5,0.6-1C142,182.6,141.3,183.3,141,183.5z M142.1,179.6
		c0,0.9-1,1.3-1.1,2.2c-1.1-1,0-0.7,0.2-1.4c0.1-0.2,1.1-1.3,0.8-1.5C142.3,179.1,142.1,179.2,142.1,179.6z M144,184.7
		c-0.5-0.1-0.4,1.6-1.1,0.8c-0.4-0.5,0.2-2.4,0.6-2.7C143.6,183.1,144.1,184.7,144,184.7z M143.1,179.1c0.1-0.5,1.7-2.9,2.2-1.4
		C144.5,177.9,143.9,178.6,143.1,179.1z M145.2,179.6c-0.2,0.4-0.3,0.9-0.9,0.7c0,0.1,0.4-1.4,0.2-1.2
		C145.1,178.3,145.6,178.9,145.2,179.6z M146.7,178.1c-0.6-0.7-1-0.3-1.4,0.4c0-0.3,0.4-2.6,0.6-2.6c0.3,0,0.9,2,2.2,2
		C147.8,178.2,147.1,178.6,146.7,178.1z M152.1,175c0-0.1-0.5-0.1-0.4-0.6c0.1-0.6,1.6-0.9,2.1-1C154,173.7,152,174.3,152.1,175z
		 M151.8,173.2c0.5-1,1.1-1.4,2.1-0.5C153.1,172.3,152.6,173.2,151.8,173.2z M156.3,176.8c-0.4,0.4-1.4-0.1-1.4-0.7
		c0.2,0.1,0.5,0.2,0.7,0.2c-0.5-0.9-1.9-0.5-2.3-1.5c1.3-0.4,0.9-0.4,1.9,0.5C155.4,175.5,156.9,176.2,156.3,176.8z M157.1,172.6
		c0.3,0.1,0.2,3.1,0.2,3c-1.2,1-2.6-2.2-2.3-3c0.3-0.1,0.5-0.1,0.8,0c0.1-0.6-0.5-0.7-0.7-1c0.2-0.1,2.5-0.7,2.2-0.9
		C158.4,171.4,155.6,172.1,157.1,172.6z M157.9,173.8c-0.4-0.9-0.4-1.7,0.5-2.5C158.2,172.2,159.3,173.1,157.9,173.8z M166.8,163.5
		c-0.9-0.1-1.5,0.6-2.3-0.1c0.3,0,2-0.4,2.2-0.3C166.7,163.1,167.2,163.5,166.8,163.5z M165.3,160c0.7-0.2,0.7,2.5,0.5,2.7
		C165.8,162.4,164.7,160.2,165.3,160z M169.1,160.5c-0.8,0.2-0.7,1.3-0.7,2c-0.6-1.8-2.5-1.8-1.4-3c0.7-0.8-0.1-0.5,1-0.5
		C168.8,158.9,170.9,160.1,169.1,160.5z M168.4,156.3c-0.1-0.6-0.6-0.1-0.9-0.2c0.1-0.9,0.7-0.9,1.5-0.8c0.5,0.8,0.2,2-0.9,2.3
		C166.5,157.8,168.5,156.9,168.4,156.3z M169.8,159.1c-0.8-0.3-1-1.1-0.3-1.6C169.6,157.6,170.6,159.4,169.8,159.1z M181.4,98.3
		c0.7,32.7-18.9,63.3-48.8,76.4c-30.3,13.2-66.5,6.4-89.9-16.8c-11.3-11.2-19.2-25.7-22.4-41.3c-1.9-9.2-2.2-18.8-0.8-28.2
		C20.2,83,22,78,21.8,72.5c0-0.9-0.6-2.7,0.2-3.4c0.4-0.4,1.2-0.3,1.6-0.4c1.6-0.4,1.4-0.8,2.1-2.3c14.4-31.8,48.6-51.2,83.3-47.4
		c16.9,1.9,33,9.2,45.6,20.6c6.2,5.7,11.6,12.3,15.8,19.5c2.1,3.6,3.5,7.6,5.4,11.3c0.9,1.7,2.3,2.7,2.6,4.7c0.2,1.2,0,2.4,0.2,3.6
		c0.2,1.5,0.7,2.9,1.1,4.4c0.6,2.7,1,5.3,1.3,8.1C181.1,92.4,182,97.8,181.4,98.3z M190,95.8c0.4,0.6-0.6,0.6-0.4,1.1
		c0.2,0.7,1.1,0.4,1.5,1C188.9,97.4,188.4,97.7,190,95.8z M189.9,101.4c-0.3-0.1,0.1-0.5,0-0.8c-0.1-0.3-0.9,0-1-0.6
		C190.4,100,190.7,101.7,189.9,101.4z M190.2,103.6c-0.5-0.3-0.9-0.9-1.7-0.8C189.6,102.2,190.1,102.5,190.2,103.6z M188.7,90.3
		c1.1,0.6,0.8,1-0.2,1.2c0-0.2,0.1-0.5,0.2-0.7c-1.2-0.5-0.6,1.2-0.6,1.4C187.2,91.6,187.9,89.9,188.7,90.3z M187.4,79.9
		c-0.2-0.4,0.3-1,0.5-0.6c0.5,1,0,2.5-1.2,2.7C187.7,81.6,187.8,80.8,187.4,79.9z M184.9,120.8c-0.5-0.7-0.4-1.3,0.3-1.7
		C185.1,119.6,185.4,120.2,184.9,120.8z M191.8,110.3c0,0.4,0.3,0.7,0.3,1.1c0.1,0.5-0.1,0.8-0.1,1.2c0,0.5,0,1.3-0.2,1.9
		c0.4,0.2,0.6-0.4,0.9-0.1c0.2,0.6-1,1.1-1,1.3c-0.1,0.7,0.4,0.6,0.7,1.2c-0.5,0.2-0.8-0.3-1.2,0c-0.4,0.3-0.1,0.9-0.3,1.2
		c-0.3,0.7-0.8-1.2-0.8-1.2c-0.1,0-0.5,0.8-0.7,0.8c-0.5,0.2-0.4-0.7-0.9-0.1c-0.3,0.3,0.5,2,0.3,2.4c-0.2,0.1-0.4,0.2-0.6,0.2
		c0,0.2,0,0.5,0,0.7c-0.1,0-1.6-0.6-1.5-0.5c-0.4-0.9,1-0.7,1.3-1.6c0.5-1.6-1,0.2-1,0.2c-1,0-0.2-0.6-1-0.9
		c-0.5-0.2-0.9,0.7-1.3,0.1c0.3-0.7,1.5-0.4,0.9-1.5c0.9,0,0.6,0.9,1,1c1,0.2,0.5-0.3,1-0.6c-0.1-0.5,0.1-0.7,0.5-0.7
		c0.2,0.1,0.3,0.1,0.5,0.2c0.2-0.1,1.1,0.3,0.9-0.5c-0.1-0.2-2.1-0.7-2.2-0.8c-0.2-0.1-0.4,0.4-0.6-0.2c-0.1-0.4,0.5-0.8,0.5-1.2
		c0-0.6-1.4-1.4-0.5-2c0.4-0.3,0.7,0.5,1.1,0.4c0.6,0,0.9-0.5,1.4-0.6c0.6-0.1,2.1,1.3,2.4,0.2c0.2-0.6-0.3-0.7-0.6-0.9
		c-0.1-0.1,0,0.8-0.1,0.9c-0.7-0.4-0.8-1-0.3-1.6c-1.2,0-1.4,1.3-2.6,1.1c-2.1-0.2-0.5-1.6-1.6-2.4c0.5-0.3,0.5-3.1,1.3-2.3
		c-0.1,0.5-1.1,1.3,0.3,0.8c1.8-0.6-0.3-1.1,0.1-2.2c0.5,0.1,0.5,0.7,1,0.9c0.8-1.3,1.7-1.6,1.9,0.2c0,0.1-0.7,0.3-0.6,0.7
		c0,0.3,0.7-0.1,0.9,0c-0.1,0.2-0.6,2.4-0.6,2.5c0.5,0.5,1.4-0.8,2.2,0.3c-0.2,0.3-1.8-0.6-1.5,0.5
		C191.4,110.5,191.8,110.3,191.8,110.3z M192,108.8c-0.6,0.1,0.3-0.7,0.3-0.7c0.5-0.2,1.1,1.1,1.3,1.3
		C193,109.4,192.5,108.7,192,108.8z"/>
	<path class="st0" d="M178.8,98.3c-1.1-0.3-2-1.1-2.7-2c1.7,35.4-22,68.1-56.3,77.3c-34.2,9.2-71.1-7.2-87.4-38.5
		c-10.3-19.8-11.2-43.8-2.6-64.4c-5-1.3-5.4,5.9-5.4,9c0,0.8,0.4,3.1-0.6,3.5c-2.3,0.9-2-5.1-2-5.9c-10.9,37.3,6.9,78.1,41.6,95.6
		c32.7,16.5,73.5,8.5,97.7-18.9c13.5-15.2,20.7-35.2,20.3-55.5C180.7,98.9,179.5,98.5,178.8,98.3z"/>
	<path class="st0" d="M30.9,68C41,46.3,61.2,30.2,84.7,25.4c23.9-4.9,49.3,2.2,67.2,18.9c4.7,4.4,8.8,9.3,12.3,14.8
		c1.8,2.8,3.4,5.7,4.8,8.7c0.6,1.3,0.2,1.1,1.5,1.2c0.7,0.1,1.5-0.2,2.2-0.1c0.4,0.1,1.5,0.3,1.8,0.4c0.5-0.3,0.8-0.1,0.7,0.6
		c0.3,0.5,0.6,0.9,1.1,1.3c-8.9-23.6-28.8-42.1-52.9-49.3c-24.9-7.4-52.5-2.3-73,13.6c-11.1,8.6-20,20.1-25.4,33.1
		C26.9,68.4,28.9,68.2,30.9,68z"/>
	<path class="st0" d="M170.6,71.5c1,2.5,1.9,5.1,2.6,7.7C173.8,76.7,173.9,72.3,170.6,71.5z"/>
	<path class="st0" d="M176.9,80.8c0.1,1.1-1.5,2.5-2.6,2.6c2.9,0.9,3.5,3.4,4.4,5.7c0.5,1.4,0.5,3.3,0.7,5c0.3,1.7,0.7,2.2,1.9,3.3
		c-0.2-6.5-1.2-12.9-2.9-19.1C178.4,79.1,178.2,81.2,176.9,80.8z"/>
	<path d="M67.4,124.5c0.8,1.1,0.1,2.5,0.6,3.5c0.3,0.6,0,0.8,1.1,0.5c0.5-0.1,0.8-0.4,1.1-0.8C71.5,125.4,68.9,124.8,67.4,124.5z"/>
	<path d="M109,125.6c0.2,0,0.4,0,0.5,0c-0.9-0.9-0.7-2.5-1.5-3.4C108.6,123.4,106.2,126.7,109,125.6z"/>
	<path d="M100,23.9c-29.4,0-56.7,17.5-69.1,44.2c2.9-0.2,5.9-0.4,8.8-0.5c1.3-0.1,4.1-0.8,5.3-0.1c0.8,0.4,0.9,0.7,0.8,1.6
		c0,0.6-0.6,0.8-0.5,1.3c0,0.3,0.7,1.1,0.8,1.4c0.2,0.4,0.2,1,0.3,1.4c0.4,1.9,2.1,6.5,0.3,8.2c-2.3,2.2-2.6-3-2.8-4.2
		c-0.3-2.5-1-7.4-4.7-7.2c-2.5,0.1-1.9,3.5-1.8,5.2c0.3,3.7,0.7,7.4,0.9,11.1c0.1,1.5-0.4,6.2,1.2,7c-1.2,0.1-0.8,3.5-0.7,4.2
		c0.1,1.5,0.2,3.1,0.4,4.5c0.1,0.9,0.9,2.1,1.6,2.6c1.1,0.7,3.1-0.2,3.8,0.6c1.2,1.2-1.4,1.8-2.4,2c-0.6,0.1-1.2,0.1-1.8,0.2
		c-0.6-0.3-0.9-0.3-1.1,0.2c-0.2,0.5-0.6,0.6-1.2,0.4c-1.6,0.3-3.4-0.1-5.1-0.1c-1.2,0-3.9,0.6-4.4-0.3c-0.3-0.6-0.2-0.9,0.2-1.4
		c1.1-1.2,3.3-0.7,4.2-2.3c0.9-1.6-1.2-4.9,0.6-5.9c-1.2-0.2-1-2.8-1.1-3.8c-0.2-3-0.5-6-0.7-8.9c-0.3-3-0.6-6.1-0.7-9.1
		c-0.1-1.4,0.6-5-1.3-5.6c-15.6,37.2,1.5,81.3,37.9,98.4c34,16,75.8,3.9,96.3-27.6c5.5-8.5,9.3-18.2,11.1-28.2
		c0.9-5,1.8-10.9,1.1-15.9c-0.2-1.3-1-1.9-1.4-3.1c-0.4-1-0.4-2.1-0.5-3.2c-0.2-1.3-0.6-2.4-0.9-3.7c-0.1-0.3-0.3-0.7-0.3-0.9
		c-0.1-0.3,0.2-1.9-0.7-0.7c-0.8-0.9-3.3-1.6-4.4-0.6c-0.8,0.8-0.6,2.4-0.6,3.4c0.1,1.7,0.3,3.3,0.4,5c0.1,0.9,0.2,1.5,0.4,2.4
		c0.1,0.5,0.2,1,0.3,1.6c0.3,0,0.6,0,0.8,0c0.4,0.3,1.5,0.7,1.4,1.3c-0.2,0.9-4.4,0.9-5.1,0.9c-0.9,0-3.9,0.6-4.6-0.1
		c-1.3-1.3,0.5-1.4,1.4-1c0.1-1.9,1.1-3.3,1-5.3c-0.1-2.4-0.4-4.7-0.7-7.1c-0.4-3.9,0.2-8.3-0.8-12.1c-0.4-1.5-1.1-1.8-2.2-2.6
		c-0.8-0.6-1.7-1.2-0.5-2c0.8-0.5,3-0.1,3.9-0.1c2.2,0.1,4.3,0.5,6.5,0C157.5,41.9,129.8,23.9,100,23.9z M120,37.2
		c0.5-1.2,2.1-2.5,3.1-3.3c1.1-0.9,1.1-0.9,2.5-0.5c-1.4,1.3-2.7,2.5-4,3.9c1.7,0.4,1.8,0.7,2.2-1c0.4,0.1,0.9,0.2,1.3,0.3
		c-0.2,1-0.5,1.3,0.6,1.6c-0.2,0.9-0.3,1.2-1.2,0.9c-0.2,0.8-0.1,1.6-0.8,1.8c-1.3,0.3-0.5-1.7-0.4-2.1
		C122.5,38.6,119.5,38.6,120,37.2z M113,36.9c0.8,1,3.4,1.8,3.5-0.2c0.2-1.9-2.3-1-3.1-1.6c-0.8-0.6-0.5-2.5-0.2-3.3
		c0.5-1.1,0-0.7,1.1-0.8c1.2-0.1,2.7,0.4,3.9,0.6c-0.2,1.3,0,0.9-1.1,1c-0.8,0.1-1.9-0.3-2.6-0.4c-0.1,0.6-0.2,1.3-0.3,1.9
		c2.3-0.8,4.7,1.9,3.1,3.9C116,39.9,111,39,113,36.9z M106.9,30.4c1,0.1,2.1,0.2,3.1,0.3c-0.1,1.4-0.3,2.9-0.4,4.3
		c0,0.7,0.2,2.3-0.2,2.9c-0.6,0.8-1.2,0.6-1.4-0.2c-0.5-1.5,0.4-4.4,0.5-6C107.3,31.6,106.8,31.8,106.9,30.4z M88.7,30.7
		c0.5,0,0.9-0.1,1.4-0.1c0.2,1.9-0.1,1.9,1.8,1.7c0.1,1.3-0.6,1-1.6,1.1c0.1,0.9,0.3,5.5,2,3.4c0.8,1.2-0.5,1.8-1.7,1.4
		c-1.3-0.5-1.4-1.9-1.6-3.1c0-0.5,0.1-1.2-0.1-1.6c-0.2-0.5-0.7,0.5-0.8-0.4c-0.1-0.9,0.5-0.2,0.7-0.9
		C88.9,31.7,88.7,31.2,88.7,30.7z M81.6,34.2c0.8-1.3,2.9-1.3,4.1-0.8c-0.1,0.4-0.2,0.7-0.4,1c-0.4,0.1-2.5-0.8-2.6,0.3
		c-0.1,1.1,2,0.7,2.6,1c3.4,1.7-1.7,5-3.3,3.1c-1.4-1.7,2.7-0.3,3-1C85.8,36,79.9,37.2,81.6,34.2z M73.2,36.8c1-3.7,5.6-2.5,6.2,0.7
		c-1.6,0.3-3.2,0.7-4.7,1c0.3,0.9,1.3,1.1,2.1,1c1.4-0.2,1.2-1.4,2.5-0.5C77.4,41.9,72.3,40.4,73.2,36.8z M65.6,38.5
		c2.1,0,2.1,3.2,0,3.2C63.5,41.7,63.5,38.5,65.6,38.5z M54.8,136.4c-1.4,0.7-2.9-0.8-4.4-0.2c-0.8,0.3-1.3,1.2-2.1,1.4
		c-2.8,0.8-4.8-1.8-4.4-4.2c0.4-2.4,1.9-4.1,1.6-6.6c-0.2-1.4-0.7-2.7,0.6-3.7c1-0.8,2-0.9,2.7,0.1c0.6,0.8,0.8,2.3,0.7,3.3
		c-0.1,1.1-1.1,1.9-1,3c0.1,1.3,3,4.8,4.1,2.7c0.4-0.7-0.4-2.1-0.7-2.7c-0.2-0.3-1.1-1.5-1.1-1.6c0.2-0.4,4.8-0.6,4.9-0.3
		c-1.8,0.7-2.7,3.4-3,5.1c-0.2,1.2-0.3,1.2,0.5,1.7c0.4,0.3,1.8-0.1,2.1,0.3c0.1-0.8,0.7-2.4,0.2-3.2
		C57.4,131.6,56,135.9,54.8,136.4z M62.3,105.2c-0.2-1.9,1.4-0.9,2.4-1c0-0.4-0.5-1.1-0.6-1.5c-0.1-0.7,0-1.6-0.1-2.3
		c0-1.5-0.1-3-0.1-4.5c0-0.9,0.4-3.3-0.2-4c-0.6-0.8-2.3-0.6-3.2-0.5c-4.1,0.1-3.2,3.2-2.9,6.3c0.2,1.8,0,4,0.9,5.6
		c0.5,0.9,2.2,1.3,1.5,2.4c-1,1.4-5.3,1.3-6.8,1.1c-3.7-0.4-0.8-1.9-0.2-4.2c0.5-2,0-4.5-0.2-6.6c-0.2-2.4-0.4-4.8-0.6-7.2
		c-0.1-2.1,0-4.2-0.2-6.3c-0.1-0.9-0.2-1.9-0.7-2.6C51,79,50,79.1,51.1,78.2c0,0.2-2.1,1.2-1.7-0.7c0.3-1.4,2.1-1.4,3.2-1.5
		c1.4-0.1,6.2-1,6.4,1.2c0.2,1.3-1.5,1-2.1,1.9c-0.4,0.5-0.1,1.9-0.1,2.6c0,1.7,0.1,3.4,0.4,5c0.1,0.4,0.2,2.5,0.4,2.7
		c0.4,0.4,3.2,0,3.8-0.1c1.8-0.3,1.9-1.3,1.9-3.1c0.1-2-0.3-4-0.4-6c-0.1-0.7,0-1.5-0.5-2.1c-0.3-0.3-0.7,0.1-1.1-0.3
		c-0.4-0.4-0.4-1.8-0.5-2.2c2.2,1.3,6.1-1.5,7.9,0.2c1.1,1-0.3,2.6-0.6,3.6c-0.7,2.3-0.1,5.2,0.4,7.5c-0.5-1.3-0.2,1.1-0.2,1.4
		c0,1,0,2,0.1,3c0.1,1.7,0.3,3.5,0.4,5.2c0.1,1.6-0.3,3.7,0.2,5.3c0.3,1,0.5,0.9,1.5,1.5c2.8,1.7,0.2,2-1.8,2.2
		C67.6,105.8,62.5,106.9,62.3,105.2z M70,129.7c-1.8-1-2,0.4-1.8,1.8c0.1,0.4,0.1,1.2,0.3,1.6c0.3,0.5,1.2,1.1,1.3,1.6
		c-0.8,0.2-2.6,0.9-3.4,0.5c-0.8-0.4,0.2-0.8,0.5-1.6c0.4-1.2-0.4-2.9-0.6-4.1c-0.3-1.5-0.5-3.1-0.7-4.7c0,0.2-1-0.5-1.1-0.7
		c1.5-0.7,5.1-1.2,6.5-0.1c1.3,1,1.9,4.6-0.3,4.9c2,0.5,1.5,2.5,2.1,4c0.3,0.8,1.5,2.1-0.1,1.6c-0.8-0.3-1.6-2-2-2.7
		C70.6,131.5,69.9,129.7,70,129.7z M77.3,132.7c-0.1-2-0.4-4.1-0.7-6.1c-0.2-1-0.2-2.2-0.6-3.1c-0.2-0.5-0.8-0.2-1-0.5
		c-0.5-0.7,4.6-1,4.9-1c1.6,0.1,3.6,0.9,2.5,3c-1.4-0.3-0.4-2.9-2.7-2.4c-1.2,0.3-1.3,1.3-1.3,2.3c0,0.6,0,2.3,0.8,2.4
		c1.1,0,0.6-1.7,1.4-2c0.1,0.5,0.3,1,0.3,1.5c-0.3-0.2,1,3.4-0.5,2.4c-0.4-0.3-0.2-1.6-1-1.4c-0.8,0.2-0.6,1.9-0.6,2.4
		c0,0.5,0,1.9,0.4,2.3c0.8,0.8,2.8-0.2,3.3-1c0.3-0.4,0-2,0.5-2.1c0.6-0.2,0.6,3.2,0.6,3.4c-1.9-0.2-3.8,0.4-5.7,0.8
		c-0.3,0.1-1.7,0.6-1.7,0C76.2,133.2,77.3,133.2,77.3,132.7z M82.4,155.3c-4.2,0-4.1-6.4,0-6.4C86.5,148.9,86.6,155.3,82.4,155.3z
		 M87.4,131.6c-0.1,0.5-0.1,0.9-0.8,1c-0.1-0.6-1.4-4.2-0.2-4.2c0.6,0,1.2,2.1,1.6,2.4c2.1,1.9,5.4-0.8,2.5-2.8
		c-1.4-1-4.3-1.6-4.9-3.4c-0.9-2.6,3.4-4.6,5.3-3.2c0-0.1-0.1-0.5,0.1-0.6c0.4-0.2,2.1,3,1.1,3.5c-0.8,0.4-2-4-4.4-1.9
		c-2.9,2.5,4.1,3.4,4.9,4.7c0.8,1.1,1,2.7,0.2,3.7C91.5,132.3,89.2,132.7,87.4,131.6z M86.6,104.4c-2.7,0.2-5.4,0.2-8,0.5
		c-1,0.1-3.1,0.9-4,0.2c-1.2-0.8,0-1.7,0.8-2.3c1.9-1.4,2.1-2.7,1.9-5.2c-0.3-4.9-1.5-9.8-1.6-14.8c0-1.5,0.5-3.6-0.3-4.9
		c-0.8-1.6-2.1-0.5-3.1-1.4c-2.5-2.4,6-2,6.9-2c2.7-0.1,5.3-0.2,8-0.1c1.9,0.1,3.4-0.2,4.1,1.8c0.5,1.4,0.9,3.7,0.6,5.1
		c-0.6,3-1.9-0.8-2.3-1.8c-0.7-1.8-1.3-2.9-3.4-3.2c-1.4-0.2-4.4-0.4-5.3,0.9c-1.1,1.4-0.2,3.7,0,5.3c0.1,1.4-0.4,3.4,0.1,4.7
		c0.8,1.8,2.6,0.7,3.4-0.6c0.8-1.3-0.1-4,2.2-3.5c-0.2,0.2,0.5,3.4,0.6,4.2c-0.5-0.3-0.3,0-0.7-0.1c0.9,0.3,1.4,5.4,0.7,6.5
		c-1.4,2.2-1.9-1.8-2.3-2.6c-0.7-1.5-3.3-1.4-3.7,0.3c-0.2,0.7,0.4,2,0.4,2.7c0,1.3-0.1,2.6-0.1,4c0.1,1.8,0,4.3,2,4.7
		c2,0.4,5.6-0.3,7-1.8c0.6-0.7,1.4-6.3,2.1-6c1.7,0.7,0.8,7.5,0.9,8.8C91.2,103.3,88.9,104.2,86.6,104.4z M96.6,123.6
		c-0.8,1.7-1.2-0.7-1.2-1.5c-0.2-2,1.1-1.9,2.9-2.2c1-0.2,3-1,3.8-0.3c0.6,0.5,0.8,3.8-0.1,4.1c-0.4-0.5-0.7-3.8-2-3.2
		c-0.7,0.3-0.2,3.1-0.1,3.6c0.2,1.2,0.3,2.7,0.7,3.9c0.1,0.4,1.7,2.5,1.7,2.4c-0.4,1.3-3.4,0.1-4.2,0.5c1.5-0.7-0.4-8.7-0.2-10.2
		C95.7,120.6,97.1,122.5,96.6,123.6z M100,155.3c-4.2,0-4.1-6.4,0-6.4C104.1,148.9,104.2,155.3,100,155.3z M103.7,38.1
		c-0.7,0.1-4.1,0.3-4.5-0.2c-0.9-0.9,0.6-2.1,1.3-2.8c0.7-0.7,2.8-1.8,2.4-3.1c-0.3-1.1-1.3-0.8-2.1-0.6c-1.4,0.3-0.4,0.9-2,0.1
		c1.2-1.6,4.5-2.4,5.4-0.1c0.9,2.3-2.1,4-3.4,5.3c0.5,0,3.4-0.2,3.6,0.1C104.8,37.4,104.2,38,103.7,38.1z M111.2,62.7
		c-0.5,0.7,2.6,0.3,3.1,0.2c1.3-0.2,2.5-0.4,3.8-0.4c1.5,0,4-0.4,5.4-0.1c0.8,0.2,2,1.1,2.9,1.5c1.1,0.5,2,0.9,2.7,1.9
		c0.8,1,1.8,4.9,3.3,5.1c-1.3,0.2-1.3,3.9-1.5,4.8c-0.3,1.1-0.8,2.2-1.5,3.1c0.1-0.1-2.2,2.2-2.3,1.6c0,0.3,1.8,1.6,2.2,1.9
		c1.5,1.4,2.9,2.7,3.9,4.5c1.6,3.1,1.6,7-1.7,9c0.1,0.3,1.7-0.5,1.7-0.1c-2.5,5.8-8.5,6.5-14.2,6.7c-2.6,0.1-5,0.5-7.6,0.7
		c-0.9,0.1-2.5,0.3-3.3-0.4c-1.6-1.3,0.8-0.9-0.1-1.9c0.9,0.6,2-0.2,2.5-1c0.7-0.9,0.4-1.4,0.3-2.3c-0.2-2.8-0.3-5.8-0.5-8.6
		c-0.4-5.7-0.8-11.4-0.8-17c0-1.7,0.3-4.6-1.2-5.8c-1-0.8-2.8,0-3.2-1.5C104.5,62.1,110,63.5,111.2,62.7z M112.1,129.5
		c-1.3,0.4-1.3,0.1-2.2-0.6c1.4-0.2-0.2-2.8-1.3-2.7c-2.6,0.1-0.3,2.7-0.6,3.3c-0.4,0.8-2,1.3-2.5,0.5c0.1,0.2,1-2.4,0.9-2.4
		c0.3-2.2,0.4-4.6,0.9-6.8c0.5-2.2,1.2-2,2.2-0.1c0.9,1.9,1.9,7.3,3.9,7.8C113.5,128.6,112.3,129.5,112.1,129.5z M117.6,155.3
		c-4.2,0-4.1-6.4,0-6.4C121.7,148.9,121.8,155.3,117.6,155.3z M122.3,121.8c0.2,1.8,0.9,4.8-0.6,6.3c-1.8,1.8-4.5,0.3-5.2-1.8
		c-0.6-1.9-0.6-4.2-0.8-6.2c-0.1-0.6-0.1-1.1-0.3-1.5c-0.4-0.6-1.7,0-0.2-0.9c0.5-0.3,2.7-0.6,3.2-0.2c0.6,0.7-0.7,0.7-1,1.2
		c-0.5,1,0.4,3.8,0.5,5c0.1,1.3-0.1,2.6,0.9,3.6c1.7,1.8,2.5-0.4,2.7-2c0.1-1,0.1-1.9,0-2.8c-0.1-1-0.1-2.5-0.5-3.5
		c0-0.1-1-1.6-1-1.4c0.3-0.8,2.4-1,2.6-0.3c0.1,0.3-0.6,1.2-0.6,1.6C121.8,119.8,122.1,120.9,122.3,121.8z M130.8,122.2
		c-1.8-1-2,0.4-1.8,1.7c0.1,0.4,0.1,1.2,0.3,1.6c0.3,0.5,1.2,1.1,1.3,1.6c-0.8,0.2-2.6,0.9-3.4,0.5c-0.8-0.4,0.2-0.8,0.5-1.6
		c0.4-1.2-0.4-2.9-0.6-4.1c-0.3-1.5-0.5-3.1-0.7-4.7c0,0.2-1-0.5-1.1-0.7c1.5-0.7,5.1-1.2,6.5-0.1c1.2,0.9,2,4.8-0.3,4.9
		c2,0.5,1.5,2.5,2.1,4c0.3,0.8,1.5,2.1-0.1,1.6c-0.8-0.3-1.6-2-2-2.7C131.4,124,130.8,122.2,130.8,122.2z M134.4,41.7
		c-2.1,0-2.1-3.2,0-3.2C136.5,38.5,136.5,41.7,134.4,41.7z M143.5,125.7c-1.3,0.4-1.3,0.1-2.2-0.6c1.4-0.2-0.7-4.4-2.4-2.2
		c-0.8,1,0.6,1.9,0.4,2.6c-0.2,0.6-1.7,1.3-2.4,0.7c0.3,0.2,1.4-5.2,1.5-5.6c0.1-0.9,0.4-5.6,1.6-5.7c0.8,0,1.9,4.2,2.1,4.9
		c0.5,1.7,1,4.3,2.8,4.8C145,124.7,143.7,125.6,143.5,125.7z M154,124.4c-0.5,0-2.3-2.7-2.6-3.2c-1-1.4-1.9-3.2-3.1-4.5
		c-0.1,2.6,0.5,4.6,1.4,6.9c0.8,2.2-0.8,0.6-2.1,1.5c-0.1-0.9,0.4-1.8,0.5-2.6c0.1-1.2-0.1-2.4-0.3-3.6c-0.1-1-0.1-2.3-0.5-3.2
		c-0.2-0.4-1.2-1.4-1.2-1.8c0.8,0.3,1.7,0,2.5,0.4c0.8,0.4,1.2,1.3,1.7,2.1c0.3,0.5,1.9,3.7,2.6,3.6c-0.8-0.1-0.5-5.9-1.9-6.6
		c0.3-0.6,2.1-0.3,2.6-0.4c0.2,0.3-0.3,2.3-0.3,2.7c0,1.2,0.1,2.3,0.3,3.5C153.8,119.7,154.7,124.4,154,124.4z M160.1,112.2
		c1.1-0.1,2.5-0.7,3.2,0.2c0.4,0.5,0.6,3.5-0.2,3.8c-0.4-0.5-0.7-3.8-2-3.2c-0.7,0.3-0.2,3.1-0.1,3.6c0.2,1.2,0.3,2.7,0.7,3.9
		c0.1,0.4,1.7,2.5,1.7,2.4c-0.4,1.3-3.4,0.1-4.2,0.5c1.5-0.7-0.4-8.7-0.2-10.2c-1.8-0.2-1,1-1.2,2c-0.2,1.2-0.3,1.8-0.9,0.7
		c-0.4-0.6-0.6-2.2-0.2-2.8C157.2,112.4,159.1,112.4,160.1,112.2z M158.3,98.3c0.5,2.3-3.9,1.7-5.1,1.8c-0.9,0-2.2,0.5-3,0.3
		c-1.8-0.5-0.3-1.4-1.3-2.3c3-0.2,1.1-5.3-0.2-6.4c-0.9-0.8-2.7-0.7-4.1-0.5c-0.5,0.1-1.4,0.1-1.7,0.6c-0.2,0.3-0.4,1.3,0.3,1
		c-1,1.1-2.5,4.5-1.2,5.8c0.4,0.4,1.4,0,1.6,0.6c0.3,0.8-0.6,1.2-1.1,1.4c-0.8,0.4-4.4,1.1-5.2,0.5c-1.6-1.2,1.5-2.5,1.2-4
		c0.8,0.7,0.9-1,1.2-1.9c0.4-1.2,0.7-2.5,1-3.7c0.4-1.5,1.4-4.6,0.4-6.1c1.4,0.3,2.6-9.6,2.8-10.6c0.5-2.5,1.7-7.3,3.9-2.8
		c1.8,3.7,2.3,7.8,4.3,11.4c0.1,0.2,0.5,0.3,0.6,0.5c0.1,0.4,0,1.1,0,1.7c0.1,1.8,1.1,3.6,1.5,5.4c0.3,1.5,0.5,3.3,1.3,4.6
		C156.1,96.6,158.1,97.3,158.3,98.3z"/>
	<path d="M116.5,79.3c1.2,2.1,5.1,1.1,6.5-0.2c1.8-1.7,2-4.5,1.9-6.9c-0.1-2.6-0.5-5.8-3.3-6.9c-0.6-0.2-5.1-0.2-5.1-0.4
		c-0.2,0.7-0.7,1.4-0.7,2.6c-0.1,1.6,0.1,3.2,0.3,4.7c0.1,1.3,0.4,2.6,0.4,3.9C116.5,77.2,116,78.3,116.5,79.3z"/>
	<path d="M145.2,79.8c0.7,1.7-1.1,5-1.4,6.7c-0.1,0.6-0.6,2-0.1,2.6c0.8,1,4,0.2,5.1,0.1C146.6,86.6,147.3,82.4,145.2,79.8z"/>
	<path d="M140.5,121.8c0.2,0,0.4,0,0.5,0c-0.9-0.9-0.7-2.5-1.5-3.4C140,119.5,137.6,122.9,140.5,121.8z"/>
	<path d="M128.2,117.1c0.6,0.8,0.1,5.9,2.4,3.6C133,118.5,129.7,117.3,128.2,117.1z"/>
	<path d="M116.8,83.4c-1.1,1,1.3,9.5,0,9.5c1.8,0.4-0.4,5.6,1.6,5.2c-3.3,3,3.6,2.1,5.2,1.3c3.3-1.7,3.9-5.1,3.7-8.5
		c-0.2-3.2-0.8-6.7-4.4-7.9C121.5,82.7,117.9,82.5,116.8,83.4z"/>
	<path d="M48.7,125.9c0.2-1.6-2.1-3.3-2.5-1.4C46.1,126.6,48.3,129,48.7,125.9z"/>
	<path d="M45.9,131.3c-2.1,2.8,2.7,6,4.2,3.8C49.9,135.3,47.5,129.3,45.9,131.3z"/>
	<path d="M166.1,71.4c1.4,2.2,1,5.5,0.8,7.9c-0.1,2.4-0.1,4,2.8,3.2c2.2-0.6,3.7-1.7,3.2-4.2c-0.3-1.7-1-4.4-2-5.8
		c-0.7-1-0.3-0.8-1.6-1C168.3,71.2,167.2,71.6,166.1,71.4z"/>
	<path class="st1" d="M79.3,39.1c-1.3-0.9-1.2,0.2-2.5,0.5c-0.8,0.1-1.8-0.1-2.1-1c1.6-0.4,3.2-0.7,4.7-1c-0.4-1.9-1.4-3.3-3.5-3
		c-1.6,0.3-3,1.7-2.8,3.5C73.5,41,77.7,41.4,79.3,39.1z M76,36c1.2,0,1.2,1,0,1S74.8,36,76,36z"/>
	<path class="st1" d="M82.6,36.4c0.7,0.3,4.2,1.2,1.5,1.7c-0.5,0.1-1.6-0.6-1.9-0.5c-1.5,0.8,1,1.5,1.4,1.6c2.3,0.1,4.4-2.6,1.5-3.6
		c-0.6-0.2-2.3,0.2-2.2-0.9c0.1-1.1,2.2-0.2,2.6-0.3c0.2-0.3,0.3-0.7,0.4-1C83.4,32.3,79.4,35.2,82.6,36.4z"/>
	<path class="st1" d="M88,32.6c0.1,1.1,0.6,0.6,0.9,1.2c0.4,0.8-0.1,2.1,0.3,3.1c0.8,1.8,4.2,1.8,2.9-0.1c-1.7,2.1-1.9-2.6-2-3.4
		c1.1-0.1,1.7,0.2,1.6-1.1c-1.9,0.1-1.7,0.1-1.8-1.7c-0.5,0-0.9,0.1-1.4,0.1C88.7,31.6,89.2,32.5,88,32.6z"/>
	<path class="st1" d="M104.4,36.8c-1.2-0.1-2.4-0.1-3.6-0.1c1.3-1.3,4.3-3,3.4-5.3c-0.9-2.3-4.2-1.6-5.4,0.1c1.4,0.8,1,0.1,2.3-0.2
		c0.8-0.2,1.7,0.1,1.8,1c0.1,1.4-2.5,2.7-3.3,3.6c-1.3,1.6-0.6,2,1.2,2C102.4,38.1,104.3,38.7,104.4,36.8z"/>
	<path class="st1" d="M107.1,31.6c0.4,0.2,1,0.1,1.4,0.1c-0.2,1.8-0.6,3.8-0.5,5.6c0,0.7-0.3,0.8,0.3,1.1c1.2,0.8,0.8,0,1.1-0.5
		c0.4-0.6,0.1-2.1,0.2-2.7c0.1-1.5,0.3-3,0.4-4.5c-0.2,0-2.9-0.4-3.1-0.3C106.7,30.7,106.9,31.4,107.1,31.6z"/>
	<path class="st1" d="M112.7,38.4c1.5,1.3,4.6,1.1,5.1-1.1c0.5-1.9-1.7-3.6-3.5-3c0.1-0.6,0.2-1.3,0.3-1.9c0.8,0.1,1.9,0.5,2.6,0.4
		c1.1-0.1,0.9,0.2,1.1-1c-1.2-0.2-2.7-0.7-3.9-0.6c-1.3,0.1-1.1,0-1.3,1.4c-0.2,1.5-0.5,2.3,1.1,2.8c0.8,0.3,1.8-0.3,2.2,0.8
		c0.2,0.6,0,1.2-0.5,1.6c-0.9,0.7-1.7-0.2-2.5-0.4c-0.3-0.6-0.6-0.6-1,0.1C112.2,37.8,112.2,38.1,112.7,38.4z"/>
	<path class="st1" d="M120.4,38.1c0.8,0.5,1.9,0.4,2.8,0.6c-0.2,0.7-0.9,2.2,0.4,2.1c0.7,0,0.7-1.1,0.8-1.8c1,0.2,1,0,1.2-0.9
		c-1.2-0.3-0.9-0.6-0.6-1.6c-0.4-0.1-0.9-0.2-1.3-0.3c-0.4,1.7-0.6,1.3-2.2,1c1.3-1.3,2.6-2.6,4-3.9c-1.9-0.5-2,0-3.3,1.4
		C121.6,35.4,119,37.3,120.4,38.1z"/>
	<path class="st1" d="M65.6,41.7c2.1,0,2.1-3.2,0-3.2C63.5,38.5,63.5,41.7,65.6,41.7z"/>
	<path class="st1" d="M134.4,38.5c-2.1,0-2.1,3.2,0,3.2C136.5,41.7,136.5,38.5,134.4,38.5z"/>
	<path class="st2" d="M82.4,148.9c-4.2,0-4.1,6.4,0,6.4C86.5,155.3,86.6,148.9,82.4,148.9z"/>
	<path class="st2" d="M100,148.9c-4.2,0-4.1,6.4,0,6.4C104.1,155.3,104.2,148.9,100,148.9z"/>
	<path class="st2" d="M117.6,148.9c-4.2,0-4.1,6.4,0,6.4C121.7,155.3,121.8,148.9,117.6,148.9z"/>
	<path class="st1" d="M24.4,78.3c0.2-3,0.2-6.7,3.8-7.7c3.7-1,2.8,3.9,3,6.1c0.3,4.5,0.7,8.9,1.1,13.4c0.1,1-0.1,7.6,1.5,7.9
		c-1.7,1,0.2,4.1-0.5,5.7c-0.8,1.9-3.1,1.3-4.2,2.5c-0.5,0.5-0.8,0.7-0.4,1.5c0.5,0.9,3.4,0.3,4.4,0.3c1.6,0,3.5,0.4,5.1,0.1
		c0.9-0.2,1.1-0.6,1.9-0.7c0.7-0.1,1.5,0,2.2-0.1c0.9-0.2,3.6-0.8,2.4-2c-0.8-0.8-2.7,0.1-3.8-0.6c-0.7-0.5-1.3-1.5-1.5-2.3
		c-0.2-0.8,0-1.4-0.1-2.1c-0.1-0.8-0.3-1.6-0.4-2.4c-0.1-0.7-0.5-4.4,0.7-4.4c-1.7-0.8-1.1-5.7-1.2-7.3c-0.2-4.1-0.8-8.1-1-12.1
		c-0.1-2.8,1.1-5.2,4.1-3c2.9,2.1,2.1,6.3,2.9,9.3c0.3,1.1,0.8,2.3,2.1,1.5c1.1-0.7,0.9-2.8,0.8-3.9c-0.1-1.5-0.5-3.1-0.9-4.6
		c-0.1-0.5-0.2-1.3-0.4-1.8c-0.4-1-0.5-0.8-0.4-1.7c0.1-1.6,0.4-2.3-1.8-2.4c-2.6-0.1-5.4,0.3-7.9,0.5c-2.6,0.2-5.3,0.3-7.9,0.5
		c-1.3,0.1-5.1-0.2-6,1c-0.7,0.9-0.1,3.4-0.1,4.5c0,2.3-0.7,6.3,0.5,8.4C24.3,85.8,24.3,79.3,24.4,78.3z"/>
	<path class="st1" d="M70.6,105.6c2-0.5,0.9-1.4-0.2-2.1c-1.4-0.9-1.5-0.9-1.6-2.7c-0.1-2.6-0.2-5.1-0.5-7.7
		c-0.1-1.1-0.2-2.3-0.2-3.4c0-0.7-0.1-1.4,0-2.1c0-0.4-0.2-1.8,0.2-0.6c-0.4-2.2-1.1-5-0.5-7.3c0.3-1.1,1.8-2.8,0.7-3.8
		c-1.8-1.6-5.7,1.1-7.9-0.2c0.1,0.5,0,1.3,0.3,1.7c1,1.7,0.5-0.1,1.1,0.7c0.5,0.6,0.5,0.7,0.6,1.7c0.2,2.1,0.5,4.3,0.5,6.4
		c0,1.6-0.1,2.6-1.7,3c-0.6,0.2-3.6,0.5-4,0.1c-0.2-0.3-0.3-2.3-0.4-2.7c-0.2-1.6-0.3-3.3-0.4-4.9c0-0.7-0.2-2.1,0.1-2.7
		c0.6-0.9,2.2-0.6,2.1-1.9c-0.3-2.1-4.8-1.3-6.2-1.2c-1.1,0.1-3.2,0.1-3.5,1.5c-0.4,1.9,1.7,0.9,1.7,0.7c-1,0.9-0.1,0.8,0.4,1.6
		c0.4,0.7,0.5,1.5,0.6,2.2c0.3,2,0.1,4.1,0.2,6.2c0.2,2.6,0.4,5.2,0.6,7.7c0.2,2.1,0.7,4.6,0.2,6.6c-0.6,2.3-3.6,3.7,0.2,4.2
		c1.5,0.2,5.8,0.3,6.8-1.1c0.8-1.2-0.9-1.5-1.5-2.4c-0.9-1.5-0.8-3.9-0.9-5.6c-0.3-3.1-1.1-6.2,2.9-6.3c3.6-0.1,3.2,0.9,3.3,4.2
		c0,1.5,0.1,3,0.1,4.5c0,0.8-0.1,1.9,0.1,2.7c0.1,0.5,0.5,1.1,0.6,1.5c-0.8,0-2-0.7-2.4,0.3c-0.5,1.2,0.9,1.4,1.7,1.5
		C66.2,106.3,68.4,105.5,70.6,105.6z"/>
	<path class="st1" d="M91.7,96.3c-0.5,2.2,0,4-2.3,5.2c-1.4,0.8-4.2,1.3-5.9,1c-3.4-0.6-1.7-7.4-2-9.9c-0.2-1.6-0.4-2.9,1.9-2.7
		c1.8,0.1,1.3,1.3,1.8,2.6c0.6,1.7,1.8,2.3,2.2,0.3c0.2-1.2,0.1-5.4-0.9-5.7c0.4,0,0.2-0.2,0.7,0.1c-0.1-0.7-0.8-4-0.6-4.2
		c-2.1-0.5-1.3,1.5-1.8,2.8c-0.5,1.2-2.5,3.4-3.7,1.7c-0.7-1-0.1-3.3-0.2-4.4c-0.1-1.5-0.7-3.2-0.4-4.7c0.6-3.7,7.4-2.8,8.8-0.1
		c0.4,0.8,0.9,4.2,2,4.1c1.4-0.1,0.4-4.7,0.2-5.7c-0.5-2-1.3-2.2-3.2-2.3c-3-0.1-6,0-9,0c-0.9,0-9.4-0.4-6.9,2
		c1.2,1.1,2.4-0.3,3.2,1.7c0.7,1.7,0.1,3.9,0.2,5.6c0.3,5,1.9,10.4,1.6,15.4c-0.1,1.1-0.2,2.2-1,2.9c-0.6,0.6-1.8,0.6-2.1,1.6
		c-0.5,1.7,1.5,1.4,2.6,1.3c2.5-0.3,5.1-0.5,7.6-0.6c3-0.2,6.3-1.4,9.2-1c-0.2-2.4,0.2-4.9-0.3-7.2C92.9,94.5,92.2,94.3,91.7,96.3z"
		/>
	<path class="st1" d="M83.6,133c-0.1-0.3-0.1-3.6-0.6-3.4c-0.6,0.3,0,1.4-0.3,1.9c-0.4,0.9-2.6,2.1-3.5,1.2
		c-0.4-0.4-0.4-1.8-0.4-2.3c0-0.5-0.2-2.2,0.6-2.4c0.7-0.2,0.5,0.9,0.9,1.2c1.7,1.3,0.4-2.4,0.6-2.3c0-0.5-0.2-1.1-0.3-1.5
		c-0.8,0.3-0.4,2-1.4,2c-0.9,0-0.8-1.7-0.8-2.4c0-1,0-2,1.3-2.3c2.3-0.5,1.3,2.1,2.7,2.4c1.1-2.2-0.9-2.9-2.5-3
		c-0.2,0-5.4,0.2-4.9,1c0.2,0.3,0.8,0,1,0.5c0.3,0.8,0.4,1.8,0.5,2.6c0.3,1.5,1.3,4.7,0.8,6.2c-0.4,1.2-1.9,1.5,0.2,1.4
		C79.5,133.7,81.4,132.8,83.6,133z"/>
	<path class="st1" d="M92.4,126.6c-1.2-1.2-5.7-0.9-5.1-3.3c0.3-1.5,2.5-1.7,3.5-0.8c0.5,0.5,0.4,1.6,1,1.8c0.7,0.2,0.6-0.4,0.7-0.8
		c0-0.3-0.9-2.9-1.4-2.7c-0.1,0.1-0.1,0.5-0.1,0.6c-1.9-1.4-6.1,0.6-5.3,3.2c0.6,1.8,3.5,2.4,4.9,3.4c3,2-0.3,4.8-2.5,2.8
		c-0.3-0.3-1.1-2.4-1.6-2.4c-1.2,0.1,0.1,3.6,0.2,4.2c0.6-0.1,0.7-0.5,0.8-1C90.8,133.7,95.6,129.8,92.4,126.6z"/>
	<path class="st1" d="M97.9,120.8c-0.2,1.6,1.7,9.5,0.2,10.2c0.9-0.4,3.9,0.8,4.2-0.5c0,0-1.6-2.1-1.7-2.4c-0.4-1.2-0.5-2.6-0.7-3.9
		c-0.1-0.5-0.6-3.3,0.1-3.6c1.3-0.6,1.5,2.7,2,3.2c1.2-0.5,0.4-3.9-0.5-4.3c-0.6-0.2-1.9,0.2-2.5,0.3c-0.8,0.1-2.4,0.1-3,0.4
		c-0.6,0.4-0.8,3.9,0.1,4.1C97.3,124.5,95.4,120.5,97.9,120.8z"/>
	<path class="st1" d="M119.9,117.6c0.2-0.6,1.2,2.2,1.1,1.9c0.3,1.1,0.4,2.4,0.4,3.5c0.1,1.1,0.1,2.2-0.2,3.2c-0.8,3-3,1.4-3.3-0.9
		c-0.2-1.5-0.3-3.2-0.5-4.8c-0.1-0.6-0.2-1.2-0.1-1.8c0.1-0.2,0.3-0.4,0.5-0.4c0.1-0.3,0.7-0.1,0.7-0.6c-0.1-0.6-3-0.3-3.4,0
		c-1.7,0.9,0.1,0.4,0.4,1c0.8,1.7,0.4,4.7,0.8,6.5c0.5,2.2,2.5,5,5.1,3.1c1.9-1.3,1.2-4.6,0.9-6.5c-0.1-0.9-0.5-2-0.3-2.9
		c0.1-0.4,0.7-1.1,0.6-1.4C122.3,116.7,120.2,116.7,119.9,117.6z"/>
	<path class="st1" d="M153.3,116.7c-0.1-0.8,0.7-3.1,0.3-3.7c-0.5,0.1-2.3-0.2-2.6,0.4c1.5,0.7,1.1,6.5,1.9,6.6
		c-0.8,0.1-2.3-3.1-2.6-3.6c-0.4-0.6-0.8-1.5-1.4-1.9c-0.9-0.6-1.8-0.2-2.8-0.5c-0.1,0.5,0.9,1,1.1,1.4c0.5,0.9,0.5,2.6,0.6,3.6
		c0.1,1,0.3,2.1,0.3,3.2c-0.1,1-0.7,2-0.5,3c1.3-0.9,3,0.7,2.1-1.5c-0.9-2.3-1.5-4.3-1.4-6.9c2,1.9,2.9,5.1,4.9,6.9
		c1.5,1.3,1-0.8,0.8-2.1C153.8,120,153.5,118.4,153.3,116.7z"/>
	<path class="st1" d="M157.1,112.6c-0.6,0.4-0.8,4.1,0.1,4.1c1.5,0.1-0.7-3.8,1.8-3.5c-0.2,1.6,1.7,9.4,0.2,10.2
		c0.9-0.4,3.9,0.8,4.2-0.5c0,0-1.6-2.1-1.7-2.4c-0.4-1.2-0.5-2.6-0.7-3.9c-0.1-0.5-0.6-3.3,0.1-3.6c1.3-0.6,1.5,2.7,2,3.2
		c1.3-0.5,0.4-3.9-0.5-4.3c-0.6-0.3-1.9,0.2-2.5,0.3C159.5,112.3,157.5,112.4,157.1,112.6z"/>
	<path class="st1" d="M109.1,67.4c1,2.3,0.5,5.7,0.6,8.2c0.1,3.4,0.2,6.8,0.5,10.3c0.3,3.5,0.1,7.1,0.6,10.6c0.1,1,0.5,2,0.1,3
		c-0.4,0.9-1.8,2.2-2.9,1.5c0.9,1-1.2,0.5-0.1,1.7c0.7,0.7,2.4,0.5,3.2,0.5c2.6-0.1,5.2-0.6,7.9-0.7c5.6-0.2,11.6-0.9,14.2-6.7
		c0-0.5-1.6,0.4-1.7,0.1c3.3-1.9,3.3-5.9,1.7-9c-0.9-1.8-2.3-3.1-3.8-4.5c-0.3-0.3-2.2-1.6-2.2-2c0,0.3,1.9-1.1,2-1.3
		c0.8-0.9,1.4-2.3,1.7-3.5c0.2-0.9,0.2-4.6,1.5-4.8c-1.5-0.2-2.5-4-3.3-5.1c-0.7-0.9-1.4-1.3-2.4-1.8c-1-0.4-2.3-1.4-3.2-1.6
		c-1.4-0.3-3.9,0.1-5.4,0.1c-1.2,0-2.3,0.2-3.4,0.3c-0.6,0.1-4,0.5-3.5-0.2c-1.5,0.9-4.8-0.6-5.9,0.9c-0.9,1.2,0.4,1.9,1.3,2.1
		C108.1,66.1,108.4,65.8,109.1,67.4z M126.9,88.1c0.3,3.9,1.3,8.3-2.5,10.9c-1.3,0.9-3,1.4-4.6,1.4c-1.9,0-3.4-0.5-1.5-2.2
		c-2,0.4,0.2-4.9-1.6-5.2c1.2-0.1-0.9-8.3-0.1-9.4c0.7-1,3.9-0.8,4.9-0.7C124,83.2,126.8,85.5,126.9,88.1z M116.1,65.3
		c0.3,0.2,0.4,0.1,0.4-0.3c-0.1,0.6,3,0,3.4,0c1.6,0,3.1,0.8,3.9,2.2c1.6,2.7,1.8,8.2,0,10.9c-1.5,2.4-7.4,3.9-7.6-0.2
		c-0.1-1.7,0.1-3.4-0.1-5.2C115.9,70.3,115.5,67.7,116.1,65.3z"/>
	<path class="st1" d="M152.9,84c-3.3-0.8-3.5-15.1-7.2-14c-2.6,0.8-2.2,15.8-4.5,15.4c1,1.5,0,4.5-0.4,6.1c-0.3,1.3-0.7,2.5-1,3.7
		c-0.2,0.8-0.3,2.6-1.2,1.9c0.3,1.4-2.8,2.8-1.2,4c0.8,0.6,4.4-0.1,5.2-0.5c0.5-0.2,1.3-0.5,1.1-1.3c-0.2-0.8-1.2-0.3-1.7-0.8
		c-1.4-1.2,0.1-4.7,1.2-5.8c-0.7,0.2-0.4-0.7-0.3-1c0.3-0.6,1.2-0.6,1.7-0.6c1.3-0.2,3.1-0.3,4.1,0.5c1.3,1.2,3.2,6.3,0.2,6.4
		c0.8,0.7-0.3,1.7,1,2.3c0.7,0.3,2.2-0.2,3-0.3c1.3-0.1,4.8,0.6,5.3-1.1c0.3-1.2-1-1.4-1.6-2c-1.1-1-1.5-2.1-1.9-3.6
		c-0.4-1.5-0.6-3-1.1-4.5C153.2,87.3,152.4,85.7,152.9,84z M144.2,89.2c-1.7,0.3,1.5-8.4,1-9.5c2.1,2.6,1.4,6.8,3.6,9.4
		C147.3,89.3,145.7,89.6,144.2,89.2z"/>
	<path class="st1" d="M179.9,95.9c-1.4-4.2,0-10.9-5.5-12.5c1.1-0.1,1.7-1.2,2.4-1.9c0.1-0.2,0.2-0.4,0.2-0.7c0.2,0,0.4,0,0.5,0
		c0.5-0.7,0.7-0.7,0.9-1.6c0.8-3.2-0.1-5.6-2.2-8c-0.4-0.4-0.8-1.4-1.2-1.7c-0.4-0.3-0.5-0.2-1.2-0.4c-1.4-0.4-2.4-0.4-3.9-0.1
		c-3.1,0.6-5.9,0-9,0.1c-0.7,0-1.9-0.2-2.3,0.6c-0.6,1.2,0.8,1.2,1.3,1.6c2.4,1.7,2.2,4.5,2.3,7.3c0.1,3.5,0.4,7,0.7,10.4
		c0.2,1.6,0.5,3.4,0.4,5c0,1.5-1,2.8-1.1,4.3c-0.9-0.4-2.7-0.3-1.4,1c0.7,0.7,3.2,0.1,4.1,0.1c0.8,0,5.1,0.2,5.6-0.9
		c0.3-0.6-1-1.1-1.4-1.3c-0.3,0-0.6,0-0.8,0c-0.1-0.5-0.2-1-0.3-1.6c-0.2-0.8-0.3-1.5-0.4-2.4c-0.1-1.5-0.3-3.1-0.4-4.6
		c-0.1-1.1-0.4-2.9,0.5-3.8c1.1-1,3.6-0.3,4.4,0.6c0.9-1.2,0.7,0.9,0.7,1.2c0.2,0.8,0.8,1.7,1,2.7c0.4,2,0.2,4,1.3,5.8
		c1,1.6,2.4,2.9,4.2,3.2c0.5,0.1,2.1,0.4,2.2-0.6C181.7,97.2,180.1,96.6,179.9,95.9z M173.2,79.2c-0.4,1.7-1,2.3-2.4,2.9
		c-1,0.4-3,1.2-3.8,0.1c-0.6-0.9,0-3.3,0-4.3c0.1-2,0.2-4.7-0.9-6.5c2.4,0.5,4.7-0.8,6.4,1.5C173.9,74.6,173.7,77.2,173.2,79.2z"/>
	<path class="st1" d="M55.4,131.6c0.5,0.8-0.1,2.4-0.2,3.2c-0.2-0.3-1.5-0.2-1.8-0.3c-1.1-0.5-1.1-0.2-0.8-1.7
		c0.3-1.7,1.2-4.4,3-5.1c-0.1-0.4-4.8-0.2-4.9,0.6c0-0.2,1.2,1.4,1.3,1.6c0.3,0.8,1.1,2.3-0.1,2.8c-1.1,0.5-2-1-2.6-1.7
		c-1.1-1.4-0.8-1.6-0.3-3c0.6-1.6,0.8-6.2-2.1-5.4c-1.9,0.6-1.7,2.4-1.5,3.9c0.2,1.4,0.1,2.2-0.3,3.6c-0.8,2.1-2.3,5-0.1,6.8
		c3.1,2.5,4.2-0.9,6.9-0.7c1.7,0.2,2.9,1.1,4-0.8C56.3,134.5,56.9,131.6,55.4,131.6z M48.7,125.9c-0.4,3.2-2.6,0.7-2.5-1.4
		C46.6,122.6,49,124.3,48.7,125.9z M45.9,131.3c1.5-2.1,4,4,4.2,3.8C48.6,137.4,43.8,134.2,45.9,131.3z"/>
	<path class="st1" d="M73.1,133.4c-0.6-1.6-0.2-4.1-2.3-4.6c2.1-0.4,1.6-3.9,0.3-4.9c-1.4-1.1-5-0.6-6.5,0.1
		c0.1,0.2,1.1,0.9,1.1,0.7c0.2,1.6,0.4,3.1,0.7,4.7c0.2,1.1,1,2.9,0.6,4.1c-0.3,0.8-1.3,1.2-0.5,1.6c0.8,0.4,2.6-0.3,3.4-0.5
		c-0.1-0.6-1-1.1-1.3-1.6c-0.2-0.4-0.3-1.1-0.3-1.6c-0.2-1.3,0-2.8,1.8-1.8c0.2,0.1,1.2,2.8,1.6,3.4
		C72.3,134.1,74.5,135.5,73.1,133.4z M70.1,127.7c-0.2,0.4-0.6,0.7-1.1,0.8c-0.9,0.2-0.7,0.2-1.1-0.5c-0.5-1,0.2-2.4-0.6-3.5
		C69.5,124.9,70.8,125.2,70.1,127.7z"/>
	<path class="st1" d="M112.9,128.6c-1.9-1.3-2.5-5.8-3.5-7.9c-1.1-2.2-1.8-1.9-2.2,0.3c-0.4,2.2-0.5,4.4-0.9,6.6
		c0-0.1-0.9,2.5-0.9,2.4c0.4,0.8,2,0.3,2.5-0.5c0.3-0.6-1.9-3.2,0.6-3.3c1.2-0.1,2.8,2.6,1.3,2.7c0.8,0.6,0.7,0.9,1.9,0.7
		c0.3-0.1,1.8-1.1,1.7-1.1C113.2,128.5,113.1,128.6,112.9,128.6z M109,125.6c-2.8,1.1-0.4-2.3-1-3.4c0.9,1,0.6,2.5,1.5,3.4
		C109.4,125.6,109.2,125.6,109,125.6z"/>
	<path class="st1" d="M133.9,125.9c-0.6-1.6-0.2-4.1-2.3-4.6c2.2-0.2,1.5-4,0.3-4.9c-1.4-1.1-5-0.6-6.5,0.1c0.1,0.2,1.1,0.9,1.1,0.7
		c0.2,1.6,0.4,3.1,0.7,4.7c0.2,1.1,1,2.9,0.6,4.1c-0.3,0.8-1.3,1.2-0.5,1.6c0.8,0.4,2.6-0.3,3.4-0.5c-0.1-0.6-1-1.1-1.3-1.6
		c-0.2-0.4-0.3-1.1-0.3-1.6c-0.2-1.3,0-2.8,1.8-1.7c0.2,0.1,1.2,2.8,1.6,3.4C133.2,126.7,135.3,128,133.9,125.9z M131,120.3
		c-0.5,1.2-1.8,1-2.3,0c-0.5-1,0.3-2.2-0.5-3.2C130.3,117.4,131.6,117.7,131,120.3z"/>
	<path class="st1" d="M144.4,124.7c-1.7-1-3-9.9-4.6-9.8c-1.1,0.1-1.4,4.9-1.5,5.7c-0.1,0.4-1.2,5.9-1.5,5.6
		c0.7,0.6,2.2-0.1,2.4-0.7c0.2-0.7-1.1-1.7-0.4-2.6c1.7-2.3,3.8,2,2.4,2.2c0.8,0.6,0.7,0.9,1.9,0.7c0.3-0.1,1.8-1.1,1.7-1.1
		C144.6,124.7,144.5,124.7,144.4,124.7z M140.5,121.8c-2.8,1.1-0.4-2.3-1-3.4c0.9,1,0.6,2.5,1.5,3.4
		C140.8,121.8,140.6,121.8,140.5,121.8z"/>
	<path d="M76,37c1.2,0,1.2-1,0-1S74.8,37,76,37z"/>
</g>
</svg>
