<?xml version="1.0" encoding="utf-8"?>
<!-- Generator: Adobe Illustrator 23.0.1, SVG Export Plug-In . SVG Version: 6.00 Build 0)  -->
<svg version="1.1" id="Layer_1" xmlns="http://www.w3.org/2000/svg" xmlns:xlink="http://www.w3.org/1999/xlink" x="0px" y="0px"
	 viewBox="0 0 16.7 4.4" style="enable-background:new 0 0 16.7 4.4;" xml:space="preserve">
<style type="text/css">
	.st0{fill:#B3B3B3;}
</style>
<g>
	<path class="st0" d="M8.2,4.3c-1.1,0-2.1-1-2.1-2.1c0-1.1,1-2.1,2.2-2.1c1.1,0,2.1,1.1,2.1,2.2C10.4,3.4,9.4,4.3,8.2,4.3z"/>
	<path class="st0" d="M4.5,2.3c0,1.2-0.9,2-2.2,2c-1.2,0-2.1-1.1-2.1-2.2c0.1-1.1,1.1-2.1,2.2-2C3.7,0.2,4.5,1.1,4.5,2.3z"/>
	<path class="st0" d="M14,0.1c1.2,0,2.1,0.9,2.2,2c0,1.2-0.8,2.1-2,2.2c-1.3,0-2.1-0.8-2.2-2C12,1.1,12.8,0.1,14,0.1z"/>
</g>
</svg>
