<svg xmlns="http://www.w3.org/2000/svg" viewBox="0 0 270 270"><defs><style>.cls-1{fill:#3e4348;}</style></defs><title>load_spin1_2</title>
<g id="Layer_2" data-name="Layer 2"></g>

<g id="ring1">

<animateTransform attributeName="transform"
    attributeType="XML"
    type="rotate"
    from="0 135 135"
    to="360 135 135"
    dur="4s"
    repeatCount="indefinite"/>

<path class="cls-1" d="M196.92,214c-1.8,1.48-3.75,2.77-5.64,4.14s-3.89,2.58-5.94,3.7A95.91,95.91,0,0,1,172.79,228l7.33,18a115.57,115.57,0,0,0,15-7.35c2.45-1.34,4.74-2.92,7.09-4.42s4.58-3.17,6.74-4.94Z"/>
<path class="cls-1" d="M41.56,98.62A100.79,100.79,0,0,1,75,54.62L63.32,39A120.17,120.17,0,0,0,23.41,91.56Z"/>
<path class="cls-1" d="M95.38,42.82a101.26,101.26,0,0,1,54.82-7l2.9-19.26a120.66,120.66,0,0,0-65.43,8.42Z"/>
</g>

<g id="ring2">

<animateTransform attributeName="transform"
    attributeType="XML"
    type="rotate"
    from="0 135 135"
    to="360 135 135"
    dur="1s"
    repeatCount="indefinite"/>

<path class="cls-1" d="M234.76,146.7a99.49,99.49,0,0,1-21.29,51l15.21,12.17a120.3,120.3,0,0,0,17-28.64,128,128,0,0,0,5.35-15.82c.35-1.35.64-2.72,1-4.07l.47-2,.38-2,.72-4.12.53-4.14Z"/>
<path class="cls-1" d="M150.38,234.21a101.47,101.47,0,0,1-54.83-7l-7.69,17.9A119.47,119.47,0,0,0,120,253.87a122.5,122.5,0,0,0,33.29-.4Z"/>
<path class="cls-1" d="M172.63,41.92l1.62.64,1.59.72c1.06.49,2.14.94,3.18,1.46,2.07,1.07,4.17,2.1,6.17,3.3s4,2.45,5.94,3.69,3.85,2.64,5.65,4.13l12-15.36c-2.16-1.76-4.48-3.3-6.74-4.93s-4.66-3.06-7.1-4.4-4.89-2.67-7.37-3.94c-1.25-.62-2.53-1.16-3.8-1.74l-1.9-.86-1.94-.78Z"/>
</g>

<g id="ring3">

<animateTransform attributeName="transform"
    attributeType="XML"
    type="rotate"
    from="360 135 135"
    to="0 135 135"
    dur="2s"
    repeatCount="indefinite"/>

<path class="cls-1" d="M75.14,215.49a100.78,100.78,0,0,1-33.51-44l-18.14,7.1a120.26,120.26,0,0,0,40,52.46Z"/>
<path class="cls-1" d="M35.74,149.05l-.45-3.47c-.12-1.16-.18-2.33-.28-3.49l-.13-1.75c0-.58,0-1.16-.05-1.75l-.09-3.5.08-3.5,0-1.75.13-1.75.27-3.49.44-3.47-19.29-2.67-.53,4.15-.32,4.16-.16,2.08-.06,2.09-.09,4.17.1,4.17c0,.69,0,1.39.07,2.08l.15,2.09c.11,1.38.2,2.77.34,4.16l.52,4.14Z"/>
<path class="cls-1" d="M213.36,72.2,215.52,75l2,2.86c.7.93,1.31,1.92,1.94,2.91s1.3,1.94,1.86,3a106.38,106.38,0,0,1,6.31,12.47,109,109,0,0,1,4.49,13.23c.32,1.13.54,2.27.81,3.4s.54,2.27.72,3.43l.61,3.44.45,3.47,19.34-2.28-.53-4.14-.73-4.12c-.22-1.37-.54-2.73-.86-4.09s-.59-2.72-1-4.06A118.24,118.24,0,0,0,238.08,73.7c-.68-1.22-1.48-2.36-2.21-3.54s-1.5-2.35-2.32-3.47l-2.43-3.4L228.55,60Z"/></g></svg>